<?xml version="1.0" standalone="no"?><!DOCTYPE svg PUBLIC "-//W3C//DTD SVG 1.1//EN" "http://www.w3.org/Graphics/SVG/1.1/DTD/svg11.dtd"><svg xmlns:xlink="http://www.w3.org/1999/xlink" version="1.1" style="font-family:'lucida grande', 'lucida sans unicode', arial, helvetica, sans-serif;font-size:12px;" xmlns="http://www.w3.org/2000/svg" width="600" height="400"><desc>Created with Highcharts 4.2.7</desc><defs><clipPath id="highcharts-49"><rect x="0" y="0" width="364" height="268"></rect></clipPath></defs><rect x="0" y="0" width="600" height="400" fill="#FFFFFF" class=" highcharts-background"></rect><path fill="none" d="M 73 329.5 L 437 329.5" stroke="#808080" stroke-width="1"></path><g class="highcharts-grid"></g><g class="highcharts-grid"><path fill="none" d="M 73 329.5 L 437 329.5" stroke="#D8D8D8" stroke-width="1" opacity="1"></path><path fill="none" d="M 73 275.5 L 437 275.5" stroke="#D8D8D8" stroke-width="1" opacity="1"></path><path fill="none" d="M 73 222.5 L 437 222.5" stroke="#D8D8D8" stroke-width="1" opacity="1"></path><path fill="none" d="M 73 168.5 L 437 168.5" stroke="#D8D8D8" stroke-width="1" opacity="1"></path><path fill="none" d="M 73 115.5 L 437 115.5" stroke="#D8D8D8" stroke-width="1" opacity="1"></path><path fill="none" d="M 73 60.5 L 437 60.5" stroke="#D8D8D8" stroke-width="1" opacity="1"></path></g><g class="highcharts-axis"><path fill="none" d="M 80.5 329 L 80.5 339" stroke="#C0D0E0" stroke-width="1" opacity="1"></path><path fill="none" d="M 112.5 329 L 112.5 339" stroke="#C0D0E0" stroke-width="1" opacity="1"></path><path fill="none" d="M 143.5 329 L 143.5 339" stroke="#C0D0E0" stroke-width="1" opacity="1"></path><path fill="none" d="M 175.5 329 L 175.5 339" stroke="#C0D0E0" stroke-width="1" opacity="1"></path><path fill="none" d="M 207.5 329 L 207.5 339" stroke="#C0D0E0" stroke-width="1" opacity="1"></path><path fill="none" d="M 238.5 329 L 238.5 339" stroke="#C0D0E0" stroke-width="1" opacity="1"></path><path fill="none" d="M 270.5 329 L 270.5 339" stroke="#C0D0E0" stroke-width="1" opacity="1"></path><path fill="none" d="M 301.5 329 L 301.5 339" stroke="#C0D0E0" stroke-width="1" opacity="1"></path><path fill="none" d="M 333.5 329 L 333.5 339" stroke="#C0D0E0" stroke-width="1" opacity="1"></path><path fill="none" d="M 365.5 329 L 365.5 339" stroke="#C0D0E0" stroke-width="1" opacity="1"></path><path fill="none" d="M 396.5 329 L 396.5 339" stroke="#C0D0E0" stroke-width="1" opacity="1"></path><path fill="none" d="M 428.5 329 L 428.5 339" stroke="#C0D0E0" stroke-width="1" opacity="1"></path><text x="255" text-anchor="middle" transform="translate(0,0)" class=" highcharts-xaxis-title" style="color:#707070;fill:#707070;" y="382.85879550717596"><tspan>Matrix Size (m = n = k)</tspan></text><path fill="none" d="M 73 329.5 L 437 329.5" stroke="#C0D0E0" stroke-width="1"></path></g><g class="highcharts-axis"><text x="23.65625" text-anchor="middle" transform="translate(0,0) rotate(270 23.65625 195)" class=" highcharts-yaxis-title" style="color:#707070;fill:#707070;" y="195">GFLOPS</text></g><g class="highcharts-series-group"><g class="highcharts-series highcharts-series-0" transform="translate(73,61) scale(1 1)" clip-path="url(#highcharts-49)"><path fill="none" d="M 7.9130434782609 182.24 L 23.739130434783 140.9480608 L 39.565217391304 121.44816639999999 L 55.391304347826 96.47999999999999 L 71.217391304348 93.40721920000001 L 87.04347826087 74.63714240000002 L 102.86956521739 75.48895359999997 L 118.69565217391 68.77523199999999 L 134.52173913043 69.65277119999999 L 150.34782608696 58.829215999999974 L 166.17391304348 46.627711999999974 L 182 41.533568 L 197.82608695652 41.65363199999999 L 213.65217391304 39.561087999999984 L 229.47826086957 37.8416 L 245.30434782609 44.97897599999996 L 261.13043478261 37.65078399999999 L 276.95652173913 34.62774399999998 L 292.78260869565 41.22483199999999 L 308.60869565217 35.545375999999976 L 324.4347826087 36.147839999999974 L 340.26086956522 34.98364799999999 L 356.08695652174 34.445504" stroke="#7cb5ec" stroke-width="2" stroke-linejoin="round" stroke-linecap="round"></path></g><g class="highcharts-markers highcharts-series-0" transform="translate(73,61) scale(1 1)" clip-path="none"><path fill="#7cb5ec" d="M 356 30.445504 C 361.328 30.445504 361.328 38.445504 356 38.445504 C 350.672 38.445504 350.672 30.445504 356 30.445504 Z"></path><path fill="#7cb5ec" d="M 340 30.983647999999988 C 345.328 30.983647999999988 345.328 38.98364799999999 340 38.98364799999999 C 334.672 38.98364799999999 334.672 30.983647999999988 340 30.983647999999988 Z"></path><path fill="#7cb5ec" d="M 324 32.147839999999974 C 329.328 32.147839999999974 329.328 40.147839999999974 324 40.147839999999974 C 318.672 40.147839999999974 318.672 32.147839999999974 324 32.147839999999974 Z"></path><path fill="#7cb5ec" d="M 308 31.545375999999976 C 313.328 31.545375999999976 313.328 39.545375999999976 308 39.545375999999976 C 302.672 39.545375999999976 302.672 31.545375999999976 308 31.545375999999976 Z"></path><path fill="#7cb5ec" d="M 292 37.22483199999999 C 297.328 37.22483199999999 297.328 45.22483199999999 292 45.22483199999999 C 286.672 45.22483199999999 286.672 37.22483199999999 292 37.22483199999999 Z"></path><path fill="#7cb5ec" d="M 276 30.62774399999998 C 281.328 30.62774399999998 281.328 38.62774399999998 276 38.62774399999998 C 270.672 38.62774399999998 270.672 30.62774399999998 276 30.62774399999998 Z"></path><path fill="#7cb5ec" d="M 261 33.65078399999999 C 266.328 33.65078399999999 266.328 41.65078399999999 261 41.65078399999999 C 255.672 41.65078399999999 255.672 33.65078399999999 261 33.65078399999999 Z"></path><path fill="#7cb5ec" d="M 245 40.97897599999996 C 250.328 40.97897599999996 250.328 48.97897599999996 245 48.97897599999996 C 239.672 48.97897599999996 239.672 40.97897599999996 245 40.97897599999996 Z"></path><path fill="#7cb5ec" d="M 229 33.8416 C 234.328 33.8416 234.328 41.8416 229 41.8416 C 223.672 41.8416 223.672 33.8416 229 33.8416 Z"></path><path fill="#7cb5ec" d="M 213 35.561087999999984 C 218.328 35.561087999999984 218.328 43.561087999999984 213 43.561087999999984 C 207.672 43.561087999999984 207.672 35.561087999999984 213 35.561087999999984 Z"></path><path fill="#7cb5ec" d="M 197 37.65363199999999 C 202.328 37.65363199999999 202.328 45.65363199999999 197 45.65363199999999 C 191.672 45.65363199999999 191.672 37.65363199999999 197 37.65363199999999 Z"></path><path fill="#7cb5ec" d="M 182 37.533568 C 187.328 37.533568 187.328 45.533568 182 45.533568 C 176.672 45.533568 176.672 37.533568 182 37.533568 Z"></path><path fill="#7cb5ec" d="M 166 42.627711999999974 C 171.328 42.627711999999974 171.328 50.627711999999974 166 50.627711999999974 C 160.672 50.627711999999974 160.672 42.627711999999974 166 42.627711999999974 Z"></path><path fill="#7cb5ec" d="M 150 54.829215999999974 C 155.328 54.829215999999974 155.328 62.829215999999974 150 62.829215999999974 C 144.672 62.829215999999974 144.672 54.829215999999974 150 54.829215999999974 Z"></path><path fill="#7cb5ec" d="M 134 65.65277119999999 C 139.328 65.65277119999999 139.328 73.65277119999999 134 73.65277119999999 C 128.672 73.65277119999999 128.672 65.65277119999999 134 65.65277119999999 Z"></path><path fill="#7cb5ec" d="M 118 64.77523199999999 C 123.328 64.77523199999999 123.328 72.77523199999999 118 72.77523199999999 C 112.672 72.77523199999999 112.672 64.77523199999999 118 64.77523199999999 Z"></path><path fill="#7cb5ec" d="M 102 71.48895359999997 C 107.328 71.48895359999997 107.328 79.48895359999997 102 79.48895359999997 C 96.672 79.48895359999997 96.672 71.48895359999997 102 71.48895359999997 Z"></path><path fill="#7cb5ec" d="M 87 70.63714240000002 C 92.328 70.63714240000002 92.328 78.63714240000002 87 78.63714240000002 C 81.672 78.63714240000002 81.672 70.63714240000002 87 70.63714240000002 Z"></path><path fill="#7cb5ec" d="M 71 89.40721920000001 C 76.328 89.40721920000001 76.328 97.40721920000001 71 97.40721920000001 C 65.672 97.40721920000001 65.672 89.40721920000001 71 89.40721920000001 Z"></path><path fill="#7cb5ec" d="M 55 92.47999999999999 C 60.328 92.47999999999999 60.328 100.47999999999999 55 100.47999999999999 C 49.672 100.47999999999999 49.672 92.47999999999999 55 92.47999999999999 Z"></path><path fill="#7cb5ec" d="M 39 117.44816639999999 C 44.328 117.44816639999999 44.328 125.44816639999999 39 125.44816639999999 C 33.672 125.44816639999999 33.672 117.44816639999999 39 117.44816639999999 Z"></path><path fill="#7cb5ec" d="M 23 136.9480608 C 28.328 136.9480608 28.328 144.9480608 23 144.9480608 C 17.672 144.9480608 17.672 136.9480608 23 136.9480608 Z"></path><path fill="#7cb5ec" d="M 7 178.24 C 12.328 178.24 12.328 186.24 7 186.24 C 1.672 186.24 1.672 178.24 7 178.24 Z"></path></g><g class="highcharts-series highcharts-series-1" transform="translate(73,61) scale(1 1)" clip-path="url(#highcharts-49)"><path fill="none" d="M 7.9130434782609 214.4 L 23.739130434783 164.0485888 L 39.565217391304 149.861312 L 55.391304347826 131.4666496 L 71.217391304348 113.97696959999999 L 87.04347826087 92.913456 L 102.86956521739 96.37987519999996 L 118.69565217391 84.27978240000002 L 134.52173913043 83.36022080000001 L 150.34782608696 84.43843839999997 L 166.17391304348 59.5663232 L 182 69.2975104 L 197.82608695652 56.34732159999999 L 213.65217391304 57.8071712 L 229.47826086957 58.09961279999999 L 245.30434782609 58.331807999999995 L 261.13043478261 58.381334399999986 L 276.95652173913 57.090003199999984 L 292.78260869565 57.0546272 L 308.60869565217 57.84233279999998 L 324.4347826087 54.03951999999998 L 340.26086956522 55.388739199999975 L 356.08695652174 56.45302079999999" stroke="#434348" stroke-width="2" stroke-linejoin="round" stroke-linecap="round"></path></g><g class="highcharts-markers highcharts-series-1" transform="translate(73,61) scale(1 1)" clip-path="none"><path fill="#434348" d="M 356 52.45302079999999 L 360 56.45302079999999 356 60.45302079999999 352 56.45302079999999 Z"></path><path fill="#434348" d="M 340 51.388739199999975 L 344 55.388739199999975 340 59.388739199999975 336 55.388739199999975 Z"></path><path fill="#434348" d="M 324 50.03951999999998 L 328 54.03951999999998 324 58.03951999999998 320 54.03951999999998 Z"></path><path fill="#434348" d="M 308 53.84233279999998 L 312 57.84233279999998 308 61.84233279999998 304 57.84233279999998 Z"></path><path fill="#434348" d="M 292 53.0546272 L 296 57.0546272 292 61.0546272 288 57.0546272 Z"></path><path fill="#434348" d="M 276 53.090003199999984 L 280 57.090003199999984 276 61.090003199999984 272 57.090003199999984 Z"></path><path fill="#434348" d="M 261 54.381334399999986 L 265 58.381334399999986 261 62.381334399999986 257 58.381334399999986 Z"></path><path fill="#434348" d="M 245 54.331807999999995 L 249 58.331807999999995 245 62.331807999999995 241 58.331807999999995 Z"></path><path fill="#434348" d="M 229 54.09961279999999 L 233 58.09961279999999 229 62.09961279999999 225 58.09961279999999 Z"></path><path fill="#434348" d="M 213 53.8071712 L 217 57.8071712 213 61.8071712 209 57.8071712 Z"></path><path fill="#434348" d="M 197 52.34732159999999 L 201 56.34732159999999 197 60.34732159999999 193 56.34732159999999 Z"></path><path fill="#434348" d="M 182 65.2975104 L 186 69.2975104 182 73.2975104 178 69.2975104 Z"></path><path fill="#434348" d="M 166 55.5663232 L 170 59.5663232 166 63.5663232 162 59.5663232 Z"></path><path fill="#434348" d="M 150 80.43843839999997 L 154 84.43843839999997 150 88.43843839999997 146 84.43843839999997 Z"></path><path fill="#434348" d="M 134 79.36022080000001 L 138 83.36022080000001 134 87.36022080000001 130 83.36022080000001 Z"></path><path fill="#434348" d="M 118 80.27978240000002 L 122 84.27978240000002 118 88.27978240000002 114 84.27978240000002 Z"></path><path fill="#434348" d="M 102 92.37987519999996 L 106 96.37987519999996 102 100.37987519999996 98 96.37987519999996 Z"></path><path fill="#434348" d="M 87 88.913456 L 91 92.913456 87 96.913456 83 92.913456 Z"></path><path fill="#434348" d="M 71 109.97696959999999 L 75 113.97696959999999 71 117.97696959999999 67 113.97696959999999 Z"></path><path fill="#434348" d="M 55 127.46664960000001 L 59 131.4666496 55 135.4666496 51 131.4666496 Z"></path><path fill="#434348" d="M 39 145.861312 L 43 149.861312 39 153.861312 35 149.861312 Z"></path><path fill="#434348" d="M 23 160.0485888 L 27 164.0485888 23 168.0485888 19 164.0485888 Z"></path><path fill="#434348" d="M 7 210.4 L 11 214.4 7 218.4 3 214.4 Z"></path></g><g class="highcharts-series highcharts-series-2" transform="translate(73,61) scale(1 1)" clip-path="url(#highcharts-49)"><path fill="none" d="M 7.9130434782609 214.4 L 23.739130434783 182.24 L 39.565217391304 125.0665952 L 55.391304347826 100.66337279999999 L 71.217391304348 109.88793279999999 L 87.04347826087 99.59844799999999 L 102.86956521739 87.53566079999999 L 118.69565217391 86.40727359999997 L 134.52173913043 81.82061439999998 L 150.34782608696 91.10220479999998 L 166.17391304348 50.95430399999998 L 182 43.055807999999985 L 197.82608695652 39.205183999999974 L 213.65217391304 40.59449599999999 L 229.47826086957 35.47891199999998 L 245.30434782609 37.40851199999997 L 261.13043478261 34.19465600000001 L 276.95652173913 33.20198399999998 L 292.78260869565 30.573439999999977 L 308.60869565217 31.165183999999982 L 324.4347826087 29.237727999999976 L 340.26086956522 28.13142399999998 L 356.08695652174 27.614719999999977" stroke="#90ed7d" stroke-width="2" stroke-linejoin="round" stroke-linecap="round"></path></g><g class="highcharts-markers highcharts-series-2" transform="translate(73,61) scale(1 1)" clip-path="none"><path fill="#90ed7d" d="M 352 23.614719999999977 L 360 23.614719999999977 360 31.614719999999977 352 31.614719999999977 Z"></path><path fill="#90ed7d" d="M 336 24.13142399999998 L 344 24.13142399999998 344 32.13142399999998 336 32.13142399999998 Z"></path><path fill="#90ed7d" d="M 320 25.237727999999976 L 328 25.237727999999976 328 33.237727999999976 320 33.237727999999976 Z"></path><path fill="#90ed7d" d="M 304 27.165183999999982 L 312 27.165183999999982 312 35.16518399999998 304 35.16518399999998 Z"></path><path fill="#90ed7d" d="M 288 26.573439999999977 L 296 26.573439999999977 296 34.57343999999998 288 34.57343999999998 Z"></path><path fill="#90ed7d" d="M 272 29.20198399999998 L 280 29.20198399999998 280 37.20198399999998 272 37.20198399999998 Z"></path><path fill="#90ed7d" d="M 257 30.19465600000001 L 265 30.19465600000001 265 38.19465600000001 257 38.19465600000001 Z"></path><path fill="#90ed7d" d="M 241 33.40851199999997 L 249 33.40851199999997 249 41.40851199999997 241 41.40851199999997 Z"></path><path fill="#90ed7d" d="M 225 31.47891199999998 L 233 31.47891199999998 233 39.47891199999998 225 39.47891199999998 Z"></path><path fill="#90ed7d" d="M 209 36.59449599999999 L 217 36.59449599999999 217 44.59449599999999 209 44.59449599999999 Z"></path><path fill="#90ed7d" d="M 193 35.205183999999974 L 201 35.205183999999974 201 43.205183999999974 193 43.205183999999974 Z"></path><path fill="#90ed7d" d="M 178 39.055807999999985 L 186 39.055807999999985 186 47.055807999999985 178 47.055807999999985 Z"></path><path fill="#90ed7d" d="M 162 46.95430399999998 L 170 46.95430399999998 170 54.95430399999998 162 54.95430399999998 Z"></path><path fill="#90ed7d" d="M 146 87.10220479999998 L 154 87.10220479999998 154 95.10220479999998 146 95.10220479999998 Z"></path><path fill="#90ed7d" d="M 130 77.82061439999998 L 138 77.82061439999998 138 85.82061439999998 130 85.82061439999998 Z"></path><path fill="#90ed7d" d="M 114 82.40727359999997 L 122 82.40727359999997 122 90.40727359999997 114 90.40727359999997 Z"></path><path fill="#90ed7d" d="M 98 83.53566079999999 L 106 83.53566079999999 106 91.53566079999999 98 91.53566079999999 Z"></path><path fill="#90ed7d" d="M 83 95.59844799999999 L 91 95.59844799999999 91 103.59844799999999 83 103.59844799999999 Z"></path><path fill="#90ed7d" d="M 67 105.88793279999999 L 75 105.88793279999999 75 113.88793279999999 67 113.88793279999999 Z"></path><path fill="#90ed7d" d="M 51 96.66337279999999 L 59 96.66337279999999 59 104.66337279999999 51 104.66337279999999 Z"></path><path fill="#90ed7d" d="M 35 121.0665952 L 43 121.0665952 43 129.0665952 35 129.0665952 Z"></path><path fill="#90ed7d" d="M 19 178.24 L 27 178.24 27 186.24 19 186.24 Z"></path><path fill="#90ed7d" d="M 3 210.4 L 11 210.4 11 218.4 3 218.4 Z"></path></g><g class="highcharts-series highcharts-series-3" transform="translate(73,61) scale(1 1)" clip-path="url(#highcharts-49)"><path fill="none" d="M 7.9130434782609 229.0182208 L 23.739130434783 217.5529664 L 39.565217391304 213.64509759999999 L 55.391304347826 210.9455872 L 71.217391304348 209.7391584 L 87.04347826087 208.5895456 L 102.86956521739 209.9121792 L 118.69565217391 205.52255359999998 L 134.52173913043 209.0865248 L 150.34782608696 204.7457824 L 166.17391304348 200.8675008 L 182 199.8587488 L 197.82608695652 199.9961792 L 213.65217391304 200.1561216 L 229.47826086957 200.317136 L 245.30434782609 200.625872 L 261.13043478261 200.6897632 L 276.95652173913 200.2944096 L 292.78260869565 200.14776 L 308.60869565217 200.7982496 L 324.4347826087 200.58535039999998 L 340.26086956522 202.054848 L 356.08695652174 201.245488" stroke="#f7a35c" stroke-width="2" stroke-linejoin="round" stroke-linecap="round"></path></g><g class="highcharts-markers highcharts-series-3" transform="translate(73,61) scale(1 1)" clip-path="none"><path fill="#f7a35c" d="M 356 197.245488 L 360 205.245488 352 205.245488 Z"></path><path fill="#f7a35c" d="M 340 198.054848 L 344 206.054848 336 206.054848 Z"></path><path fill="#f7a35c" d="M 324 196.58535039999998 L 328 204.58535039999998 320 204.58535039999998 Z"></path><path fill="#f7a35c" d="M 308 196.7982496 L 312 204.7982496 304 204.7982496 Z"></path><path fill="#f7a35c" d="M 292 196.14776 L 296 204.14776 288 204.14776 Z"></path><path fill="#f7a35c" d="M 276 196.2944096 L 280 204.2944096 272 204.2944096 Z"></path><path fill="#f7a35c" d="M 261 196.6897632 L 265 204.6897632 257 204.6897632 Z"></path><path fill="#f7a35c" d="M 245 196.625872 L 249 204.625872 241 204.625872 Z"></path><path fill="#f7a35c" d="M 229 196.317136 L 233 204.317136 225 204.317136 Z"></path><path fill="#f7a35c" d="M 213 196.1561216 L 217 204.1561216 209 204.1561216 Z"></path><path fill="#f7a35c" d="M 197 195.9961792 L 201 203.9961792 193 203.9961792 Z"></path><path fill="#f7a35c" d="M 182 195.8587488 L 186 203.8587488 178 203.8587488 Z"></path><path fill="#f7a35c" d="M 166 196.8675008 L 170 204.8675008 162 204.8675008 Z"></path><path fill="#f7a35c" d="M 150 200.7457824 L 154 208.7457824 146 208.7457824 Z"></path><path fill="#f7a35c" d="M 134 205.0865248 L 138 213.0865248 130 213.0865248 Z"></path><path fill="#f7a35c" d="M 118 201.52255359999998 L 122 209.52255359999998 114 209.52255359999998 Z"></path><path fill="#f7a35c" d="M 102 205.9121792 L 106 213.9121792 98 213.9121792 Z"></path><path fill="#f7a35c" d="M 87 204.5895456 L 91 212.5895456 83 212.5895456 Z"></path><path fill="#f7a35c" d="M 71 205.7391584 L 75 213.7391584 67 213.7391584 Z"></path><path fill="#f7a35c" d="M 55 206.9455872 L 59 214.9455872 51 214.9455872 Z"></path><path fill="#f7a35c" d="M 39 209.64509759999999 L 43 217.64509759999999 35 217.64509759999999 Z"></path><path fill="#f7a35c" d="M 23 213.5529664 L 27 221.5529664 19 221.5529664 Z"></path><path fill="#f7a35c" d="M 7 225.0182208 L 11 233.0182208 3 233.0182208 Z"></path></g></g><text x="280" text-anchor="middle" class="highcharts-title" style="color:#333333;font-size:18px;fill:#333333;width:536px;" y="24"><tspan>General Matrix-matrix Multiplication</tspan></text><text x="280" text-anchor="middle" class="highcharts-subtitle" style="color:#555555;fill:#555555;width:536px;" y="46"><tspan>Complex double precision</tspan></text><g class="highcharts-legend" transform="translate(449,164)"><g><g><g class="highcharts-legend-item" transform="translate(8,3)"><path fill="none" d="M 0 11 L 16 11" stroke="#7cb5ec" stroke-width="2"></path><path fill="#7cb5ec" d="M 8 7 C 13.328 7 13.328 15 8 15 C 2.6719999999999997 15 2.6719999999999997 7 8 7 Z"></path><text x="21" style="color:#333333;font-size:12px;font-weight:bold;cursor:pointer;fill:#333333;" text-anchor="start" y="15"><tspan>Mir GLAS</tspan></text></g><g class="highcharts-legend-item" transform="translate(8,17)"><path fill="none" d="M 0 11 L 16 11" stroke="#434348" stroke-width="2"></path><path fill="#434348" d="M 8 7 L 12 11 8 15 4 11 Z"></path><text x="21" y="15" style="color:#333333;font-size:12px;font-weight:bold;cursor:pointer;fill:#333333;" text-anchor="start">OpenBLAS</text></g><g class="highcharts-legend-item" transform="translate(8,31)"><path fill="none" d="M 0 11 L 16 11" stroke="#90ed7d" stroke-width="2"></path><path fill="#90ed7d" d="M 4 7 L 12 7 12 15 4 15 Z"></path><text x="21" y="15" style="color:#333333;font-size:12px;font-weight:bold;cursor:pointer;fill:#333333;" text-anchor="start"><tspan>Intel MKL</tspan></text></g><g class="highcharts-legend-item" transform="translate(8,45)"><path fill="none" d="M 0 11 L 16 11" stroke="#f7a35c" stroke-width="2"></path><path fill="#f7a35c" d="M 8 7 L 12 15 4 15 Z"></path><text x="21" y="15" style="color:#333333;font-size:12px;font-weight:bold;cursor:pointer;fill:#333333;" text-anchor="start"><tspan>Apple Accelerate</tspan></text></g></g></g></g><g class="highcharts-axis-labels highcharts-xaxis-labels"><text x="83.50576834261155" style="color:#606060;cursor:default;font-size:11px;fill:#606060;width:400px;text-overflow:ellipsis;" text-anchor="end" transform="translate(0,0) rotate(-45 83.50576834261155 345)" y="345" opacity="1"><tspan>10</tspan></text><text x="115.15794225565502" style="color:#606060;cursor:default;font-size:11px;fill:#606060;width:400px;text-overflow:ellipsis;" text-anchor="end" transform="translate(0,0) rotate(-45 115.15794225565502 345)" y="345" opacity="1"><tspan>30</tspan></text><text x="146.8101161686985" style="color:#606060;cursor:default;font-size:11px;fill:#606060;width:400px;text-overflow:ellipsis;" text-anchor="end" transform="translate(0,0) rotate(-45 146.8101161686985 345)" y="345" opacity="1"><tspan>50</tspan></text><text x="178.462290081742" style="color:#606060;cursor:default;font-size:11px;fill:#606060;width:400px;text-overflow:ellipsis;" text-anchor="end" transform="translate(0,0) rotate(-45 178.462290081742 345)" y="345" opacity="1"><tspan>70</tspan></text><text x="210.11446399478547" style="color:#606060;cursor:default;font-size:11px;fill:#606060;width:400px;text-overflow:ellipsis;" text-anchor="end" transform="translate(0,0) rotate(-45 210.11446399478547 345)" y="345" opacity="1"><tspan>90</tspan></text><text x="241.76663790782894" style="color:#606060;cursor:default;font-size:11px;fill:#606060;width:400px;text-overflow:ellipsis;" text-anchor="end" transform="translate(0,0) rotate(-45 241.76663790782894 345)" y="345" opacity="1"><tspan>200</tspan></text><text x="273.4188118208724" style="color:#606060;cursor:default;font-size:11px;fill:#606060;width:400px;text-overflow:ellipsis;" text-anchor="end" transform="translate(0,0) rotate(-45 273.4188118208724 345)" y="345" opacity="1"><tspan>500</tspan></text><text x="305.0709857339159" style="color:#606060;cursor:default;font-size:11px;fill:#606060;width:400px;text-overflow:ellipsis;" text-anchor="end" transform="translate(0,0) rotate(-45 305.0709857339159 345)" y="345" opacity="1"><tspan>700</tspan></text><text x="336.72315964695935" style="color:#606060;cursor:default;font-size:11px;fill:#606060;width:400px;text-overflow:ellipsis;" text-anchor="end" transform="translate(0,0) rotate(-45 336.72315964695935 345)" y="345" opacity="1"><tspan>900</tspan></text><text x="368.37533356000284" style="color:#606060;cursor:default;font-size:11px;fill:#606060;width:400px;text-overflow:ellipsis;" text-anchor="end" transform="translate(0,0) rotate(-45 368.37533356000284 345)" y="345" opacity="1"><tspan>1200</tspan></text><text x="400.0275074730463" style="color:#606060;cursor:default;font-size:11px;fill:#606060;width:400px;text-overflow:ellipsis;" text-anchor="end" transform="translate(0,0) rotate(-45 400.0275074730463 345)" y="345" opacity="1"><tspan>1600</tspan></text><text x="431.6796813860898" style="color:#606060;cursor:default;font-size:11px;fill:#606060;width:400px;text-overflow:ellipsis;" text-anchor="end" transform="translate(0,0) rotate(-45 431.6796813860898 345)" y="345" opacity="1"><tspan>2000</tspan></text></g><g class="highcharts-axis-labels highcharts-yaxis-labels"><text x="58" style="color:#606060;cursor:default;font-size:11px;fill:#606060;width:188px;text-overflow:clip;" text-anchor="end" transform="translate(0,0)" y="334" opacity="1"><tspan>0</tspan></text><text x="58" style="color:#606060;cursor:default;font-size:11px;fill:#606060;width:188px;text-overflow:clip;" text-anchor="end" transform="translate(0,0)" y="280" opacity="1"><tspan>2.5</tspan></text><text x="58" style="color:#606060;cursor:default;font-size:11px;fill:#606060;width:188px;text-overflow:clip;" text-anchor="end" transform="translate(0,0)" y="226" opacity="1"><tspan>5</tspan></text><text x="58" style="color:#606060;cursor:default;font-size:11px;fill:#606060;width:188px;text-overflow:clip;" text-anchor="end" transform="translate(0,0)" y="173" opacity="1"><tspan>7.5</tspan></text><text x="58" style="color:#606060;cursor:default;font-size:11px;fill:#606060;width:188px;text-overflow:clip;" text-anchor="end" transform="translate(0,0)" y="119" opacity="1"><tspan>10</tspan></text><text x="58" style="color:#606060;cursor:default;font-size:11px;fill:#606060;width:188px;text-overflow:clip;" text-anchor="end" transform="translate(0,0)" y="66" opacity="1"><tspan>12.5</tspan></text></g><g class="highcharts-tooltip" display="none" style="cursor:default;padding:0;pointer-events:none;white-space:nowrap;" transform="translate(0,0)"><path fill="none" d="M 3.5 0.5 L 13.5 0.5 C 16.5 0.5 16.5 0.5 16.5 3.5 L 16.5 13.5 C 16.5 16.5 16.5 16.5 13.5 16.5 L 3.5 16.5 C 0.5 16.5 0.5 16.5 0.5 13.5 L 0.5 3.5 C 0.5 0.5 0.5 0.5 3.5 0.5"  stroke="black" stroke-opacity="0.049999999999999996" stroke-width="5" transform="translate(1, 1)"></path><path fill="none" d="M 3.5 0.5 L 13.5 0.5 C 16.5 0.5 16.5 0.5 16.5 3.5 L 16.5 13.5 C 16.5 16.5 16.5 16.5 13.5 16.5 L 3.5 16.5 C 0.5 16.5 0.5 16.5 0.5 13.5 L 0.5 3.5 C 0.5 0.5 0.5 0.5 3.5 0.5"  stroke="black" stroke-opacity="0.09999999999999999" stroke-width="3" transform="translate(1, 1)"></path><path fill="none" d="M 3.5 0.5 L 13.5 0.5 C 16.5 0.5 16.5 0.5 16.5 3.5 L 16.5 13.5 C 16.5 16.5 16.5 16.5 13.5 16.5 L 3.5 16.5 C 0.5 16.5 0.5 16.5 0.5 13.5 L 0.5 3.5 C 0.5 0.5 0.5 0.5 3.5 0.5"  stroke="black" stroke-opacity="0.15" stroke-width="1" transform="translate(1, 1)"></path><path fill="rgb(249, 249, 249)" fill-opacity=" .85" d="M 3.5 0.5 L 13.5 0.5 C 16.5 0.5 16.5 0.5 16.5 3.5 L 16.5 13.5 C 16.5 16.5 16.5 16.5 13.5 16.5 L 3.5 16.5 C 0.5 16.5 0.5 16.5 0.5 13.5 L 0.5 3.5 C 0.5 0.5 0.5 0.5 3.5 0.5"></path><text x="8" style="font-size:12px;color:#333333;fill:#333333;" y="20"></text></g><text x="590" text-anchor="end" style="cursor:pointer;color:#909090;font-size:9px;fill:#909090;" y="395">Highcharts.com</text></svg>