<?xml version="1.0" standalone="no"?><!DOCTYPE svg PUBLIC "-//W3C//DTD SVG 1.1//EN" "http://www.w3.org/Graphics/SVG/1.1/DTD/svg11.dtd"><svg xmlns:xlink="http://www.w3.org/1999/xlink" version="1.1" style="font-family:'lucida grande', 'lucida sans unicode', arial, helvetica, sans-serif;font-size:12px;" xmlns="http://www.w3.org/2000/svg" width="600" height="400"><desc>Created with Highcharts 4.2.7</desc><defs><clipPath id="highcharts-35"><rect x="0" y="0" width="374" height="268"></rect></clipPath></defs><rect x="0" y="0" width="600" height="400" fill="#FFFFFF" class=" highcharts-background"></rect><path fill="none" d="M 63 329.5 L 437 329.5" stroke="#808080" stroke-width="1"></path><g class="highcharts-grid"></g><g class="highcharts-grid"><path fill="none" d="M 63 329.5 L 437 329.5" stroke="#D8D8D8" stroke-width="1" opacity="1"></path><path fill="none" d="M 63 275.5 L 437 275.5" stroke="#D8D8D8" stroke-width="1" opacity="1"></path><path fill="none" d="M 63 222.5 L 437 222.5" stroke="#D8D8D8" stroke-width="1" opacity="1"></path><path fill="none" d="M 63 168.5 L 437 168.5" stroke="#D8D8D8" stroke-width="1" opacity="1"></path><path fill="none" d="M 63 115.5 L 437 115.5" stroke="#D8D8D8" stroke-width="1" opacity="1"></path><path fill="none" d="M 63 60.5 L 437 60.5" stroke="#D8D8D8" stroke-width="1" opacity="1"></path></g><g class="highcharts-axis"><path fill="none" d="M 70.5 329 L 70.5 339" stroke="#C0D0E0" stroke-width="1" opacity="1"></path><path fill="none" d="M 103.5 329 L 103.5 339" stroke="#C0D0E0" stroke-width="1" opacity="1"></path><path fill="none" d="M 135.5 329 L 135.5 339" stroke="#C0D0E0" stroke-width="1" opacity="1"></path><path fill="none" d="M 168.5 329 L 168.5 339" stroke="#C0D0E0" stroke-width="1" opacity="1"></path><path fill="none" d="M 200.5 329 L 200.5 339" stroke="#C0D0E0" stroke-width="1" opacity="1"></path><path fill="none" d="M 233.5 329 L 233.5 339" stroke="#C0D0E0" stroke-width="1" opacity="1"></path><path fill="none" d="M 265.5 329 L 265.5 339" stroke="#C0D0E0" stroke-width="1" opacity="1"></path><path fill="none" d="M 298.5 329 L 298.5 339" stroke="#C0D0E0" stroke-width="1" opacity="1"></path><path fill="none" d="M 330.5 329 L 330.5 339" stroke="#C0D0E0" stroke-width="1" opacity="1"></path><path fill="none" d="M 363.5 329 L 363.5 339" stroke="#C0D0E0" stroke-width="1" opacity="1"></path><path fill="none" d="M 395.5 329 L 395.5 339" stroke="#C0D0E0" stroke-width="1" opacity="1"></path><path fill="none" d="M 428.5 329 L 428.5 339" stroke="#C0D0E0" stroke-width="1" opacity="1"></path><text x="250" text-anchor="middle" transform="translate(0,0)" class=" highcharts-xaxis-title" style="color:#707070;fill:#707070;" y="382.85879550717596"><tspan>Matrix Size (m = n = k)</tspan></text><path fill="none" d="M 63 329.5 L 437 329.5" stroke="#C0D0E0" stroke-width="1"></path></g><g class="highcharts-axis"><text x="24.09375" text-anchor="middle" transform="translate(0,0) rotate(270 24.09375 195)" class=" highcharts-yaxis-title" style="color:#707070;fill:#707070;" y="195">GFLOPS</text></g><g class="highcharts-series-group"><g class="highcharts-series highcharts-series-0" transform="translate(63,61) scale(1 1)" clip-path="url(#highcharts-35)"><path fill="none" d="M 8.1304347826087 214.4 L 24.391304347826 160.8 L 40.652173913043 130.17135199999998 L 56.913043478261 112.07277599999998 L 73.173913043478 117.43813599999999 L 89.434782608696 97.74120799999997 L 105.69565217391 97.770152 L 121.95652173913 90.37388799999997 L 138.21739130435 82.813072 L 154.47826086957 78.60064799999998 L 170.73913043478 58.931055999999984 L 187 47.977359999999976 L 203.26086956522 49.20640800000001 L 219.52173913043 47.21356 L 235.78260869565 50.11760799999996 L 252.04347826087 54.598568 L 268.30434782609 51.549263999999994 L 284.5652173913 46.67487999999997 L 300.82608695652 53.93446399999996 L 317.08695652174 47.93930399999999 L 333.34782608696 57.08828799999998 L 349.60869565217 53.30412799999999 L 365.86956521739 42.99041599999998" stroke="#7cb5ec" stroke-width="2" stroke-linejoin="round" stroke-linecap="round"></path></g><g class="highcharts-markers highcharts-series-0" transform="translate(63,61) scale(1 1)" clip-path="none"><path fill="#7cb5ec" d="M 365 38.99041599999998 C 370.328 38.99041599999998 370.328 46.99041599999998 365 46.99041599999998 C 359.672 46.99041599999998 359.672 38.99041599999998 365 38.99041599999998 Z"></path><path fill="#7cb5ec" d="M 349 49.30412799999999 C 354.328 49.30412799999999 354.328 57.30412799999999 349 57.30412799999999 C 343.672 57.30412799999999 343.672 49.30412799999999 349 49.30412799999999 Z"></path><path fill="#7cb5ec" d="M 333 53.08828799999998 C 338.328 53.08828799999998 338.328 61.08828799999998 333 61.08828799999998 C 327.672 61.08828799999998 327.672 53.08828799999998 333 53.08828799999998 Z"></path><path fill="#7cb5ec" d="M 317 43.93930399999999 C 322.328 43.93930399999999 322.328 51.93930399999999 317 51.93930399999999 C 311.672 51.93930399999999 311.672 43.93930399999999 317 43.93930399999999 Z"></path><path fill="#7cb5ec" d="M 300 49.93446399999996 C 305.328 49.93446399999996 305.328 57.93446399999996 300 57.93446399999996 C 294.672 57.93446399999996 294.672 49.93446399999996 300 49.93446399999996 Z"></path><path fill="#7cb5ec" d="M 284 42.67487999999997 C 289.328 42.67487999999997 289.328 50.67487999999997 284 50.67487999999997 C 278.672 50.67487999999997 278.672 42.67487999999997 284 42.67487999999997 Z"></path><path fill="#7cb5ec" d="M 268 47.549263999999994 C 273.328 47.549263999999994 273.328 55.549263999999994 268 55.549263999999994 C 262.672 55.549263999999994 262.672 47.549263999999994 268 47.549263999999994 Z"></path><path fill="#7cb5ec" d="M 252 50.598568 C 257.328 50.598568 257.328 58.598568 252 58.598568 C 246.672 58.598568 246.672 50.598568 252 50.598568 Z"></path><path fill="#7cb5ec" d="M 235 46.11760799999996 C 240.328 46.11760799999996 240.328 54.11760799999996 235 54.11760799999996 C 229.672 54.11760799999996 229.672 46.11760799999996 235 46.11760799999996 Z"></path><path fill="#7cb5ec" d="M 219 43.21356 C 224.328 43.21356 224.328 51.21356 219 51.21356 C 213.672 51.21356 213.672 43.21356 219 43.21356 Z"></path><path fill="#7cb5ec" d="M 203 45.20640800000001 C 208.328 45.20640800000001 208.328 53.20640800000001 203 53.20640800000001 C 197.672 53.20640800000001 197.672 45.20640800000001 203 45.20640800000001 Z"></path><path fill="#7cb5ec" d="M 187 43.977359999999976 C 192.328 43.977359999999976 192.328 51.977359999999976 187 51.977359999999976 C 181.672 51.977359999999976 181.672 43.977359999999976 187 43.977359999999976 Z"></path><path fill="#7cb5ec" d="M 170 54.931055999999984 C 175.328 54.931055999999984 175.328 62.931055999999984 170 62.931055999999984 C 164.672 62.931055999999984 164.672 54.931055999999984 170 54.931055999999984 Z"></path><path fill="#7cb5ec" d="M 154 74.60064799999998 C 159.328 74.60064799999998 159.328 82.60064799999998 154 82.60064799999998 C 148.672 82.60064799999998 148.672 74.60064799999998 154 74.60064799999998 Z"></path><path fill="#7cb5ec" d="M 138 78.813072 C 143.328 78.813072 143.328 86.813072 138 86.813072 C 132.672 86.813072 132.672 78.813072 138 78.813072 Z"></path><path fill="#7cb5ec" d="M 121 86.37388799999997 C 126.328 86.37388799999997 126.328 94.37388799999997 121 94.37388799999997 C 115.672 94.37388799999997 115.672 86.37388799999997 121 86.37388799999997 Z"></path><path fill="#7cb5ec" d="M 105 93.770152 C 110.328 93.770152 110.328 101.770152 105 101.770152 C 99.672 101.770152 99.672 93.770152 105 93.770152 Z"></path><path fill="#7cb5ec" d="M 89 93.74120799999997 C 94.328 93.74120799999997 94.328 101.74120799999997 89 101.74120799999997 C 83.672 101.74120799999997 83.672 93.74120799999997 89 93.74120799999997 Z"></path><path fill="#7cb5ec" d="M 73 113.43813599999999 C 78.328 113.43813599999999 78.328 121.43813599999999 73 121.43813599999999 C 67.672 121.43813599999999 67.672 113.43813599999999 73 113.43813599999999 Z"></path><path fill="#7cb5ec" d="M 56 108.07277599999998 C 61.328 108.07277599999998 61.328 116.07277599999998 56 116.07277599999998 C 50.672 116.07277599999998 50.672 108.07277599999998 56 108.07277599999998 Z"></path><path fill="#7cb5ec" d="M 40 126.17135199999998 C 45.328 126.17135199999998 45.328 134.17135199999998 40 134.17135199999998 C 34.672 134.17135199999998 34.672 126.17135199999998 40 126.17135199999998 Z"></path><path fill="#7cb5ec" d="M 24 156.8 C 29.328 156.8 29.328 164.8 24 164.8 C 18.672 164.8 18.672 156.8 24 156.8 Z"></path><path fill="#7cb5ec" d="M 8 210.4 C 13.328 210.4 13.328 218.4 8 218.4 C 2.6719999999999997 218.4 2.6719999999999997 210.4 8 210.4 Z"></path></g><g class="highcharts-series highcharts-series-1" transform="translate(63,61) scale(1 1)" clip-path="url(#highcharts-35)"><path fill="none" d="M 8.1304347826087 232.26664879999998 L 24.391304347826 202.030728 L 40.652173913043 187.6 L 56.913043478261 175.286472 L 73.173913043478 159.056928 L 89.434782608696 145.48594400000002 L 105.69565217391 146.647992 L 121.95652173913 129.39790399999998 L 138.21739130435 126.937128 L 154.47826086957 115.075448 L 170.73913043478 82.653344 L 187 75.552952 L 203.26086956522 63.60711999999998 L 219.52173913043 58.39559199999999 L 235.78260869565 56.64179999999999 L 252.04347826087 56.692184 L 268.30434782609 56.03451199999998 L 284.5652173913 57.020216000000005 L 300.82608695652 56.538352 L 317.08695652174 57.55996799999997 L 333.34782608696 56.80099199999998 L 349.60869565217 55.18495199999998 L 365.86956521739 52.126000000000005" stroke="#434348" stroke-width="2" stroke-linejoin="round" stroke-linecap="round"></path></g><g class="highcharts-markers highcharts-series-1" transform="translate(63,61) scale(1 1)" clip-path="none"><path fill="#434348" d="M 365 48.126000000000005 L 369 52.126000000000005 365 56.126000000000005 361 52.126000000000005 Z"></path><path fill="#434348" d="M 349 51.18495199999998 L 353 55.18495199999998 349 59.18495199999998 345 55.18495199999998 Z"></path><path fill="#434348" d="M 333 52.80099199999998 L 337 56.80099199999998 333 60.80099199999998 329 56.80099199999998 Z"></path><path fill="#434348" d="M 317 53.55996799999997 L 321 57.55996799999997 317 61.55996799999997 313 57.55996799999997 Z"></path><path fill="#434348" d="M 300 52.538352 L 304 56.538352 300 60.538352 296 56.538352 Z"></path><path fill="#434348" d="M 284 53.020216000000005 L 288 57.020216000000005 284 61.020216000000005 280 57.020216000000005 Z"></path><path fill="#434348" d="M 268 52.03451199999998 L 272 56.03451199999998 268 60.03451199999998 264 56.03451199999998 Z"></path><path fill="#434348" d="M 252 52.692184 L 256 56.692184 252 60.692184 248 56.692184 Z"></path><path fill="#434348" d="M 235 52.64179999999999 L 239 56.64179999999999 235 60.64179999999999 231 56.64179999999999 Z"></path><path fill="#434348" d="M 219 54.39559199999999 L 223 58.39559199999999 219 62.39559199999999 215 58.39559199999999 Z"></path><path fill="#434348" d="M 203 59.60711999999998 L 207 63.60711999999998 203 67.60711999999998 199 63.60711999999998 Z"></path><path fill="#434348" d="M 187 71.552952 L 191 75.552952 187 79.552952 183 75.552952 Z"></path><path fill="#434348" d="M 170 78.653344 L 174 82.653344 170 86.653344 166 82.653344 Z"></path><path fill="#434348" d="M 154 111.075448 L 158 115.075448 154 119.075448 150 115.075448 Z"></path><path fill="#434348" d="M 138 122.937128 L 142 126.937128 138 130.937128 134 126.937128 Z"></path><path fill="#434348" d="M 121 125.39790399999998 L 125 129.39790399999998 121 133.39790399999998 117 129.39790399999998 Z"></path><path fill="#434348" d="M 105 142.647992 L 109 146.647992 105 150.647992 101 146.647992 Z"></path><path fill="#434348" d="M 89 141.48594400000002 L 93 145.48594400000002 89 149.48594400000002 85 145.48594400000002 Z"></path><path fill="#434348" d="M 73 155.056928 L 77 159.056928 73 163.056928 69 159.056928 Z"></path><path fill="#434348" d="M 56 171.286472 L 60 175.286472 56 179.286472 52 175.286472 Z"></path><path fill="#434348" d="M 40 183.6 L 44 187.6 40 191.6 36 187.6 Z"></path><path fill="#434348" d="M 24 198.030728 L 28 202.030728 24 206.030728 20 202.030728 Z"></path><path fill="#434348" d="M 8 228.26664879999998 L 12 232.26664879999998 8 236.26664879999998 4 232.26664879999998 Z"></path></g><g class="highcharts-series highcharts-series-2" transform="translate(63,61) scale(1 1)" clip-path="url(#highcharts-35)"><path fill="none" d="M 8.1304347826087 214.4 L 24.391304347826 160.8 L 40.652173913043 168.193048 L 56.913043478261 140.94816799999998 L 73.173913043478 145.064112 L 89.434782608696 129.34591199999997 L 105.69565217391 120.92159999999998 L 121.95652173913 98.072992 L 138.21739130435 104.85017599999998 L 154.47826086957 95.652952 L 170.73913043478 62.930687999999975 L 187 52.01612 L 203.26086956522 49.81208799999999 L 219.52173913043 47.04311199999998 L 235.78260869565 47.18943999999999 L 252.04347826087 45.47048799999999 L 268.30434782609 45.687568 L 284.5652173913 45.55249599999999 L 300.82608695652 41.99077599999998 L 317.08695652174 39.45174399999999 L 333.34782608696 40.28736799999999 L 349.60869565217 37.59289599999997 L 365.86956521739 35.83964" stroke="#90ed7d" stroke-width="2" stroke-linejoin="round" stroke-linecap="round"></path></g><g class="highcharts-markers highcharts-series-2" transform="translate(63,61) scale(1 1)" clip-path="none"><path fill="#90ed7d" d="M 361 31.839640000000003 L 369 31.839640000000003 369 39.83964 361 39.83964 Z"></path><path fill="#90ed7d" d="M 345 33.59289599999997 L 353 33.59289599999997 353 41.59289599999997 345 41.59289599999997 Z"></path><path fill="#90ed7d" d="M 329 36.28736799999999 L 337 36.28736799999999 337 44.28736799999999 329 44.28736799999999 Z"></path><path fill="#90ed7d" d="M 313 35.45174399999999 L 321 35.45174399999999 321 43.45174399999999 313 43.45174399999999 Z"></path><path fill="#90ed7d" d="M 296 37.99077599999998 L 304 37.99077599999998 304 45.99077599999998 296 45.99077599999998 Z"></path><path fill="#90ed7d" d="M 280 41.55249599999999 L 288 41.55249599999999 288 49.55249599999999 280 49.55249599999999 Z"></path><path fill="#90ed7d" d="M 264 41.687568 L 272 41.687568 272 49.687568 264 49.687568 Z"></path><path fill="#90ed7d" d="M 248 41.47048799999999 L 256 41.47048799999999 256 49.47048799999999 248 49.47048799999999 Z"></path><path fill="#90ed7d" d="M 231 43.18943999999999 L 239 43.18943999999999 239 51.18943999999999 231 51.18943999999999 Z"></path><path fill="#90ed7d" d="M 215 43.04311199999998 L 223 43.04311199999998 223 51.04311199999998 215 51.04311199999998 Z"></path><path fill="#90ed7d" d="M 199 45.81208799999999 L 207 45.81208799999999 207 53.81208799999999 199 53.81208799999999 Z"></path><path fill="#90ed7d" d="M 183 48.01612 L 191 48.01612 191 56.01612 183 56.01612 Z"></path><path fill="#90ed7d" d="M 166 58.930687999999975 L 174 58.930687999999975 174 66.93068799999998 166 66.93068799999998 Z"></path><path fill="#90ed7d" d="M 150 91.652952 L 158 91.652952 158 99.652952 150 99.652952 Z"></path><path fill="#90ed7d" d="M 134 100.85017599999998 L 142 100.85017599999998 142 108.85017599999998 134 108.85017599999998 Z"></path><path fill="#90ed7d" d="M 117 94.072992 L 125 94.072992 125 102.072992 117 102.072992 Z"></path><path fill="#90ed7d" d="M 101 116.92159999999998 L 109 116.92159999999998 109 124.92159999999998 101 124.92159999999998 Z"></path><path fill="#90ed7d" d="M 85 125.34591199999997 L 93 125.34591199999997 93 133.34591199999997 85 133.34591199999997 Z"></path><path fill="#90ed7d" d="M 69 141.064112 L 77 141.064112 77 149.064112 69 149.064112 Z"></path><path fill="#90ed7d" d="M 52 136.94816799999998 L 60 136.94816799999998 60 144.94816799999998 52 144.94816799999998 Z"></path><path fill="#90ed7d" d="M 36 164.193048 L 44 164.193048 44 172.193048 36 172.193048 Z"></path><path fill="#90ed7d" d="M 20 156.8 L 28 156.8 28 164.8 20 164.8 Z"></path><path fill="#90ed7d" d="M 4 210.4 L 12 210.4 12 218.4 4 218.4 Z"></path></g><g class="highcharts-series highcharts-series-3" transform="translate(63,61) scale(1 1)" clip-path="url(#highcharts-35)"><path fill="none" d="M 8.1304347826087 214.4 L 24.391304347826 210.82648799999998 L 40.652173913043 191.83172000000002 L 56.913043478261 151.71533599999998 L 73.173913043478 128.416488 L 89.434782608696 112.59591199999997 L 105.69565217391 132.318568 L 121.95652173913 117.626272 L 138.21739130435 112.325232 L 154.47826086957 98.379584 L 170.73913043478 85.25991199999999 L 187 72.37929599999998 L 203.26086956522 73.712864 L 219.52173913043 67.29801599999999 L 235.78260869565 65.83688000000001 L 252.04347826087 75.84239199999999 L 268.30434782609 68.55975999999998 L 284.5652173913 79.20096799999999 L 300.82608695652 74.83310399999996 L 317.08695652174 74.46165599999998 L 333.34782608696 73.47702399999997 L 349.60869565217 70.05627199999998 L 365.86956521739 73.99908799999997" stroke="#f7a35c" stroke-width="2" stroke-linejoin="round" stroke-linecap="round"></path></g><g class="highcharts-markers highcharts-series-3" transform="translate(63,61) scale(1 1)" clip-path="none"><path fill="#f7a35c" d="M 365 69.99908799999997 L 369 77.99908799999997 361 77.99908799999997 Z"></path><path fill="#f7a35c" d="M 349 66.05627199999998 L 353 74.05627199999998 345 74.05627199999998 Z"></path><path fill="#f7a35c" d="M 333 69.47702399999997 L 337 77.47702399999997 329 77.47702399999997 Z"></path><path fill="#f7a35c" d="M 317 70.46165599999998 L 321 78.46165599999998 313 78.46165599999998 Z"></path><path fill="#f7a35c" d="M 300 70.83310399999996 L 304 78.83310399999996 296 78.83310399999996 Z"></path><path fill="#f7a35c" d="M 284 75.20096799999999 L 288 83.20096799999999 280 83.20096799999999 Z"></path><path fill="#f7a35c" d="M 268 64.55975999999998 L 272 72.55975999999998 264 72.55975999999998 Z"></path><path fill="#f7a35c" d="M 252 71.84239199999999 L 256 79.84239199999999 248 79.84239199999999 Z"></path><path fill="#f7a35c" d="M 235 61.83688000000001 L 239 69.83688000000001 231 69.83688000000001 Z"></path><path fill="#f7a35c" d="M 219 63.29801599999999 L 223 71.29801599999999 215 71.29801599999999 Z"></path><path fill="#f7a35c" d="M 203 69.712864 L 207 77.712864 199 77.712864 Z"></path><path fill="#f7a35c" d="M 187 68.37929599999998 L 191 76.37929599999998 183 76.37929599999998 Z"></path><path fill="#f7a35c" d="M 170 81.25991199999999 L 174 89.25991199999999 166 89.25991199999999 Z"></path><path fill="#f7a35c" d="M 154 94.379584 L 158 102.379584 150 102.379584 Z"></path><path fill="#f7a35c" d="M 138 108.325232 L 142 116.325232 134 116.325232 Z"></path><path fill="#f7a35c" d="M 121 113.626272 L 125 121.626272 117 121.626272 Z"></path><path fill="#f7a35c" d="M 105 128.318568 L 109 136.318568 101 136.318568 Z"></path><path fill="#f7a35c" d="M 89 108.59591199999997 L 93 116.59591199999997 85 116.59591199999997 Z"></path><path fill="#f7a35c" d="M 73 124.41648799999999 L 77 132.416488 69 132.416488 Z"></path><path fill="#f7a35c" d="M 56 147.71533599999998 L 60 155.71533599999998 52 155.71533599999998 Z"></path><path fill="#f7a35c" d="M 40 187.83172000000002 L 44 195.83172000000002 36 195.83172000000002 Z"></path><path fill="#f7a35c" d="M 24 206.82648799999998 L 28 214.82648799999998 20 214.82648799999998 Z"></path><path fill="#f7a35c" d="M 8 210.4 L 12 218.4 4 218.4 Z"></path></g></g><text x="280" text-anchor="middle" class="highcharts-title" style="color:#333333;font-size:18px;fill:#333333;width:536px;" y="24"><tspan>General Matrix-matrix Multiplication</tspan></text><text x="280" text-anchor="middle" class="highcharts-subtitle" style="color:#555555;fill:#555555;width:536px;" y="46"><tspan>Double precision</tspan></text><g class="highcharts-legend" transform="translate(449,164)"><g><g><g class="highcharts-legend-item" transform="translate(8,3)"><path fill="none" d="M 0 11 L 16 11" stroke="#7cb5ec" stroke-width="2"></path><path fill="#7cb5ec" d="M 8 7 C 13.328 7 13.328 15 8 15 C 2.6719999999999997 15 2.6719999999999997 7 8 7 Z"></path><text x="21" style="color:#333333;font-size:12px;font-weight:bold;cursor:pointer;fill:#333333;" text-anchor="start" y="15"><tspan>Mir GLAS</tspan></text></g><g class="highcharts-legend-item" transform="translate(8,17)"><path fill="none" d="M 0 11 L 16 11" stroke="#434348" stroke-width="2"></path><path fill="#434348" d="M 8 7 L 12 11 8 15 4 11 Z"></path><text x="21" y="15" style="color:#333333;font-size:12px;font-weight:bold;cursor:pointer;fill:#333333;" text-anchor="start">OpenBLAS</text></g><g class="highcharts-legend-item" transform="translate(8,31)"><path fill="none" d="M 0 11 L 16 11" stroke="#90ed7d" stroke-width="2"></path><path fill="#90ed7d" d="M 4 7 L 12 7 12 15 4 15 Z"></path><text x="21" y="15" style="color:#333333;font-size:12px;font-weight:bold;cursor:pointer;fill:#333333;" text-anchor="start"><tspan>Intel MKL</tspan></text></g><g class="highcharts-legend-item" transform="translate(8,45)"><path fill="none" d="M 0 11 L 16 11" stroke="#f7a35c" stroke-width="2"></path><path fill="#f7a35c" d="M 8 7 L 12 15 4 15 Z"></path><text x="21" y="15" style="color:#333333;font-size:12px;font-weight:bold;cursor:pointer;fill:#333333;" text-anchor="start"><tspan>Apple Accelerate</tspan></text></g></g></g></g><g class="highcharts-axis-labels highcharts-xaxis-labels"><text x="73.72315964695936" style="color:#606060;cursor:default;font-size:11px;fill:#606060;width:400px;text-overflow:ellipsis;" text-anchor="end" transform="translate(0,0) rotate(-45 73.72315964695936 345)" y="345" opacity="1"><tspan>10</tspan></text><text x="106.24489877739414" style="color:#606060;cursor:default;font-size:11px;fill:#606060;width:400px;text-overflow:ellipsis;" text-anchor="end" transform="translate(0,0) rotate(-45 106.24489877739414 345)" y="345" opacity="1"><tspan>30</tspan></text><text x="138.76663790782894" style="color:#606060;cursor:default;font-size:11px;fill:#606060;width:400px;text-overflow:ellipsis;" text-anchor="end" transform="translate(0,0) rotate(-45 138.76663790782894 345)" y="345" opacity="1"><tspan>50</tspan></text><text x="171.28837703826372" style="color:#606060;cursor:default;font-size:11px;fill:#606060;width:400px;text-overflow:ellipsis;" text-anchor="end" transform="translate(0,0) rotate(-45 171.28837703826372 345)" y="345" opacity="1"><tspan>70</tspan></text><text x="203.8101161686985" style="color:#606060;cursor:default;font-size:11px;fill:#606060;width:400px;text-overflow:ellipsis;" text-anchor="end" transform="translate(0,0) rotate(-45 203.8101161686985 345)" y="345" opacity="1"><tspan>90</tspan></text><text x="236.33185529913328" style="color:#606060;cursor:default;font-size:11px;fill:#606060;width:400px;text-overflow:ellipsis;" text-anchor="end" transform="translate(0,0) rotate(-45 236.33185529913328 345)" y="345" opacity="1"><tspan>200</tspan></text><text x="268.85359442956803" style="color:#606060;cursor:default;font-size:11px;fill:#606060;width:400px;text-overflow:ellipsis;" text-anchor="end" transform="translate(0,0) rotate(-45 268.85359442956803 345)" y="345" opacity="1"><tspan>500</tspan></text><text x="301.3753335600028" style="color:#606060;cursor:default;font-size:11px;fill:#606060;width:400px;text-overflow:ellipsis;" text-anchor="end" transform="translate(0,0) rotate(-45 301.3753335600028 345)" y="345" opacity="1"><tspan>700</tspan></text><text x="333.8970726904376" style="color:#606060;cursor:default;font-size:11px;fill:#606060;width:400px;text-overflow:ellipsis;" text-anchor="end" transform="translate(0,0) rotate(-45 333.8970726904376 345)" y="345" opacity="1"><tspan>900</tspan></text><text x="366.41881182087235" style="color:#606060;cursor:default;font-size:11px;fill:#606060;width:400px;text-overflow:ellipsis;" text-anchor="end" transform="translate(0,0) rotate(-45 366.41881182087235 345)" y="345" opacity="1"><tspan>1200</tspan></text><text x="398.94055095130716" style="color:#606060;cursor:default;font-size:11px;fill:#606060;width:400px;text-overflow:ellipsis;" text-anchor="end" transform="translate(0,0) rotate(-45 398.94055095130716 345)" y="345" opacity="1"><tspan>1600</tspan></text><text x="431.46229008174197" style="color:#606060;cursor:default;font-size:11px;fill:#606060;width:400px;text-overflow:ellipsis;" text-anchor="end" transform="translate(0,0) rotate(-45 431.46229008174197 345)" y="345" opacity="1"><tspan>2000</tspan></text></g><g class="highcharts-axis-labels highcharts-yaxis-labels"><text x="48" style="color:#606060;cursor:default;font-size:11px;fill:#606060;width:188px;text-overflow:clip;" text-anchor="end" transform="translate(0,0)" y="334" opacity="1"><tspan>0</tspan></text><text x="48" style="color:#606060;cursor:default;font-size:11px;fill:#606060;width:188px;text-overflow:clip;" text-anchor="end" transform="translate(0,0)" y="280" opacity="1"><tspan>10</tspan></text><text x="48" style="color:#606060;cursor:default;font-size:11px;fill:#606060;width:188px;text-overflow:clip;" text-anchor="end" transform="translate(0,0)" y="226" opacity="1"><tspan>20</tspan></text><text x="48" style="color:#606060;cursor:default;font-size:11px;fill:#606060;width:188px;text-overflow:clip;" text-anchor="end" transform="translate(0,0)" y="173" opacity="1"><tspan>30</tspan></text><text x="48" style="color:#606060;cursor:default;font-size:11px;fill:#606060;width:188px;text-overflow:clip;" text-anchor="end" transform="translate(0,0)" y="119" opacity="1"><tspan>40</tspan></text><text x="48" style="color:#606060;cursor:default;font-size:11px;fill:#606060;width:188px;text-overflow:clip;" text-anchor="end" transform="translate(0,0)" y="66" opacity="1"><tspan>50</tspan></text></g><g class="highcharts-tooltip" display="none" style="cursor:default;padding:0;pointer-events:none;white-space:nowrap;" transform="translate(0,0)"><path fill="none" d="M 3.5 0.5 L 13.5 0.5 C 16.5 0.5 16.5 0.5 16.5 3.5 L 16.5 13.5 C 16.5 16.5 16.5 16.5 13.5 16.5 L 3.5 16.5 C 0.5 16.5 0.5 16.5 0.5 13.5 L 0.5 3.5 C 0.5 0.5 0.5 0.5 3.5 0.5"  stroke="black" stroke-opacity="0.049999999999999996" stroke-width="5" transform="translate(1, 1)"></path><path fill="none" d="M 3.5 0.5 L 13.5 0.5 C 16.5 0.5 16.5 0.5 16.5 3.5 L 16.5 13.5 C 16.5 16.5 16.5 16.5 13.5 16.5 L 3.5 16.5 C 0.5 16.5 0.5 16.5 0.5 13.5 L 0.5 3.5 C 0.5 0.5 0.5 0.5 3.5 0.5"  stroke="black" stroke-opacity="0.09999999999999999" stroke-width="3" transform="translate(1, 1)"></path><path fill="none" d="M 3.5 0.5 L 13.5 0.5 C 16.5 0.5 16.5 0.5 16.5 3.5 L 16.5 13.5 C 16.5 16.5 16.5 16.5 13.5 16.5 L 3.5 16.5 C 0.5 16.5 0.5 16.5 0.5 13.5 L 0.5 3.5 C 0.5 0.5 0.5 0.5 3.5 0.5"  stroke="black" stroke-opacity="0.15" stroke-width="1" transform="translate(1, 1)"></path><path fill="rgb(249, 249, 249)" fill-opacity=" .85" d="M 3.5 0.5 L 13.5 0.5 C 16.5 0.5 16.5 0.5 16.5 3.5 L 16.5 13.5 C 16.5 16.5 16.5 16.5 13.5 16.5 L 3.5 16.5 C 0.5 16.5 0.5 16.5 0.5 13.5 L 0.5 3.5 C 0.5 0.5 0.5 0.5 3.5 0.5"></path><text x="8" style="font-size:12px;color:#333333;fill:#333333;" y="20"></text></g><text x="590" text-anchor="end" style="cursor:pointer;color:#909090;font-size:9px;fill:#909090;" y="395">Highcharts.com</text></svg>