<?xml version="1.0" standalone="no"?><!DOCTYPE svg PUBLIC "-//W3C//DTD SVG 1.1//EN" "http://www.w3.org/Graphics/SVG/1.1/DTD/svg11.dtd"><svg xmlns:xlink="http://www.w3.org/1999/xlink" version="1.1" style="font-family:'lucida grande', 'lucida sans unicode', arial, helvetica, sans-serif;font-size:12px;" xmlns="http://www.w3.org/2000/svg" width="600" height="400"><desc>Created with Highcharts 4.2.7</desc><defs><clipPath id="highcharts-51"><rect x="0" y="0" width="374" height="268"></rect></clipPath></defs><rect x="0" y="0" width="600" height="400" fill="#FFFFFF" class=" highcharts-background"></rect><path fill="none" d="M 63 329.5 L 437 329.5" stroke="#808080" stroke-width="1"></path><g class="highcharts-grid"></g><g class="highcharts-grid"><path fill="none" d="M 63 329.5 L 437 329.5" stroke="#D8D8D8" stroke-width="1" opacity="1"></path><path fill="none" d="M 63 275.5 L 437 275.5" stroke="#D8D8D8" stroke-width="1" opacity="1"></path><path fill="none" d="M 63 222.5 L 437 222.5" stroke="#D8D8D8" stroke-width="1" opacity="1"></path><path fill="none" d="M 63 168.5 L 437 168.5" stroke="#D8D8D8" stroke-width="1" opacity="1"></path><path fill="none" d="M 63 115.5 L 437 115.5" stroke="#D8D8D8" stroke-width="1" opacity="1"></path><path fill="none" d="M 63 60.5 L 437 60.5" stroke="#D8D8D8" stroke-width="1" opacity="1"></path></g><g class="highcharts-axis"><path fill="none" d="M 70.5 329 L 70.5 339" stroke="#C0D0E0" stroke-width="1" opacity="1"></path><path fill="none" d="M 103.5 329 L 103.5 339" stroke="#C0D0E0" stroke-width="1" opacity="1"></path><path fill="none" d="M 135.5 329 L 135.5 339" stroke="#C0D0E0" stroke-width="1" opacity="1"></path><path fill="none" d="M 168.5 329 L 168.5 339" stroke="#C0D0E0" stroke-width="1" opacity="1"></path><path fill="none" d="M 200.5 329 L 200.5 339" stroke="#C0D0E0" stroke-width="1" opacity="1"></path><path fill="none" d="M 233.5 329 L 233.5 339" stroke="#C0D0E0" stroke-width="1" opacity="1"></path><path fill="none" d="M 265.5 329 L 265.5 339" stroke="#C0D0E0" stroke-width="1" opacity="1"></path><path fill="none" d="M 298.5 329 L 298.5 339" stroke="#C0D0E0" stroke-width="1" opacity="1"></path><path fill="none" d="M 330.5 329 L 330.5 339" stroke="#C0D0E0" stroke-width="1" opacity="1"></path><path fill="none" d="M 363.5 329 L 363.5 339" stroke="#C0D0E0" stroke-width="1" opacity="1"></path><path fill="none" d="M 395.5 329 L 395.5 339" stroke="#C0D0E0" stroke-width="1" opacity="1"></path><path fill="none" d="M 428.5 329 L 428.5 339" stroke="#C0D0E0" stroke-width="1" opacity="1"></path><text x="250" text-anchor="middle" transform="translate(0,0)" class=" highcharts-xaxis-title" style="color:#707070;fill:#707070;" y="382.85879550717596"><tspan>Matrix Size (m = n = k)</tspan></text><path fill="none" d="M 63 329.5 L 437 329.5" stroke="#C0D0E0" stroke-width="1"></path></g><g class="highcharts-axis"><text x="24.09375" text-anchor="middle" transform="translate(0,0) rotate(270 24.09375 195)" class=" highcharts-yaxis-title" style="color:#707070;fill:#707070;" y="195">GFLOPS</text></g><g class="highcharts-series-group"><g class="highcharts-series highcharts-series-1" transform="translate(63,61) scale(1 1)" clip-path="url(#highcharts-51)"><path fill="none" d="M 8.1304347826087 241.2 L 24.391304347826 210.8267024 L 40.652173913043 188.7013728 L 56.913043478261 180.6012336 L 73.173913043478 172.28572959999997 L 89.434782608696 167.54363039999998 L 105.69565217391 165.29157279999998 L 121.95652173913 160.58988799999997 L 138.21739130435 158.77713599999998 L 154.47826086957 157.8252 L 170.73913043478 155.04657600000002 L 187 147.838448 L 203.26086956522 147.10305599999998 L 219.52173913043 146.754656 L 235.78260869565 146.42983999999998 L 252.04347826087 152.471632 L 268.30434782609 145.852032 L 284.5652173913 146.83291200000002 L 300.82608695652 145.937792 L 317.08695652174 145.49505599999998 L 333.34782608696 145.03302399999998 L 349.60869565217 144.866864 L 365.86956521739 144.657824" stroke="#7cb5ec" stroke-width="2" stroke-linejoin="round" stroke-linecap="round"></path></g><g class="highcharts-markers highcharts-series-1" transform="translate(63,61) scale(1 1)" clip-path="none"><path fill="#7cb5ec" d="M 365 140.657824 L 369 144.657824 365 148.657824 361 144.657824 Z"></path><path fill="#7cb5ec" d="M 349 140.866864 L 353 144.866864 349 148.866864 345 144.866864 Z"></path><path fill="#7cb5ec" d="M 333 141.03302399999998 L 337 145.03302399999998 333 149.03302399999998 329 145.03302399999998 Z"></path><path fill="#7cb5ec" d="M 317 141.49505599999998 L 321 145.49505599999998 317 149.49505599999998 313 145.49505599999998 Z"></path><path fill="#7cb5ec" d="M 300 141.937792 L 304 145.937792 300 149.937792 296 145.937792 Z"></path><path fill="#7cb5ec" d="M 284 142.83291200000002 L 288 146.83291200000002 284 150.83291200000002 280 146.83291200000002 Z"></path><path fill="#7cb5ec" d="M 268 141.852032 L 272 145.852032 268 149.852032 264 145.852032 Z"></path><path fill="#7cb5ec" d="M 252 148.471632 L 256 152.471632 252 156.471632 248 152.471632 Z"></path><path fill="#7cb5ec" d="M 235 142.42983999999998 L 239 146.42983999999998 235 150.42983999999998 231 146.42983999999998 Z"></path><path fill="#7cb5ec" d="M 219 142.754656 L 223 146.754656 219 150.754656 215 146.754656 Z"></path><path fill="#7cb5ec" d="M 203 143.10305599999998 L 207 147.10305599999998 203 151.10305599999998 199 147.10305599999998 Z"></path><path fill="#7cb5ec" d="M 187 143.838448 L 191 147.838448 187 151.838448 183 147.838448 Z"></path><path fill="#7cb5ec" d="M 170 151.04657600000002 L 174 155.04657600000002 170 159.04657600000002 166 155.04657600000002 Z"></path><path fill="#7cb5ec" d="M 154 153.8252 L 158 157.8252 154 161.8252 150 157.8252 Z"></path><path fill="#7cb5ec" d="M 138 154.77713599999998 L 142 158.77713599999998 138 162.77713599999998 134 158.77713599999998 Z"></path><path fill="#7cb5ec" d="M 121 156.58988799999997 L 125 160.58988799999997 121 164.58988799999997 117 160.58988799999997 Z"></path><path fill="#7cb5ec" d="M 105 161.29157279999998 L 109 165.29157279999998 105 169.29157279999998 101 165.29157279999998 Z"></path><path fill="#7cb5ec" d="M 89 163.54363039999998 L 93 167.54363039999998 89 171.54363039999998 85 167.54363039999998 Z"></path><path fill="#7cb5ec" d="M 73 168.28572959999997 L 77 172.28572959999997 73 176.28572959999997 69 172.28572959999997 Z"></path><path fill="#7cb5ec" d="M 56 176.6012336 L 60 180.6012336 56 184.6012336 52 180.6012336 Z"></path><path fill="#7cb5ec" d="M 40 184.7013728 L 44 188.7013728 40 192.7013728 36 188.7013728 Z"></path><path fill="#7cb5ec" d="M 24 206.8267024 L 28 210.8267024 24 214.8267024 20 210.8267024 Z"></path><path fill="#7cb5ec" d="M 8 237.2 L 12 241.2 8 245.2 4 241.2 Z"></path></g><g class="highcharts-series highcharts-series-2" transform="translate(63,61) scale(1 1)" clip-path="url(#highcharts-51)"><path fill="none" d="M 8.1304347826087 232.26670239999999 L 24.391304347826 196.5332976 L 40.652173913043 176.1142704 L 56.913043478261 153.65297599999997 L 73.173913043478 150.456272 L 89.434782608696 132.192608 L 105.69565217391 133.80489599999999 L 121.95652173913 110.053664 L 138.21739130435 109.32255999999998 L 154.47826086957 102.69545600000001 L 170.73913043478 72.15632 L 187 60.96892799999998 L 203.26086956522 54.05238399999999 L 219.52173913043 55.40095999999997 L 235.78260869565 52.93750399999996 L 252.04347826087 56.73024000000001 L 268.30434782609 54.74811199999996 L 284.5652173913 56.850303999999994 L 300.82608695652 54.99681599999997 L 317.08695652174 55.189775999999966 L 333.34782608696 54.85209599999999 L 349.60869565217 52.58481599999999 L 365.86956521739 52.50012799999999" stroke="#434348" stroke-width="2" stroke-linejoin="round" stroke-linecap="round"></path></g><g class="highcharts-markers highcharts-series-2" transform="translate(63,61) scale(1 1)" clip-path="none"><path fill="#434348" d="M 361 48.50012799999999 L 369 48.50012799999999 369 56.50012799999999 361 56.50012799999999 Z"></path><path fill="#434348" d="M 345 48.58481599999999 L 353 48.58481599999999 353 56.58481599999999 345 56.58481599999999 Z"></path><path fill="#434348" d="M 329 50.85209599999999 L 337 50.85209599999999 337 58.85209599999999 329 58.85209599999999 Z"></path><path fill="#434348" d="M 313 51.189775999999966 L 321 51.189775999999966 321 59.189775999999966 313 59.189775999999966 Z"></path><path fill="#434348" d="M 296 50.99681599999997 L 304 50.99681599999997 304 58.99681599999997 296 58.99681599999997 Z"></path><path fill="#434348" d="M 280 52.850303999999994 L 288 52.850303999999994 288 60.850303999999994 280 60.850303999999994 Z"></path><path fill="#434348" d="M 264 50.74811199999996 L 272 50.74811199999996 272 58.74811199999996 264 58.74811199999996 Z"></path><path fill="#434348" d="M 248 52.73024000000001 L 256 52.73024000000001 256 60.73024000000001 248 60.73024000000001 Z"></path><path fill="#434348" d="M 231 48.93750399999996 L 239 48.93750399999996 239 56.93750399999996 231 56.93750399999996 Z"></path><path fill="#434348" d="M 215 51.40095999999997 L 223 51.40095999999997 223 59.40095999999997 215 59.40095999999997 Z"></path><path fill="#434348" d="M 199 50.05238399999999 L 207 50.05238399999999 207 58.05238399999999 199 58.05238399999999 Z"></path><path fill="#434348" d="M 183 56.96892799999998 L 191 56.96892799999998 191 64.96892799999998 183 64.96892799999998 Z"></path><path fill="#434348" d="M 166 68.15632 L 174 68.15632 174 76.15632 166 76.15632 Z"></path><path fill="#434348" d="M 150 98.69545600000001 L 158 98.69545600000001 158 106.69545600000001 150 106.69545600000001 Z"></path><path fill="#434348" d="M 134 105.32255999999998 L 142 105.32255999999998 142 113.32255999999998 134 113.32255999999998 Z"></path><path fill="#434348" d="M 117 106.053664 L 125 106.053664 125 114.053664 117 114.053664 Z"></path><path fill="#434348" d="M 101 129.80489599999999 L 109 129.80489599999999 109 137.80489599999999 101 137.80489599999999 Z"></path><path fill="#434348" d="M 85 128.192608 L 93 128.192608 93 136.192608 85 136.192608 Z"></path><path fill="#434348" d="M 69 146.456272 L 77 146.456272 77 154.456272 69 154.456272 Z"></path><path fill="#434348" d="M 52 149.65297599999997 L 60 149.65297599999997 60 157.65297599999997 52 157.65297599999997 Z"></path><path fill="#434348" d="M 36 172.1142704 L 44 172.1142704 44 180.1142704 36 180.1142704 Z"></path><path fill="#434348" d="M 20 192.5332976 L 28 192.5332976 28 200.5332976 20 200.5332976 Z"></path><path fill="#434348" d="M 4 228.26670239999999 L 12 228.26670239999999 12 236.26670239999999 4 236.26670239999999 Z"></path></g><g class="highcharts-series highcharts-series-3" transform="translate(63,61) scale(1 1)" clip-path="url(#highcharts-51)"><path fill="none" d="M 8.1304347826087 232.26670239999999 L 24.391304347826 182.24 L 40.652173913043 130.171888 L 56.913043478261 104.647568 L 73.173913043478 115.72775999999999 L 89.434782608696 102.01259199999998 L 105.69565217391 91.64742399999997 L 121.95652173913 82.88596799999999 L 138.21739130435 84.33638399999998 L 154.47826086957 78.60118399999999 L 170.73913043478 46.082064 L 187 38.131039999999985 L 203.26086956522 35.95380799999998 L 219.52173913043 37.577888 L 235.78260869565 35.912000000000006 L 252.04347826087 36.057792000000006 L 268.30434782609 34.70278400000001 L 284.5652173913 34.626671999999985 L 300.82608695652 31.019391999999982 L 317.08695652174 31.526447999999988 L 333.34782608696 30.19824 L 349.60869565217 27.64687999999998 L 365.86956521739 27.254527999999993" stroke="#90ed7d" stroke-width="2" stroke-linejoin="round" stroke-linecap="round"></path></g><g class="highcharts-markers highcharts-series-3" transform="translate(63,61) scale(1 1)" clip-path="none"><path fill="#90ed7d" d="M 365 23.254527999999993 L 369 31.254527999999993 361 31.254527999999993 Z"></path><path fill="#90ed7d" d="M 349 23.64687999999998 L 353 31.64687999999998 345 31.64687999999998 Z"></path><path fill="#90ed7d" d="M 333 26.19824 L 337 34.19824 329 34.19824 Z"></path><path fill="#90ed7d" d="M 317 27.526447999999988 L 321 35.52644799999999 313 35.52644799999999 Z"></path><path fill="#90ed7d" d="M 300 27.019391999999982 L 304 35.01939199999998 296 35.01939199999998 Z"></path><path fill="#90ed7d" d="M 284 30.626671999999985 L 288 38.626671999999985 280 38.626671999999985 Z"></path><path fill="#90ed7d" d="M 268 30.70278400000001 L 272 38.70278400000001 264 38.70278400000001 Z"></path><path fill="#90ed7d" d="M 252 32.057792000000006 L 256 40.057792000000006 248 40.057792000000006 Z"></path><path fill="#90ed7d" d="M 235 31.912000000000006 L 239 39.912000000000006 231 39.912000000000006 Z"></path><path fill="#90ed7d" d="M 219 33.577888 L 223 41.577888 215 41.577888 Z"></path><path fill="#90ed7d" d="M 203 31.95380799999998 L 207 39.95380799999998 199 39.95380799999998 Z"></path><path fill="#90ed7d" d="M 187 34.131039999999985 L 191 42.131039999999985 183 42.131039999999985 Z"></path><path fill="#90ed7d" d="M 170 42.082064 L 174 50.082064 166 50.082064 Z"></path><path fill="#90ed7d" d="M 154 74.60118399999999 L 158 82.60118399999999 150 82.60118399999999 Z"></path><path fill="#90ed7d" d="M 138 80.33638399999998 L 142 88.33638399999998 134 88.33638399999998 Z"></path><path fill="#90ed7d" d="M 121 78.88596799999999 L 125 86.88596799999999 117 86.88596799999999 Z"></path><path fill="#90ed7d" d="M 105 87.64742399999997 L 109 95.64742399999997 101 95.64742399999997 Z"></path><path fill="#90ed7d" d="M 89 98.01259199999998 L 93 106.01259199999998 85 106.01259199999998 Z"></path><path fill="#90ed7d" d="M 73 111.72775999999999 L 77 119.72775999999999 69 119.72775999999999 Z"></path><path fill="#90ed7d" d="M 56 100.647568 L 60 108.647568 52 108.647568 Z"></path><path fill="#90ed7d" d="M 40 126.171888 L 44 134.171888 36 134.171888 Z"></path><path fill="#90ed7d" d="M 24 178.24 L 28 186.24 20 186.24 Z"></path><path fill="#90ed7d" d="M 8 228.26670239999999 L 12 236.26670239999999 4 236.26670239999999 Z"></path></g><g class="highcharts-series highcharts-series-4" transform="translate(63,61) scale(1 1)" clip-path="url(#highcharts-51)"><path fill="none" d="M 8.1304347826087 248.5091104 L 24.391304347826 225.12 L 40.652173913043 218.9423856 L 56.913043478261 213.9779536 L 73.173913043478 212.6280912 L 89.434782608696 211.037672 L 105.69565217391 210.2768736 L 121.95652173913 204.9121568 L 138.21739130435 205.3305584 L 154.47826086957 205.7105824 L 170.73913043478 200.6209408 L 187 202.56243999999998 L 203.26086956522 199.1673088 L 219.52173913043 199.41343999999998 L 235.78260869565 199.42458879999998 L 252.04347826087 199.7206752 L 268.30434782609 199.7045952 L 284.5652173913 201.3718768 L 300.82608695652 200.5614448 L 317.08695652174 200.71013119999998 L 333.34782608696 200.0981264 L 349.60869565217 200.68794079999998 L 365.86956521739 200.2595696" stroke="#f7a35c" stroke-width="2" stroke-linejoin="round" stroke-linecap="round"></path></g><g class="highcharts-markers highcharts-series-4" transform="translate(63,61) scale(1 1)" clip-path="none"><path fill="#f7a35c" d="M 361 196.2595696 L 369 196.2595696 365 204.2595696 Z"></path><path fill="#f7a35c" d="M 345 196.68794079999998 L 353 196.68794079999998 349 204.68794079999998 Z"></path><path fill="#f7a35c" d="M 329 196.0981264 L 337 196.0981264 333 204.0981264 Z"></path><path fill="#f7a35c" d="M 313 196.71013119999998 L 321 196.71013119999998 317 204.71013119999998 Z"></path><path fill="#f7a35c" d="M 296 196.5614448 L 304 196.5614448 300 204.5614448 Z"></path><path fill="#f7a35c" d="M 280 197.3718768 L 288 197.3718768 284 205.3718768 Z"></path><path fill="#f7a35c" d="M 264 195.7045952 L 272 195.7045952 268 203.7045952 Z"></path><path fill="#f7a35c" d="M 248 195.7206752 L 256 195.7206752 252 203.7206752 Z"></path><path fill="#f7a35c" d="M 231 195.42458879999998 L 239 195.42458879999998 235 203.42458879999998 Z"></path><path fill="#f7a35c" d="M 215 195.41343999999998 L 223 195.41343999999998 219 203.41343999999998 Z"></path><path fill="#f7a35c" d="M 199 195.1673088 L 207 195.1673088 203 203.1673088 Z"></path><path fill="#f7a35c" d="M 183 198.56243999999998 L 191 198.56243999999998 187 206.56243999999998 Z"></path><path fill="#f7a35c" d="M 166 196.6209408 L 174 196.6209408 170 204.6209408 Z"></path><path fill="#f7a35c" d="M 150 201.7105824 L 158 201.7105824 154 209.7105824 Z"></path><path fill="#f7a35c" d="M 134 201.3305584 L 142 201.3305584 138 209.3305584 Z"></path><path fill="#f7a35c" d="M 117 200.9121568 L 125 200.9121568 121 208.9121568 Z"></path><path fill="#f7a35c" d="M 101 206.2768736 L 109 206.2768736 105 214.2768736 Z"></path><path fill="#f7a35c" d="M 85 207.037672 L 93 207.037672 89 215.037672 Z"></path><path fill="#f7a35c" d="M 69 208.6280912 L 77 208.6280912 73 216.6280912 Z"></path><path fill="#f7a35c" d="M 52 209.9779536 L 60 209.9779536 56 217.9779536 Z"></path><path fill="#f7a35c" d="M 36 214.9423856 L 44 214.9423856 40 222.9423856 Z"></path><path fill="#f7a35c" d="M 20 221.12 L 28 221.12 24 229.12 Z"></path><path fill="#f7a35c" d="M 4 244.5091104 L 12 244.5091104 8 252.5091104 Z"></path></g><g class="highcharts-series highcharts-series-0" transform="translate(63,61) scale(1 1)" clip-path="url(#highcharts-51)"><path fill="none" d="M 8.1304347826087 214.4 L 24.391304347826 160.8 L 40.652173913043 149.861312 L 56.913043478261 106.56966399999999 L 73.173913043478 119.11099199999998 L 89.434782608696 91.91435200000001 L 105.69565217391 102.37063999999998 L 121.95652173913 75.75288 L 138.21739130435 82.59331199999997 L 154.47826086957 70.57833599999998 L 170.73913043478 62.709855999999974 L 187 40.01347200000001 L 203.26086956522 36.999007999999975 L 219.52173913043 33.68974399999999 L 235.78260869565 34.118543999999986 L 252.04347826087 34.76710400000002 L 268.30434782609 32.55663999999999 L 284.5652173913 30.602384 L 300.82608695652 30.426575999999983 L 317.08695652174 29.329919999999987 L 333.34782608696 30.77068799999998 L 349.60869565217 31.25951999999998 L 365.86956521739 31.932735999999977" stroke="red" stroke-width="2" stroke-linejoin="round" stroke-linecap="round"></path></g><g class="highcharts-markers highcharts-series-0" transform="translate(63,61) scale(1 1)" clip-path="none"><path fill="red" d="M 365 27.932735999999977 C 370.328 27.932735999999977 370.328 35.93273599999998 365 35.93273599999998 C 359.672 35.93273599999998 359.672 27.932735999999977 365 27.932735999999977 Z"></path><path fill="red" d="M 349 27.25951999999998 C 354.328 27.25951999999998 354.328 35.25951999999998 349 35.25951999999998 C 343.672 35.25951999999998 343.672 27.25951999999998 349 27.25951999999998 Z"></path><path fill="red" d="M 333 26.77068799999998 C 338.328 26.77068799999998 338.328 34.77068799999998 333 34.77068799999998 C 327.672 34.77068799999998 327.672 26.77068799999998 333 26.77068799999998 Z"></path><path fill="red" d="M 317 25.329919999999987 C 322.328 25.329919999999987 322.328 33.32991999999999 317 33.32991999999999 C 311.672 33.32991999999999 311.672 25.329919999999987 317 25.329919999999987 Z"></path><path fill="red" d="M 300 26.426575999999983 C 305.328 26.426575999999983 305.328 34.42657599999998 300 34.42657599999998 C 294.672 34.42657599999998 294.672 26.426575999999983 300 26.426575999999983 Z"></path><path fill="red" d="M 284 26.602384 C 289.328 26.602384 289.328 34.602384 284 34.602384 C 278.672 34.602384 278.672 26.602384 284 26.602384 Z"></path><path fill="red" d="M 268 28.556639999999987 C 273.328 28.556639999999987 273.328 36.55663999999999 268 36.55663999999999 C 262.672 36.55663999999999 262.672 28.556639999999987 268 28.556639999999987 Z"></path><path fill="red" d="M 252 30.767104000000018 C 257.328 30.767104000000018 257.328 38.76710400000002 252 38.76710400000002 C 246.672 38.76710400000002 246.672 30.767104000000018 252 30.767104000000018 Z"></path><path fill="red" d="M 235 30.118543999999986 C 240.328 30.118543999999986 240.328 38.118543999999986 235 38.118543999999986 C 229.672 38.118543999999986 229.672 30.118543999999986 235 30.118543999999986 Z"></path><path fill="red" d="M 219 29.68974399999999 C 224.328 29.68974399999999 224.328 37.68974399999999 219 37.68974399999999 C 213.672 37.68974399999999 213.672 29.68974399999999 219 29.68974399999999 Z"></path><path fill="red" d="M 203 32.999007999999975 C 208.328 32.999007999999975 208.328 40.999007999999975 203 40.999007999999975 C 197.672 40.999007999999975 197.672 32.999007999999975 203 32.999007999999975 Z"></path><path fill="red" d="M 187 36.01347200000001 C 192.328 36.01347200000001 192.328 44.01347200000001 187 44.01347200000001 C 181.672 44.01347200000001 181.672 36.01347200000001 187 36.01347200000001 Z"></path><path fill="red" d="M 170 58.709855999999974 C 175.328 58.709855999999974 175.328 66.70985599999997 170 66.70985599999997 C 164.672 66.70985599999997 164.672 58.709855999999974 170 58.709855999999974 Z"></path><path fill="red" d="M 154 66.57833599999998 C 159.328 66.57833599999998 159.328 74.57833599999998 154 74.57833599999998 C 148.672 74.57833599999998 148.672 66.57833599999998 154 66.57833599999998 Z"></path><path fill="red" d="M 138 78.59331199999997 C 143.328 78.59331199999997 143.328 86.59331199999997 138 86.59331199999997 C 132.672 86.59331199999997 132.672 78.59331199999997 138 78.59331199999997 Z"></path><path fill="red" d="M 121 71.75288 C 126.328 71.75288 126.328 79.75288 121 79.75288 C 115.672 79.75288 115.672 71.75288 121 71.75288 Z"></path><path fill="red" d="M 105 98.37063999999998 C 110.328 98.37063999999998 110.328 106.37063999999998 105 106.37063999999998 C 99.672 106.37063999999998 99.672 98.37063999999998 105 98.37063999999998 Z"></path><path fill="red" d="M 89 87.91435200000001 C 94.328 87.91435200000001 94.328 95.91435200000001 89 95.91435200000001 C 83.672 95.91435200000001 83.672 87.91435200000001 89 87.91435200000001 Z"></path><path fill="red" d="M 73 115.11099199999998 C 78.328 115.11099199999998 78.328 123.11099199999998 73 123.11099199999998 C 67.672 123.11099199999998 67.672 115.11099199999998 73 115.11099199999998 Z"></path><path fill="red" d="M 56 102.56966399999999 C 61.328 102.56966399999999 61.328 110.56966399999999 56 110.56966399999999 C 50.672 110.56966399999999 50.672 102.56966399999999 56 102.56966399999999 Z"></path><path fill="red" d="M 40 145.861312 C 45.328 145.861312 45.328 153.861312 40 153.861312 C 34.672 153.861312 34.672 145.861312 40 145.861312 Z"></path><path fill="red" d="M 24 156.8 C 29.328 156.8 29.328 164.8 24 164.8 C 18.672 164.8 18.672 156.8 24 156.8 Z"></path><path fill="red" d="M 8 210.4 C 13.328 210.4 13.328 218.4 8 218.4 C 2.6719999999999997 218.4 2.6719999999999997 210.4 8 210.4 Z"></path></g></g><text x="280" text-anchor="middle" class="highcharts-title" style="color:#333333;font-size:18px;fill:#333333;width:536px;" y="24"><tspan>Complex single precision</tspan></text><text x="280" text-anchor="middle" class="highcharts-subtitle" style="color:#555555;fill:#555555;width:536px;" y="46"><tspan>General Matrix-matrix Multiplication</tspan></text><g class="highcharts-legend" transform="translate(449,157)"><g><g><g class="highcharts-legend-item" transform="translate(8,3)"><path fill="none" d="M 0 11 L 16 11" stroke="red" stroke-width="2"></path><path fill="red" d="M 8 7 C 13.328 7 13.328 15 8 15 C 2.6719999999999997 15 2.6719999999999997 7 8 7 Z"></path><text x="21" style="color:#333333;font-size:12px;font-weight:bold;cursor:pointer;fill:#333333;" text-anchor="start" y="15"><tspan>Mir GLAS</tspan></text></g><g class="highcharts-legend-item" transform="translate(8,17)"><path fill="none" d="M 0 11 L 16 11" stroke="#7cb5ec" stroke-width="2"></path><path fill="#7cb5ec" d="M 8 7 L 12 11 8 15 4 11 Z"></path><text x="21" y="15" style="color:#333333;font-size:12px;font-weight:bold;cursor:pointer;fill:#333333;" text-anchor="start">Eigen</text></g><g class="highcharts-legend-item" transform="translate(8,31)"><path fill="none" d="M 0 11 L 16 11" stroke="#434348" stroke-width="2"></path><path fill="#434348" d="M 4 7 L 12 7 12 15 4 15 Z"></path><text x="21" y="15" style="color:#333333;font-size:12px;font-weight:bold;cursor:pointer;fill:#333333;" text-anchor="start">OpenBLAS</text></g><g class="highcharts-legend-item" transform="translate(8,45)"><path fill="none" d="M 0 11 L 16 11" stroke="#90ed7d" stroke-width="2"></path><path fill="#90ed7d" d="M 8 7 L 12 15 4 15 Z"></path><text x="21" y="15" style="color:#333333;font-size:12px;font-weight:bold;cursor:pointer;fill:#333333;" text-anchor="start"><tspan>Intel MKL</tspan></text></g><g class="highcharts-legend-item" transform="translate(8,59)"><path fill="none" d="M 0 11 L 16 11" stroke="#f7a35c" stroke-width="2"></path><path fill="#f7a35c" d="M 4 7 L 12 7 8 15 Z"></path><text x="21" y="15" style="color:#333333;font-size:12px;font-weight:bold;cursor:pointer;fill:#333333;" text-anchor="start"><tspan>Apple Accelerate</tspan></text></g></g></g></g><g class="highcharts-axis-labels highcharts-xaxis-labels"><text x="73.72315964695936" style="color:#606060;cursor:default;font-size:11px;fill:#606060;width:400px;text-overflow:ellipsis;" text-anchor="end" transform="translate(0,0) rotate(-45 73.72315964695936 345)" y="345" opacity="1"><tspan>10</tspan></text><text x="106.24489877739414" style="color:#606060;cursor:default;font-size:11px;fill:#606060;width:400px;text-overflow:ellipsis;" text-anchor="end" transform="translate(0,0) rotate(-45 106.24489877739414 345)" y="345" opacity="1"><tspan>30</tspan></text><text x="138.76663790782894" style="color:#606060;cursor:default;font-size:11px;fill:#606060;width:400px;text-overflow:ellipsis;" text-anchor="end" transform="translate(0,0) rotate(-45 138.76663790782894 345)" y="345" opacity="1"><tspan>50</tspan></text><text x="171.28837703826372" style="color:#606060;cursor:default;font-size:11px;fill:#606060;width:400px;text-overflow:ellipsis;" text-anchor="end" transform="translate(0,0) rotate(-45 171.28837703826372 345)" y="345" opacity="1"><tspan>70</tspan></text><text x="203.8101161686985" style="color:#606060;cursor:default;font-size:11px;fill:#606060;width:400px;text-overflow:ellipsis;" text-anchor="end" transform="translate(0,0) rotate(-45 203.8101161686985 345)" y="345" opacity="1"><tspan>90</tspan></text><text x="236.33185529913328" style="color:#606060;cursor:default;font-size:11px;fill:#606060;width:400px;text-overflow:ellipsis;" text-anchor="end" transform="translate(0,0) rotate(-45 236.33185529913328 345)" y="345" opacity="1"><tspan>200</tspan></text><text x="268.85359442956803" style="color:#606060;cursor:default;font-size:11px;fill:#606060;width:400px;text-overflow:ellipsis;" text-anchor="end" transform="translate(0,0) rotate(-45 268.85359442956803 345)" y="345" opacity="1"><tspan>500</tspan></text><text x="301.3753335600028" style="color:#606060;cursor:default;font-size:11px;fill:#606060;width:400px;text-overflow:ellipsis;" text-anchor="end" transform="translate(0,0) rotate(-45 301.3753335600028 345)" y="345" opacity="1"><tspan>700</tspan></text><text x="333.8970726904376" style="color:#606060;cursor:default;font-size:11px;fill:#606060;width:400px;text-overflow:ellipsis;" text-anchor="end" transform="translate(0,0) rotate(-45 333.8970726904376 345)" y="345" opacity="1"><tspan>900</tspan></text><text x="366.41881182087235" style="color:#606060;cursor:default;font-size:11px;fill:#606060;width:400px;text-overflow:ellipsis;" text-anchor="end" transform="translate(0,0) rotate(-45 366.41881182087235 345)" y="345" opacity="1"><tspan>1200</tspan></text><text x="398.94055095130716" style="color:#606060;cursor:default;font-size:11px;fill:#606060;width:400px;text-overflow:ellipsis;" text-anchor="end" transform="translate(0,0) rotate(-45 398.94055095130716 345)" y="345" opacity="1"><tspan>1600</tspan></text><text x="431.46229008174197" style="color:#606060;cursor:default;font-size:11px;fill:#606060;width:400px;text-overflow:ellipsis;" text-anchor="end" transform="translate(0,0) rotate(-45 431.46229008174197 345)" y="345" opacity="1"><tspan>2000</tspan></text></g><g class="highcharts-axis-labels highcharts-yaxis-labels"><text x="48" style="color:#606060;cursor:default;font-size:11px;fill:#606060;width:188px;text-overflow:clip;" text-anchor="end" transform="translate(0,0)" y="334" opacity="1"><tspan>0</tspan></text><text x="48" style="color:#606060;cursor:default;font-size:11px;fill:#606060;width:188px;text-overflow:clip;" text-anchor="end" transform="translate(0,0)" y="280" opacity="1"><tspan>5</tspan></text><text x="48" style="color:#606060;cursor:default;font-size:11px;fill:#606060;width:188px;text-overflow:clip;" text-anchor="end" transform="translate(0,0)" y="226" opacity="1"><tspan>10</tspan></text><text x="48" style="color:#606060;cursor:default;font-size:11px;fill:#606060;width:188px;text-overflow:clip;" text-anchor="end" transform="translate(0,0)" y="173" opacity="1"><tspan>15</tspan></text><text x="48" style="color:#606060;cursor:default;font-size:11px;fill:#606060;width:188px;text-overflow:clip;" text-anchor="end" transform="translate(0,0)" y="119" opacity="1"><tspan>20</tspan></text><text x="48" style="color:#606060;cursor:default;font-size:11px;fill:#606060;width:188px;text-overflow:clip;" text-anchor="end" transform="translate(0,0)" y="66" opacity="1"><tspan>25</tspan></text></g><g class="highcharts-tooltip" display="none" style="cursor:default;padding:0;pointer-events:none;white-space:nowrap;" transform="translate(0,0)"><path fill="none" d="M 3.5 0.5 L 13.5 0.5 C 16.5 0.5 16.5 0.5 16.5 3.5 L 16.5 13.5 C 16.5 16.5 16.5 16.5 13.5 16.5 L 3.5 16.5 C 0.5 16.5 0.5 16.5 0.5 13.5 L 0.5 3.5 C 0.5 0.5 0.5 0.5 3.5 0.5"  stroke="black" stroke-opacity="0.049999999999999996" stroke-width="5" transform="translate(1, 1)"></path><path fill="none" d="M 3.5 0.5 L 13.5 0.5 C 16.5 0.5 16.5 0.5 16.5 3.5 L 16.5 13.5 C 16.5 16.5 16.5 16.5 13.5 16.5 L 3.5 16.5 C 0.5 16.5 0.5 16.5 0.5 13.5 L 0.5 3.5 C 0.5 0.5 0.5 0.5 3.5 0.5"  stroke="black" stroke-opacity="0.09999999999999999" stroke-width="3" transform="translate(1, 1)"></path><path fill="none" d="M 3.5 0.5 L 13.5 0.5 C 16.5 0.5 16.5 0.5 16.5 3.5 L 16.5 13.5 C 16.5 16.5 16.5 16.5 13.5 16.5 L 3.5 16.5 C 0.5 16.5 0.5 16.5 0.5 13.5 L 0.5 3.5 C 0.5 0.5 0.5 0.5 3.5 0.5"  stroke="black" stroke-opacity="0.15" stroke-width="1" transform="translate(1, 1)"></path><path fill="rgb(249, 249, 249)" fill-opacity=" .85" d="M 3.5 0.5 L 13.5 0.5 C 16.5 0.5 16.5 0.5 16.5 3.5 L 16.5 13.5 C 16.5 16.5 16.5 16.5 13.5 16.5 L 3.5 16.5 C 0.5 16.5 0.5 16.5 0.5 13.5 L 0.5 3.5 C 0.5 0.5 0.5 0.5 3.5 0.5"></path><text x="8" style="font-size:12px;color:#333333;fill:#333333;" y="20"></text></g><text x="590" text-anchor="end" style="cursor:pointer;color:#909090;font-size:9px;fill:#909090;" y="395">Highcharts.com</text></svg>