<?xml version="1.0" standalone="no"?><!DOCTYPE svg PUBLIC "-//W3C//DTD SVG 1.1//EN" "http://www.w3.org/Graphics/SVG/1.1/DTD/svg11.dtd"><svg xmlns:xlink="http://www.w3.org/1999/xlink" version="1.1" style="font-family:'lucida grande', 'lucida sans unicode', arial, helvetica, sans-serif;font-size:12px;" xmlns="http://www.w3.org/2000/svg" width="600" height="400"><desc>Created with Highcharts 4.2.7</desc><defs><clipPath id="highcharts-27"><rect x="0" y="0" width="367" height="268"></rect></clipPath></defs><rect x="0" y="0" width="600" height="400" fill="#FFFFFF" class=" highcharts-background"></rect><path fill="none" d="M 70 329.5 L 437 329.5" stroke="#808080" stroke-width="1"></path><g class="highcharts-grid"></g><g class="highcharts-grid"><path fill="none" d="M 70 329.5 L 437 329.5" stroke="#D8D8D8" stroke-width="1" opacity="1"></path><path fill="none" d="M 70 262.5 L 437 262.5" stroke="#D8D8D8" stroke-width="1" opacity="1"></path><path fill="none" d="M 70 195.5 L 437 195.5" stroke="#D8D8D8" stroke-width="1" opacity="1"></path><path fill="none" d="M 70 128.5 L 437 128.5" stroke="#D8D8D8" stroke-width="1" opacity="1"></path><path fill="none" d="M 70 60.5 L 437 60.5" stroke="#D8D8D8" stroke-width="1" opacity="1"></path></g><g class="highcharts-axis"><path fill="none" d="M 77.5 329 L 77.5 339" stroke="#C0D0E0" stroke-width="1" opacity="1"></path><path fill="none" d="M 109.5 329 L 109.5 339" stroke="#C0D0E0" stroke-width="1" opacity="1"></path><path fill="none" d="M 141.5 329 L 141.5 339" stroke="#C0D0E0" stroke-width="1" opacity="1"></path><path fill="none" d="M 173.5 329 L 173.5 339" stroke="#C0D0E0" stroke-width="1" opacity="1"></path><path fill="none" d="M 205.5 329 L 205.5 339" stroke="#C0D0E0" stroke-width="1" opacity="1"></path><path fill="none" d="M 237.5 329 L 237.5 339" stroke="#C0D0E0" stroke-width="1" opacity="1"></path><path fill="none" d="M 268.5 329 L 268.5 339" stroke="#C0D0E0" stroke-width="1" opacity="1"></path><path fill="none" d="M 300.5 329 L 300.5 339" stroke="#C0D0E0" stroke-width="1" opacity="1"></path><path fill="none" d="M 332.5 329 L 332.5 339" stroke="#C0D0E0" stroke-width="1" opacity="1"></path><path fill="none" d="M 364.5 329 L 364.5 339" stroke="#C0D0E0" stroke-width="1" opacity="1"></path><path fill="none" d="M 396.5 329 L 396.5 339" stroke="#C0D0E0" stroke-width="1" opacity="1"></path><path fill="none" d="M 428.5 329 L 428.5 339" stroke="#C0D0E0" stroke-width="1" opacity="1"></path><text x="253.5" text-anchor="middle" transform="translate(0,0)" class=" highcharts-xaxis-title" style="color:#707070;fill:#707070;" y="382.85879550717596"><tspan>Matrix Size (m = n = k)</tspan></text><path fill="none" d="M 70 329.5 L 437 329.5" stroke="#C0D0E0" stroke-width="1"></path></g><g class="highcharts-axis"><text x="24.140625" text-anchor="middle" transform="translate(0,0) rotate(270 24.140625 195)" class=" highcharts-yaxis-title" style="color:#707070;fill:#707070;" y="195">GFLOPS</text></g><g class="highcharts-series-group"><g class="highcharts-series highcharts-series-0" transform="translate(70,61) scale(1 1)" clip-path="url(#highcharts-27)"><path fill="none" d="M 7.9782608695652 241.2 L 23.934782608696 196.533244 L 39.891304347826 182.870604 L 55.847826086957 136.061456 L 71.804347826087 146.18194 L 87.760869565217 125.066756 L 103.71739130435 136.67999999999998 L 119.67391304348 98.59746799999999 L 135.63043478261 117.71390799999998 L 151.58695652174 93.40711199999998 L 167.54347826087 65.831252 L 183.5 60.188511999999974 L 199.45652173913 54.31797199999997 L 215.41304347826 41.923508 L 231.36956521739 43.956288 L 247.32608695652 43.77243999999999 L 263.28260869565 40.13166000000001 L 279.23913043478 43.545443999999975 L 295.19565217391 40.395103999999975 L 311.15217391304 39.315867999999995 L 327.10869565217 37.79255599999996 L 343.0652173913 39.74842000000001 L 359.02173913043 37.67436799999996" stroke="#7cb5ec" stroke-width="2" stroke-linejoin="round" stroke-linecap="round"></path></g><g class="highcharts-markers highcharts-series-0" transform="translate(70,61) scale(1 1)" clip-path="none"><path fill="#7cb5ec" d="M 359 33.67436799999996 C 364.328 33.67436799999996 364.328 41.67436799999996 359 41.67436799999996 C 353.672 41.67436799999996 353.672 33.67436799999996 359 33.67436799999996 Z"></path><path fill="#7cb5ec" d="M 343 35.74842000000001 C 348.328 35.74842000000001 348.328 43.74842000000001 343 43.74842000000001 C 337.672 43.74842000000001 337.672 35.74842000000001 343 35.74842000000001 Z"></path><path fill="#7cb5ec" d="M 327 33.79255599999996 C 332.328 33.79255599999996 332.328 41.79255599999996 327 41.79255599999996 C 321.672 41.79255599999996 321.672 33.79255599999996 327 33.79255599999996 Z"></path><path fill="#7cb5ec" d="M 311 35.315867999999995 C 316.328 35.315867999999995 316.328 43.315867999999995 311 43.315867999999995 C 305.672 43.315867999999995 305.672 35.315867999999995 311 35.315867999999995 Z"></path><path fill="#7cb5ec" d="M 295 36.395103999999975 C 300.328 36.395103999999975 300.328 44.395103999999975 295 44.395103999999975 C 289.672 44.395103999999975 289.672 36.395103999999975 295 36.395103999999975 Z"></path><path fill="#7cb5ec" d="M 279 39.545443999999975 C 284.328 39.545443999999975 284.328 47.545443999999975 279 47.545443999999975 C 273.672 47.545443999999975 273.672 39.545443999999975 279 39.545443999999975 Z"></path><path fill="#7cb5ec" d="M 263 36.13166000000001 C 268.328 36.13166000000001 268.328 44.13166000000001 263 44.13166000000001 C 257.672 44.13166000000001 257.672 36.13166000000001 263 36.13166000000001 Z"></path><path fill="#7cb5ec" d="M 247 39.77243999999999 C 252.328 39.77243999999999 252.328 47.77243999999999 247 47.77243999999999 C 241.672 47.77243999999999 241.672 39.77243999999999 247 39.77243999999999 Z"></path><path fill="#7cb5ec" d="M 231 39.956288 C 236.328 39.956288 236.328 47.956288 231 47.956288 C 225.672 47.956288 225.672 39.956288 231 39.956288 Z"></path><path fill="#7cb5ec" d="M 215 37.923508 C 220.328 37.923508 220.328 45.923508 215 45.923508 C 209.672 45.923508 209.672 37.923508 215 37.923508 Z"></path><path fill="#7cb5ec" d="M 199 50.31797199999997 C 204.328 50.31797199999997 204.328 58.31797199999997 199 58.31797199999997 C 193.672 58.31797199999997 193.672 50.31797199999997 199 50.31797199999997 Z"></path><path fill="#7cb5ec" d="M 183 56.188511999999974 C 188.328 56.188511999999974 188.328 64.18851199999997 183 64.18851199999997 C 177.672 64.18851199999997 177.672 56.188511999999974 183 56.188511999999974 Z"></path><path fill="#7cb5ec" d="M 167 61.831252000000006 C 172.328 61.831252000000006 172.328 69.831252 167 69.831252 C 161.672 69.831252 161.672 61.831252000000006 167 61.831252000000006 Z"></path><path fill="#7cb5ec" d="M 151 89.40711199999998 C 156.328 89.40711199999998 156.328 97.40711199999998 151 97.40711199999998 C 145.672 97.40711199999998 145.672 89.40711199999998 151 89.40711199999998 Z"></path><path fill="#7cb5ec" d="M 135 113.71390799999998 C 140.328 113.71390799999998 140.328 121.71390799999998 135 121.71390799999998 C 129.672 121.71390799999998 129.672 113.71390799999998 135 113.71390799999998 Z"></path><path fill="#7cb5ec" d="M 119 94.59746799999999 C 124.328 94.59746799999999 124.328 102.59746799999999 119 102.59746799999999 C 113.672 102.59746799999999 113.672 94.59746799999999 119 94.59746799999999 Z"></path><path fill="#7cb5ec" d="M 103 132.67999999999998 C 108.328 132.67999999999998 108.328 140.67999999999998 103 140.67999999999998 C 97.672 140.67999999999998 97.672 132.67999999999998 103 132.67999999999998 Z"></path><path fill="#7cb5ec" d="M 87 121.066756 C 92.328 121.066756 92.328 129.066756 87 129.066756 C 81.672 129.066756 81.672 121.066756 87 121.066756 Z"></path><path fill="#7cb5ec" d="M 71 142.18194 C 76.328 142.18194 76.328 150.18194 71 150.18194 C 65.672 150.18194 65.672 142.18194 71 142.18194 Z"></path><path fill="#7cb5ec" d="M 55 132.061456 C 60.328 132.061456 60.328 140.061456 55 140.061456 C 49.672 140.061456 49.672 132.061456 55 132.061456 Z"></path><path fill="#7cb5ec" d="M 39 178.870604 C 44.328 178.870604 44.328 186.870604 39 186.870604 C 33.672 186.870604 33.672 178.870604 39 178.870604 Z"></path><path fill="#7cb5ec" d="M 23 192.533244 C 28.328 192.533244 28.328 200.533244 23 200.533244 C 17.672 200.533244 17.672 192.533244 23 192.533244 Z"></path><path fill="#7cb5ec" d="M 7 237.2 C 12.328 237.2 12.328 245.2 7 245.2 C 1.672 245.2 1.672 237.2 7 237.2 Z"></path></g><g class="highcharts-series highcharts-series-1" transform="translate(70,61) scale(1 1)" clip-path="url(#highcharts-27)"><path fill="none" d="M 7.9782608695652 250.1333244 L 23.934782608696 220.35549600000002 L 39.891304347826 214.4 L 55.847826086957 184.33174 L 71.804347826087 179.84220399999998 L 87.760869565217 166.442204 L 103.71739130435 171.237796 L 119.67391304348 144.382052 L 135.63043478261 154.080436 L 151.58695652174 133.66419599999998 L 167.54347826087 97.841172 L 183.5 84.32191199999997 L 199.45652173913 65.38717599999998 L 215.41304347826 60.109988000000016 L 231.36956521739 65.39253599999998 L 247.32608695652 72.67061199999998 L 263.28260869565 70.210104 L 279.23913043478 67.57834399999999 L 295.19565217391 68.4271 L 311.15217391304 65.648744 L 327.10869565217 68.45791999999997 L 343.0652173913 64.98464000000001 L 359.02173913043 64.96427199999997" stroke="#434348" stroke-width="2" stroke-linejoin="round" stroke-linecap="round"></path></g><g class="highcharts-markers highcharts-series-1" transform="translate(70,61) scale(1 1)" clip-path="none"><path fill="#434348" d="M 359 60.964271999999966 L 363 64.96427199999997 359 68.96427199999997 355 64.96427199999997 Z"></path><path fill="#434348" d="M 343 60.98464000000001 L 347 64.98464000000001 343 68.98464000000001 339 64.98464000000001 Z"></path><path fill="#434348" d="M 327 64.45791999999997 L 331 68.45791999999997 327 72.45791999999997 323 68.45791999999997 Z"></path><path fill="#434348" d="M 311 61.64874399999999 L 315 65.648744 311 69.648744 307 65.648744 Z"></path><path fill="#434348" d="M 295 64.4271 L 299 68.4271 295 72.4271 291 68.4271 Z"></path><path fill="#434348" d="M 279 63.57834399999999 L 283 67.57834399999999 279 71.57834399999999 275 67.57834399999999 Z"></path><path fill="#434348" d="M 263 66.210104 L 267 70.210104 263 74.210104 259 70.210104 Z"></path><path fill="#434348" d="M 247 68.67061199999998 L 251 72.67061199999998 247 76.67061199999998 243 72.67061199999998 Z"></path><path fill="#434348" d="M 231 61.39253599999998 L 235 65.39253599999998 231 69.39253599999998 227 65.39253599999998 Z"></path><path fill="#434348" d="M 215 56.109988000000016 L 219 60.109988000000016 215 64.10998800000002 211 60.109988000000016 Z"></path><path fill="#434348" d="M 199 61.38717599999998 L 203 65.38717599999998 199 69.38717599999998 195 65.38717599999998 Z"></path><path fill="#434348" d="M 183 80.32191199999997 L 187 84.32191199999997 183 88.32191199999997 179 84.32191199999997 Z"></path><path fill="#434348" d="M 167 93.841172 L 171 97.841172 167 101.841172 163 97.841172 Z"></path><path fill="#434348" d="M 151 129.66419599999998 L 155 133.66419599999998 151 137.66419599999998 147 133.66419599999998 Z"></path><path fill="#434348" d="M 135 150.080436 L 139 154.080436 135 158.080436 131 154.080436 Z"></path><path fill="#434348" d="M 119 140.382052 L 123 144.382052 119 148.382052 115 144.382052 Z"></path><path fill="#434348" d="M 103 167.237796 L 107 171.237796 103 175.237796 99 171.237796 Z"></path><path fill="#434348" d="M 87 162.442204 L 91 166.442204 87 170.442204 83 166.442204 Z"></path><path fill="#434348" d="M 71 175.84220399999998 L 75 179.84220399999998 71 183.84220399999998 67 179.84220399999998 Z"></path><path fill="#434348" d="M 55 180.33174 L 59 184.33174 55 188.33174 51 184.33174 Z"></path><path fill="#434348" d="M 39 210.4 L 43 214.4 39 218.4 35 214.4 Z"></path><path fill="#434348" d="M 23 216.35549600000002 L 27 220.35549600000002 23 224.35549600000002 19 220.35549600000002 Z"></path><path fill="#434348" d="M 7 246.1333244 L 11 250.1333244 7 254.1333244 3 250.1333244 Z"></path></g><g class="highcharts-series highcharts-series-2" transform="translate(70,61) scale(1 1)" clip-path="url(#highcharts-27)"><path fill="none" d="M 7.9782608695652 241.2 L 23.934782608696 182.24 L 39.891304347826 164.628648 L 55.847826086957 125.066756 L 71.804347826087 136.627472 L 87.760869565217 134.924064 L 103.71739130435 126.578544 L 119.67391304348 100.66347999999999 L 135.63043478261 108.512664 L 151.58695652174 98.379852 L 167.54347826087 71.21242399999997 L 183.5 73.95325999999997 L 199.45652173913 45.88829999999999 L 215.41304347826 44.79593199999999 L 231.36956521739 44.340599999999995 L 247.32608695652 42.82505999999998 L 263.28260869565 45.71115199999997 L 279.23913043478 46.35220799999996 L 295.19565217391 45.82183599999999 L 311.15217391304 44.297987999999975 L 327.10869565217 41.769408 L 343.0652173913 40.39939199999998 L 359.02173913043 39.16015999999996" stroke="#90ed7d" stroke-width="2" stroke-linejoin="round" stroke-linecap="round"></path></g><g class="highcharts-markers highcharts-series-2" transform="translate(70,61) scale(1 1)" clip-path="none"><path fill="#90ed7d" d="M 355 35.16015999999996 L 363 35.16015999999996 363 43.16015999999996 355 43.16015999999996 Z"></path><path fill="#90ed7d" d="M 339 36.39939199999998 L 347 36.39939199999998 347 44.39939199999998 339 44.39939199999998 Z"></path><path fill="#90ed7d" d="M 323 37.769408 L 331 37.769408 331 45.769408 323 45.769408 Z"></path><path fill="#90ed7d" d="M 307 40.297987999999975 L 315 40.297987999999975 315 48.297987999999975 307 48.297987999999975 Z"></path><path fill="#90ed7d" d="M 291 41.82183599999999 L 299 41.82183599999999 299 49.82183599999999 291 49.82183599999999 Z"></path><path fill="#90ed7d" d="M 275 42.35220799999996 L 283 42.35220799999996 283 50.35220799999996 275 50.35220799999996 Z"></path><path fill="#90ed7d" d="M 259 41.71115199999997 L 267 41.71115199999997 267 49.71115199999997 259 49.71115199999997 Z"></path><path fill="#90ed7d" d="M 243 38.82505999999998 L 251 38.82505999999998 251 46.82505999999998 243 46.82505999999998 Z"></path><path fill="#90ed7d" d="M 227 40.340599999999995 L 235 40.340599999999995 235 48.340599999999995 227 48.340599999999995 Z"></path><path fill="#90ed7d" d="M 211 40.79593199999999 L 219 40.79593199999999 219 48.79593199999999 211 48.79593199999999 Z"></path><path fill="#90ed7d" d="M 195 41.88829999999999 L 203 41.88829999999999 203 49.88829999999999 195 49.88829999999999 Z"></path><path fill="#90ed7d" d="M 179 69.95325999999997 L 187 69.95325999999997 187 77.95325999999997 179 77.95325999999997 Z"></path><path fill="#90ed7d" d="M 163 67.21242399999997 L 171 67.21242399999997 171 75.21242399999997 163 75.21242399999997 Z"></path><path fill="#90ed7d" d="M 147 94.379852 L 155 94.379852 155 102.379852 147 102.379852 Z"></path><path fill="#90ed7d" d="M 131 104.512664 L 139 104.512664 139 112.512664 131 112.512664 Z"></path><path fill="#90ed7d" d="M 115 96.66347999999999 L 123 96.66347999999999 123 104.66347999999999 115 104.66347999999999 Z"></path><path fill="#90ed7d" d="M 99 122.578544 L 107 122.578544 107 130.578544 99 130.578544 Z"></path><path fill="#90ed7d" d="M 83 130.924064 L 91 130.924064 91 138.924064 83 138.924064 Z"></path><path fill="#90ed7d" d="M 67 132.627472 L 75 132.627472 75 140.627472 67 140.627472 Z"></path><path fill="#90ed7d" d="M 51 121.066756 L 59 121.066756 59 129.066756 51 129.066756 Z"></path><path fill="#90ed7d" d="M 35 160.628648 L 43 160.628648 43 168.628648 35 168.628648 Z"></path><path fill="#90ed7d" d="M 19 178.24 L 27 178.24 27 186.24 19 186.24 Z"></path><path fill="#90ed7d" d="M 3 237.2 L 11 237.2 11 245.2 3 245.2 Z"></path></g><g class="highcharts-series highcharts-series-3" transform="translate(70,61) scale(1 1)" clip-path="url(#highcharts-27)"><path fill="none" d="M 7.9782608695652 241.2 L 23.934782608696 182.24 L 39.891304347826 207.7 L 55.847826086957 164.048428 L 71.804347826087 143.92591599999997 L 87.760869565217 109.402692 L 103.71739130435 155.89747599999998 L 119.67391304348 133.47445199999999 L 135.63043478261 126.937128 L 151.58695652174 105.08199599999998 L 167.54347826087 101.99141999999998 L 183.5 64.68447999999998 L 199.45652173913 70.126488 L 215.41304347826 57.86495199999996 L 231.36956521739 60.21289999999999 L 247.32608695652 72.780224 L 263.28260869565 60.57898799999998 L 279.23913043478 68.48096799999999 L 295.19565217391 65.25371199999998 L 311.15217391304 70.147392 L 327.10869565217 66.94398799999999 L 343.0652173913 64.57084799999998 L 359.02173913043 66.77139599999998" stroke="#f7a35c" stroke-width="2" stroke-linejoin="round" stroke-linecap="round"></path></g><g class="highcharts-markers highcharts-series-3" transform="translate(70,61) scale(1 1)" clip-path="none"><path fill="#f7a35c" d="M 359 62.77139599999998 L 363 70.77139599999998 355 70.77139599999998 Z"></path><path fill="#f7a35c" d="M 343 60.570847999999984 L 347 68.57084799999998 339 68.57084799999998 Z"></path><path fill="#f7a35c" d="M 327 62.94398799999999 L 331 70.94398799999999 323 70.94398799999999 Z"></path><path fill="#f7a35c" d="M 311 66.147392 L 315 74.147392 307 74.147392 Z"></path><path fill="#f7a35c" d="M 295 61.25371199999998 L 299 69.25371199999998 291 69.25371199999998 Z"></path><path fill="#f7a35c" d="M 279 64.48096799999999 L 283 72.48096799999999 275 72.48096799999999 Z"></path><path fill="#f7a35c" d="M 263 56.57898799999998 L 267 64.57898799999998 259 64.57898799999998 Z"></path><path fill="#f7a35c" d="M 247 68.780224 L 251 76.780224 243 76.780224 Z"></path><path fill="#f7a35c" d="M 231 56.21289999999999 L 235 64.21289999999999 227 64.21289999999999 Z"></path><path fill="#f7a35c" d="M 215 53.86495199999996 L 219 61.86495199999996 211 61.86495199999996 Z"></path><path fill="#f7a35c" d="M 199 66.126488 L 203 74.126488 195 74.126488 Z"></path><path fill="#f7a35c" d="M 183 60.68447999999998 L 187 68.68447999999998 179 68.68447999999998 Z"></path><path fill="#f7a35c" d="M 167 97.99141999999998 L 171 105.99141999999998 163 105.99141999999998 Z"></path><path fill="#f7a35c" d="M 151 101.08199599999998 L 155 109.08199599999998 147 109.08199599999998 Z"></path><path fill="#f7a35c" d="M 135 122.937128 L 139 130.937128 131 130.937128 Z"></path><path fill="#f7a35c" d="M 119 129.47445199999999 L 123 137.47445199999999 115 137.47445199999999 Z"></path><path fill="#f7a35c" d="M 103 151.89747599999998 L 107 159.89747599999998 99 159.89747599999998 Z"></path><path fill="#f7a35c" d="M 87 105.402692 L 91 113.402692 83 113.402692 Z"></path><path fill="#f7a35c" d="M 71 139.92591599999997 L 75 147.92591599999997 67 147.92591599999997 Z"></path><path fill="#f7a35c" d="M 55 160.048428 L 59 168.048428 51 168.048428 Z"></path><path fill="#f7a35c" d="M 39 203.7 L 43 211.7 35 211.7 Z"></path><path fill="#f7a35c" d="M 23 178.24 L 27 186.24 19 186.24 Z"></path><path fill="#f7a35c" d="M 7 237.2 L 11 245.2 3 245.2 Z"></path></g></g><text x="280" text-anchor="middle" class="highcharts-title" style="color:#333333;font-size:18px;fill:#333333;width:536px;" y="24"><tspan>General Matrix-matrix Multiplication</tspan></text><text x="280" text-anchor="middle" class="highcharts-subtitle" style="color:#555555;fill:#555555;width:536px;" y="46"><tspan>Single precision</tspan></text><g class="highcharts-legend" transform="translate(449,164)"><g><g><g class="highcharts-legend-item" transform="translate(8,3)"><path fill="none" d="M 0 11 L 16 11" stroke="#7cb5ec" stroke-width="2"></path><path fill="#7cb5ec" d="M 8 7 C 13.328 7 13.328 15 8 15 C 2.6719999999999997 15 2.6719999999999997 7 8 7 Z"></path><text x="21" style="color:#333333;font-size:12px;font-weight:bold;cursor:pointer;fill:#333333;" text-anchor="start" y="15"><tspan>Mir GLAS</tspan></text></g><g class="highcharts-legend-item" transform="translate(8,17)"><path fill="none" d="M 0 11 L 16 11" stroke="#434348" stroke-width="2"></path><path fill="#434348" d="M 8 7 L 12 11 8 15 4 11 Z"></path><text x="21" y="15" style="color:#333333;font-size:12px;font-weight:bold;cursor:pointer;fill:#333333;" text-anchor="start">OpenBLAS</text></g><g class="highcharts-legend-item" transform="translate(8,31)"><path fill="none" d="M 0 11 L 16 11" stroke="#90ed7d" stroke-width="2"></path><path fill="#90ed7d" d="M 4 7 L 12 7 12 15 4 15 Z"></path><text x="21" y="15" style="color:#333333;font-size:12px;font-weight:bold;cursor:pointer;fill:#333333;" text-anchor="start"><tspan>Intel MKL</tspan></text></g><g class="highcharts-legend-item" transform="translate(8,45)"><path fill="none" d="M 0 11 L 16 11" stroke="#f7a35c" stroke-width="2"></path><path fill="#f7a35c" d="M 8 7 L 12 15 4 15 Z"></path><text x="21" y="15" style="color:#333333;font-size:12px;font-weight:bold;cursor:pointer;fill:#333333;" text-anchor="start"><tspan>Apple Accelerate</tspan></text></g></g></g></g><g class="highcharts-axis-labels highcharts-xaxis-labels"><text x="80.57098573391589" style="color:#606060;cursor:default;font-size:11px;fill:#606060;width:400px;text-overflow:ellipsis;" text-anchor="end" transform="translate(0,0) rotate(-45 80.57098573391589 345)" y="345" opacity="1"><tspan>10</tspan></text><text x="112.48402921217676" style="color:#606060;cursor:default;font-size:11px;fill:#606060;width:400px;text-overflow:ellipsis;" text-anchor="end" transform="translate(0,0) rotate(-45 112.48402921217676 345)" y="345" opacity="1"><tspan>30</tspan></text><text x="144.39707269043762" style="color:#606060;cursor:default;font-size:11px;fill:#606060;width:400px;text-overflow:ellipsis;" text-anchor="end" transform="translate(0,0) rotate(-45 144.39707269043762 345)" y="345" opacity="1"><tspan>50</tspan></text><text x="176.3101161686985" style="color:#606060;cursor:default;font-size:11px;fill:#606060;width:400px;text-overflow:ellipsis;" text-anchor="end" transform="translate(0,0) rotate(-45 176.3101161686985 345)" y="345" opacity="1"><tspan>70</tspan></text><text x="208.22315964695937" style="color:#606060;cursor:default;font-size:11px;fill:#606060;width:400px;text-overflow:ellipsis;" text-anchor="end" transform="translate(0,0) rotate(-45 208.22315964695937 345)" y="345" opacity="1"><tspan>90</tspan></text><text x="240.13620312522025" style="color:#606060;cursor:default;font-size:11px;fill:#606060;width:400px;text-overflow:ellipsis;" text-anchor="end" transform="translate(0,0) rotate(-45 240.13620312522025 345)" y="345" opacity="1"><tspan>200</tspan></text><text x="272.0492466034811" style="color:#606060;cursor:default;font-size:11px;fill:#606060;width:400px;text-overflow:ellipsis;" text-anchor="end" transform="translate(0,0) rotate(-45 272.0492466034811 345)" y="345" opacity="1"><tspan>500</tspan></text><text x="303.96229008174197" style="color:#606060;cursor:default;font-size:11px;fill:#606060;width:400px;text-overflow:ellipsis;" text-anchor="end" transform="translate(0,0) rotate(-45 303.96229008174197 345)" y="345" opacity="1"><tspan>700</tspan></text><text x="335.87533356000284" style="color:#606060;cursor:default;font-size:11px;fill:#606060;width:400px;text-overflow:ellipsis;" text-anchor="end" transform="translate(0,0) rotate(-45 335.87533356000284 345)" y="345" opacity="1"><tspan>900</tspan></text><text x="367.78837703826366" style="color:#606060;cursor:default;font-size:11px;fill:#606060;width:400px;text-overflow:ellipsis;" text-anchor="end" transform="translate(0,0) rotate(-45 367.78837703826366 345)" y="345" opacity="1"><tspan>1200</tspan></text><text x="399.70142051652454" style="color:#606060;cursor:default;font-size:11px;fill:#606060;width:400px;text-overflow:ellipsis;" text-anchor="end" transform="translate(0,0) rotate(-45 399.70142051652454 345)" y="345" opacity="1"><tspan>1600</tspan></text><text x="431.6144639947854" style="color:#606060;cursor:default;font-size:11px;fill:#606060;width:400px;text-overflow:ellipsis;" text-anchor="end" transform="translate(0,0) rotate(-45 431.6144639947854 345)" y="345" opacity="1"><tspan>2000</tspan></text></g><g class="highcharts-axis-labels highcharts-yaxis-labels"><text x="55" style="color:#606060;cursor:default;font-size:11px;fill:#606060;width:188px;text-overflow:clip;" text-anchor="end" transform="translate(0,0)" y="334" opacity="1"><tspan>0</tspan></text><text x="55" style="color:#606060;cursor:default;font-size:11px;fill:#606060;width:188px;text-overflow:clip;" text-anchor="end" transform="translate(0,0)" y="66" opacity="1"><tspan>100</tspan></text><text x="55" style="color:#606060;cursor:default;font-size:11px;fill:#606060;width:188px;text-overflow:clip;" text-anchor="end" transform="translate(0,0)" y="267" opacity="1"><tspan>25</tspan></text><text x="55" style="color:#606060;cursor:default;font-size:11px;fill:#606060;width:188px;text-overflow:clip;" text-anchor="end" transform="translate(0,0)" y="200" opacity="1"><tspan>50</tspan></text><text x="55" style="color:#606060;cursor:default;font-size:11px;fill:#606060;width:188px;text-overflow:clip;" text-anchor="end" transform="translate(0,0)" y="133" opacity="1"><tspan>75</tspan></text></g><g class="highcharts-tooltip" display="none" style="cursor:default;padding:0;pointer-events:none;white-space:nowrap;" transform="translate(0,0)"><path fill="none" d="M 3.5 0.5 L 13.5 0.5 C 16.5 0.5 16.5 0.5 16.5 3.5 L 16.5 13.5 C 16.5 16.5 16.5 16.5 13.5 16.5 L 3.5 16.5 C 0.5 16.5 0.5 16.5 0.5 13.5 L 0.5 3.5 C 0.5 0.5 0.5 0.5 3.5 0.5"  stroke="black" stroke-opacity="0.049999999999999996" stroke-width="5" transform="translate(1, 1)"></path><path fill="none" d="M 3.5 0.5 L 13.5 0.5 C 16.5 0.5 16.5 0.5 16.5 3.5 L 16.5 13.5 C 16.5 16.5 16.5 16.5 13.5 16.5 L 3.5 16.5 C 0.5 16.5 0.5 16.5 0.5 13.5 L 0.5 3.5 C 0.5 0.5 0.5 0.5 3.5 0.5"  stroke="black" stroke-opacity="0.09999999999999999" stroke-width="3" transform="translate(1, 1)"></path><path fill="none" d="M 3.5 0.5 L 13.5 0.5 C 16.5 0.5 16.5 0.5 16.5 3.5 L 16.5 13.5 C 16.5 16.5 16.5 16.5 13.5 16.5 L 3.5 16.5 C 0.5 16.5 0.5 16.5 0.5 13.5 L 0.5 3.5 C 0.5 0.5 0.5 0.5 3.5 0.5"  stroke="black" stroke-opacity="0.15" stroke-width="1" transform="translate(1, 1)"></path><path fill="rgb(249, 249, 249)" fill-opacity=" .85" d="M 3.5 0.5 L 13.5 0.5 C 16.5 0.5 16.5 0.5 16.5 3.5 L 16.5 13.5 C 16.5 16.5 16.5 16.5 13.5 16.5 L 3.5 16.5 C 0.5 16.5 0.5 16.5 0.5 13.5 L 0.5 3.5 C 0.5 0.5 0.5 0.5 3.5 0.5"></path><text x="8" style="font-size:12px;color:#333333;fill:#333333;" y="20"></text></g><text x="590" text-anchor="end" style="cursor:pointer;color:#909090;font-size:9px;fill:#909090;" y="395">Highcharts.com</text></svg>