<?xml version="1.0" encoding="UTF-8" standalone="no"?>
<svg
   xmlns:dc="http://purl.org/dc/elements/1.1/"
   xmlns:cc="http://creativecommons.org/ns#"
   xmlns:rdf="http://www.w3.org/1999/02/22-rdf-syntax-ns#"
   xmlns:svg="http://www.w3.org/2000/svg"
   xmlns="http://www.w3.org/2000/svg"
   viewBox="0 0 471.32422 320.13477"
   height="320.13477"
   width="471.32422"
   xml:space="preserve"
   version="1.1"
   id="svg2"><metadata
     id="metadata8"><rdf:RDF><cc:Work
         rdf:about=""><dc:format>image/svg+xml</dc:format><dc:type
           rdf:resource="http://purl.org/dc/dcmitype/StillImage" /></cc:Work></rdf:RDF></metadata><defs
     id="defs6"><clipPath
       id="clipPath20"
       clipPathUnits="userSpaceOnUse"><path
         id="path22"
         d="m 27.10625,20.871875 334.8,0 0,223.199995 -334.8,0 0,-223.199995 z" /></clipPath><clipPath
       id="clipPath30"
       clipPathUnits="userSpaceOnUse"><path
         id="path32"
         d="m 27.10625,20.871875 334.8,0 0,223.199995 -334.8,0 0,-223.199995 z" /></clipPath><clipPath
       id="clipPath40"
       clipPathUnits="userSpaceOnUse"><path
         id="path42"
         d="m 27.10625,20.871875 334.8,0 0,223.199995 -334.8,0 0,-223.199995 z" /></clipPath><clipPath
       id="clipPath72"
       clipPathUnits="userSpaceOnUse"><path
         id="path74"
         d="m -184,-236 1472,0 0,1165 -1472,0 0,-1165 z" /></clipPath></defs><g
     transform="matrix(1.25,0,0,-1.25,0,320.13477)"
     id="g10"><path
       id="path12"
       style="fill:#ffffff;fill-opacity:1;fill-rule:nonzero;stroke:none"
       d="m 0,0 377.05937,0 0,256.10781 L 0,256.10781 0,0 Z" /><path
       id="path14"
       style="fill:#ffffff;fill-opacity:1;fill-rule:nonzero;stroke:none"
       d="m 27.10625,20.871875 334.8,0 0,223.199995 -334.8,0 0,-223.199995 z" /><g
       id="g16"><g
         clip-path="url(#clipPath20)"
         id="g18"><path
           id="path24"
           style="fill:none;stroke:#0000ff;stroke-width:1;stroke-linecap:square;stroke-linejoin:round;stroke-miterlimit:10;stroke-dasharray:none;stroke-opacity:1"
           d="m 82.90625,20.871875 3.574775,0.114507 3.574775,0.343522 3.574774,0.572537 3.574775,0.801551 3.574771,1.030566 3.57478,1.25958 3.57477,1.488595 3.7982,1.832564 3.7982,2.0911 3.7982,2.349636 3.7982,2.608172 4.02162,3.04339 4.02162,3.333235 4.02162,3.623083 4.02162,3.912929 4.24505,4.444762 4.24504,4.767708 4.46847,5.36753 4.46847,5.725365 4.46847,6.0832 4.69189,6.772481 4.69189,7.166994 4.91532,7.93142 4.91531,8.364398 4.91532,8.79738 5.13874,9.66021 5.13873,10.13345 5.36217,11.07858 5.36216,11.59387 5.58558,12.62488 5.58559,13.18399 5.58559,13.74311 5.809,14.88595 5.80901,15.49069 6.03244,16.72657 4.63276,13.28843 0,0" /></g></g><g
       id="g26"><g
         clip-path="url(#clipPath30)"
         id="g28"><path
           id="path34"
           style="fill:none;stroke:#008000;stroke-width:1;stroke-linecap:square;stroke-linejoin:round;stroke-miterlimit:10;stroke-dasharray:none;stroke-opacity:1"
           d="m 83.01785,24.400977 0.223312,2.584501 0.223311,1.779288 0.669936,3.814478 0.893246,3.679276 1.116559,3.622742 1.33987,3.593407 1.563182,3.576156 1.786494,3.565127 2.233117,3.92974 2.456429,3.850354 2.67974,3.793168 3.126364,4.02607 3.34968,3.950085 3.79629,4.124813 4.24293,4.262068 4.46623,4.169907 4.91286,4.283917 5.35948,4.37715 5.8061,4.454054 6.25273,4.518032 6.92267,4.7198 7.36928,4.74955 7.81591,4.77476 8.48585,4.92271 9.15578,5.04959 9.82571,5.15882 10.49565,5.25322 11.16559,5.33518 11.83552,5.40663 12.50546,5.46919 13.3987,5.61589 14.29195,5.74514 15.18519,5.8593 16.07845,5.96038 12.05883,4.32264 0,0" /></g></g><g
       id="g36"><g
         clip-path="url(#clipPath40)"
         id="g38"><path
           id="path44"
           style="fill:none;stroke:#ff0000;stroke-width:1;stroke-linecap:square;stroke-linejoin:round;stroke-miterlimit:10;stroke-dasharray:none;stroke-opacity:1"
           d="m 82.90625,20.871875 223.2,223.199995 0,0" /></g></g><g
       id="g46"><path
         id="path48"
         style="fill:none;stroke:#000000;stroke-width:1;stroke-linecap:square;stroke-linejoin:miter;stroke-miterlimit:10;stroke-dasharray:none;stroke-opacity:1"
         d="m 27.10625,20.871875 0,223.199995" /><path
         id="path50"
         style="fill:none;stroke:#000000;stroke-width:1;stroke-linecap:square;stroke-linejoin:miter;stroke-miterlimit:10;stroke-dasharray:none;stroke-opacity:1"
         d="m 27.10625,20.871875 334.8,0" /><path
         id="path52"
         style="fill:none;stroke:#000000;stroke-width:1;stroke-linecap:square;stroke-linejoin:miter;stroke-miterlimit:10;stroke-dasharray:none;stroke-opacity:1"
         d="m 27.10625,244.07187 334.8,0" /><path
         id="path54"
         style="fill:none;stroke:#000000;stroke-width:1;stroke-linecap:square;stroke-linejoin:miter;stroke-miterlimit:10;stroke-dasharray:none;stroke-opacity:1"
         d="m 361.90625,20.871875 0,223.199995" /><path
         id="path56"
         style="fill:#000000;fill-opacity:1;fill-rule:nonzero;stroke:#000000;stroke-width:0.5;stroke-linecap:butt;stroke-linejoin:round;stroke-miterlimit:10;stroke-dasharray:none;stroke-opacity:1"
         d="m 27.10625,20.871875 0,4" /><path
         id="path58"
         style="fill:#000000;fill-opacity:1;fill-rule:nonzero;stroke:#000000;stroke-width:0.5;stroke-linecap:butt;stroke-linejoin:round;stroke-miterlimit:10;stroke-dasharray:none;stroke-opacity:1"
         d="m 27.10625,244.07187 0,-4" /><g
         transform="translate(14.965625,9.278125)"
         id="g60"><text
           id="text62"
           style="font-variant:normal;font-weight:normal;font-size:10px;font-family:'Bitstream Vera Sans';-inkscape-font-specification:BitstreamVeraSans-Roman;writing-mode:lr-tb;fill:#000000;fill-opacity:1;fill-rule:nonzero;stroke:none"
           transform="matrix(1,0,0,-1,8.3789063,0)"><tspan
             id="tspan64"
             y="0"
             x="0 6.3600001 9.54">0.5</tspan></text>
<g
           transform="scale(0.01,0.01)"
           id="g66"><g
             id="g68"><g
               clip-path="url(#clipPath72)"
               id="g70"><path
                 id="path76"
                 style="fill:#000000;fill-opacity:1;fill-rule:nonzero;stroke:none"
                 d="m 106,355 626,0 0,-83 -626,0 0,83" /></g></g></g></g><path
         id="path78"
         style="fill:#000000;fill-opacity:1;fill-rule:nonzero;stroke:#000000;stroke-width:0.5;stroke-linecap:butt;stroke-linejoin:round;stroke-miterlimit:10;stroke-dasharray:none;stroke-opacity:1"
         d="m 82.90625,20.871875 0,4" /><path
         id="path80"
         style="fill:#000000;fill-opacity:1;fill-rule:nonzero;stroke:#000000;stroke-width:0.5;stroke-linecap:butt;stroke-linejoin:round;stroke-miterlimit:10;stroke-dasharray:none;stroke-opacity:1"
         d="m 82.90625,244.07187 0,-4" /><text
         id="text82"
         style="font-variant:normal;font-weight:normal;font-size:10px;font-family:'Bitstream Vera Sans';-inkscape-font-specification:BitstreamVeraSans-Roman;writing-mode:lr-tb;fill:#000000;fill-opacity:1;fill-rule:nonzero;stroke:none"
         transform="matrix(1,0,0,-1,74.953125,9.278125)"><tspan
           id="tspan84"
           y="0"
           x="0 6.3600001 9.54">0.0</tspan></text>
<path
         id="path86"
         style="fill:#000000;fill-opacity:1;fill-rule:nonzero;stroke:#000000;stroke-width:0.5;stroke-linecap:butt;stroke-linejoin:round;stroke-miterlimit:10;stroke-dasharray:none;stroke-opacity:1"
         d="m 138.70625,20.871875 0,4" /><path
         id="path88"
         style="fill:#000000;fill-opacity:1;fill-rule:nonzero;stroke:#000000;stroke-width:0.5;stroke-linecap:butt;stroke-linejoin:round;stroke-miterlimit:10;stroke-dasharray:none;stroke-opacity:1"
         d="m 138.70625,244.07187 0,-4" /><text
         id="text90"
         style="font-variant:normal;font-weight:normal;font-size:10px;font-family:'Bitstream Vera Sans';-inkscape-font-specification:BitstreamVeraSans-Roman;writing-mode:lr-tb;fill:#000000;fill-opacity:1;fill-rule:nonzero;stroke:none"
         transform="matrix(1,0,0,-1,130.75312,9.278125)"><tspan
           id="tspan92"
           y="0"
           x="0 6.3600001 9.54">0.5</tspan></text>
<path
         id="path94"
         style="fill:#000000;fill-opacity:1;fill-rule:nonzero;stroke:#000000;stroke-width:0.5;stroke-linecap:butt;stroke-linejoin:round;stroke-miterlimit:10;stroke-dasharray:none;stroke-opacity:1"
         d="m 194.50625,20.871875 0,4" /><path
         id="path96"
         style="fill:#000000;fill-opacity:1;fill-rule:nonzero;stroke:#000000;stroke-width:0.5;stroke-linecap:butt;stroke-linejoin:round;stroke-miterlimit:10;stroke-dasharray:none;stroke-opacity:1"
         d="m 194.50625,244.07187 0,-4" /><text
         id="text98"
         style="font-variant:normal;font-weight:normal;font-size:10px;font-family:'Bitstream Vera Sans';-inkscape-font-specification:BitstreamVeraSans-Roman;writing-mode:lr-tb;fill:#000000;fill-opacity:1;fill-rule:nonzero;stroke:none"
         transform="matrix(1,0,0,-1,186.55312,9.278125)"><tspan
           id="tspan100"
           y="0"
           x="0 6.3600001 9.54">1.0</tspan></text>
<path
         id="path102"
         style="fill:#000000;fill-opacity:1;fill-rule:nonzero;stroke:#000000;stroke-width:0.5;stroke-linecap:butt;stroke-linejoin:round;stroke-miterlimit:10;stroke-dasharray:none;stroke-opacity:1"
         d="m 250.30625,20.871875 0,4" /><path
         id="path104"
         style="fill:#000000;fill-opacity:1;fill-rule:nonzero;stroke:#000000;stroke-width:0.5;stroke-linecap:butt;stroke-linejoin:round;stroke-miterlimit:10;stroke-dasharray:none;stroke-opacity:1"
         d="m 250.30625,244.07187 0,-4" /><text
         id="text106"
         style="font-variant:normal;font-weight:normal;font-size:10px;font-family:'Bitstream Vera Sans';-inkscape-font-specification:BitstreamVeraSans-Roman;writing-mode:lr-tb;fill:#000000;fill-opacity:1;fill-rule:nonzero;stroke:none"
         transform="matrix(1,0,0,-1,242.35312,9.278125)"><tspan
           id="tspan108"
           y="0"
           x="0 6.3600001 9.54">1.5</tspan></text>
<path
         id="path110"
         style="fill:#000000;fill-opacity:1;fill-rule:nonzero;stroke:#000000;stroke-width:0.5;stroke-linecap:butt;stroke-linejoin:round;stroke-miterlimit:10;stroke-dasharray:none;stroke-opacity:1"
         d="m 306.10625,20.871875 0,4" /><path
         id="path112"
         style="fill:#000000;fill-opacity:1;fill-rule:nonzero;stroke:#000000;stroke-width:0.5;stroke-linecap:butt;stroke-linejoin:round;stroke-miterlimit:10;stroke-dasharray:none;stroke-opacity:1"
         d="m 306.10625,244.07187 0,-4" /><text
         id="text114"
         style="font-variant:normal;font-weight:normal;font-size:10px;font-family:'Bitstream Vera Sans';-inkscape-font-specification:BitstreamVeraSans-Roman;writing-mode:lr-tb;fill:#000000;fill-opacity:1;fill-rule:nonzero;stroke:none"
         transform="matrix(1,0,0,-1,298.15312,9.278125)"><tspan
           id="tspan116"
           y="0"
           x="0 6.3600001 9.54">2.0</tspan></text>
<path
         id="path118"
         style="fill:#000000;fill-opacity:1;fill-rule:nonzero;stroke:#000000;stroke-width:0.5;stroke-linecap:butt;stroke-linejoin:round;stroke-miterlimit:10;stroke-dasharray:none;stroke-opacity:1"
         d="m 361.90625,20.871875 0,4" /><path
         id="path120"
         style="fill:#000000;fill-opacity:1;fill-rule:nonzero;stroke:#000000;stroke-width:0.5;stroke-linecap:butt;stroke-linejoin:round;stroke-miterlimit:10;stroke-dasharray:none;stroke-opacity:1"
         d="m 361.90625,244.07187 0,-4" /><text
         id="text122"
         style="font-variant:normal;font-weight:normal;font-size:10px;font-family:'Bitstream Vera Sans';-inkscape-font-specification:BitstreamVeraSans-Roman;writing-mode:lr-tb;fill:#000000;fill-opacity:1;fill-rule:nonzero;stroke:none"
         transform="matrix(1,0,0,-1,353.95312,9.278125)"><tspan
           id="tspan124"
           y="0"
           x="0 6.3600001 9.54">2.5</tspan></text>
<path
         id="path126"
         style="fill:#000000;fill-opacity:1;fill-rule:nonzero;stroke:#000000;stroke-width:0.5;stroke-linecap:butt;stroke-linejoin:round;stroke-miterlimit:10;stroke-dasharray:none;stroke-opacity:1"
         d="m 27.10625,20.871875 4,0" /><path
         id="path128"
         style="fill:#000000;fill-opacity:1;fill-rule:nonzero;stroke:#000000;stroke-width:0.5;stroke-linecap:butt;stroke-linejoin:round;stroke-miterlimit:10;stroke-dasharray:none;stroke-opacity:1"
         d="m 361.90625,20.871875 -4,0" /><text
         id="text130"
         style="font-variant:normal;font-weight:normal;font-size:10px;font-family:'Bitstream Vera Sans';-inkscape-font-specification:BitstreamVeraSans-Roman;writing-mode:lr-tb;fill:#000000;fill-opacity:1;fill-rule:nonzero;stroke:none"
         transform="matrix(1,0,0,-1,7.2,18.114063)"><tspan
           id="tspan132"
           y="0"
           x="0 6.3600001 9.54">0.0</tspan></text>
<path
         id="path134"
         style="fill:#000000;fill-opacity:1;fill-rule:nonzero;stroke:#000000;stroke-width:0.5;stroke-linecap:butt;stroke-linejoin:round;stroke-miterlimit:10;stroke-dasharray:none;stroke-opacity:1"
         d="m 27.10625,76.671875 4,0" /><path
         id="path136"
         style="fill:#000000;fill-opacity:1;fill-rule:nonzero;stroke:#000000;stroke-width:0.5;stroke-linecap:butt;stroke-linejoin:round;stroke-miterlimit:10;stroke-dasharray:none;stroke-opacity:1"
         d="m 361.90625,76.671875 -4,0" /><text
         id="text138"
         style="font-variant:normal;font-weight:normal;font-size:10px;font-family:'Bitstream Vera Sans';-inkscape-font-specification:BitstreamVeraSans-Roman;writing-mode:lr-tb;fill:#000000;fill-opacity:1;fill-rule:nonzero;stroke:none"
         transform="matrix(1,0,0,-1,7.2,73.914063)"><tspan
           id="tspan140"
           y="0"
           x="0 6.3600001 9.54">0.5</tspan></text>
<path
         id="path142"
         style="fill:#000000;fill-opacity:1;fill-rule:nonzero;stroke:#000000;stroke-width:0.5;stroke-linecap:butt;stroke-linejoin:round;stroke-miterlimit:10;stroke-dasharray:none;stroke-opacity:1"
         d="m 27.10625,132.47187 4,0" /><path
         id="path144"
         style="fill:#000000;fill-opacity:1;fill-rule:nonzero;stroke:#000000;stroke-width:0.5;stroke-linecap:butt;stroke-linejoin:round;stroke-miterlimit:10;stroke-dasharray:none;stroke-opacity:1"
         d="m 361.90625,132.47187 -4,0" /><text
         id="text146"
         style="font-variant:normal;font-weight:normal;font-size:10px;font-family:'Bitstream Vera Sans';-inkscape-font-specification:BitstreamVeraSans-Roman;writing-mode:lr-tb;fill:#000000;fill-opacity:1;fill-rule:nonzero;stroke:none"
         transform="matrix(1,0,0,-1,7.2,129.71406)"><tspan
           id="tspan148"
           y="0"
           x="0 6.3600001 9.54">1.0</tspan></text>
<path
         id="path150"
         style="fill:#000000;fill-opacity:1;fill-rule:nonzero;stroke:#000000;stroke-width:0.5;stroke-linecap:butt;stroke-linejoin:round;stroke-miterlimit:10;stroke-dasharray:none;stroke-opacity:1"
         d="m 27.10625,188.27187 4,0" /><path
         id="path152"
         style="fill:#000000;fill-opacity:1;fill-rule:nonzero;stroke:#000000;stroke-width:0.5;stroke-linecap:butt;stroke-linejoin:round;stroke-miterlimit:10;stroke-dasharray:none;stroke-opacity:1"
         d="m 361.90625,188.27187 -4,0" /><text
         id="text154"
         style="font-variant:normal;font-weight:normal;font-size:10px;font-family:'Bitstream Vera Sans';-inkscape-font-specification:BitstreamVeraSans-Roman;writing-mode:lr-tb;fill:#000000;fill-opacity:1;fill-rule:nonzero;stroke:none"
         transform="matrix(1,0,0,-1,7.2,185.51406)"><tspan
           id="tspan156"
           y="0"
           x="0 6.3600001 9.54">1.5</tspan></text>
<path
         id="path158"
         style="fill:#000000;fill-opacity:1;fill-rule:nonzero;stroke:#000000;stroke-width:0.5;stroke-linecap:butt;stroke-linejoin:round;stroke-miterlimit:10;stroke-dasharray:none;stroke-opacity:1"
         d="m 27.10625,244.07187 4,0" /><path
         id="path160"
         style="fill:#000000;fill-opacity:1;fill-rule:nonzero;stroke:#000000;stroke-width:0.5;stroke-linecap:butt;stroke-linejoin:round;stroke-miterlimit:10;stroke-dasharray:none;stroke-opacity:1"
         d="m 361.90625,244.07187 -4,0" /><text
         id="text162"
         style="font-variant:normal;font-weight:normal;font-size:10px;font-family:'Bitstream Vera Sans';-inkscape-font-specification:BitstreamVeraSans-Roman;writing-mode:lr-tb;fill:#000000;fill-opacity:1;fill-rule:nonzero;stroke:none"
         transform="matrix(1,0,0,-1,7.2,241.31406)"><tspan
           id="tspan164"
           y="0"
           x="0 6.3600001 9.54">2.0</tspan></text>
</g></g></svg>