<?xml version="1.0" encoding="UTF-8" standalone="no"?>
<svg
   xmlns:dc="http://purl.org/dc/elements/1.1/"
   xmlns:cc="http://creativecommons.org/ns#"
   xmlns:rdf="http://www.w3.org/1999/02/22-rdf-syntax-ns#"
   xmlns:svg="http://www.w3.org/2000/svg"
   xmlns="http://www.w3.org/2000/svg"
   viewBox="0 0 616.80078 476.79688"
   height="476.79688"
   width="616.80078"
   xml:space="preserve"
   version="1.1"
   id="svg2"><metadata
     id="metadata8"><rdf:RDF><cc:Work
         rdf:about=""><dc:format>image/svg+xml</dc:format><dc:type
           rdf:resource="http://purl.org/dc/dcmitype/StillImage" /></cc:Work></rdf:RDF></metadata><defs
     id="defs6"><clipPath
       id="clipPath20"
       clipPathUnits="userSpaceOnUse"><path
         id="path22"
         d="m 30.29375,22.825 446.4,0 0,345.6 -446.4,0 0,-345.6 z" /></clipPath></defs><g
     transform="matrix(1.25,0,0,-1.25,0,476.79687)"
     id="g10"><path
       id="path12"
       style="fill:#ffffff;fill-opacity:1;fill-rule:nonzero;stroke:none"
       d="m 0,0 493.44062,0 0,381.4375 L 0,381.4375 0,0 Z" /><path
       id="path14"
       style="fill:#ffffff;fill-opacity:1;fill-rule:nonzero;stroke:none"
       d="m 30.29375,22.825 446.4,0 0,345.6 -446.4,0 0,-345.6 z" /><g
       id="g16"><g
         clip-path="url(#clipPath20)"
         id="g18"><path
           id="path24"
           style="fill:none;stroke:#ff0000;stroke-width:1;stroke-linecap:butt;stroke-linejoin:miter;stroke-miterlimit:10;stroke-dasharray:none;stroke-opacity:1"
           d="m 30.293894,22.825 0,161.84169 4.463998,0 0,-7.0848 4.463997,0 0,-8.22241 4.463998,0 0,-2.4192 4.463997,0 0,-2.808 4.463998,0 0,-1.5984 4.463997,0 0,-4.49281 4.463998,0 0,-5.256 4.463997,0 0,-3.312 4.463998,0 0,-3.384 4.463997,0 0,-5.80321 4.463998,0 0,-4.6224 4.463998,0 0,-1.8288 4.463997,0 0,-4.2336 4.463998,0 0,-1.9008 4.463997,0 0,-2.7936 4.464003,0 0,-3.096 4.46399,0 0,-4.82401 4.464,0 0,-1.7568 4.464,0 0,-2.1312 4.46399,0 0,-4.032 4.464,0 0,-1.944 4.464,0 0,-0.432 4.464,0 0,-4.37761 4.46399,0 0,-0.4752 4.464,0 0,-3.787198 4.464,0 0,-2.462402 4.464,0 0,-2.894401 4.46399,0 0,-0.446401 4.464,0 0,-3.240001 4.464,0 0,-0.806401 4.464,0 0,-2.822401 4.46399,0 0,-0.504001 4.464,0 0,-4.118402 4.464,0 0,0.4176 4.464,0 0,-2.217601 4.46399,0 0,-3.052802 4.464,0 0,-1.2096 4.464,0 0,-1.008001 4.464,0 0,-2.203201 13.39199,0.0144 0,-2.419201 4.464,0 0,-2.707202 4.464,0 0,-0.2304 4.46399,0 0,-1.756801 4.464,0 0,-0.993601 4.464,0 0,-2.433601 4.464,0 0,-0.3456 4.46399,0 0,-1.252801 4.464,0 0,-0.4896 4.464,0 0,-2.232001 4.464,0 0,-0.676801 4.46399,0 0,-11.808006 4.464,0 0,-21.326412 53.56797,0 0,99.97926 4.464,0 0,205.34411 4.464,0 0,-3.744 4.46399,0 0,1.9152 4.464,0 0,-1.2528 4.464,0 0,-2.304 4.464,0 0,2.8656 4.46399,0 0,-4.32001 4.464,0 0,3.05281 4.464,0 0,1.6128 4.464,0 0,-2.2608 4.46399,0 0,3.6144 4.464,0 0,1.4832 4.464,0 0,-4.896 4.464,0 0,0.4032 4.46399,0 0,-1.0224 4.464,0 0,2.4912 4.464,0 0,-0.5616 4.464,0 0,-1.2528 4.46399,0 0,4.9968 4.464,0 0,-5.4864 4.464,0 0,3.2544 4.464,0 0,-2.4624 8.92799,-0.0288 0,3.096 4.464,0 0,1.8576 4.464,0 0,-6.0768 4.464,0 0,1.0944 4.46399,0 0,-1.1376 4.464,0 0,3.2544 4.464,0 0,-0.1584 4.46399,0 0,-1.7424 4.464,0 0,3.024 4.464,0 0,-0.4752 4.464,0 0,-304.15697 0,0" /></g></g><g
       id="g26"><path
         id="path28"
         style="fill:none;stroke:#000000;stroke-width:1;stroke-linecap:square;stroke-linejoin:miter;stroke-miterlimit:10;stroke-dasharray:none;stroke-opacity:1"
         d="m 30.29375,368.425 446.4,0" /><path
         id="path30"
         style="fill:none;stroke:#000000;stroke-width:1;stroke-linecap:square;stroke-linejoin:miter;stroke-miterlimit:10;stroke-dasharray:none;stroke-opacity:1"
         d="m 30.29375,22.825 446.4,0" /><path
         id="path32"
         style="fill:none;stroke:#000000;stroke-width:1;stroke-linecap:square;stroke-linejoin:miter;stroke-miterlimit:10;stroke-dasharray:none;stroke-opacity:1"
         d="m 476.69375,22.825 0,345.6" /><path
         id="path34"
         style="fill:none;stroke:#000000;stroke-width:1;stroke-linecap:square;stroke-linejoin:miter;stroke-miterlimit:10;stroke-dasharray:none;stroke-opacity:1"
         d="m 30.29375,22.825 0,345.6" /><path
         id="path36"
         style="fill:#000000;fill-opacity:1;fill-rule:nonzero;stroke:#000000;stroke-width:0.5;stroke-linecap:butt;stroke-linejoin:round;stroke-miterlimit:10;stroke-dasharray:none;stroke-opacity:1"
         d="m 30.29375,22.825 0,4" /><path
         id="path38"
         style="fill:#000000;fill-opacity:1;fill-rule:nonzero;stroke:#000000;stroke-width:0.5;stroke-linecap:butt;stroke-linejoin:round;stroke-miterlimit:10;stroke-dasharray:none;stroke-opacity:1"
         d="m 30.29375,368.425 0,-4" /><text
         id="text40"
         style="font-variant:normal;font-weight:normal;font-size:12px;font-family:'Bitstream Vera Sans';-inkscape-font-specification:BitstreamVeraSans-Roman;writing-mode:lr-tb;fill:#000000;fill-opacity:1;fill-rule:nonzero;stroke:none"
         transform="matrix(1,0,0,-1,20.746875,9.7)"><tspan
           id="tspan42"
           y="0"
           x="0 7.632 11.448">0.0</tspan></text>
<path
         id="path44"
         style="fill:#000000;fill-opacity:1;fill-rule:nonzero;stroke:#000000;stroke-width:0.5;stroke-linecap:butt;stroke-linejoin:round;stroke-miterlimit:10;stroke-dasharray:none;stroke-opacity:1"
         d="m 104.69375,22.825 0,4" /><path
         id="path46"
         style="fill:#000000;fill-opacity:1;fill-rule:nonzero;stroke:#000000;stroke-width:0.5;stroke-linecap:butt;stroke-linejoin:round;stroke-miterlimit:10;stroke-dasharray:none;stroke-opacity:1"
         d="m 104.69375,368.425 0,-4" /><text
         id="text48"
         style="font-variant:normal;font-weight:normal;font-size:12px;font-family:'Bitstream Vera Sans';-inkscape-font-specification:BitstreamVeraSans-Roman;writing-mode:lr-tb;fill:#000000;fill-opacity:1;fill-rule:nonzero;stroke:none"
         transform="matrix(1,0,0,-1,95.146875,9.7)"><tspan
           id="tspan50"
           y="0"
           x="0 7.632 11.448">0.5</tspan></text>
<path
         id="path52"
         style="fill:#000000;fill-opacity:1;fill-rule:nonzero;stroke:#000000;stroke-width:0.5;stroke-linecap:butt;stroke-linejoin:round;stroke-miterlimit:10;stroke-dasharray:none;stroke-opacity:1"
         d="m 179.09375,22.825 0,4" /><path
         id="path54"
         style="fill:#000000;fill-opacity:1;fill-rule:nonzero;stroke:#000000;stroke-width:0.5;stroke-linecap:butt;stroke-linejoin:round;stroke-miterlimit:10;stroke-dasharray:none;stroke-opacity:1"
         d="m 179.09375,368.425 0,-4" /><text
         id="text56"
         style="font-variant:normal;font-weight:normal;font-size:12px;font-family:'Bitstream Vera Sans';-inkscape-font-specification:BitstreamVeraSans-Roman;writing-mode:lr-tb;fill:#000000;fill-opacity:1;fill-rule:nonzero;stroke:none"
         transform="matrix(1,0,0,-1,169.54687,9.7)"><tspan
           id="tspan58"
           y="0"
           x="0 7.632 11.448">1.0</tspan></text>
<path
         id="path60"
         style="fill:#000000;fill-opacity:1;fill-rule:nonzero;stroke:#000000;stroke-width:0.5;stroke-linecap:butt;stroke-linejoin:round;stroke-miterlimit:10;stroke-dasharray:none;stroke-opacity:1"
         d="m 253.49375,22.825 0,4" /><path
         id="path62"
         style="fill:#000000;fill-opacity:1;fill-rule:nonzero;stroke:#000000;stroke-width:0.5;stroke-linecap:butt;stroke-linejoin:round;stroke-miterlimit:10;stroke-dasharray:none;stroke-opacity:1"
         d="m 253.49375,368.425 0,-4" /><text
         id="text64"
         style="font-variant:normal;font-weight:normal;font-size:12px;font-family:'Bitstream Vera Sans';-inkscape-font-specification:BitstreamVeraSans-Roman;writing-mode:lr-tb;fill:#000000;fill-opacity:1;fill-rule:nonzero;stroke:none"
         transform="matrix(1,0,0,-1,243.94687,9.7)"><tspan
           id="tspan66"
           y="0"
           x="0 7.632 11.448">1.5</tspan></text>
<path
         id="path68"
         style="fill:#000000;fill-opacity:1;fill-rule:nonzero;stroke:#000000;stroke-width:0.5;stroke-linecap:butt;stroke-linejoin:round;stroke-miterlimit:10;stroke-dasharray:none;stroke-opacity:1"
         d="m 327.89375,22.825 0,4" /><path
         id="path70"
         style="fill:#000000;fill-opacity:1;fill-rule:nonzero;stroke:#000000;stroke-width:0.5;stroke-linecap:butt;stroke-linejoin:round;stroke-miterlimit:10;stroke-dasharray:none;stroke-opacity:1"
         d="m 327.89375,368.425 0,-4" /><text
         id="text72"
         style="font-variant:normal;font-weight:normal;font-size:12px;font-family:'Bitstream Vera Sans';-inkscape-font-specification:BitstreamVeraSans-Roman;writing-mode:lr-tb;fill:#000000;fill-opacity:1;fill-rule:nonzero;stroke:none"
         transform="matrix(1,0,0,-1,318.34687,9.7)"><tspan
           id="tspan74"
           y="0"
           x="0 7.632 11.448">2.0</tspan></text>
<path
         id="path76"
         style="fill:#000000;fill-opacity:1;fill-rule:nonzero;stroke:#000000;stroke-width:0.5;stroke-linecap:butt;stroke-linejoin:round;stroke-miterlimit:10;stroke-dasharray:none;stroke-opacity:1"
         d="m 402.29375,22.825 0,4" /><path
         id="path78"
         style="fill:#000000;fill-opacity:1;fill-rule:nonzero;stroke:#000000;stroke-width:0.5;stroke-linecap:butt;stroke-linejoin:round;stroke-miterlimit:10;stroke-dasharray:none;stroke-opacity:1"
         d="m 402.29375,368.425 0,-4" /><text
         id="text80"
         style="font-variant:normal;font-weight:normal;font-size:12px;font-family:'Bitstream Vera Sans';-inkscape-font-specification:BitstreamVeraSans-Roman;writing-mode:lr-tb;fill:#000000;fill-opacity:1;fill-rule:nonzero;stroke:none"
         transform="matrix(1,0,0,-1,392.74687,9.7)"><tspan
           id="tspan82"
           y="0"
           x="0 7.632 11.448">2.5</tspan></text>
<path
         id="path84"
         style="fill:#000000;fill-opacity:1;fill-rule:nonzero;stroke:#000000;stroke-width:0.5;stroke-linecap:butt;stroke-linejoin:round;stroke-miterlimit:10;stroke-dasharray:none;stroke-opacity:1"
         d="m 476.69375,22.825 0,4" /><path
         id="path86"
         style="fill:#000000;fill-opacity:1;fill-rule:nonzero;stroke:#000000;stroke-width:0.5;stroke-linecap:butt;stroke-linejoin:round;stroke-miterlimit:10;stroke-dasharray:none;stroke-opacity:1"
         d="m 476.69375,368.425 0,-4" /><text
         id="text88"
         style="font-variant:normal;font-weight:normal;font-size:12px;font-family:'Bitstream Vera Sans';-inkscape-font-specification:BitstreamVeraSans-Roman;writing-mode:lr-tb;fill:#000000;fill-opacity:1;fill-rule:nonzero;stroke:none"
         transform="matrix(1,0,0,-1,467.14688,9.7)"><tspan
           id="tspan90"
           y="0"
           x="0 7.632 11.448">3.0</tspan></text>
<path
         id="path92"
         style="fill:#000000;fill-opacity:1;fill-rule:nonzero;stroke:#000000;stroke-width:0.5;stroke-linecap:butt;stroke-linejoin:round;stroke-miterlimit:10;stroke-dasharray:none;stroke-opacity:1"
         d="m 30.29375,22.825 4,0" /><path
         id="path94"
         style="fill:#000000;fill-opacity:1;fill-rule:nonzero;stroke:#000000;stroke-width:0.5;stroke-linecap:butt;stroke-linejoin:round;stroke-miterlimit:10;stroke-dasharray:none;stroke-opacity:1"
         d="m 476.69375,22.825 -4,0" /><text
         id="text96"
         style="font-variant:normal;font-weight:normal;font-size:12px;font-family:'Bitstream Vera Sans';-inkscape-font-specification:BitstreamVeraSans-Roman;writing-mode:lr-tb;fill:#000000;fill-opacity:1;fill-rule:nonzero;stroke:none"
         transform="matrix(1,0,0,-1,7.2,19.5125)"><tspan
           id="tspan98"
           y="0"
           x="0 7.632 11.448">0.0</tspan></text>
<path
         id="path100"
         style="fill:#000000;fill-opacity:1;fill-rule:nonzero;stroke:#000000;stroke-width:0.5;stroke-linecap:butt;stroke-linejoin:round;stroke-miterlimit:10;stroke-dasharray:none;stroke-opacity:1"
         d="m 30.29375,66.025 4,0" /><path
         id="path102"
         style="fill:#000000;fill-opacity:1;fill-rule:nonzero;stroke:#000000;stroke-width:0.5;stroke-linecap:butt;stroke-linejoin:round;stroke-miterlimit:10;stroke-dasharray:none;stroke-opacity:1"
         d="m 476.69375,66.025 -4,0" /><text
         id="text104"
         style="font-variant:normal;font-weight:normal;font-size:12px;font-family:'Bitstream Vera Sans';-inkscape-font-specification:BitstreamVeraSans-Roman;writing-mode:lr-tb;fill:#000000;fill-opacity:1;fill-rule:nonzero;stroke:none"
         transform="matrix(1,0,0,-1,7.2,62.7125)"><tspan
           id="tspan106"
           y="0"
           x="0 7.632 11.448">0.1</tspan></text>
<path
         id="path108"
         style="fill:#000000;fill-opacity:1;fill-rule:nonzero;stroke:#000000;stroke-width:0.5;stroke-linecap:butt;stroke-linejoin:round;stroke-miterlimit:10;stroke-dasharray:none;stroke-opacity:1"
         d="m 30.29375,109.225 4,0" /><path
         id="path110"
         style="fill:#000000;fill-opacity:1;fill-rule:nonzero;stroke:#000000;stroke-width:0.5;stroke-linecap:butt;stroke-linejoin:round;stroke-miterlimit:10;stroke-dasharray:none;stroke-opacity:1"
         d="m 476.69375,109.225 -4,0" /><text
         id="text112"
         style="font-variant:normal;font-weight:normal;font-size:12px;font-family:'Bitstream Vera Sans';-inkscape-font-specification:BitstreamVeraSans-Roman;writing-mode:lr-tb;fill:#000000;fill-opacity:1;fill-rule:nonzero;stroke:none"
         transform="matrix(1,0,0,-1,7.2,105.9125)"><tspan
           id="tspan114"
           y="0"
           x="0 7.632 11.448">0.2</tspan></text>
<path
         id="path116"
         style="fill:#000000;fill-opacity:1;fill-rule:nonzero;stroke:#000000;stroke-width:0.5;stroke-linecap:butt;stroke-linejoin:round;stroke-miterlimit:10;stroke-dasharray:none;stroke-opacity:1"
         d="m 30.29375,152.425 4,0" /><path
         id="path118"
         style="fill:#000000;fill-opacity:1;fill-rule:nonzero;stroke:#000000;stroke-width:0.5;stroke-linecap:butt;stroke-linejoin:round;stroke-miterlimit:10;stroke-dasharray:none;stroke-opacity:1"
         d="m 476.69375,152.425 -4,0" /><text
         id="text120"
         style="font-variant:normal;font-weight:normal;font-size:12px;font-family:'Bitstream Vera Sans';-inkscape-font-specification:BitstreamVeraSans-Roman;writing-mode:lr-tb;fill:#000000;fill-opacity:1;fill-rule:nonzero;stroke:none"
         transform="matrix(1,0,0,-1,7.2,149.1125)"><tspan
           id="tspan122"
           y="0"
           x="0 7.632 11.448">0.3</tspan></text>
<path
         id="path124"
         style="fill:#000000;fill-opacity:1;fill-rule:nonzero;stroke:#000000;stroke-width:0.5;stroke-linecap:butt;stroke-linejoin:round;stroke-miterlimit:10;stroke-dasharray:none;stroke-opacity:1"
         d="m 30.29375,195.625 4,0" /><path
         id="path126"
         style="fill:#000000;fill-opacity:1;fill-rule:nonzero;stroke:#000000;stroke-width:0.5;stroke-linecap:butt;stroke-linejoin:round;stroke-miterlimit:10;stroke-dasharray:none;stroke-opacity:1"
         d="m 476.69375,195.625 -4,0" /><text
         id="text128"
         style="font-variant:normal;font-weight:normal;font-size:12px;font-family:'Bitstream Vera Sans';-inkscape-font-specification:BitstreamVeraSans-Roman;writing-mode:lr-tb;fill:#000000;fill-opacity:1;fill-rule:nonzero;stroke:none"
         transform="matrix(1,0,0,-1,7.2,192.3125)"><tspan
           id="tspan130"
           y="0"
           x="0 7.632 11.448">0.4</tspan></text>
<path
         id="path132"
         style="fill:#000000;fill-opacity:1;fill-rule:nonzero;stroke:#000000;stroke-width:0.5;stroke-linecap:butt;stroke-linejoin:round;stroke-miterlimit:10;stroke-dasharray:none;stroke-opacity:1"
         d="m 30.29375,238.825 4,0" /><path
         id="path134"
         style="fill:#000000;fill-opacity:1;fill-rule:nonzero;stroke:#000000;stroke-width:0.5;stroke-linecap:butt;stroke-linejoin:round;stroke-miterlimit:10;stroke-dasharray:none;stroke-opacity:1"
         d="m 476.69375,238.825 -4,0" /><text
         id="text136"
         style="font-variant:normal;font-weight:normal;font-size:12px;font-family:'Bitstream Vera Sans';-inkscape-font-specification:BitstreamVeraSans-Roman;writing-mode:lr-tb;fill:#000000;fill-opacity:1;fill-rule:nonzero;stroke:none"
         transform="matrix(1,0,0,-1,7.2,235.5125)"><tspan
           id="tspan138"
           y="0"
           x="0 7.632 11.448">0.5</tspan></text>
<path
         id="path140"
         style="fill:#000000;fill-opacity:1;fill-rule:nonzero;stroke:#000000;stroke-width:0.5;stroke-linecap:butt;stroke-linejoin:round;stroke-miterlimit:10;stroke-dasharray:none;stroke-opacity:1"
         d="m 30.29375,282.025 4,0" /><path
         id="path142"
         style="fill:#000000;fill-opacity:1;fill-rule:nonzero;stroke:#000000;stroke-width:0.5;stroke-linecap:butt;stroke-linejoin:round;stroke-miterlimit:10;stroke-dasharray:none;stroke-opacity:1"
         d="m 476.69375,282.025 -4,0" /><text
         id="text144"
         style="font-variant:normal;font-weight:normal;font-size:12px;font-family:'Bitstream Vera Sans';-inkscape-font-specification:BitstreamVeraSans-Roman;writing-mode:lr-tb;fill:#000000;fill-opacity:1;fill-rule:nonzero;stroke:none"
         transform="matrix(1,0,0,-1,7.2,278.7125)"><tspan
           id="tspan146"
           y="0"
           x="0 7.632 11.448">0.6</tspan></text>
<path
         id="path148"
         style="fill:#000000;fill-opacity:1;fill-rule:nonzero;stroke:#000000;stroke-width:0.5;stroke-linecap:butt;stroke-linejoin:round;stroke-miterlimit:10;stroke-dasharray:none;stroke-opacity:1"
         d="m 30.29375,325.225 4,0" /><path
         id="path150"
         style="fill:#000000;fill-opacity:1;fill-rule:nonzero;stroke:#000000;stroke-width:0.5;stroke-linecap:butt;stroke-linejoin:round;stroke-miterlimit:10;stroke-dasharray:none;stroke-opacity:1"
         d="m 476.69375,325.225 -4,0" /><text
         id="text152"
         style="font-variant:normal;font-weight:normal;font-size:12px;font-family:'Bitstream Vera Sans';-inkscape-font-specification:BitstreamVeraSans-Roman;writing-mode:lr-tb;fill:#000000;fill-opacity:1;fill-rule:nonzero;stroke:none"
         transform="matrix(1,0,0,-1,7.2,321.9125)"><tspan
           id="tspan154"
           y="0"
           x="0 7.632 11.448">0.7</tspan></text>
<path
         id="path156"
         style="fill:#000000;fill-opacity:1;fill-rule:nonzero;stroke:#000000;stroke-width:0.5;stroke-linecap:butt;stroke-linejoin:round;stroke-miterlimit:10;stroke-dasharray:none;stroke-opacity:1"
         d="m 30.29375,368.425 4,0" /><path
         id="path158"
         style="fill:#000000;fill-opacity:1;fill-rule:nonzero;stroke:#000000;stroke-width:0.5;stroke-linecap:butt;stroke-linejoin:round;stroke-miterlimit:10;stroke-dasharray:none;stroke-opacity:1"
         d="m 476.69375,368.425 -4,0" /><text
         id="text160"
         style="font-variant:normal;font-weight:normal;font-size:12px;font-family:'Bitstream Vera Sans';-inkscape-font-specification:BitstreamVeraSans-Roman;writing-mode:lr-tb;fill:#000000;fill-opacity:1;fill-rule:nonzero;stroke:none"
         transform="matrix(1,0,0,-1,7.2,365.1125)"><tspan
           id="tspan162"
           y="0"
           x="0 7.632 11.448">0.8</tspan></text>
</g></g></svg>