<?xml version="1.0" encoding="UTF-8" standalone="no"?>
<svg
   xmlns:dc="http://purl.org/dc/elements/1.1/"
   xmlns:cc="http://creativecommons.org/ns#"
   xmlns:rdf="http://www.w3.org/1999/02/22-rdf-syntax-ns#"
   xmlns:svg="http://www.w3.org/2000/svg"
   xmlns="http://www.w3.org/2000/svg"
   viewBox="0 0 616.80078 476.79688"
   height="476.79688"
   width="616.80078"
   xml:space="preserve"
   version="1.1"
   id="svg2"><metadata
     id="metadata8"><rdf:RDF><cc:Work
         rdf:about=""><dc:format>image/svg+xml</dc:format><dc:type
           rdf:resource="http://purl.org/dc/dcmitype/StillImage" /></cc:Work></rdf:RDF></metadata><defs
     id="defs6"><clipPath
       id="clipPath20"
       clipPathUnits="userSpaceOnUse"><path
         id="path22"
         d="m 30.29375,22.825 446.4,0 0,345.6 -446.4,0 0,-345.6 z" /></clipPath></defs><g
     transform="matrix(1.25,0,0,-1.25,0,476.79687)"
     id="g10"><path
       id="path12"
       style="fill:#ffffff;fill-opacity:1;fill-rule:nonzero;stroke:none"
       d="m 0,0 493.44062,0 0,381.4375 L 0,381.4375 0,0 Z" /><path
       id="path14"
       style="fill:#ffffff;fill-opacity:1;fill-rule:nonzero;stroke:none"
       d="m 30.29375,22.825 446.4,0 0,345.6 -446.4,0 0,-345.6 z" /><g
       id="g16"><g
         clip-path="url(#clipPath20)"
         id="g18"><path
           id="path24"
           style="fill:none;stroke:#ff0000;stroke-width:1;stroke-linecap:butt;stroke-linejoin:miter;stroke-miterlimit:10;stroke-dasharray:none;stroke-opacity:1"
           d="m 30.293801,22.825 0,8.851507 4.463996,0 0,8.703936 4.463996,0 0,8.482407 4.463996,0 0,8.093606 4.463995,0 0,8.015501 4.463996,0 0,7.652966 4.463996,0 0,7.391693 4.463996,0 0,7.212672 4.463996,0 0,7.092058 4.463995,0 0,6.801404 4.463996,0 0,6.65522 4.463996,0 0,6.4216 4.463996,0 0,6.20386 4.463996,0 0,6.02381 4.463995,0 0,5.94259 4.463996,0 0,5.69618 4.463992,0 0,5.53617 4.464,0 0,5.39481 4.464,0 0,5.17225 4.46399,0 0,5.06131 4.464,0 0,4.85396 4.46399,0 0,4.79589 4.464,0 0,4.63069 4.46399,0 0,4.50835 4.464,0 0,4.33763 4.464,0 0,4.25952 4.46399,0 0,4.06668 4.464,0 0,3.97163 4.46399,0 0,3.83029 4.464,0 0,3.81196 4.46399,0 0,3.55381 4.464,0 0,3.56175 4.464,0 0,3.38999 4.46399,0 0,3.33159 4.464,0 0,3.15532 4.46399,0 0,3.07446 4.464,0 0,3.02919 4.464,0 0,2.92412 4.46399,0 0,2.88023 4.464,0 0,2.77758 4.46399,0 0,2.75616 4.464,0 0,2.60203 4.46399,0 0,2.51493 4.464,0 0,2.47242 4.464,0 0,2.40538 4.46399,0 0,2.33833 4.464,0 0,2.24501 4.46399,0 0,2.16553 4.464,0 0,2.10056 4.46399,0 0,2.02936 4.464,0 0,2.00932 4.464,0 0,1.98444 4.46399,0 0,1.84861 4.464,0 0,1.16502 58.03194,0 0,1.0247 4.464,0 0,3.10556 4.46399,0 0,3.07101 4.464,0 0,3.11212 4.464,0 0,3.0634 4.46399,0 0,3.15913 4.464,0 0,3.12976 4.46399,0 0,3.1021 4.464,0 0,3.14116 4.464,0 0,3.15187 4.46399,0 0,3.05787 4.464,0 0,3.15153 4.46399,0 0,3.17641 4.464,0 0,3.06962 4.46399,0 0,3.13666 4.464,0 0,3.12146 4.464,0 0,3.04266 4.46399,0 0,3.07135 4.464,0 0,3.15429 4.46399,0 0,3.12181 4.464,0 0,3.11835 4.46399,0 0,3.14841 4.464,0 0,3.11386 4.464,0 0,3.09519 4.46399,0 0,3.12941 4.464,0 0,3.07688 4.46399,0 0,3.09346 4.464,0 0,3.09934 4.464,0 0,3.11835 4.46399,0 0,3.15844 4.464,0 0,3.11282 4.46399,0 0,3.13632 4.464,0 0,3.11005 4.46399,0 0,3.13736 4.464,0 0,-345.6 0,0" /></g></g><g
       id="g26"><path
         id="path28"
         style="fill:none;stroke:#000000;stroke-width:1;stroke-linecap:square;stroke-linejoin:miter;stroke-miterlimit:10;stroke-dasharray:none;stroke-opacity:1"
         d="m 476.69375,22.825 0,345.6" /><path
         id="path30"
         style="fill:none;stroke:#000000;stroke-width:1;stroke-linecap:square;stroke-linejoin:miter;stroke-miterlimit:10;stroke-dasharray:none;stroke-opacity:1"
         d="m 30.29375,368.425 446.4,0" /><path
         id="path32"
         style="fill:none;stroke:#000000;stroke-width:1;stroke-linecap:square;stroke-linejoin:miter;stroke-miterlimit:10;stroke-dasharray:none;stroke-opacity:1"
         d="m 30.29375,22.825 0,345.6" /><path
         id="path34"
         style="fill:none;stroke:#000000;stroke-width:1;stroke-linecap:square;stroke-linejoin:miter;stroke-miterlimit:10;stroke-dasharray:none;stroke-opacity:1"
         d="m 30.29375,22.825 446.4,0" /><path
         id="path36"
         style="fill:#000000;fill-opacity:1;fill-rule:nonzero;stroke:#000000;stroke-width:0.5;stroke-linecap:butt;stroke-linejoin:round;stroke-miterlimit:10;stroke-dasharray:none;stroke-opacity:1"
         d="m 30.29375,22.825 0,4" /><path
         id="path38"
         style="fill:#000000;fill-opacity:1;fill-rule:nonzero;stroke:#000000;stroke-width:0.5;stroke-linecap:butt;stroke-linejoin:round;stroke-miterlimit:10;stroke-dasharray:none;stroke-opacity:1"
         d="m 30.29375,368.425 0,-4" /><text
         id="text40"
         style="font-variant:normal;font-weight:normal;font-size:12px;font-family:'Bitstream Vera Sans';-inkscape-font-specification:BitstreamVeraSans-Roman;writing-mode:lr-tb;fill:#000000;fill-opacity:1;fill-rule:nonzero;stroke:none"
         transform="matrix(1,0,0,-1,20.746875,9.7)"><tspan
           id="tspan42"
           y="0"
           x="0 7.632 11.448">0.0</tspan></text>
<path
         id="path44"
         style="fill:#000000;fill-opacity:1;fill-rule:nonzero;stroke:#000000;stroke-width:0.5;stroke-linecap:butt;stroke-linejoin:round;stroke-miterlimit:10;stroke-dasharray:none;stroke-opacity:1"
         d="m 104.69375,22.825 0,4" /><path
         id="path46"
         style="fill:#000000;fill-opacity:1;fill-rule:nonzero;stroke:#000000;stroke-width:0.5;stroke-linecap:butt;stroke-linejoin:round;stroke-miterlimit:10;stroke-dasharray:none;stroke-opacity:1"
         d="m 104.69375,368.425 0,-4" /><text
         id="text48"
         style="font-variant:normal;font-weight:normal;font-size:12px;font-family:'Bitstream Vera Sans';-inkscape-font-specification:BitstreamVeraSans-Roman;writing-mode:lr-tb;fill:#000000;fill-opacity:1;fill-rule:nonzero;stroke:none"
         transform="matrix(1,0,0,-1,95.146875,9.7)"><tspan
           id="tspan50"
           y="0"
           x="0 7.632 11.448">0.5</tspan></text>
<path
         id="path52"
         style="fill:#000000;fill-opacity:1;fill-rule:nonzero;stroke:#000000;stroke-width:0.5;stroke-linecap:butt;stroke-linejoin:round;stroke-miterlimit:10;stroke-dasharray:none;stroke-opacity:1"
         d="m 179.09375,22.825 0,4" /><path
         id="path54"
         style="fill:#000000;fill-opacity:1;fill-rule:nonzero;stroke:#000000;stroke-width:0.5;stroke-linecap:butt;stroke-linejoin:round;stroke-miterlimit:10;stroke-dasharray:none;stroke-opacity:1"
         d="m 179.09375,368.425 0,-4" /><text
         id="text56"
         style="font-variant:normal;font-weight:normal;font-size:12px;font-family:'Bitstream Vera Sans';-inkscape-font-specification:BitstreamVeraSans-Roman;writing-mode:lr-tb;fill:#000000;fill-opacity:1;fill-rule:nonzero;stroke:none"
         transform="matrix(1,0,0,-1,169.54687,9.7)"><tspan
           id="tspan58"
           y="0"
           x="0 7.632 11.448">1.0</tspan></text>
<path
         id="path60"
         style="fill:#000000;fill-opacity:1;fill-rule:nonzero;stroke:#000000;stroke-width:0.5;stroke-linecap:butt;stroke-linejoin:round;stroke-miterlimit:10;stroke-dasharray:none;stroke-opacity:1"
         d="m 253.49375,22.825 0,4" /><path
         id="path62"
         style="fill:#000000;fill-opacity:1;fill-rule:nonzero;stroke:#000000;stroke-width:0.5;stroke-linecap:butt;stroke-linejoin:round;stroke-miterlimit:10;stroke-dasharray:none;stroke-opacity:1"
         d="m 253.49375,368.425 0,-4" /><text
         id="text64"
         style="font-variant:normal;font-weight:normal;font-size:12px;font-family:'Bitstream Vera Sans';-inkscape-font-specification:BitstreamVeraSans-Roman;writing-mode:lr-tb;fill:#000000;fill-opacity:1;fill-rule:nonzero;stroke:none"
         transform="matrix(1,0,0,-1,243.94687,9.7)"><tspan
           id="tspan66"
           y="0"
           x="0 7.632 11.448">1.5</tspan></text>
<path
         id="path68"
         style="fill:#000000;fill-opacity:1;fill-rule:nonzero;stroke:#000000;stroke-width:0.5;stroke-linecap:butt;stroke-linejoin:round;stroke-miterlimit:10;stroke-dasharray:none;stroke-opacity:1"
         d="m 327.89375,22.825 0,4" /><path
         id="path70"
         style="fill:#000000;fill-opacity:1;fill-rule:nonzero;stroke:#000000;stroke-width:0.5;stroke-linecap:butt;stroke-linejoin:round;stroke-miterlimit:10;stroke-dasharray:none;stroke-opacity:1"
         d="m 327.89375,368.425 0,-4" /><text
         id="text72"
         style="font-variant:normal;font-weight:normal;font-size:12px;font-family:'Bitstream Vera Sans';-inkscape-font-specification:BitstreamVeraSans-Roman;writing-mode:lr-tb;fill:#000000;fill-opacity:1;fill-rule:nonzero;stroke:none"
         transform="matrix(1,0,0,-1,318.34687,9.7)"><tspan
           id="tspan74"
           y="0"
           x="0 7.632 11.448">2.0</tspan></text>
<path
         id="path76"
         style="fill:#000000;fill-opacity:1;fill-rule:nonzero;stroke:#000000;stroke-width:0.5;stroke-linecap:butt;stroke-linejoin:round;stroke-miterlimit:10;stroke-dasharray:none;stroke-opacity:1"
         d="m 402.29375,22.825 0,4" /><path
         id="path78"
         style="fill:#000000;fill-opacity:1;fill-rule:nonzero;stroke:#000000;stroke-width:0.5;stroke-linecap:butt;stroke-linejoin:round;stroke-miterlimit:10;stroke-dasharray:none;stroke-opacity:1"
         d="m 402.29375,368.425 0,-4" /><text
         id="text80"
         style="font-variant:normal;font-weight:normal;font-size:12px;font-family:'Bitstream Vera Sans';-inkscape-font-specification:BitstreamVeraSans-Roman;writing-mode:lr-tb;fill:#000000;fill-opacity:1;fill-rule:nonzero;stroke:none"
         transform="matrix(1,0,0,-1,392.74687,9.7)"><tspan
           id="tspan82"
           y="0"
           x="0 7.632 11.448">2.5</tspan></text>
<path
         id="path84"
         style="fill:#000000;fill-opacity:1;fill-rule:nonzero;stroke:#000000;stroke-width:0.5;stroke-linecap:butt;stroke-linejoin:round;stroke-miterlimit:10;stroke-dasharray:none;stroke-opacity:1"
         d="m 476.69375,22.825 0,4" /><path
         id="path86"
         style="fill:#000000;fill-opacity:1;fill-rule:nonzero;stroke:#000000;stroke-width:0.5;stroke-linecap:butt;stroke-linejoin:round;stroke-miterlimit:10;stroke-dasharray:none;stroke-opacity:1"
         d="m 476.69375,368.425 0,-4" /><text
         id="text88"
         style="font-variant:normal;font-weight:normal;font-size:12px;font-family:'Bitstream Vera Sans';-inkscape-font-specification:BitstreamVeraSans-Roman;writing-mode:lr-tb;fill:#000000;fill-opacity:1;fill-rule:nonzero;stroke:none"
         transform="matrix(1,0,0,-1,467.14688,9.7)"><tspan
           id="tspan90"
           y="0"
           x="0 7.632 11.448">3.0</tspan></text>
<path
         id="path92"
         style="fill:#000000;fill-opacity:1;fill-rule:nonzero;stroke:#000000;stroke-width:0.5;stroke-linecap:butt;stroke-linejoin:round;stroke-miterlimit:10;stroke-dasharray:none;stroke-opacity:1"
         d="m 30.29375,22.825 4,0" /><path
         id="path94"
         style="fill:#000000;fill-opacity:1;fill-rule:nonzero;stroke:#000000;stroke-width:0.5;stroke-linecap:butt;stroke-linejoin:round;stroke-miterlimit:10;stroke-dasharray:none;stroke-opacity:1"
         d="m 476.69375,22.825 -4,0" /><text
         id="text96"
         style="font-variant:normal;font-weight:normal;font-size:12px;font-family:'Bitstream Vera Sans';-inkscape-font-specification:BitstreamVeraSans-Roman;writing-mode:lr-tb;fill:#000000;fill-opacity:1;fill-rule:nonzero;stroke:none"
         transform="matrix(1,0,0,-1,7.2,19.5125)"><tspan
           id="tspan98"
           y="0"
           x="0 7.632 11.448">0.0</tspan></text>
<path
         id="path100"
         style="fill:#000000;fill-opacity:1;fill-rule:nonzero;stroke:#000000;stroke-width:0.5;stroke-linecap:butt;stroke-linejoin:round;stroke-miterlimit:10;stroke-dasharray:none;stroke-opacity:1"
         d="m 30.29375,91.945 4,0" /><path
         id="path102"
         style="fill:#000000;fill-opacity:1;fill-rule:nonzero;stroke:#000000;stroke-width:0.5;stroke-linecap:butt;stroke-linejoin:round;stroke-miterlimit:10;stroke-dasharray:none;stroke-opacity:1"
         d="m 476.69375,91.945 -4,0" /><text
         id="text104"
         style="font-variant:normal;font-weight:normal;font-size:12px;font-family:'Bitstream Vera Sans';-inkscape-font-specification:BitstreamVeraSans-Roman;writing-mode:lr-tb;fill:#000000;fill-opacity:1;fill-rule:nonzero;stroke:none"
         transform="matrix(1,0,0,-1,7.2,88.6325)"><tspan
           id="tspan106"
           y="0"
           x="0 7.632 11.448">0.2</tspan></text>
<path
         id="path108"
         style="fill:#000000;fill-opacity:1;fill-rule:nonzero;stroke:#000000;stroke-width:0.5;stroke-linecap:butt;stroke-linejoin:round;stroke-miterlimit:10;stroke-dasharray:none;stroke-opacity:1"
         d="m 30.29375,161.065 4,0" /><path
         id="path110"
         style="fill:#000000;fill-opacity:1;fill-rule:nonzero;stroke:#000000;stroke-width:0.5;stroke-linecap:butt;stroke-linejoin:round;stroke-miterlimit:10;stroke-dasharray:none;stroke-opacity:1"
         d="m 476.69375,161.065 -4,0" /><text
         id="text112"
         style="font-variant:normal;font-weight:normal;font-size:12px;font-family:'Bitstream Vera Sans';-inkscape-font-specification:BitstreamVeraSans-Roman;writing-mode:lr-tb;fill:#000000;fill-opacity:1;fill-rule:nonzero;stroke:none"
         transform="matrix(1,0,0,-1,7.2,157.7525)"><tspan
           id="tspan114"
           y="0"
           x="0 7.632 11.448">0.4</tspan></text>
<path
         id="path116"
         style="fill:#000000;fill-opacity:1;fill-rule:nonzero;stroke:#000000;stroke-width:0.5;stroke-linecap:butt;stroke-linejoin:round;stroke-miterlimit:10;stroke-dasharray:none;stroke-opacity:1"
         d="m 30.29375,230.185 4,0" /><path
         id="path118"
         style="fill:#000000;fill-opacity:1;fill-rule:nonzero;stroke:#000000;stroke-width:0.5;stroke-linecap:butt;stroke-linejoin:round;stroke-miterlimit:10;stroke-dasharray:none;stroke-opacity:1"
         d="m 476.69375,230.185 -4,0" /><text
         id="text120"
         style="font-variant:normal;font-weight:normal;font-size:12px;font-family:'Bitstream Vera Sans';-inkscape-font-specification:BitstreamVeraSans-Roman;writing-mode:lr-tb;fill:#000000;fill-opacity:1;fill-rule:nonzero;stroke:none"
         transform="matrix(1,0,0,-1,7.2,226.8725)"><tspan
           id="tspan122"
           y="0"
           x="0 7.632 11.448">0.6</tspan></text>
<path
         id="path124"
         style="fill:#000000;fill-opacity:1;fill-rule:nonzero;stroke:#000000;stroke-width:0.5;stroke-linecap:butt;stroke-linejoin:round;stroke-miterlimit:10;stroke-dasharray:none;stroke-opacity:1"
         d="m 30.29375,299.305 4,0" /><path
         id="path126"
         style="fill:#000000;fill-opacity:1;fill-rule:nonzero;stroke:#000000;stroke-width:0.5;stroke-linecap:butt;stroke-linejoin:round;stroke-miterlimit:10;stroke-dasharray:none;stroke-opacity:1"
         d="m 476.69375,299.305 -4,0" /><text
         id="text128"
         style="font-variant:normal;font-weight:normal;font-size:12px;font-family:'Bitstream Vera Sans';-inkscape-font-specification:BitstreamVeraSans-Roman;writing-mode:lr-tb;fill:#000000;fill-opacity:1;fill-rule:nonzero;stroke:none"
         transform="matrix(1,0,0,-1,7.2,295.9925)"><tspan
           id="tspan130"
           y="0"
           x="0 7.632 11.448">0.8</tspan></text>
<path
         id="path132"
         style="fill:#000000;fill-opacity:1;fill-rule:nonzero;stroke:#000000;stroke-width:0.5;stroke-linecap:butt;stroke-linejoin:round;stroke-miterlimit:10;stroke-dasharray:none;stroke-opacity:1"
         d="m 30.29375,368.425 4,0" /><path
         id="path134"
         style="fill:#000000;fill-opacity:1;fill-rule:nonzero;stroke:#000000;stroke-width:0.5;stroke-linecap:butt;stroke-linejoin:round;stroke-miterlimit:10;stroke-dasharray:none;stroke-opacity:1"
         d="m 476.69375,368.425 -4,0" /><text
         id="text136"
         style="font-variant:normal;font-weight:normal;font-size:12px;font-family:'Bitstream Vera Sans';-inkscape-font-specification:BitstreamVeraSans-Roman;writing-mode:lr-tb;fill:#000000;fill-opacity:1;fill-rule:nonzero;stroke:none"
         transform="matrix(1,0,0,-1,7.2,365.1125)"><tspan
           id="tspan138"
           y="0"
           x="0 7.632 11.448">1.0</tspan></text>
</g></g></svg>