<?xml version="1.0" encoding="UTF-8" standalone="no"?>
<svg
   xmlns:dc="http://purl.org/dc/elements/1.1/"
   xmlns:cc="http://creativecommons.org/ns#"
   xmlns:rdf="http://www.w3.org/1999/02/22-rdf-syntax-ns#"
   xmlns:svg="http://www.w3.org/2000/svg"
   xmlns="http://www.w3.org/2000/svg"
   viewBox="0 0 614.41797 476.79688"
   height="476.79688"
   width="614.41797"
   xml:space="preserve"
   version="1.1"
   id="svg2"><metadata
     id="metadata8"><rdf:RDF><cc:Work
         rdf:about=""><dc:format>image/svg+xml</dc:format><dc:type
           rdf:resource="http://purl.org/dc/dcmitype/StillImage" /></cc:Work></rdf:RDF></metadata><defs
     id="defs6"><clipPath
       id="clipPath20"
       clipPathUnits="userSpaceOnUse"><path
         id="path22"
         d="m 30.29375,22.825 446.4,0 0,345.6 -446.4,0 0,-345.6 z" /></clipPath><clipPath
       id="clipPath30"
       clipPathUnits="userSpaceOnUse"><path
         id="path32"
         d="m 30.29375,22.825 446.4,0 0,345.6 -446.4,0 0,-345.6 z" /></clipPath></defs><g
     transform="matrix(1.25,0,0,-1.25,0,476.79687)"
     id="g10"><path
       id="path12"
       style="fill:#ffffff;fill-opacity:1;fill-rule:nonzero;stroke:none"
       d="m 0,0 491.53437,0 0,381.4375 L 0,381.4375 0,0 Z" /><path
       id="path14"
       style="fill:#ffffff;fill-opacity:1;fill-rule:nonzero;stroke:none"
       d="m 30.29375,22.825 446.4,0 0,345.6 -446.4,0 0,-345.6 z" /><g
       id="g16"><g
         clip-path="url(#clipPath20)"
         id="g18"><path
           id="path24"
           style="fill:none;stroke:#0000ff;stroke-width:1;stroke-linecap:butt;stroke-linejoin:miter;stroke-miterlimit:10;stroke-dasharray:none;stroke-opacity:1"
           d="m 30.296104,22.825 0,340.65232 4.463167,0 0,-53.23233 4.463168,0 0,-61.87394 4.463168,0 0,-18.66588 4.463167,0 0,-21.94969 4.463168,0 0,-16.76473 4.463168,0 0,-27.48032 4.463167,0 0,-15.20923 4.463168,0 0,-17.97456 4.463168,0 0,-7.95028 4.463167,0 0,-3.80231 4.463168,0 0,-14.86357 4.463168,0 0,-5.357798 4.463167,0 0,-6.913289 4.463168,0 0,-3.456644 4.463168,0 0,-2.938148 4.463171,0 0,-9.678605 4.46316,0 0,-1.209825 4.46317,0 0,-6.913289 4.46317,0 0,-1.382658 4.46317,0 0,-1.036993 4.46317,0 0,-0.518497 4.46316,0 0,-4.66647 4.46317,0 0,-1.728322 4.46317,0 0,-4.147974 4.46316,0 0,-2.246819 4.46317,0 0,0.864162 4.46317,0 0,0.172832 4.46317,0 0,-2.592484 4.46317,0 0,-1.901154 4.46316,0 0,0.172832 4.46317,0 0,-5.012134 4.46317,0 0,2.246819 4.46317,0 0,-2.765316 4.46316,0 0,1.728322 4.46317,0 0,-1.382658 4.46317,0 0,-5.530631 4.46317,0 0,1.901155 4.46316,0 0,-2.592484 4.46317,0 0,0.172832 4.46317,0 0,2.246819 4.46317,0 0,-0.864161 4.46317,0 0,-0.518496 4.46316,0 0,-2.073987 4.46317,0 0,-2.419651 4.46317,0 0,3.975141 8.92633,0 0,-3.975141 4.46317,0 0,1.901154 4.46317,0 0,-2.246819 4.46317,0 0,0.172833 4.46316,0 0,1.209825 4.46317,0 0,-0.691329 4.46317,0 0,-1.036993 4.46317,0 0,-2.592484 4.46317,0 0,1.036994 8.92633,0 0,-0.172832 4.46317,0 0,-0.691329 4.46317,0 0,-0.518497 4.46316,0 0,1.209826 4.46317,0 0,-2.938148 4.46317,0 0,2.938148 4.46317,0 0,-0.864162 4.46316,0 0,-1.55549 4.46317,0 0,0.172833 4.46317,0 0,2.419651 4.46317,0 0,-2.938148 4.46316,0 0,2.073987 4.46317,0 0,-0.345665 4.46317,0 0,-2.765315 4.46317,0 0,2.592483 4.46317,0 0,-1.728322 8.92633,0 0,-0.864161 4.46317,0 0,1.901154 4.46317,0 0,-0.691329 4.46316,0 0,0.345665 4.46317,0 0,-1.209826 4.46317,0 0,-1.728322 4.46317,0 0,1.036993 4.46317,0 0,1.036994 4.46316,0 0,-0.345665 8.92634,0 0,0.345665 4.46317,0 0,-1.901155 4.46316,0 0,0.518497 4.46317,0 0,-0.345665 4.46317,0 0,0.172833 4.46317,0 0,0.345664 4.46316,0 0,-1.382658 4.46317,0 0,0.864161 4.46317,0 0,-0.518496 4.46317,0 0,0.691329 4.46316,0 0,-0.518497 4.46317,0 0,0.864161 4.46317,0 0,0.518497 4.46317,0 0,-0.864161 4.46316,0 0,-1.209826 4.46317,0 0,1.209826 4.46317,0 0,-3.456645 0,0" /></g></g><g
       id="g26"><g
         clip-path="url(#clipPath30)"
         id="g28"><path
           id="path34"
           style="fill:none;stroke:#000000;stroke-width:1;stroke-linecap:square;stroke-linejoin:round;stroke-miterlimit:10;stroke-dasharray:none;stroke-opacity:1"
           d="m 30.296104,363.47732 1.7856,-25.69883 2.0088,-25.58219 2.0088,-22.58733 2.0088,-20.04234 2.0088,-17.86579 2.0088,-15.99338 2.0088,-14.37374 2.232,-14.32737 2.232,-12.83043 2.232,-11.53499 2.232,-10.40825 2.232,-9.42362 2.4552,-9.37186 2.4552,-8.46127 2.4552,-7.66493 2.4552,-6.96547 2.4552,-6.3486 2.6784,-6.30506 2.6784,-5.73353 2.6784,-5.22902 2.9016,-5.16195 2.9016,-4.699849 2.9016,-4.291291 3.1248,-4.217127 3.1248,-3.845927 3.348,-3.756676 3.348,-3.423681 3.571196,-3.327854 3.5712,-3.032142 3.7944,-2.93561 4.0176,-2.825 4.2408,-2.704051 4.464,-2.576083 4.6872,-2.443975 4.9104,-2.310173 5.3568,-2.266311 5.58,-2.116575 6.0264,-2.044465 6.4728,-1.955897 6.9192,-1.855742 7.5888,-1.797944 8.0352,-1.674783 8.928,-1.629 9.5976,-1.523987 10.7136,-1.471261 11.8296,-1.39354 13.1688,-1.320156 14.7312,-1.245463 16.5168,-1.166442 18.7488,-1.09401 21.4272,-1.020032 24.552,-0.940663 28.7928,-0.873405 33.9264,-0.799023 40.6224,-0.726516 46.4256,-0.619576 0,0" /></g></g><g
       id="g36"><path
         id="path38"
         style="fill:none;stroke:#000000;stroke-width:1;stroke-linecap:square;stroke-linejoin:miter;stroke-miterlimit:10;stroke-dasharray:none;stroke-opacity:1"
         d="m 476.69375,22.825 0,345.6" /><path
         id="path40"
         style="fill:none;stroke:#000000;stroke-width:1;stroke-linecap:square;stroke-linejoin:miter;stroke-miterlimit:10;stroke-dasharray:none;stroke-opacity:1"
         d="m 30.29375,22.825 446.4,0" /><path
         id="path42"
         style="fill:none;stroke:#000000;stroke-width:1;stroke-linecap:square;stroke-linejoin:miter;stroke-miterlimit:10;stroke-dasharray:none;stroke-opacity:1"
         d="m 30.29375,22.825 0,345.6" /><path
         id="path44"
         style="fill:none;stroke:#000000;stroke-width:1;stroke-linecap:square;stroke-linejoin:miter;stroke-miterlimit:10;stroke-dasharray:none;stroke-opacity:1"
         d="m 30.29375,368.425 446.4,0" /><path
         id="path46"
         style="fill:#000000;fill-opacity:1;fill-rule:nonzero;stroke:#000000;stroke-width:0.5;stroke-linecap:butt;stroke-linejoin:round;stroke-miterlimit:10;stroke-dasharray:none;stroke-opacity:1"
         d="m 30.29375,22.825 0,4" /><path
         id="path48"
         style="fill:#000000;fill-opacity:1;fill-rule:nonzero;stroke:#000000;stroke-width:0.5;stroke-linecap:butt;stroke-linejoin:round;stroke-miterlimit:10;stroke-dasharray:none;stroke-opacity:1"
         d="m 30.29375,368.425 0,-4" /><text
         id="text50"
         style="font-variant:normal;font-weight:normal;font-size:12px;font-family:'Bitstream Vera Sans';-inkscape-font-specification:BitstreamVeraSans-Roman;writing-mode:lr-tb;fill:#000000;fill-opacity:1;fill-rule:nonzero;stroke:none"
         transform="matrix(1,0,0,-1,26.473437,9.7)"><tspan
           id="tspan52"
           y="0"
           x="0">0</tspan></text>
<path
         id="path54"
         style="fill:#000000;fill-opacity:1;fill-rule:nonzero;stroke:#000000;stroke-width:0.5;stroke-linecap:butt;stroke-linejoin:round;stroke-miterlimit:10;stroke-dasharray:none;stroke-opacity:1"
         d="m 119.57375,22.825 0,4" /><path
         id="path56"
         style="fill:#000000;fill-opacity:1;fill-rule:nonzero;stroke:#000000;stroke-width:0.5;stroke-linecap:butt;stroke-linejoin:round;stroke-miterlimit:10;stroke-dasharray:none;stroke-opacity:1"
         d="m 119.57375,368.425 0,-4" /><text
         id="text58"
         style="font-variant:normal;font-weight:normal;font-size:12px;font-family:'Bitstream Vera Sans';-inkscape-font-specification:BitstreamVeraSans-Roman;writing-mode:lr-tb;fill:#000000;fill-opacity:1;fill-rule:nonzero;stroke:none"
         transform="matrix(1,0,0,-1,115.75344,9.7)"><tspan
           id="tspan60"
           y="0"
           x="0">2</tspan></text>
<path
         id="path62"
         style="fill:#000000;fill-opacity:1;fill-rule:nonzero;stroke:#000000;stroke-width:0.5;stroke-linecap:butt;stroke-linejoin:round;stroke-miterlimit:10;stroke-dasharray:none;stroke-opacity:1"
         d="m 208.85375,22.825 0,4" /><path
         id="path64"
         style="fill:#000000;fill-opacity:1;fill-rule:nonzero;stroke:#000000;stroke-width:0.5;stroke-linecap:butt;stroke-linejoin:round;stroke-miterlimit:10;stroke-dasharray:none;stroke-opacity:1"
         d="m 208.85375,368.425 0,-4" /><text
         id="text66"
         style="font-variant:normal;font-weight:normal;font-size:12px;font-family:'Bitstream Vera Sans';-inkscape-font-specification:BitstreamVeraSans-Roman;writing-mode:lr-tb;fill:#000000;fill-opacity:1;fill-rule:nonzero;stroke:none"
         transform="matrix(1,0,0,-1,205.03344,9.7)"><tspan
           id="tspan68"
           y="0"
           x="0">4</tspan></text>
<path
         id="path70"
         style="fill:#000000;fill-opacity:1;fill-rule:nonzero;stroke:#000000;stroke-width:0.5;stroke-linecap:butt;stroke-linejoin:round;stroke-miterlimit:10;stroke-dasharray:none;stroke-opacity:1"
         d="m 298.13375,22.825 0,4" /><path
         id="path72"
         style="fill:#000000;fill-opacity:1;fill-rule:nonzero;stroke:#000000;stroke-width:0.5;stroke-linecap:butt;stroke-linejoin:round;stroke-miterlimit:10;stroke-dasharray:none;stroke-opacity:1"
         d="m 298.13375,368.425 0,-4" /><text
         id="text74"
         style="font-variant:normal;font-weight:normal;font-size:12px;font-family:'Bitstream Vera Sans';-inkscape-font-specification:BitstreamVeraSans-Roman;writing-mode:lr-tb;fill:#000000;fill-opacity:1;fill-rule:nonzero;stroke:none"
         transform="matrix(1,0,0,-1,294.31344,9.7)"><tspan
           id="tspan76"
           y="0"
           x="0">6</tspan></text>
<path
         id="path78"
         style="fill:#000000;fill-opacity:1;fill-rule:nonzero;stroke:#000000;stroke-width:0.5;stroke-linecap:butt;stroke-linejoin:round;stroke-miterlimit:10;stroke-dasharray:none;stroke-opacity:1"
         d="m 387.41375,22.825 0,4" /><path
         id="path80"
         style="fill:#000000;fill-opacity:1;fill-rule:nonzero;stroke:#000000;stroke-width:0.5;stroke-linecap:butt;stroke-linejoin:round;stroke-miterlimit:10;stroke-dasharray:none;stroke-opacity:1"
         d="m 387.41375,368.425 0,-4" /><text
         id="text82"
         style="font-variant:normal;font-weight:normal;font-size:12px;font-family:'Bitstream Vera Sans';-inkscape-font-specification:BitstreamVeraSans-Roman;writing-mode:lr-tb;fill:#000000;fill-opacity:1;fill-rule:nonzero;stroke:none"
         transform="matrix(1,0,0,-1,383.59344,9.7)"><tspan
           id="tspan84"
           y="0"
           x="0">8</tspan></text>
<path
         id="path86"
         style="fill:#000000;fill-opacity:1;fill-rule:nonzero;stroke:#000000;stroke-width:0.5;stroke-linecap:butt;stroke-linejoin:round;stroke-miterlimit:10;stroke-dasharray:none;stroke-opacity:1"
         d="m 476.69375,22.825 0,4" /><path
         id="path88"
         style="fill:#000000;fill-opacity:1;fill-rule:nonzero;stroke:#000000;stroke-width:0.5;stroke-linecap:butt;stroke-linejoin:round;stroke-miterlimit:10;stroke-dasharray:none;stroke-opacity:1"
         d="m 476.69375,368.425 0,-4" /><text
         id="text90"
         style="font-variant:normal;font-weight:normal;font-size:12px;font-family:'Bitstream Vera Sans';-inkscape-font-specification:BitstreamVeraSans-Roman;writing-mode:lr-tb;fill:#000000;fill-opacity:1;fill-rule:nonzero;stroke:none"
         transform="matrix(1,0,0,-1,469.05312,9.7)"><tspan
           id="tspan92"
           y="0"
           x="0 7.632">10</tspan></text>
<path
         id="path94"
         style="fill:#000000;fill-opacity:1;fill-rule:nonzero;stroke:#000000;stroke-width:0.5;stroke-linecap:butt;stroke-linejoin:round;stroke-miterlimit:10;stroke-dasharray:none;stroke-opacity:1"
         d="m 30.29375,22.825 4,0" /><path
         id="path96"
         style="fill:#000000;fill-opacity:1;fill-rule:nonzero;stroke:#000000;stroke-width:0.5;stroke-linecap:butt;stroke-linejoin:round;stroke-miterlimit:10;stroke-dasharray:none;stroke-opacity:1"
         d="m 476.69375,22.825 -4,0" /><text
         id="text98"
         style="font-variant:normal;font-weight:normal;font-size:12px;font-family:'Bitstream Vera Sans';-inkscape-font-specification:BitstreamVeraSans-Roman;writing-mode:lr-tb;fill:#000000;fill-opacity:1;fill-rule:nonzero;stroke:none"
         transform="matrix(1,0,0,-1,7.2,19.5125)"><tspan
           id="tspan100"
           y="0"
           x="0 7.632 11.448">0.0</tspan></text>
<path
         id="path102"
         style="fill:#000000;fill-opacity:1;fill-rule:nonzero;stroke:#000000;stroke-width:0.5;stroke-linecap:butt;stroke-linejoin:round;stroke-miterlimit:10;stroke-dasharray:none;stroke-opacity:1"
         d="m 30.29375,91.945 4,0" /><path
         id="path104"
         style="fill:#000000;fill-opacity:1;fill-rule:nonzero;stroke:#000000;stroke-width:0.5;stroke-linecap:butt;stroke-linejoin:round;stroke-miterlimit:10;stroke-dasharray:none;stroke-opacity:1"
         d="m 476.69375,91.945 -4,0" /><text
         id="text106"
         style="font-variant:normal;font-weight:normal;font-size:12px;font-family:'Bitstream Vera Sans';-inkscape-font-specification:BitstreamVeraSans-Roman;writing-mode:lr-tb;fill:#000000;fill-opacity:1;fill-rule:nonzero;stroke:none"
         transform="matrix(1,0,0,-1,7.2,88.6325)"><tspan
           id="tspan108"
           y="0"
           x="0 7.632 11.448">0.2</tspan></text>
<path
         id="path110"
         style="fill:#000000;fill-opacity:1;fill-rule:nonzero;stroke:#000000;stroke-width:0.5;stroke-linecap:butt;stroke-linejoin:round;stroke-miterlimit:10;stroke-dasharray:none;stroke-opacity:1"
         d="m 30.29375,161.065 4,0" /><path
         id="path112"
         style="fill:#000000;fill-opacity:1;fill-rule:nonzero;stroke:#000000;stroke-width:0.5;stroke-linecap:butt;stroke-linejoin:round;stroke-miterlimit:10;stroke-dasharray:none;stroke-opacity:1"
         d="m 476.69375,161.065 -4,0" /><text
         id="text114"
         style="font-variant:normal;font-weight:normal;font-size:12px;font-family:'Bitstream Vera Sans';-inkscape-font-specification:BitstreamVeraSans-Roman;writing-mode:lr-tb;fill:#000000;fill-opacity:1;fill-rule:nonzero;stroke:none"
         transform="matrix(1,0,0,-1,7.2,157.7525)"><tspan
           id="tspan116"
           y="0"
           x="0 7.632 11.448">0.4</tspan></text>
<path
         id="path118"
         style="fill:#000000;fill-opacity:1;fill-rule:nonzero;stroke:#000000;stroke-width:0.5;stroke-linecap:butt;stroke-linejoin:round;stroke-miterlimit:10;stroke-dasharray:none;stroke-opacity:1"
         d="m 30.29375,230.185 4,0" /><path
         id="path120"
         style="fill:#000000;fill-opacity:1;fill-rule:nonzero;stroke:#000000;stroke-width:0.5;stroke-linecap:butt;stroke-linejoin:round;stroke-miterlimit:10;stroke-dasharray:none;stroke-opacity:1"
         d="m 476.69375,230.185 -4,0" /><text
         id="text122"
         style="font-variant:normal;font-weight:normal;font-size:12px;font-family:'Bitstream Vera Sans';-inkscape-font-specification:BitstreamVeraSans-Roman;writing-mode:lr-tb;fill:#000000;fill-opacity:1;fill-rule:nonzero;stroke:none"
         transform="matrix(1,0,0,-1,7.2,226.8725)"><tspan
           id="tspan124"
           y="0"
           x="0 7.632 11.448">0.6</tspan></text>
<path
         id="path126"
         style="fill:#000000;fill-opacity:1;fill-rule:nonzero;stroke:#000000;stroke-width:0.5;stroke-linecap:butt;stroke-linejoin:round;stroke-miterlimit:10;stroke-dasharray:none;stroke-opacity:1"
         d="m 30.29375,299.305 4,0" /><path
         id="path128"
         style="fill:#000000;fill-opacity:1;fill-rule:nonzero;stroke:#000000;stroke-width:0.5;stroke-linecap:butt;stroke-linejoin:round;stroke-miterlimit:10;stroke-dasharray:none;stroke-opacity:1"
         d="m 476.69375,299.305 -4,0" /><text
         id="text130"
         style="font-variant:normal;font-weight:normal;font-size:12px;font-family:'Bitstream Vera Sans';-inkscape-font-specification:BitstreamVeraSans-Roman;writing-mode:lr-tb;fill:#000000;fill-opacity:1;fill-rule:nonzero;stroke:none"
         transform="matrix(1,0,0,-1,7.2,295.9925)"><tspan
           id="tspan132"
           y="0"
           x="0 7.632 11.448">0.8</tspan></text>
<path
         id="path134"
         style="fill:#000000;fill-opacity:1;fill-rule:nonzero;stroke:#000000;stroke-width:0.5;stroke-linecap:butt;stroke-linejoin:round;stroke-miterlimit:10;stroke-dasharray:none;stroke-opacity:1"
         d="m 30.29375,368.425 4,0" /><path
         id="path136"
         style="fill:#000000;fill-opacity:1;fill-rule:nonzero;stroke:#000000;stroke-width:0.5;stroke-linecap:butt;stroke-linejoin:round;stroke-miterlimit:10;stroke-dasharray:none;stroke-opacity:1"
         d="m 476.69375,368.425 -4,0" /><text
         id="text138"
         style="font-variant:normal;font-weight:normal;font-size:12px;font-family:'Bitstream Vera Sans';-inkscape-font-specification:BitstreamVeraSans-Roman;writing-mode:lr-tb;fill:#000000;fill-opacity:1;fill-rule:nonzero;stroke:none"
         transform="matrix(1,0,0,-1,7.2,365.1125)"><tspan
           id="tspan140"
           y="0"
           x="0 7.632 11.448">1.0</tspan></text>
</g></g></svg>