<?xml version="1.0" encoding="UTF-8" standalone="no"?>
<svg
   xmlns:dc="http://purl.org/dc/elements/1.1/"
   xmlns:cc="http://creativecommons.org/ns#"
   xmlns:rdf="http://www.w3.org/1999/02/22-rdf-syntax-ns#"
   xmlns:svg="http://www.w3.org/2000/svg"
   xmlns="http://www.w3.org/2000/svg"
   viewBox="0 0 616.80078 476.79688"
   height="476.79688"
   width="616.80078"
   xml:space="preserve"
   version="1.1"
   id="svg2"><metadata
     id="metadata8"><rdf:RDF><cc:Work
         rdf:about=""><dc:format>image/svg+xml</dc:format><dc:type
           rdf:resource="http://purl.org/dc/dcmitype/StillImage" /></cc:Work></rdf:RDF></metadata><defs
     id="defs6"><clipPath
       id="clipPath20"
       clipPathUnits="userSpaceOnUse"><path
         id="path22"
         d="m 30.29375,22.825 446.4,0 0,345.6 -446.4,0 0,-345.6 z" /></clipPath><clipPath
       id="clipPath30"
       clipPathUnits="userSpaceOnUse"><path
         id="path32"
         d="m 30.29375,22.825 446.4,0 0,345.6 -446.4,0 0,-345.6 z" /></clipPath><clipPath
       id="clipPath40"
       clipPathUnits="userSpaceOnUse"><path
         id="path42"
         d="m 30.29375,22.825 446.4,0 0,345.6 -446.4,0 0,-345.6 z" /></clipPath><clipPath
       id="clipPath50"
       clipPathUnits="userSpaceOnUse"><path
         id="path52"
         d="m 30.29375,22.825 446.4,0 0,345.6 -446.4,0 0,-345.6 z" /></clipPath><clipPath
       id="clipPath60"
       clipPathUnits="userSpaceOnUse"><path
         id="path62"
         d="m 30.29375,22.825 446.4,0 0,345.6 -446.4,0 0,-345.6 z" /></clipPath><clipPath
       id="clipPath70"
       clipPathUnits="userSpaceOnUse"><path
         id="path72"
         d="m 30.29375,22.825 446.4,0 0,345.6 -446.4,0 0,-345.6 z" /></clipPath><clipPath
       id="clipPath80"
       clipPathUnits="userSpaceOnUse"><path
         id="path82"
         d="m 30.29375,22.825 446.4,0 0,345.6 -446.4,0 0,-345.6 z" /></clipPath><clipPath
       id="clipPath90"
       clipPathUnits="userSpaceOnUse"><path
         id="path92"
         d="m 30.29375,22.825 446.4,0 0,345.6 -446.4,0 0,-345.6 z" /></clipPath><clipPath
       id="clipPath100"
       clipPathUnits="userSpaceOnUse"><path
         id="path102"
         d="m 30.29375,22.825 446.4,0 0,345.6 -446.4,0 0,-345.6 z" /></clipPath><clipPath
       id="clipPath110"
       clipPathUnits="userSpaceOnUse"><path
         id="path112"
         d="m 30.29375,22.825 446.4,0 0,345.6 -446.4,0 0,-345.6 z" /></clipPath><clipPath
       id="clipPath120"
       clipPathUnits="userSpaceOnUse"><path
         id="path122"
         d="m 30.29375,22.825 446.4,0 0,345.6 -446.4,0 0,-345.6 z" /></clipPath><clipPath
       id="clipPath130"
       clipPathUnits="userSpaceOnUse"><path
         id="path132"
         d="m 30.29375,22.825 446.4,0 0,345.6 -446.4,0 0,-345.6 z" /></clipPath><clipPath
       id="clipPath140"
       clipPathUnits="userSpaceOnUse"><path
         id="path142"
         d="m 30.29375,22.825 446.4,0 0,345.6 -446.4,0 0,-345.6 z" /></clipPath><clipPath
       id="clipPath150"
       clipPathUnits="userSpaceOnUse"><path
         id="path152"
         d="m 30.29375,22.825 446.4,0 0,345.6 -446.4,0 0,-345.6 z" /></clipPath><clipPath
       id="clipPath160"
       clipPathUnits="userSpaceOnUse"><path
         id="path162"
         d="m 30.29375,22.825 446.4,0 0,345.6 -446.4,0 0,-345.6 z" /></clipPath><clipPath
       id="clipPath170"
       clipPathUnits="userSpaceOnUse"><path
         id="path172"
         d="m 30.29375,22.825 446.4,0 0,345.6 -446.4,0 0,-345.6 z" /></clipPath><clipPath
       id="clipPath180"
       clipPathUnits="userSpaceOnUse"><path
         id="path182"
         d="m 30.29375,22.825 446.4,0 0,345.6 -446.4,0 0,-345.6 z" /></clipPath></defs><g
     transform="matrix(1.25,0,0,-1.25,0,476.79687)"
     id="g10"><path
       id="path12"
       style="fill:#ffffff;fill-opacity:1;fill-rule:nonzero;stroke:none"
       d="m 0,0 493.44062,0 0,381.4375 L 0,381.4375 0,0 Z" /><path
       id="path14"
       style="fill:#ffffff;fill-opacity:1;fill-rule:nonzero;stroke:none"
       d="m 30.29375,22.825 446.4,0 0,345.6 -446.4,0 0,-345.6 z" /><g
       id="g16"><g
         clip-path="url(#clipPath20)"
         id="g18"><path
           id="path24"
           style="fill:none;stroke:#000000;stroke-width:1;stroke-linecap:square;stroke-linejoin:round;stroke-miterlimit:10;stroke-dasharray:none;stroke-opacity:1"
           d="m 30.29375,368.425 3.72,-16.65295 3.72,-15.47766 3.72,-14.41044 3.72,-13.43912 3.72,-12.55316 3.72,-11.74342 3.72,-11.00184 3.72,-10.32141 3.72,-9.69596 3.72,-9.12004 3.72,-8.58884 3.72,-8.09812 3.72,-7.64407 4.464,-8.62024 4.464,-8.06617 4.464,-7.55859 4.464,-7.09271 4.464,-6.66436 4.464,-6.2698 4.464,-5.9058 4.464,-5.56944 4.464,-5.25814 5.208,-5.77132 5.208,-5.41119 5.208,-5.08044 5.208,-4.77608 5.208,-4.49556 5.952,-4.82185 5.952,-4.51246 5.952,-4.22901 5.952,-3.9688 6.696,-4.17982 6.696,-3.90361 6.696,-3.6512 7.44,-3.78668 7.44,-3.527374 7.44,-3.291203 8.184,-3.372094 8.184,-3.135626 8.928,-3.176313 8.928,-2.945355 9.672,-2.955463 10.416,-2.936315 10.416,-2.706714 11.16,-2.671706 11.904,-2.616918 12.648,-2.545804 13.392,-2.461649 14.136,-2.367493 14.88,-2.266084 15.624,-2.159853 17.112,-2.139418 18.6,-2.091756 19.344,-1.951485 20.832,-1.881094 23.064,-1.853503 8.184,-0.60648 0,0" /></g></g><g
       id="g26"><g
         clip-path="url(#clipPath30)"
         id="g28"><path
           id="path34"
           style="fill:none;stroke:#ff0000;stroke-width:1;stroke-linecap:square;stroke-linejoin:round;stroke-miterlimit:10;stroke-dasharray:none;stroke-opacity:1"
           d="m 30.29375,368.425 0.744,-2.90787 0.744,-2.89559 0.744,-2.8833 0.744,-2.87102 0.744,-2.85874 0.744,-2.84644 0.744,-2.83417 0.744,-2.82187 0.744,-2.80959 0.744,-2.79731 0.744,-2.78502 0.744,-2.77274 0.744,-2.76045 0.744,-2.74817 0.744,-2.73588 0.744,-2.7236 0.744,-2.71131 0.744,-2.69902 0.744,-2.68674 0.744,-2.67446 0.744,-2.66217 0.744,-2.64988 0.744,-2.6376 0.744,-2.62532 0.744,-2.61303 0.744,-2.60074 0.744,-2.58846 0.744,-2.57618 0.744,-2.56389 0.744,-2.5516 0.744,-2.53932 0.744,-2.52703 0.744,-2.51475 0.744,-2.50247 0.744,-2.49018 0.744,-2.47789 0.744,-2.46561" /></g></g><g
       id="g36"><g
         clip-path="url(#clipPath40)"
         id="g38"><path
           id="path44"
           style="fill:none;stroke:#ff0000;stroke-width:1;stroke-linecap:square;stroke-linejoin:round;stroke-miterlimit:10;stroke-dasharray:none;stroke-opacity:1"
           d="m 57.969389,268.52778 0.744,-1.77043 0.744,-1.76402 0.744,-1.75762 0.744,-1.75122 0.744,-1.74482 0.744,-1.73842 0.744,-1.73201 0.744,-1.72562 0.744,-1.71921 0.744,-1.71281 0.744,-1.70641 0.744,-1.70001 0.744,-1.69361 0.744,-1.6872 0.744,-1.6808 0.744,-1.67441 0.744,-1.668 0.744,-1.6616 0.744,-1.65519 0.744,-1.6488 0.744,-1.64239 0.744,-1.636 0.744,-1.62959 0.744,-1.62319 0.744,-1.61679 0.744,-1.61038 0.744,-1.60399 0.744,-1.59758 0.744,-1.59118 0.744,-1.58478 0.744,-1.57838 0.744,-1.57198 0.744,-1.56558 0.744,-1.55917 0.744,-1.55277 0.744,-1.54637 0.744,-1.53997 0.744,-1.53357 0.744,-1.52717" /></g></g><g
       id="g46"><g
         clip-path="url(#clipPath50)"
         id="g48"><path
           id="path54"
           style="fill:none;stroke:#ff0000;stroke-width:1;stroke-linecap:square;stroke-linejoin:round;stroke-miterlimit:10;stroke-dasharray:none;stroke-opacity:1"
           d="m 87.628412,202.91 0.744,-0.94409 0.744,-0.94161 0.744,-0.93914 0.744,-0.93665 0.744,-0.93416 0.744,-0.93169 0.744,-0.92921 0.744,-0.92672 0.744,-0.92425 0.744,-0.92176 0.744,-0.91928 0.744,-0.9168 0.744,-0.91432 0.744,-0.91184 0.744,-0.90936 0.744,-0.90687 0.743998,-0.9044 0.744,-0.90191 0.744,-0.89943 0.744,-0.89695 0.744,-0.89447 0.744,-0.89199 0.744,-0.88951 0.744,-0.88702 0.744,-0.88455 0.744,-0.88206 0.744,-0.87958 0.744,-0.8771 0.744,-0.87462 0.744,-0.87214 0.744,-0.86966 0.744,-0.86718 0.744,-0.86469 0.744,-0.86221 0.744,-0.85974 0.744,-0.85725 0.744,-0.85477 0.744,-0.85229 0.744,-0.8498 0.744,-0.84733 0.744,-0.84485 0.744,-0.84236 0.744,-0.83988 0.744,-0.83741 0.744,-0.83492 0.744,-0.83244 0.744,-0.82995 0.744,-0.82748 0.744,-0.825 0.744,-0.82251 0.744,-0.82003 0.744,-0.81756 0.744,-0.81507 0.744,-0.81259 0.744,-0.8101 0.744,-0.80763 0.744,-0.80515 0.744,-0.80266 0.744,-0.80019 0.744,-0.7977 0.744,-0.79522 0.744,-0.79274 0.744,-0.79026 0.744,-0.78778 0.744,-0.78529 0.744,-0.78282 0.744,-0.78033 0.744,-0.77785 0.744,-0.77538 0.744,-0.77289 0.744,-0.7704 0.744,-0.76793 0.744,-0.76545 0.744,-0.76296 0.744,-0.76049 0.744,-0.758 0.744,-0.75552 0.744,-0.75304 0.744,-0.75056 0.744,-0.74808 0.744,-0.7456 0.744,-0.74311 0.744,-0.74064 0.744,-0.73815 0.744,-0.73567 0.744,-0.7332 0.744,-0.73071 0.744,-0.72822 0.744,-0.72575 0.744,-0.72327 0.744,-0.72078 0.744,-0.71831 0.744,-0.71582 0.744,-0.71334 0.744,-0.71086 0.744,-0.70838 0.744,-0.7059 0.744,-0.70341 0.744,-0.70094 0.744,-0.69845 0.744,-0.69597 0.744,-0.6935 0.744,-0.69101" /></g></g><g
       id="g56"><g
         clip-path="url(#clipPath60)"
         id="g58"><path
           id="path64"
           style="fill:none;stroke:#ff0000;stroke-width:1;stroke-linecap:square;stroke-linejoin:round;stroke-miterlimit:10;stroke-dasharray:none;stroke-opacity:1"
           d="m 164.9559,118.05843 0.744,-0.4115 0.744,-0.41061 0.744,-0.40972 0.744,-0.40883 0.744,-0.40794 0.744,-0.40705 0.744,-0.40616 0.744,-0.40526 0.744,-0.40438 0.744,-0.40348 0.744,-0.4026 0.744,-0.4017 0.744,-0.40081 0.744,-0.39992 0.744,-0.39903 0.744,-0.39814 0.744,-0.39725 0.744,-0.39635 0.744,-0.39547 0.744,-0.39457 0.744,-0.39369 0.744,-0.39279 0.744,-0.3919 0.744,-0.39101 0.744,-0.39012 0.744,-0.38923 0.744,-0.38834 0.744,-0.38745 0.744,-0.38655 0.744,-0.38567 0.744,-0.38477 0.744,-0.38388 0.744,-0.38299 0.744,-0.3821 0.744,-0.38122 0.744,-0.38031 0.744,-0.37943 0.744,-0.37854 0.744,-0.37765 0.744,-0.37675 0.744,-0.37586 0.744,-0.37498 0.744,-0.37408 0.744,-0.37319 0.744,-0.3723 0.744,-0.37141 0.744,-0.370518 0.744,-0.369627 0.744,-0.368736 0.744,-0.367845 0.744,-0.366955 0.744,-0.366063 0.744,-0.365172 0.744,-0.364282 0.744,-0.36339 0.744,-0.3625 0.744,-0.361608 0.744,-0.360717 0.744,-0.359827 0.744,-0.358935 0.744,-0.358045 0.744,-0.357153 0.744,-0.356263 0.744,-0.355372 0.744,-0.35448 0.744,-0.35359 0.744,-0.352698 0.744,-0.351808 0.744,-0.350917 0.744,-0.350025 0.744,-0.349135 0.744,-0.348244 0.744,-0.347353 0.744,-0.346462 0.744,-0.34557 0.744,-0.34468 0.744,-0.343789 0.744,-0.342898 0.744,-0.342007 0.744,-0.341116 0.744,-0.340225" /></g></g><g
       id="g66"><g
         clip-path="url(#clipPath70)"
         id="g68"><path
           id="path74"
           style="fill:none;stroke:#ff0000;stroke-width:1;stroke-linecap:square;stroke-linejoin:round;stroke-miterlimit:10;stroke-dasharray:none;stroke-opacity:1"
           d="m 225.4865,87.491746 18.6,-5.309315 18.6,-5.081925 18.6,-4.854536 18.6,-4.627146 18.6,-4.399758 5.952,-1.359898 0,0" /></g></g><g
       id="g76"><g
         clip-path="url(#clipPath80)"
         id="g78"><path
           id="path84"
           style="fill:none;stroke:#ff0000;stroke-width:1;stroke-linecap:square;stroke-linejoin:round;stroke-miterlimit:10;stroke-dasharray:none;stroke-opacity:1"
           d="m 325.08569,61.712704 35.712,-4.098022 35.712,-3.869908 35.712,-3.641795 34.968,-3.34489 9.50406,-0.871318 0,0" /></g></g><g
       id="g86"><g
         clip-path="url(#clipPath90)"
         id="g88"><path
           id="path94"
           style="fill:none;stroke:#ff0000;stroke-width:1;stroke-linecap:square;stroke-linejoin:round;stroke-miterlimit:10;stroke-dasharray:none;stroke-opacity:1"
           d="m 494.44062,42.271309 -17.74687,0.705928" /></g></g><g
       id="g96"><g
         clip-path="url(#clipPath100)"
         id="g98"><path
           id="path104"
           style="fill:none;stroke:#ff0000;stroke-width:1;stroke-linecap:square;stroke-linejoin:round;stroke-miterlimit:10;stroke-dasharray:none;stroke-opacity:1"
           d="m 494.44062,35.655353 -17.74687,0.217212" /></g></g><g
       id="g106"><g
         clip-path="url(#clipPath110)"
         id="g108"><path
           id="path114"
           style="fill:none;stroke:#008000;stroke-width:1;stroke-linecap:square;stroke-linejoin:round;stroke-miterlimit:10;stroke-dasharray:none;stroke-opacity:1"
           d="m 30.29375,351.6348 0.744,-2.39224 0.744,-2.38349 0.744,-2.37477 0.744,-2.36603 0.744,-2.3573 0.744,-2.34856 0.744,-2.33983 0.744,-2.33109 0.744,-2.32236 0.744,-2.31363 0.744,-2.30489 0.744,-2.29616 0.744,-2.28743 0.744,-2.27869 0.744,-2.26995 0.744,-2.26122 0.744,-2.25249 0.744,-2.24376 0.744,-2.23502 0.744,-2.22628 0.744,-2.21755 0.744,-2.20882 0.744,-2.20009 0.744,-2.19135 0.744,-2.18261 0.744,-2.17388 0.744,-2.16515 0.744,-2.15641 0.744,-2.14768 0.744,-2.13895 0.744,-2.13021 0.744,-2.12148 0.744,-2.11274 0.744,-2.10401 0.744,-2.09527 0.744,-2.08654 0.744,-2.07781" /></g></g><g
       id="g116"><g
         clip-path="url(#clipPath120)"
         id="g118"><path
           id="path124"
           style="fill:none;stroke:#008000;stroke-width:1;stroke-linecap:square;stroke-linejoin:round;stroke-miterlimit:10;stroke-dasharray:none;stroke-opacity:1"
           d="m 57.969389,258.46002 0.744,-1.48465 0.744,-1.47997 0.744,-1.47526 0.744,-1.47058 0.744,-1.46589 0.744,-1.46119 0.744,-1.4565 0.744,-1.45181 0.744,-1.44712 0.744,-1.44242 0.744,-1.43774 0.744,-1.43304 0.744,-1.42835 0.744,-1.42365 0.744,-1.41897 0.744,-1.41427 0.744,-1.40959 0.744,-1.40489 0.744,-1.40019 0.744,-1.39551 0.744,-1.39081 0.744,-1.38613 0.744,-1.38143 0.744,-1.37674 0.744,-1.37204 0.744,-1.36736 0.744,-1.36266 0.744,-1.35797 0.744,-1.35328 0.744,-1.34858 0.744,-1.3439 0.744,-1.3392 0.744,-1.33451 0.744,-1.32982 0.744,-1.32513 0.744,-1.32044 0.744,-1.31574 0.744,-1.31105 0.744,-1.30636" /></g></g><g
       id="g126"><g
         clip-path="url(#clipPath130)"
         id="g128"><path
           id="path134"
           style="fill:none;stroke:#008000;stroke-width:1;stroke-linecap:square;stroke-linejoin:round;stroke-miterlimit:10;stroke-dasharray:none;stroke-opacity:1"
           d="m 87.628412,177.10421 0.744,-0.63564 0.744,-0.63432 0.744,-0.63301 0.744,-0.6317 0.744,-0.63039 0.744,-0.62907 0.744,-0.62777 0.744,-0.62645 0.744,-0.62514 0.744,-0.62382 0.744,-0.62252 0.744,-0.6212 0.744,-0.61989 0.744,-0.61858 0.744,-0.61726 0.744,-0.61596 0.743998,-0.61464 0.744,-0.61333 0.744,-0.61202 0.744,-0.6107 0.744,-0.60939 0.744,-0.60809 0.744,-0.60676 0.744,-0.60546 0.744,-0.60415 0.744,-0.60283 0.744,-0.60152 0.744,-0.60021 0.744,-0.59889 0.744,-0.59759 0.744,-0.59627 0.744,-0.59496 0.744,-0.59365 0.744,-0.59233 0.744,-0.59103 0.744,-0.58971 0.744,-0.5884 0.744,-0.58708 0.744,-0.58578 0.744,-0.58446 0.744,-0.58315 0.744,-0.58184 0.744,-0.58053 0.744,-0.57921 0.744,-0.5779 0.744,-0.57659 0.744,-0.57528 0.744,-0.57397 0.744,-0.57265 0.744,-0.57134 0.744,-0.57003 0.744,-0.56872 0.744,-0.5674 0.744,-0.5661 0.744,-0.56478 0.744,-0.56347 0.744,-0.56215 0.744,-0.56085 0.744,-0.55953 0.744,-0.55822 0.744,-0.55691 0.744,-0.5556 0.744,-0.55428 0.744,-0.55297 0.744,-0.55166 0.744,-0.55035 0.744,-0.54903 0.744,-0.54773 0.744,-0.54641 0.744,-0.5451 0.744,-0.54378 0.744,-0.54248 0.744,-0.54116 0.744,-0.53985 0.744,-0.53854 0.744,-0.53723 0.744,-0.53591 0.744,-0.5346 0.744,-0.53329 0.744,-0.53198 0.744,-0.53067 0.744,-0.52935 0.744,-0.52804 0.744,-0.52673 0.744,-0.52542 0.744,-0.5241 0.744,-0.52279 0.744,-0.52149 0.744,-0.52017 0.744,-0.51885 0.744,-0.51755 0.744,-0.51623 0.744,-0.51492 0.744,-0.51361 0.744,-0.51229 0.744,-0.51099 0.744,-0.50967 0.744,-0.50836 0.744,-0.50704 0.744,-0.50574 0.744,-0.50442 0.744,-0.50311 0.744,-0.5018" /></g></g><g
       id="g136"><g
         clip-path="url(#clipPath140)"
         id="g138"><path
           id="path144"
           style="fill:none;stroke:#008000;stroke-width:1;stroke-linecap:square;stroke-linejoin:round;stroke-miterlimit:10;stroke-dasharray:none;stroke-opacity:1"
           d="m 164.9559,112.2522 0.744,-0.32865 0.744,-0.32804 0.744,-0.32744 0.744,-0.32683 0.744,-0.32622 0.744,-0.32563 0.744,-0.32501 0.744,-0.32442 0.744,-0.3238 0.744,-0.3232 0.744,-0.3226 0.744,-0.32199 0.744,-0.32139 0.744,-0.32078 0.744,-0.32018 0.744,-0.31957 0.744,-0.31897 0.744,-0.31836 0.744,-0.31775 0.744,-0.31716 0.744,-0.31654 0.744,-0.31594 0.744,-0.31534 0.744,-0.31473 0.744,-0.31413 0.744,-0.31352 0.744,-0.31292 0.744,-0.31231 0.744,-0.31171 0.744,-0.3111 0.744,-0.3105 0.744,-0.30989 0.744,-0.30928 0.744,-0.30868 0.744,-0.30808 0.744,-0.30747 0.744,-0.30687 0.744,-0.30626 0.744,-0.305658 0.744,-0.305052 0.744,-0.304446 0.744,-0.303842 0.744,-0.303236 0.744,-0.302632 0.744,-0.302027 0.744,-0.301421 0.744,-0.300817 0.744,-0.300212 0.744,-0.299606 0.744,-0.299002 0.744,-0.298396 0.744,-0.297792 0.744,-0.297186 0.744,-0.296582 0.744,-0.295977 0.744,-0.295371 0.744,-0.294767 0.744,-0.294161 0.744,-0.293557 0.744,-0.292951 0.744,-0.292347 0.744,-0.291741 0.744,-0.291137 0.744,-0.290532 0.744,-0.289926 0.744,-0.289322 0.744,-0.288716 0.744,-0.288112 0.744,-0.287506 0.744,-0.286902 0.744,-0.286296 0.744,-0.285692 0.744,-0.285086 0.744,-0.284482 0.744,-0.283876 0.744,-0.283272 0.744,-0.282666 0.744,-0.282062 0.744,-0.281456 0.744,-0.280851 0.744,-0.280247" /></g></g><g
       id="g146"><g
         clip-path="url(#clipPath150)"
         id="g148"><path
           id="path154"
           style="fill:none;stroke:#008000;stroke-width:1;stroke-linecap:square;stroke-linejoin:round;stroke-miterlimit:10;stroke-dasharray:none;stroke-opacity:1"
           d="m 225.4865,81.13598 23.808,-4.999507 23.808,-4.77547 23.808,-4.551432 23.808,-4.327395 3.72,-0.655918 0,0" /></g></g><g
       id="g156"><g
         clip-path="url(#clipPath160)"
         id="g158"><path
           id="path164"
           style="fill:none;stroke:#008000;stroke-width:1;stroke-linecap:square;stroke-linejoin:round;stroke-miterlimit:10;stroke-dasharray:none;stroke-opacity:1"
           d="m 325.08569,53.827413 52.824,-3.629287 52.824,-3.403431 45.96006,-2.777448 0,0" /></g></g><g
       id="g166"><g
         clip-path="url(#clipPath170)"
         id="g168"><path
           id="path174"
           style="fill:none;stroke:#008000;stroke-width:1;stroke-linecap:square;stroke-linejoin:round;stroke-miterlimit:10;stroke-dasharray:none;stroke-opacity:1"
           d="M 494.44062,38.989514 476.69375,39.45448" /></g></g><g
       id="g176"><g
         clip-path="url(#clipPath180)"
         id="g178"><path
           id="path184"
           style="fill:none;stroke:#008000;stroke-width:1;stroke-linecap:square;stroke-linejoin:round;stroke-miterlimit:10;stroke-dasharray:none;stroke-opacity:1"
           d="m 494.44062,30.377718 -17.74687,0.09528" /></g></g><g
       id="g186"><path
         id="path188"
         style="fill:none;stroke:#000000;stroke-width:1;stroke-linecap:square;stroke-linejoin:miter;stroke-miterlimit:10;stroke-dasharray:none;stroke-opacity:1"
         d="m 476.69375,22.825 0,345.6" /><path
         id="path190"
         style="fill:none;stroke:#000000;stroke-width:1;stroke-linecap:square;stroke-linejoin:miter;stroke-miterlimit:10;stroke-dasharray:none;stroke-opacity:1"
         d="m 30.29375,22.825 446.4,0" /><path
         id="path192"
         style="fill:none;stroke:#000000;stroke-width:1;stroke-linecap:square;stroke-linejoin:miter;stroke-miterlimit:10;stroke-dasharray:none;stroke-opacity:1"
         d="m 30.29375,22.825 0,345.6" /><path
         id="path194"
         style="fill:none;stroke:#000000;stroke-width:1;stroke-linecap:square;stroke-linejoin:miter;stroke-miterlimit:10;stroke-dasharray:none;stroke-opacity:1"
         d="m 30.29375,368.425 446.4,0" /><path
         id="path196"
         style="fill:#000000;fill-opacity:1;fill-rule:nonzero;stroke:#000000;stroke-width:0.5;stroke-linecap:butt;stroke-linejoin:round;stroke-miterlimit:10;stroke-dasharray:none;stroke-opacity:1"
         d="m 30.29375,22.825 0,4" /><path
         id="path198"
         style="fill:#000000;fill-opacity:1;fill-rule:nonzero;stroke:#000000;stroke-width:0.5;stroke-linecap:butt;stroke-linejoin:round;stroke-miterlimit:10;stroke-dasharray:none;stroke-opacity:1"
         d="m 30.29375,368.425 0,-4" /><text
         id="text200"
         style="font-variant:normal;font-weight:normal;font-size:12px;font-family:'Bitstream Vera Sans';-inkscape-font-specification:BitstreamVeraSans-Roman;writing-mode:lr-tb;fill:#000000;fill-opacity:1;fill-rule:nonzero;stroke:none"
         transform="matrix(1,0,0,-1,20.746875,9.7)"><tspan
           id="tspan202"
           y="0"
           x="0 7.632 11.448">0.0</tspan></text>
<path
         id="path204"
         style="fill:#000000;fill-opacity:1;fill-rule:nonzero;stroke:#000000;stroke-width:0.5;stroke-linecap:butt;stroke-linejoin:round;stroke-miterlimit:10;stroke-dasharray:none;stroke-opacity:1"
         d="m 104.69375,22.825 0,4" /><path
         id="path206"
         style="fill:#000000;fill-opacity:1;fill-rule:nonzero;stroke:#000000;stroke-width:0.5;stroke-linecap:butt;stroke-linejoin:round;stroke-miterlimit:10;stroke-dasharray:none;stroke-opacity:1"
         d="m 104.69375,368.425 0,-4" /><text
         id="text208"
         style="font-variant:normal;font-weight:normal;font-size:12px;font-family:'Bitstream Vera Sans';-inkscape-font-specification:BitstreamVeraSans-Roman;writing-mode:lr-tb;fill:#000000;fill-opacity:1;fill-rule:nonzero;stroke:none"
         transform="matrix(1,0,0,-1,95.146875,9.7)"><tspan
           id="tspan210"
           y="0"
           x="0 7.632 11.448">0.5</tspan></text>
<path
         id="path212"
         style="fill:#000000;fill-opacity:1;fill-rule:nonzero;stroke:#000000;stroke-width:0.5;stroke-linecap:butt;stroke-linejoin:round;stroke-miterlimit:10;stroke-dasharray:none;stroke-opacity:1"
         d="m 179.09375,22.825 0,4" /><path
         id="path214"
         style="fill:#000000;fill-opacity:1;fill-rule:nonzero;stroke:#000000;stroke-width:0.5;stroke-linecap:butt;stroke-linejoin:round;stroke-miterlimit:10;stroke-dasharray:none;stroke-opacity:1"
         d="m 179.09375,368.425 0,-4" /><text
         id="text216"
         style="font-variant:normal;font-weight:normal;font-size:12px;font-family:'Bitstream Vera Sans';-inkscape-font-specification:BitstreamVeraSans-Roman;writing-mode:lr-tb;fill:#000000;fill-opacity:1;fill-rule:nonzero;stroke:none"
         transform="matrix(1,0,0,-1,169.54687,9.7)"><tspan
           id="tspan218"
           y="0"
           x="0 7.632 11.448">1.0</tspan></text>
<path
         id="path220"
         style="fill:#000000;fill-opacity:1;fill-rule:nonzero;stroke:#000000;stroke-width:0.5;stroke-linecap:butt;stroke-linejoin:round;stroke-miterlimit:10;stroke-dasharray:none;stroke-opacity:1"
         d="m 253.49375,22.825 0,4" /><path
         id="path222"
         style="fill:#000000;fill-opacity:1;fill-rule:nonzero;stroke:#000000;stroke-width:0.5;stroke-linecap:butt;stroke-linejoin:round;stroke-miterlimit:10;stroke-dasharray:none;stroke-opacity:1"
         d="m 253.49375,368.425 0,-4" /><text
         id="text224"
         style="font-variant:normal;font-weight:normal;font-size:12px;font-family:'Bitstream Vera Sans';-inkscape-font-specification:BitstreamVeraSans-Roman;writing-mode:lr-tb;fill:#000000;fill-opacity:1;fill-rule:nonzero;stroke:none"
         transform="matrix(1,0,0,-1,243.94687,9.7)"><tspan
           id="tspan226"
           y="0"
           x="0 7.632 11.448">1.5</tspan></text>
<path
         id="path228"
         style="fill:#000000;fill-opacity:1;fill-rule:nonzero;stroke:#000000;stroke-width:0.5;stroke-linecap:butt;stroke-linejoin:round;stroke-miterlimit:10;stroke-dasharray:none;stroke-opacity:1"
         d="m 327.89375,22.825 0,4" /><path
         id="path230"
         style="fill:#000000;fill-opacity:1;fill-rule:nonzero;stroke:#000000;stroke-width:0.5;stroke-linecap:butt;stroke-linejoin:round;stroke-miterlimit:10;stroke-dasharray:none;stroke-opacity:1"
         d="m 327.89375,368.425 0,-4" /><text
         id="text232"
         style="font-variant:normal;font-weight:normal;font-size:12px;font-family:'Bitstream Vera Sans';-inkscape-font-specification:BitstreamVeraSans-Roman;writing-mode:lr-tb;fill:#000000;fill-opacity:1;fill-rule:nonzero;stroke:none"
         transform="matrix(1,0,0,-1,318.34687,9.7)"><tspan
           id="tspan234"
           y="0"
           x="0 7.632 11.448">2.0</tspan></text>
<path
         id="path236"
         style="fill:#000000;fill-opacity:1;fill-rule:nonzero;stroke:#000000;stroke-width:0.5;stroke-linecap:butt;stroke-linejoin:round;stroke-miterlimit:10;stroke-dasharray:none;stroke-opacity:1"
         d="m 402.29375,22.825 0,4" /><path
         id="path238"
         style="fill:#000000;fill-opacity:1;fill-rule:nonzero;stroke:#000000;stroke-width:0.5;stroke-linecap:butt;stroke-linejoin:round;stroke-miterlimit:10;stroke-dasharray:none;stroke-opacity:1"
         d="m 402.29375,368.425 0,-4" /><text
         id="text240"
         style="font-variant:normal;font-weight:normal;font-size:12px;font-family:'Bitstream Vera Sans';-inkscape-font-specification:BitstreamVeraSans-Roman;writing-mode:lr-tb;fill:#000000;fill-opacity:1;fill-rule:nonzero;stroke:none"
         transform="matrix(1,0,0,-1,392.74687,9.7)"><tspan
           id="tspan242"
           y="0"
           x="0 7.632 11.448">2.5</tspan></text>
<path
         id="path244"
         style="fill:#000000;fill-opacity:1;fill-rule:nonzero;stroke:#000000;stroke-width:0.5;stroke-linecap:butt;stroke-linejoin:round;stroke-miterlimit:10;stroke-dasharray:none;stroke-opacity:1"
         d="m 476.69375,22.825 0,4" /><path
         id="path246"
         style="fill:#000000;fill-opacity:1;fill-rule:nonzero;stroke:#000000;stroke-width:0.5;stroke-linecap:butt;stroke-linejoin:round;stroke-miterlimit:10;stroke-dasharray:none;stroke-opacity:1"
         d="m 476.69375,368.425 0,-4" /><text
         id="text248"
         style="font-variant:normal;font-weight:normal;font-size:12px;font-family:'Bitstream Vera Sans';-inkscape-font-specification:BitstreamVeraSans-Roman;writing-mode:lr-tb;fill:#000000;fill-opacity:1;fill-rule:nonzero;stroke:none"
         transform="matrix(1,0,0,-1,467.14688,9.7)"><tspan
           id="tspan250"
           y="0"
           x="0 7.632 11.448">3.0</tspan></text>
<path
         id="path252"
         style="fill:#000000;fill-opacity:1;fill-rule:nonzero;stroke:#000000;stroke-width:0.5;stroke-linecap:butt;stroke-linejoin:round;stroke-miterlimit:10;stroke-dasharray:none;stroke-opacity:1"
         d="m 30.29375,22.825 4,0" /><path
         id="path254"
         style="fill:#000000;fill-opacity:1;fill-rule:nonzero;stroke:#000000;stroke-width:0.5;stroke-linecap:butt;stroke-linejoin:round;stroke-miterlimit:10;stroke-dasharray:none;stroke-opacity:1"
         d="m 476.69375,22.825 -4,0" /><text
         id="text256"
         style="font-variant:normal;font-weight:normal;font-size:12px;font-family:'Bitstream Vera Sans';-inkscape-font-specification:BitstreamVeraSans-Roman;writing-mode:lr-tb;fill:#000000;fill-opacity:1;fill-rule:nonzero;stroke:none"
         transform="matrix(1,0,0,-1,7.2,19.5125)"><tspan
           id="tspan258"
           y="0"
           x="0 7.632 11.448">0.0</tspan></text>
<path
         id="path260"
         style="fill:#000000;fill-opacity:1;fill-rule:nonzero;stroke:#000000;stroke-width:0.5;stroke-linecap:butt;stroke-linejoin:round;stroke-miterlimit:10;stroke-dasharray:none;stroke-opacity:1"
         d="m 30.29375,91.945 4,0" /><path
         id="path262"
         style="fill:#000000;fill-opacity:1;fill-rule:nonzero;stroke:#000000;stroke-width:0.5;stroke-linecap:butt;stroke-linejoin:round;stroke-miterlimit:10;stroke-dasharray:none;stroke-opacity:1"
         d="m 476.69375,91.945 -4,0" /><text
         id="text264"
         style="font-variant:normal;font-weight:normal;font-size:12px;font-family:'Bitstream Vera Sans';-inkscape-font-specification:BitstreamVeraSans-Roman;writing-mode:lr-tb;fill:#000000;fill-opacity:1;fill-rule:nonzero;stroke:none"
         transform="matrix(1,0,0,-1,7.2,88.6325)"><tspan
           id="tspan266"
           y="0"
           x="0 7.632 11.448">0.2</tspan></text>
<path
         id="path268"
         style="fill:#000000;fill-opacity:1;fill-rule:nonzero;stroke:#000000;stroke-width:0.5;stroke-linecap:butt;stroke-linejoin:round;stroke-miterlimit:10;stroke-dasharray:none;stroke-opacity:1"
         d="m 30.29375,161.065 4,0" /><path
         id="path270"
         style="fill:#000000;fill-opacity:1;fill-rule:nonzero;stroke:#000000;stroke-width:0.5;stroke-linecap:butt;stroke-linejoin:round;stroke-miterlimit:10;stroke-dasharray:none;stroke-opacity:1"
         d="m 476.69375,161.065 -4,0" /><text
         id="text272"
         style="font-variant:normal;font-weight:normal;font-size:12px;font-family:'Bitstream Vera Sans';-inkscape-font-specification:BitstreamVeraSans-Roman;writing-mode:lr-tb;fill:#000000;fill-opacity:1;fill-rule:nonzero;stroke:none"
         transform="matrix(1,0,0,-1,7.2,157.7525)"><tspan
           id="tspan274"
           y="0"
           x="0 7.632 11.448">0.4</tspan></text>
<path
         id="path276"
         style="fill:#000000;fill-opacity:1;fill-rule:nonzero;stroke:#000000;stroke-width:0.5;stroke-linecap:butt;stroke-linejoin:round;stroke-miterlimit:10;stroke-dasharray:none;stroke-opacity:1"
         d="m 30.29375,230.185 4,0" /><path
         id="path278"
         style="fill:#000000;fill-opacity:1;fill-rule:nonzero;stroke:#000000;stroke-width:0.5;stroke-linecap:butt;stroke-linejoin:round;stroke-miterlimit:10;stroke-dasharray:none;stroke-opacity:1"
         d="m 476.69375,230.185 -4,0" /><text
         id="text280"
         style="font-variant:normal;font-weight:normal;font-size:12px;font-family:'Bitstream Vera Sans';-inkscape-font-specification:BitstreamVeraSans-Roman;writing-mode:lr-tb;fill:#000000;fill-opacity:1;fill-rule:nonzero;stroke:none"
         transform="matrix(1,0,0,-1,7.2,226.8725)"><tspan
           id="tspan282"
           y="0"
           x="0 7.632 11.448">0.6</tspan></text>
<path
         id="path284"
         style="fill:#000000;fill-opacity:1;fill-rule:nonzero;stroke:#000000;stroke-width:0.5;stroke-linecap:butt;stroke-linejoin:round;stroke-miterlimit:10;stroke-dasharray:none;stroke-opacity:1"
         d="m 30.29375,299.305 4,0" /><path
         id="path286"
         style="fill:#000000;fill-opacity:1;fill-rule:nonzero;stroke:#000000;stroke-width:0.5;stroke-linecap:butt;stroke-linejoin:round;stroke-miterlimit:10;stroke-dasharray:none;stroke-opacity:1"
         d="m 476.69375,299.305 -4,0" /><text
         id="text288"
         style="font-variant:normal;font-weight:normal;font-size:12px;font-family:'Bitstream Vera Sans';-inkscape-font-specification:BitstreamVeraSans-Roman;writing-mode:lr-tb;fill:#000000;fill-opacity:1;fill-rule:nonzero;stroke:none"
         transform="matrix(1,0,0,-1,7.2,295.9925)"><tspan
           id="tspan290"
           y="0"
           x="0 7.632 11.448">0.8</tspan></text>
<path
         id="path292"
         style="fill:#000000;fill-opacity:1;fill-rule:nonzero;stroke:#000000;stroke-width:0.5;stroke-linecap:butt;stroke-linejoin:round;stroke-miterlimit:10;stroke-dasharray:none;stroke-opacity:1"
         d="m 30.29375,368.425 4,0" /><path
         id="path294"
         style="fill:#000000;fill-opacity:1;fill-rule:nonzero;stroke:#000000;stroke-width:0.5;stroke-linecap:butt;stroke-linejoin:round;stroke-miterlimit:10;stroke-dasharray:none;stroke-opacity:1"
         d="m 476.69375,368.425 -4,0" /><text
         id="text296"
         style="font-variant:normal;font-weight:normal;font-size:12px;font-family:'Bitstream Vera Sans';-inkscape-font-specification:BitstreamVeraSans-Roman;writing-mode:lr-tb;fill:#000000;fill-opacity:1;fill-rule:nonzero;stroke:none"
         transform="matrix(1,0,0,-1,7.2,365.1125)"><tspan
           id="tspan298"
           y="0"
           x="0 7.632 11.448">1.0</tspan></text>
</g></g></svg>