<?xml version="1.0" encoding="UTF-8" standalone="no"?>
<svg
   xmlns:dc="http://purl.org/dc/elements/1.1/"
   xmlns:cc="http://creativecommons.org/ns#"
   xmlns:rdf="http://www.w3.org/1999/02/22-rdf-syntax-ns#"
   xmlns:svg="http://www.w3.org/2000/svg"
   xmlns="http://www.w3.org/2000/svg"
   viewBox="0 0 609.64258 476.79688"
   height="476.79688"
   width="609.64258"
   xml:space="preserve"
   version="1.1"
   id="svg2"><metadata
     id="metadata8"><rdf:RDF><cc:Work
         rdf:about=""><dc:format>image/svg+xml</dc:format><dc:type
           rdf:resource="http://purl.org/dc/dcmitype/StillImage" /></cc:Work></rdf:RDF></metadata><defs
     id="defs6"><clipPath
       id="clipPath20"
       clipPathUnits="userSpaceOnUse"><path
         id="path22"
         d="m 30.29375,22.825 446.4,0 0,345.6 -446.4,0 0,-345.6 z" /></clipPath><clipPath
       id="clipPath30"
       clipPathUnits="userSpaceOnUse"><path
         id="path32"
         d="m 30.29375,22.825 446.4,0 0,345.6 -446.4,0 0,-345.6 z" /></clipPath></defs><g
     transform="matrix(1.25,0,0,-1.25,0,476.79687)"
     id="g10"><path
       id="path12"
       style="fill:#ffffff;fill-opacity:1;fill-rule:nonzero;stroke:none"
       d="m 0,0 487.71406,0 0,381.4375 L 0,381.4375 0,0 Z" /><path
       id="path14"
       style="fill:#ffffff;fill-opacity:1;fill-rule:nonzero;stroke:none"
       d="m 30.29375,22.825 446.4,0 0,345.6 -446.4,0 0,-345.6 z" /><g
       id="g16"><g
         clip-path="url(#clipPath20)"
         id="g18"><path
           id="path24"
           style="fill:none;stroke:#0000ff;stroke-width:1;stroke-linecap:butt;stroke-linejoin:miter;stroke-miterlimit:10;stroke-dasharray:none;stroke-opacity:1"
           d="m 30.694313,22.825 0,7.019391 3.968344,0 0,-3.779672 7.936689,0 0,4.319625 3.968344,0 0,-2.159812 3.968344,0 0,3.239719 3.968344,0 0,-2.699766 3.968344,0 0,2.159813 3.968344,0 0,2.699765 3.968344,0 0,-3.779672 3.968344,0 0,0.539953 3.968345,0 0,2.699766 3.968344,0 0,4.859579 3.968344,0 0,-2.159813 3.968344,0 0,-3.779672 3.968344,0 0,1.079906 3.968344,0 0,6.479438 3.968344,0 0,2.699766 7.936687,0 0,1.079907 3.96835,0 0,1.619859 3.96834,0 0,4.859579 3.96834,0 0,-0.539954 3.96835,0 0,-2.159812 3.96834,0 0,4.859578 3.96835,0 0,-3.779672 3.96834,0 0,6.479438 3.96834,0 0,3.779672 3.96835,0 0,1.61986 3.96834,0 0,3.239719 3.96835,0 0,15.658642 3.96834,0 0,-19.438314 3.96835,0 0,14.578735 3.96834,0 0,17.278502 3.96834,0 0,-4.859579 3.96835,0 0,-3.239719 3.96834,0 0,7.019392 3.96835,0 0,10.799063 3.96834,0 0,15.11869 3.96834,0 0,-7.55935 3.96835,0 0,25.91776 3.96834,0 0,-10.79907 3.96835,0 0,24.83785 3.96834,0 0,-2.15981 3.96834,0 0,2.15981 3.96835,0 0,16.73855 3.96834,0 0,-8.0993 3.96835,0 0,28.07756 3.96834,0 0,-8.09929 3.96834,0 0,30.77733 3.96835,0 0,7.01939 3.96834,0 0,10.79906 3.96835,0 0,4.85958 3.96834,0 0,8.63925 3.96835,0 0,20.51822 3.96834,0 0,3.23972 3.96834,0 0,-6.47944 3.96835,0 0,39.41659 3.96834,0 0,-12.95888 3.96835,0 0,14.03878 3.96834,0 0,-5.39953 3.96834,0 0,47.51588 3.96835,0 0,-10.79906 3.96834,0 0,8.63925 3.96835,0 0,-7.01939 3.96834,0 0,8.63925 3.96834,0 0,15.65864 3.96835,0 0,-32.93715 3.96834,0 0,25.91776 3.96835,0 0,3.77967 3.96834,0 0,-8.63925 3.96835,0 0,-41.5764 3.96834,0 0,-8.09929 3.96834,0 0,1.61986 3.96835,0 0,-24.2979 3.96834,0 0,-38.87663 3.96835,0 0,7.0194 3.96834,0 0,-43.19626 3.96834,0 0,-26.4577 3.96835,0 0,-15.65865 3.96834,0 0,-12.95887 3.96835,0 0,-17.2785 3.96834,0 0,-3.23972 3.96834,0 0,-22.678035 3.96835,0 0,-29.697425 3.96834,0 0,-10.25911 3.96835,0 0,-4.319625 3.96834,0 0,-8.639251 3.96835,0 0,-5.939485 3.96834,0 0,-8.639251 3.96834,0 0,-2.159813 3.96835,0 0,0.539954 3.96834,0 0,-2.699766 3.96835,0 0,-1.079907 3.96834,0 0,0.539954 3.96834,0 0,-1.079907 3.96835,0 0,-0.539953 11.90503,0 0,0.539953 3.96834,0 0,-0.539953 0,0" /></g></g><g
       id="g26"><g
         clip-path="url(#clipPath30)"
         id="g28"><path
           id="path34"
           style="fill:none;stroke:#000000;stroke-width:1;stroke-linecap:square;stroke-linejoin:round;stroke-miterlimit:10;stroke-dasharray:none;stroke-opacity:1"
           d="m 30.694313,27.344692 10.788,1.091253 9.672,1.198905 8.928,1.330787 8.184,1.444687 7.44,1.531874 7.068,1.678131 6.696,1.818939 6.324,1.950142 5.951997,2.067369 5.58,2.166171 5.58,2.411064 5.208,2.494126 5.208,2.752929 4.836,2.809595 4.836,3.075247 4.464,3.093998 4.464,3.35841 4.464,3.642605 4.464,3.947496 4.092,3.90475 4.092,4.196135 4.092,4.505032 4.092,4.831707 4.092,5.176257 4.092,5.53857 4.092,5.918279 4.092,6.31469 4.092,6.72676 4.092,7.15301 4.092,7.5914 4.092,8.03934 4.464,9.28828 4.464,9.83118 4.464,10.36938 4.836,11.82495 4.836,12.40943 5.208,13.96163 5.952,16.60371 7.44,21.451 15.252,44.17002 4.836,13.23175 4.092,10.55597 3.348,8.05711 2.976,6.62522 2.604,5.31406 2.604,4.80249 2.232,3.66438 2.232,3.20736 1.86,2.2965 1.86,1.93133 1.488,1.26781 1.488,1.00978 1.488,0.74132 1.488,0.46275 1.488,0.17449 1.116,-0.0639 1.116,-0.23497 1.116,-0.40956 1.488,-0.82338 1.488,-1.14689 1.488,-1.4769 1.488,-1.81252 1.488,-2.15283 1.488,-2.49684 1.86,-3.60866 1.86,-4.15269 1.86,-4.69619 1.86,-5.23594 2.232,-6.98529 2.232,-7.73285 2.604,-9.93016 2.604,-10.85441 2.976,-13.4449 3.348,-16.295 3.72,-19.29816 4.836,-26.40114 13.02,-71.89842 3.72,-18.97478 3.348,-15.9174 2.976,-13.054662 2.604,-10.488085 2.604,-9.562653 2.232,-7.438034 2.232,-6.731962 2.232,-6.03208 2.232,-5.348959 2.232,-4.692162 1.86,-3.433171 1.86,-3.024702 1.86,-2.642605 1.86,-2.288865 1.86,-1.964788 1.86,-1.671026 1.86,-1.407605 2.232,-1.383293 2.232,-1.096225 2.232,-0.855354 2.604,-0.749541 2.976,-0.600842 3.348,-0.437402 4.092,-0.306057 5.952,-0.194676 10.788,-0.07683 1.116,-0.0016 0,0" /></g></g><g
       id="g36"><path
         id="path38"
         style="fill:none;stroke:#000000;stroke-width:1;stroke-linecap:square;stroke-linejoin:miter;stroke-miterlimit:10;stroke-dasharray:none;stroke-opacity:1"
         d="m 30.29375,22.825 0,345.6" /><path
         id="path40"
         style="fill:none;stroke:#000000;stroke-width:1;stroke-linecap:square;stroke-linejoin:miter;stroke-miterlimit:10;stroke-dasharray:none;stroke-opacity:1"
         d="m 30.29375,22.825 446.4,0" /><path
         id="path42"
         style="fill:none;stroke:#000000;stroke-width:1;stroke-linecap:square;stroke-linejoin:miter;stroke-miterlimit:10;stroke-dasharray:none;stroke-opacity:1"
         d="m 476.69375,22.825 0,345.6" /><path
         id="path44"
         style="fill:none;stroke:#000000;stroke-width:1;stroke-linecap:square;stroke-linejoin:miter;stroke-miterlimit:10;stroke-dasharray:none;stroke-opacity:1"
         d="m 30.29375,368.425 446.4,0" /><path
         id="path46"
         style="fill:#000000;fill-opacity:1;fill-rule:nonzero;stroke:#000000;stroke-width:0.5;stroke-linecap:butt;stroke-linejoin:round;stroke-miterlimit:10;stroke-dasharray:none;stroke-opacity:1"
         d="m 30.29375,22.825 0,4" /><path
         id="path48"
         style="fill:#000000;fill-opacity:1;fill-rule:nonzero;stroke:#000000;stroke-width:0.5;stroke-linecap:butt;stroke-linejoin:round;stroke-miterlimit:10;stroke-dasharray:none;stroke-opacity:1"
         d="m 30.29375,368.425 0,-4" /><text
         id="text50"
         style="font-variant:normal;font-weight:normal;font-size:12px;font-family:'Bitstream Vera Sans';-inkscape-font-specification:BitstreamVeraSans-Roman;writing-mode:lr-tb;fill:#000000;fill-opacity:1;fill-rule:nonzero;stroke:none"
         transform="matrix(1,0,0,-1,26.473437,9.7)"><tspan
           id="tspan52"
           y="0"
           x="0">0</tspan></text>
<path
         id="path54"
         style="fill:#000000;fill-opacity:1;fill-rule:nonzero;stroke:#000000;stroke-width:0.5;stroke-linecap:butt;stroke-linejoin:round;stroke-miterlimit:10;stroke-dasharray:none;stroke-opacity:1"
         d="m 104.69375,22.825 0,4" /><path
         id="path56"
         style="fill:#000000;fill-opacity:1;fill-rule:nonzero;stroke:#000000;stroke-width:0.5;stroke-linecap:butt;stroke-linejoin:round;stroke-miterlimit:10;stroke-dasharray:none;stroke-opacity:1"
         d="m 104.69375,368.425 0,-4" /><text
         id="text58"
         style="font-variant:normal;font-weight:normal;font-size:12px;font-family:'Bitstream Vera Sans';-inkscape-font-specification:BitstreamVeraSans-Roman;writing-mode:lr-tb;fill:#000000;fill-opacity:1;fill-rule:nonzero;stroke:none"
         transform="matrix(1,0,0,-1,100.87344,9.7)"><tspan
           id="tspan60"
           y="0"
           x="0">1</tspan></text>
<path
         id="path62"
         style="fill:#000000;fill-opacity:1;fill-rule:nonzero;stroke:#000000;stroke-width:0.5;stroke-linecap:butt;stroke-linejoin:round;stroke-miterlimit:10;stroke-dasharray:none;stroke-opacity:1"
         d="m 179.09375,22.825 0,4" /><path
         id="path64"
         style="fill:#000000;fill-opacity:1;fill-rule:nonzero;stroke:#000000;stroke-width:0.5;stroke-linecap:butt;stroke-linejoin:round;stroke-miterlimit:10;stroke-dasharray:none;stroke-opacity:1"
         d="m 179.09375,368.425 0,-4" /><text
         id="text66"
         style="font-variant:normal;font-weight:normal;font-size:12px;font-family:'Bitstream Vera Sans';-inkscape-font-specification:BitstreamVeraSans-Roman;writing-mode:lr-tb;fill:#000000;fill-opacity:1;fill-rule:nonzero;stroke:none"
         transform="matrix(1,0,0,-1,175.27344,9.7)"><tspan
           id="tspan68"
           y="0"
           x="0">2</tspan></text>
<path
         id="path70"
         style="fill:#000000;fill-opacity:1;fill-rule:nonzero;stroke:#000000;stroke-width:0.5;stroke-linecap:butt;stroke-linejoin:round;stroke-miterlimit:10;stroke-dasharray:none;stroke-opacity:1"
         d="m 253.49375,22.825 0,4" /><path
         id="path72"
         style="fill:#000000;fill-opacity:1;fill-rule:nonzero;stroke:#000000;stroke-width:0.5;stroke-linecap:butt;stroke-linejoin:round;stroke-miterlimit:10;stroke-dasharray:none;stroke-opacity:1"
         d="m 253.49375,368.425 0,-4" /><text
         id="text74"
         style="font-variant:normal;font-weight:normal;font-size:12px;font-family:'Bitstream Vera Sans';-inkscape-font-specification:BitstreamVeraSans-Roman;writing-mode:lr-tb;fill:#000000;fill-opacity:1;fill-rule:nonzero;stroke:none"
         transform="matrix(1,0,0,-1,249.67344,9.7)"><tspan
           id="tspan76"
           y="0"
           x="0">3</tspan></text>
<path
         id="path78"
         style="fill:#000000;fill-opacity:1;fill-rule:nonzero;stroke:#000000;stroke-width:0.5;stroke-linecap:butt;stroke-linejoin:round;stroke-miterlimit:10;stroke-dasharray:none;stroke-opacity:1"
         d="m 327.89375,22.825 0,4" /><path
         id="path80"
         style="fill:#000000;fill-opacity:1;fill-rule:nonzero;stroke:#000000;stroke-width:0.5;stroke-linecap:butt;stroke-linejoin:round;stroke-miterlimit:10;stroke-dasharray:none;stroke-opacity:1"
         d="m 327.89375,368.425 0,-4" /><text
         id="text82"
         style="font-variant:normal;font-weight:normal;font-size:12px;font-family:'Bitstream Vera Sans';-inkscape-font-specification:BitstreamVeraSans-Roman;writing-mode:lr-tb;fill:#000000;fill-opacity:1;fill-rule:nonzero;stroke:none"
         transform="matrix(1,0,0,-1,324.07344,9.7)"><tspan
           id="tspan84"
           y="0"
           x="0">4</tspan></text>
<path
         id="path86"
         style="fill:#000000;fill-opacity:1;fill-rule:nonzero;stroke:#000000;stroke-width:0.5;stroke-linecap:butt;stroke-linejoin:round;stroke-miterlimit:10;stroke-dasharray:none;stroke-opacity:1"
         d="m 402.29375,22.825 0,4" /><path
         id="path88"
         style="fill:#000000;fill-opacity:1;fill-rule:nonzero;stroke:#000000;stroke-width:0.5;stroke-linecap:butt;stroke-linejoin:round;stroke-miterlimit:10;stroke-dasharray:none;stroke-opacity:1"
         d="m 402.29375,368.425 0,-4" /><text
         id="text90"
         style="font-variant:normal;font-weight:normal;font-size:12px;font-family:'Bitstream Vera Sans';-inkscape-font-specification:BitstreamVeraSans-Roman;writing-mode:lr-tb;fill:#000000;fill-opacity:1;fill-rule:nonzero;stroke:none"
         transform="matrix(1,0,0,-1,398.47344,9.7)"><tspan
           id="tspan92"
           y="0"
           x="0">5</tspan></text>
<path
         id="path94"
         style="fill:#000000;fill-opacity:1;fill-rule:nonzero;stroke:#000000;stroke-width:0.5;stroke-linecap:butt;stroke-linejoin:round;stroke-miterlimit:10;stroke-dasharray:none;stroke-opacity:1"
         d="m 476.69375,22.825 0,4" /><path
         id="path96"
         style="fill:#000000;fill-opacity:1;fill-rule:nonzero;stroke:#000000;stroke-width:0.5;stroke-linecap:butt;stroke-linejoin:round;stroke-miterlimit:10;stroke-dasharray:none;stroke-opacity:1"
         d="m 476.69375,368.425 0,-4" /><text
         id="text98"
         style="font-variant:normal;font-weight:normal;font-size:12px;font-family:'Bitstream Vera Sans';-inkscape-font-specification:BitstreamVeraSans-Roman;writing-mode:lr-tb;fill:#000000;fill-opacity:1;fill-rule:nonzero;stroke:none"
         transform="matrix(1,0,0,-1,472.87344,9.7)"><tspan
           id="tspan100"
           y="0"
           x="0">6</tspan></text>
<path
         id="path102"
         style="fill:#000000;fill-opacity:1;fill-rule:nonzero;stroke:#000000;stroke-width:0.5;stroke-linecap:butt;stroke-linejoin:round;stroke-miterlimit:10;stroke-dasharray:none;stroke-opacity:1"
         d="m 30.29375,22.825 4,0" /><path
         id="path104"
         style="fill:#000000;fill-opacity:1;fill-rule:nonzero;stroke:#000000;stroke-width:0.5;stroke-linecap:butt;stroke-linejoin:round;stroke-miterlimit:10;stroke-dasharray:none;stroke-opacity:1"
         d="m 476.69375,22.825 -4,0" /><text
         id="text106"
         style="font-variant:normal;font-weight:normal;font-size:12px;font-family:'Bitstream Vera Sans';-inkscape-font-specification:BitstreamVeraSans-Roman;writing-mode:lr-tb;fill:#000000;fill-opacity:1;fill-rule:nonzero;stroke:none"
         transform="matrix(1,0,0,-1,7.2,19.5125)"><tspan
           id="tspan108"
           y="0"
           x="0 7.632 11.448">0.0</tspan></text>
<path
         id="path110"
         style="fill:#000000;fill-opacity:1;fill-rule:nonzero;stroke:#000000;stroke-width:0.5;stroke-linecap:butt;stroke-linejoin:round;stroke-miterlimit:10;stroke-dasharray:none;stroke-opacity:1"
         d="m 30.29375,80.425 4,0" /><path
         id="path112"
         style="fill:#000000;fill-opacity:1;fill-rule:nonzero;stroke:#000000;stroke-width:0.5;stroke-linecap:butt;stroke-linejoin:round;stroke-miterlimit:10;stroke-dasharray:none;stroke-opacity:1"
         d="m 476.69375,80.425 -4,0" /><text
         id="text114"
         style="font-variant:normal;font-weight:normal;font-size:12px;font-family:'Bitstream Vera Sans';-inkscape-font-specification:BitstreamVeraSans-Roman;writing-mode:lr-tb;fill:#000000;fill-opacity:1;fill-rule:nonzero;stroke:none"
         transform="matrix(1,0,0,-1,7.2,77.1125)"><tspan
           id="tspan116"
           y="0"
           x="0 7.632 11.448">0.1</tspan></text>
<path
         id="path118"
         style="fill:#000000;fill-opacity:1;fill-rule:nonzero;stroke:#000000;stroke-width:0.5;stroke-linecap:butt;stroke-linejoin:round;stroke-miterlimit:10;stroke-dasharray:none;stroke-opacity:1"
         d="m 30.29375,138.025 4,0" /><path
         id="path120"
         style="fill:#000000;fill-opacity:1;fill-rule:nonzero;stroke:#000000;stroke-width:0.5;stroke-linecap:butt;stroke-linejoin:round;stroke-miterlimit:10;stroke-dasharray:none;stroke-opacity:1"
         d="m 476.69375,138.025 -4,0" /><text
         id="text122"
         style="font-variant:normal;font-weight:normal;font-size:12px;font-family:'Bitstream Vera Sans';-inkscape-font-specification:BitstreamVeraSans-Roman;writing-mode:lr-tb;fill:#000000;fill-opacity:1;fill-rule:nonzero;stroke:none"
         transform="matrix(1,0,0,-1,7.2,134.7125)"><tspan
           id="tspan124"
           y="0"
           x="0 7.632 11.448">0.2</tspan></text>
<path
         id="path126"
         style="fill:#000000;fill-opacity:1;fill-rule:nonzero;stroke:#000000;stroke-width:0.5;stroke-linecap:butt;stroke-linejoin:round;stroke-miterlimit:10;stroke-dasharray:none;stroke-opacity:1"
         d="m 30.29375,195.625 4,0" /><path
         id="path128"
         style="fill:#000000;fill-opacity:1;fill-rule:nonzero;stroke:#000000;stroke-width:0.5;stroke-linecap:butt;stroke-linejoin:round;stroke-miterlimit:10;stroke-dasharray:none;stroke-opacity:1"
         d="m 476.69375,195.625 -4,0" /><text
         id="text130"
         style="font-variant:normal;font-weight:normal;font-size:12px;font-family:'Bitstream Vera Sans';-inkscape-font-specification:BitstreamVeraSans-Roman;writing-mode:lr-tb;fill:#000000;fill-opacity:1;fill-rule:nonzero;stroke:none"
         transform="matrix(1,0,0,-1,7.2,192.3125)"><tspan
           id="tspan132"
           y="0"
           x="0 7.632 11.448">0.3</tspan></text>
<path
         id="path134"
         style="fill:#000000;fill-opacity:1;fill-rule:nonzero;stroke:#000000;stroke-width:0.5;stroke-linecap:butt;stroke-linejoin:round;stroke-miterlimit:10;stroke-dasharray:none;stroke-opacity:1"
         d="m 30.29375,253.225 4,0" /><path
         id="path136"
         style="fill:#000000;fill-opacity:1;fill-rule:nonzero;stroke:#000000;stroke-width:0.5;stroke-linecap:butt;stroke-linejoin:round;stroke-miterlimit:10;stroke-dasharray:none;stroke-opacity:1"
         d="m 476.69375,253.225 -4,0" /><text
         id="text138"
         style="font-variant:normal;font-weight:normal;font-size:12px;font-family:'Bitstream Vera Sans';-inkscape-font-specification:BitstreamVeraSans-Roman;writing-mode:lr-tb;fill:#000000;fill-opacity:1;fill-rule:nonzero;stroke:none"
         transform="matrix(1,0,0,-1,7.2,249.9125)"><tspan
           id="tspan140"
           y="0"
           x="0 7.632 11.448">0.4</tspan></text>
<path
         id="path142"
         style="fill:#000000;fill-opacity:1;fill-rule:nonzero;stroke:#000000;stroke-width:0.5;stroke-linecap:butt;stroke-linejoin:round;stroke-miterlimit:10;stroke-dasharray:none;stroke-opacity:1"
         d="m 30.29375,310.825 4,0" /><path
         id="path144"
         style="fill:#000000;fill-opacity:1;fill-rule:nonzero;stroke:#000000;stroke-width:0.5;stroke-linecap:butt;stroke-linejoin:round;stroke-miterlimit:10;stroke-dasharray:none;stroke-opacity:1"
         d="m 476.69375,310.825 -4,0" /><text
         id="text146"
         style="font-variant:normal;font-weight:normal;font-size:12px;font-family:'Bitstream Vera Sans';-inkscape-font-specification:BitstreamVeraSans-Roman;writing-mode:lr-tb;fill:#000000;fill-opacity:1;fill-rule:nonzero;stroke:none"
         transform="matrix(1,0,0,-1,7.2,307.5125)"><tspan
           id="tspan148"
           y="0"
           x="0 7.632 11.448">0.5</tspan></text>
<path
         id="path150"
         style="fill:#000000;fill-opacity:1;fill-rule:nonzero;stroke:#000000;stroke-width:0.5;stroke-linecap:butt;stroke-linejoin:round;stroke-miterlimit:10;stroke-dasharray:none;stroke-opacity:1"
         d="m 30.29375,368.425 4,0" /><path
         id="path152"
         style="fill:#000000;fill-opacity:1;fill-rule:nonzero;stroke:#000000;stroke-width:0.5;stroke-linecap:butt;stroke-linejoin:round;stroke-miterlimit:10;stroke-dasharray:none;stroke-opacity:1"
         d="m 476.69375,368.425 -4,0" /><text
         id="text154"
         style="font-variant:normal;font-weight:normal;font-size:12px;font-family:'Bitstream Vera Sans';-inkscape-font-specification:BitstreamVeraSans-Roman;writing-mode:lr-tb;fill:#000000;fill-opacity:1;fill-rule:nonzero;stroke:none"
         transform="matrix(1,0,0,-1,7.2,365.1125)"><tspan
           id="tspan156"
           y="0"
           x="0 7.632 11.448">0.6</tspan></text>
</g></g></svg>