<?xml version="1.0" encoding="UTF-8" standalone="no"?>
<svg
   xmlns:dc="http://purl.org/dc/elements/1.1/"
   xmlns:cc="http://creativecommons.org/ns#"
   xmlns:rdf="http://www.w3.org/1999/02/22-rdf-syntax-ns#"
   xmlns:svg="http://www.w3.org/2000/svg"
   xmlns="http://www.w3.org/2000/svg"
   viewBox="0 0 609.64258 476.79688"
   height="476.79688"
   width="609.64258"
   xml:space="preserve"
   version="1.1"
   id="svg2"><metadata
     id="metadata8"><rdf:RDF><cc:Work
         rdf:about=""><dc:format>image/svg+xml</dc:format><dc:type
           rdf:resource="http://purl.org/dc/dcmitype/StillImage" /></cc:Work></rdf:RDF></metadata><defs
     id="defs6"><clipPath
       id="clipPath20"
       clipPathUnits="userSpaceOnUse"><path
         id="path22"
         d="m 30.29375,22.825 446.4,0 0,345.6 -446.4,0 0,-345.6 z" /></clipPath><clipPath
       id="clipPath30"
       clipPathUnits="userSpaceOnUse"><path
         id="path32"
         d="m 30.29375,22.825 446.4,0 0,345.6 -446.4,0 0,-345.6 z" /></clipPath><clipPath
       id="clipPath40"
       clipPathUnits="userSpaceOnUse"><path
         id="path42"
         d="m 30.29375,22.825 446.4,0 0,345.6 -446.4,0 0,-345.6 z" /></clipPath><clipPath
       id="clipPath50"
       clipPathUnits="userSpaceOnUse"><path
         id="path52"
         d="m 30.29375,22.825 446.4,0 0,345.6 -446.4,0 0,-345.6 z" /></clipPath><clipPath
       id="clipPath60"
       clipPathUnits="userSpaceOnUse"><path
         id="path62"
         d="m 30.29375,22.825 446.4,0 0,345.6 -446.4,0 0,-345.6 z" /></clipPath><clipPath
       id="clipPath70"
       clipPathUnits="userSpaceOnUse"><path
         id="path72"
         d="m 30.29375,22.825 446.4,0 0,345.6 -446.4,0 0,-345.6 z" /></clipPath><clipPath
       id="clipPath80"
       clipPathUnits="userSpaceOnUse"><path
         id="path82"
         d="m 30.29375,22.825 446.4,0 0,345.6 -446.4,0 0,-345.6 z" /></clipPath><clipPath
       id="clipPath90"
       clipPathUnits="userSpaceOnUse"><path
         id="path92"
         d="m 30.29375,22.825 446.4,0 0,345.6 -446.4,0 0,-345.6 z" /></clipPath><clipPath
       id="clipPath100"
       clipPathUnits="userSpaceOnUse"><path
         id="path102"
         d="m 30.29375,22.825 446.4,0 0,345.6 -446.4,0 0,-345.6 z" /></clipPath><clipPath
       id="clipPath110"
       clipPathUnits="userSpaceOnUse"><path
         id="path112"
         d="m 30.29375,22.825 446.4,0 0,345.6 -446.4,0 0,-345.6 z" /></clipPath><clipPath
       id="clipPath120"
       clipPathUnits="userSpaceOnUse"><path
         id="path122"
         d="m 30.29375,22.825 446.4,0 0,345.6 -446.4,0 0,-345.6 z" /></clipPath><clipPath
       id="clipPath130"
       clipPathUnits="userSpaceOnUse"><path
         id="path132"
         d="m 30.29375,22.825 446.4,0 0,345.6 -446.4,0 0,-345.6 z" /></clipPath><clipPath
       id="clipPath140"
       clipPathUnits="userSpaceOnUse"><path
         id="path142"
         d="m 30.29375,22.825 446.4,0 0,345.6 -446.4,0 0,-345.6 z" /></clipPath><clipPath
       id="clipPath150"
       clipPathUnits="userSpaceOnUse"><path
         id="path152"
         d="m 30.29375,22.825 446.4,0 0,345.6 -446.4,0 0,-345.6 z" /></clipPath><clipPath
       id="clipPath160"
       clipPathUnits="userSpaceOnUse"><path
         id="path162"
         d="m 30.29375,22.825 446.4,0 0,345.6 -446.4,0 0,-345.6 z" /></clipPath><clipPath
       id="clipPath170"
       clipPathUnits="userSpaceOnUse"><path
         id="path172"
         d="m 30.29375,22.825 446.4,0 0,345.6 -446.4,0 0,-345.6 z" /></clipPath><clipPath
       id="clipPath180"
       clipPathUnits="userSpaceOnUse"><path
         id="path182"
         d="m 30.29375,22.825 446.4,0 0,345.6 -446.4,0 0,-345.6 z" /></clipPath><clipPath
       id="clipPath190"
       clipPathUnits="userSpaceOnUse"><path
         id="path192"
         d="m 30.29375,22.825 446.4,0 0,345.6 -446.4,0 0,-345.6 z" /></clipPath><clipPath
       id="clipPath200"
       clipPathUnits="userSpaceOnUse"><path
         id="path202"
         d="m 30.29375,22.825 446.4,0 0,345.6 -446.4,0 0,-345.6 z" /></clipPath><clipPath
       id="clipPath210"
       clipPathUnits="userSpaceOnUse"><path
         id="path212"
         d="m 30.29375,22.825 446.4,0 0,345.6 -446.4,0 0,-345.6 z" /></clipPath><clipPath
       id="clipPath220"
       clipPathUnits="userSpaceOnUse"><path
         id="path222"
         d="m 30.29375,22.825 446.4,0 0,345.6 -446.4,0 0,-345.6 z" /></clipPath><clipPath
       id="clipPath230"
       clipPathUnits="userSpaceOnUse"><path
         id="path232"
         d="m 30.29375,22.825 446.4,0 0,345.6 -446.4,0 0,-345.6 z" /></clipPath><clipPath
       id="clipPath240"
       clipPathUnits="userSpaceOnUse"><path
         id="path242"
         d="m 30.29375,22.825 446.4,0 0,345.6 -446.4,0 0,-345.6 z" /></clipPath><clipPath
       id="clipPath250"
       clipPathUnits="userSpaceOnUse"><path
         id="path252"
         d="m 30.29375,22.825 446.4,0 0,345.6 -446.4,0 0,-345.6 z" /></clipPath><clipPath
       id="clipPath260"
       clipPathUnits="userSpaceOnUse"><path
         id="path262"
         d="m 30.29375,22.825 446.4,0 0,345.6 -446.4,0 0,-345.6 z" /></clipPath><clipPath
       id="clipPath270"
       clipPathUnits="userSpaceOnUse"><path
         id="path272"
         d="m 30.29375,22.825 446.4,0 0,345.6 -446.4,0 0,-345.6 z" /></clipPath><clipPath
       id="clipPath280"
       clipPathUnits="userSpaceOnUse"><path
         id="path282"
         d="m 30.29375,22.825 446.4,0 0,345.6 -446.4,0 0,-345.6 z" /></clipPath><clipPath
       id="clipPath290"
       clipPathUnits="userSpaceOnUse"><path
         id="path292"
         d="m 30.29375,22.825 446.4,0 0,345.6 -446.4,0 0,-345.6 z" /></clipPath><clipPath
       id="clipPath300"
       clipPathUnits="userSpaceOnUse"><path
         id="path302"
         d="m 30.29375,22.825 446.4,0 0,345.6 -446.4,0 0,-345.6 z" /></clipPath></defs><g
     transform="matrix(1.25,0,0,-1.25,0,476.79687)"
     id="g10"><path
       id="path12"
       style="fill:#ffffff;fill-opacity:1;fill-rule:nonzero;stroke:none"
       d="m 0,0 487.71406,0 0,381.4375 L 0,381.4375 0,0 Z" /><path
       id="path14"
       style="fill:#ffffff;fill-opacity:1;fill-rule:nonzero;stroke:none"
       d="m 30.29375,22.825 446.4,0 0,345.6 -446.4,0 0,-345.6 z" /><g
       id="g16"><g
         clip-path="url(#clipPath20)"
         id="g18"><path
           id="path24"
           style="fill:none;stroke:#000000;stroke-width:1;stroke-linecap:square;stroke-linejoin:round;stroke-miterlimit:10;stroke-dasharray:none;stroke-opacity:1"
           d="m 30.29375,27.144998 10.788,1.043091 10.044,1.194645 8.928,1.281525 8.184,1.39121 7.812,1.554755 7.068,1.627855 6.696,1.764394 6.324,1.891606 5.952,2.005248 5.58,2.101007 5.58,2.338446 5.208,2.418906 5.208,2.669786 4.836,2.724612 4.836,2.982077 4.464,3.000099 4.464,3.256301 4.464,3.531635 4.464,3.826975 4.464,4.143114 4.092,4.093905 4.092,4.394517 4.092,4.712287 4.092,5.047277 4.092,5.399339 4.092,5.76807 4.092,6.15274 4.092,6.5523 4.092,6.9652 4.092,7.3894 4.092,7.82231 4.464,9.03336 4.464,9.55624 4.464,10.07333 4.836,11.47925 5.208,12.98432 5.58,14.55704 6.324,17.16383 8.556,23.93716 11.16,31.15427 5.208,13.86302 4.092,10.29353 3.348,7.89054 2.976,6.51842 2.976,5.96891 2.604,4.70685 2.232,3.60591 2.232,3.17208 1.86,2.2858 1.86,1.93841 1.86,1.57042 1.488,0.97782 1.488,0.71934 1.488,0.45111 1.488,0.17354 1.488,-0.11295 1.488,-0.40787 1.488,-0.71059 1.488,-1.02051 1.488,-1.33687 1.488,-1.65888 1.488,-1.98565 1.488,-2.31626 1.86,-3.36439 1.86,-3.88827 1.86,-4.41233 1.86,-4.93345 2.232,-6.59909 2.232,-7.32324 2.604,-9.42583 2.604,-10.32564 2.976,-12.81683 2.976,-13.7836 3.72,-18.36719 4.464,-23.27195 15.624,-82.69857 3.348,-16.08153 2.976,-13.3475 2.976,-12.322001 2.604,-9.864488 2.604,-8.963256 2.232,-6.948691 2.232,-6.269125 2.232,-5.598877 2.232,-4.947852 1.86,-3.645912 1.86,-3.233482 1.86,-2.844428 1.86,-2.481188 1.86,-2.145551 1.86,-1.838658 1.86,-1.561024 1.86,-1.312566 2.232,-1.28725 2.232,-1.017723 2.232,-0.792162 2.604,-0.692258 2.976,-0.553077 3.72,-0.434505 4.464,-0.279251 6.696,-0.163671 13.764,-0.05173 45.756,-0.0014 0,0" /></g></g><g
       id="g26"><g
         clip-path="url(#clipPath30)"
         id="g28"><path
           id="path34"
           style="fill:none;stroke:#ff0000;stroke-width:1;stroke-linecap:square;stroke-linejoin:round;stroke-miterlimit:10;stroke-dasharray:none;stroke-opacity:1"
           d="m 30.29375,27.144998 6.324,1.495056 8.184,1.68744 10.416,1.905614 12.648,2.081314 15.624,2.335842 9.672,1.350614 0,0" /></g></g><g
       id="g36"><g
         clip-path="url(#clipPath40)"
         id="g38"><path
           id="path44"
           style="fill:none;stroke:#ff0000;stroke-width:1;stroke-linecap:square;stroke-linejoin:round;stroke-miterlimit:10;stroke-dasharray:none;stroke-opacity:1"
           d="m 93.320005,38.02247 0.372,0.168917 0.372,0.167993 0.372,0.16709 0.372,0.166206 0.372,0.165339 0.372,0.164492 0.372,0.16366 0.372,0.162846 0.372,0.162047 0.372,0.161264 0.372,0.160496 0.372,0.159743 0.372,0.159002 0.372,0.158277 0.372,0.157563 0.372,0.156863 0.372,0.156174 0.372005,0.155498 0.37199,0.154834 0.37201,0.15418 0.37199,0.153537 0.37201,0.152906 0.37199,0.152284 0.37201,0.151672 0.37199,0.15107 0.37201,0.150477 0.372,0.149894 0.372,0.149319 0.37199,0.148754 0.37201,0.148197 0.37199,0.147647 0.37201,0.147107 0.372,0.146573 0.372,0.146048 0.372,0.14553 0.372,0.145019 0.372,0.144516 0.372,0.144019 0.37199,0.143529 0.37201,0.143045 0.37199,0.142569 0.37201,0.142098 0.372,0.141633 0.37199,0.141175 0.37201,0.140723 0.372,0.140276 0.372,0.139834 0.37199,0.139399 0.37201,0.138968 0.372,0.138543 0.372,0.138124 0.372,0.137708 0.372,0.137299 0.372,0.136894 0.372,0.136493 0.37199,0.136097 0.37201,0.135707 0.372,0.135319 0.372,0.134938 0.372,0.134559 0.372,0.134186 0.372,0.133815 0.372,0.13345 0.37199,0.133089 0.37201,0.13273 0.37199,0.132377 0.37201,0.132026 0.372,0.13168 0.372,0.131336 0.372,0.130998 0.372,0.130661" /></g></g><g
       id="g46"><g
         clip-path="url(#clipPath50)"
         id="g48"><path
           id="path54"
           style="fill:none;stroke:#ff0000;stroke-width:1;stroke-linecap:square;stroke-linejoin:round;stroke-miterlimit:10;stroke-dasharray:none;stroke-opacity:1"
           d="m 120.02379,48.533056 0.372,0.351353 0.372,0.348999 0.372,0.346709 0.372,0.344476 0.372,0.342301 0.372,0.340179 0.372,0.338109 0.372,0.336089 0.372,0.334115 0.372,0.332188 0.372,0.330304 0.372,0.328461 0.372,0.326661 0.372,0.324898 0.372,0.323172 0.372,0.321484 0.372,0.31983 0.372,0.318208 0.372,0.31662 0.372,0.315063 0.372,0.313536 0.372,0.312039 0.372,0.310568 0.372,0.309127 0.372,0.30771 0.372,0.306321 0.372,0.304954 0.372,0.303614 0.372,0.302295 0.372,0.301 0.372,0.299726 0.372,0.298474 0.372,0.297242 0.372,0.29603 0.372,0.294839 0.372,0.293665 0.372,0.292511 0.372,0.291374 0.372,0.290254 0.372,0.289153 0.372,0.288067 0.372,0.286997 0.372,0.285943 0.372,0.284905 0.372,0.283882 0.372,0.282872 0.372,0.281877 0.372,0.280897 0.372,0.279929 0.372,0.278974 0.372,0.278034 0.372,0.277104 0.372,0.276188 0.372,0.275283 0.372,0.27439 0.372,0.27351 0.372,0.272639 0.372,0.271779 0.372,0.270932 0.372,0.270093 0.372,0.269266 0.372,0.268448 0.372,0.267641 0.372,0.266842 0.372,0.266054 0.372,0.265274 0.372,0.264504 0.372,0.263742 0.372,0.26299 0.372,0.262245 0.372,0.261509 0.372,0.260782 0.372,0.260061 0.372,0.25935 0.372,0.258646 0.372,0.257949 0.372,0.257261 0.372,0.256578 0.372,0.255904 0.372,0.255236 0.372,0.254575 0.372,0.253922 0.372,0.253275 0.372,0.252633 0.372,0.252 0.372,0.251372 0.372,0.25075 0.372,0.250134 0.372,0.249525 0.372,0.248921 0.372,0.248323 0.372,0.247732 0.372,0.247144 0.372,0.246564 0.372,0.245987 0.372,0.245418 0.372,0.244852 0.372,0.244293 0.372,0.243738 0.372,0.243188 0.372,0.242643 0.372,0.242103 0.372,0.241568 0.372,0.241038 0.372,0.240511 0.372,0.239991 0.372,0.239473 0.372,0.238961 0.372,0.238453 0.372,0.237949" /></g></g><g
       id="g56"><g
         clip-path="url(#clipPath60)"
         id="g58"><path
           id="path64"
           style="fill:none;stroke:#ff0000;stroke-width:1;stroke-linecap:square;stroke-linejoin:round;stroke-miterlimit:10;stroke-dasharray:none;stroke-opacity:1"
           d="m 161.27878,79.592165 0.372,0.609345 0.372,0.606127 0.372,0.602975 0.372,0.599888 0.372,0.596863 0.372,0.593898 0.372,0.590992 0.372,0.588141 0.372,0.585344 0.372,0.5826 0.372,0.579907 0.372,0.577263 0.372,0.574666 0.372,0.572116 0.372,0.56961 0.372,0.567147 0.372,0.564728 0.372,0.562347 0.372,0.560007 0.372,0.557706 0.372,0.555442 0.372,0.553214 0.372,0.551021 0.372,0.548863 0.372,0.546739 0.372,0.544646 0.372,0.542585 0.372,0.540556 0.372,0.538556 0.372,0.536586 0.372,0.534644 0.372,0.532729 0.372,0.530843 0.372,0.528982 0.372,0.527147 0.372,0.525338 0.372,0.523554 0.372,0.52179 0.372,0.52006 0.372,0.51834 0.372,0.51664 0.372,0.51498 0.372,0.51333 0.372,0.5117 0.372,0.51009 0.372,0.50851 0.372,0.50694 0.372,0.50539 0.372,0.50386 0.372,0.50234 0.372,0.50086 0.372,0.49938 0.372,0.49791 0.372,0.49648 0.372,0.49505 0.372,0.49364 0.372,0.49225 0.372,0.49088 0.372,0.48951 0.372,0.48816 0.372,0.48683 0.372,0.48551 0.372,0.48421 0.372,0.48291 0.372,0.48164 0.372,0.48038 0.372,0.47913 0.372,0.47789 0.372,0.47666 0.372,0.47546 0.372,0.47425 0.372,0.47307 0.372,0.47189 0.372,0.47073 0.372,0.46957 0.372,0.46844 0.372,0.4673 0.372,0.46618 0.372,0.46507 0.372,0.46398 0.372,0.46288 0.372,0.46181 0.372,0.46074 0.372,0.45968 0.372,0.45863" /></g></g><g
       id="g66"><g
         clip-path="url(#clipPath70)"
         id="g68"><path
           id="path74"
           style="fill:none;stroke:#ff0000;stroke-width:1;stroke-linecap:square;stroke-linejoin:round;stroke-miterlimit:10;stroke-dasharray:none;stroke-opacity:1"
           d="m 193.07406,124.01396 0.372,0.83257 0.372,0.8292 0.372,0.82586 0.372,0.82259 0.372,0.81936 0.372,0.81619 0.372,0.81306 0.372,0.80999 0.372,0.80695 0.372,0.80396 0.372,0.80102 0.372,0.79811 0.372,0.79526 0.372,0.79244 0.372,0.78965 0.372,0.78692 0.372,0.78421 0.372,0.78155 0.372,0.77891 0.372,0.77632 0.372,0.77376 0.372,0.77123 0.372,0.76874 0.372,0.76627 0.372,0.76384 0.372,0.76143 0.372,0.75907 0.372,0.75672 0.372,0.75441 0.372,0.75213 0.372,0.74986 0.372,0.74764 0.372,0.74543 0.372,0.74325 0.372,0.7411 0.372,0.73897 0.372,0.73686 0.372,0.73478 0.372,0.73272 0.372,0.73069 0.372,0.72868 0.372,0.72669 0.372,0.72471 0.372,0.72277 0.372,0.72085 0.372,0.71893 0.372,0.71705 0.372,0.71518 0.372,0.71334 0.372,0.7115 0.372,0.7097 0.372,0.7079 0.372,0.70613 0.372,0.70438 0.372,0.70263 0.372,0.70091" /></g></g><g
       id="g76"><g
         clip-path="url(#clipPath80)"
         id="g78"><path
           id="path84"
           style="fill:none;stroke:#ff0000;stroke-width:1;stroke-linecap:square;stroke-linejoin:round;stroke-miterlimit:10;stroke-dasharray:none;stroke-opacity:1"
           d="m 214.01232,166.73823 0.372,1.06851 0.372,1.06459 0.372,1.06072 0.372,1.05691 0.372,1.05316 0.372,1.04945 0.372,1.0458 0.372,1.0422 0.372,1.03864 0.372,1.03514 0.372,1.03169 0.372,1.02827 0.372,1.02491 0.372,1.02157 0.372,1.0183 0.372,1.01506 0.372,1.01187 0.372,1.0087 0.372,1.00559 0.372,1.0025 0.372,0.99946 0.372,0.99645 0.372,0.99348 0.372,0.99055 0.372,0.98764 0.372,0.98478 0.372,0.98194 0.372,0.97913 0.372,0.97637 0.372,0.97363 0.372,0.97092 0.372,0.96823 0.372,0.96559 0.372,0.96297 0.372,0.96037 0.372,0.95781 0.372,0.95527 0.372,0.95276 0.372,0.95028 0.372,0.94781 0.372,0.94538 0.372,0.94297 0.372,0.94059 0.372,0.93822 0.372,0.93589 0.372,0.93357 0.372,0.93128 0.372,0.92902 0.372,0.92676 0.372,0.92454 0.372,0.92233 0.372,0.92015 0.372,0.91799 0.372,0.91584 0.372,0.91373 0.372,0.91161 0.372,0.90954 0.372,0.90746 0.372,0.90542 0.372,0.9034 0.372,0.90138 0.372,0.89939 0.372,0.89741 0.372,0.89546 0.372,0.89352 0.372,0.89159 0.372,0.88968 0.372,0.88779 0.372,0.88592" /></g></g><g
       id="g86"><g
         clip-path="url(#clipPath90)"
         id="g88"><path
           id="path94"
           style="fill:none;stroke:#ff0000;stroke-width:1;stroke-linecap:square;stroke-linejoin:round;stroke-miterlimit:10;stroke-dasharray:none;stroke-opacity:1"
           d="m 240.04922,251.04986 0.372,0.83485 0.372,0.83333 0.372,0.83182 0.372,0.83033 0.372,0.82884 0.372,0.82737 0.372,0.8259 0.372,0.82445 0.372,0.823 0.372,0.82157 0.372,0.82014 0.372,0.81873 0.372,0.81732 0.372,0.81593 0.372,0.81455 0.372,0.81316 0.372,0.8118 0.372,0.81044 0.372,0.80909 0.372,0.80775 0.372,0.80642 0.372,0.8051 0.372,0.80378 0.372,0.80248 0.372,0.80118 0.372,0.7999 0.372,0.79861 0.372,0.79734 0.372,0.79608 0.372,0.79481 0.372,0.79358 0.372,0.79233 0.372,0.7911 0.372,0.78987 0.372,0.78865 0.372,0.78745 0.372,0.78624 0.372,0.78505 0.372,0.78386 0.372,0.78268 0.372,0.7815 0.372,0.78034 0.372,0.77918 0.372,0.77802 0.372,0.77688 0.372,0.77574 0.372,0.77461 0.372,0.77348 0.372,0.77236 0.372,0.77124 0.372,0.77014 0.372,0.76904 0.372,0.76795 0.372,0.76685 0.372,0.76578 0.372,0.7647 0.372,0.76362 0.372,0.76257 0.372,0.76151 0.372,0.76045 0.372,0.75941 0.372,0.75837 0.372,0.75733 0.372,0.7563 0.372,0.75528 0.372,0.75426 0.372,0.75325 0.372,0.75224 0.372,0.75124 0.372,0.75024 0.372,0.74926 0.372,0.74826 0.372,0.74728 0.372,0.74631 0.372,0.74534 0.372,0.74437 0.372,0.74341 0.372,0.74246 0.372,0.7415 0.372,0.74056 0.372,0.73961 0.372,0.73868 0.372,0.73775 0.372,0.73682 0.372,0.7359 0.372,0.73498 0.372,0.73407 0.372,0.73316 0.372,0.73225" /></g></g><g
       id="g96"><g
         clip-path="url(#clipPath100)"
         id="g98"><path
           id="path104"
           style="fill:none;stroke:#ff0000;stroke-width:1;stroke-linecap:square;stroke-linejoin:round;stroke-miterlimit:10;stroke-dasharray:none;stroke-opacity:1"
           d="m 273.45195,344.71043 0.372,-0.0451 0.372,-0.0451 0.372,-0.0452 0.372,-0.0452 0.372,-0.0452 0.372,-0.0452 0.372,-0.0452 0.372,-0.0452 0.372,-0.0452 0.372,-0.0452 0.372,-0.0452 0.372,-0.0452 0.372,-0.0452 0.372,-0.0452 0.372,-0.0452 0.372,-0.0452 0.372,-0.0452 0.372,-0.0452 0.372,-0.0452 0.372,-0.0452 0.372,-0.0452 0.372,-0.0452 0.372,-0.0452 0.372,-0.0452 0.372,-0.0452 0.372,-0.0452 0.372,-0.0452 0.372,-0.0452 0.372,-0.0452 0.372,-0.0452 0.372,-0.0452 0.372,-0.0452 0.372,-0.0453 0.372,-0.0453 0.372,-0.0453 0.372,-0.0453 0.372,-0.0453 0.372,-0.0453 0.372,-0.0453 0.372,-0.0453 0.372,-0.0453 0.372,-0.0453 0.372,-0.0453 0.372,-0.0453 0.372,-0.0453 0.372,-0.0453 0.372,-0.0453 0.372,-0.0453 0.372,-0.0453 0.372,-0.0453 0.372,-0.0453 0.372,-0.0453 0.372,-0.0453 0.372,-0.0453 0.372,-0.0453" /></g></g><g
       id="g106"><g
         clip-path="url(#clipPath110)"
         id="g108"><path
           id="path114"
           style="fill:none;stroke:#ff0000;stroke-width:1;stroke-linecap:square;stroke-linejoin:round;stroke-miterlimit:10;stroke-dasharray:none;stroke-opacity:1"
           d="m 294.01999,342.20943 0.372,-0.0453 0.372,-0.0453 0.372,-0.0453 0.372,-0.0453 0.372,-0.0453 0.372,-0.0453 0.372,-0.0453 0.372,-0.0453 0.372,-0.0453 0.372,-0.0454 0.372,-0.0453 0.372,-0.0454 0.372,-0.0454 0.372,-0.0454 0.372,-0.0454 0.372,-0.0454 0.372,-0.0454 0.372,-0.0454 0.372,-0.0454 0.372,-0.0454 0.372,-0.0454 0.372,-0.0454 0.372,-0.0454 0.372,-0.0454 0.372,-0.0454 0.372,-0.0454 0.372,-0.0454 0.372,-0.0454 0.372,-0.0454 0.372,-0.0454 0.372,-0.0454 0.372,-0.0454 0.372,-0.0454 0.372,-0.0454 0.372,-0.0454 0.372,-0.0454 0.372,-0.0454 0.372,-0.0454 0.372,-0.0455 0.372,-0.0454 0.372,-0.0455 0.372,-0.0455 0.372,-0.0455 0.372,-0.0455 0.372,-0.0455 0.372,-0.0455 0.372,-0.0455 0.372,-0.0455 0.372,-0.0455 0.372,-0.0455 0.372,-0.0455 0.372,-0.0455 0.372,-0.0455 0.372,-0.0455 0.372,-0.0455 0.372,-0.0455 0.372,-0.0455 0.372,-0.0455 0.372,-0.0455 0.372,-0.0455 0.372,-0.0455 0.372,-0.0455 0.372,-0.0455 0.372,-0.0455" /></g></g><g
       id="g116"><g
         clip-path="url(#clipPath120)"
         id="g118"><path
           id="path124"
           style="fill:none;stroke:#ff0000;stroke-width:1;stroke-linecap:square;stroke-linejoin:round;stroke-miterlimit:10;stroke-dasharray:none;stroke-opacity:1"
           d="m 318.06159,297.50333 0.372,-1.34984 0.372,-1.35317 0.372,-1.35655 0.372,-1.35996 0.372,-1.3634 0.372,-1.36688 0.372,-1.37039 0.372,-1.37394 0.372,-1.37753 0.372,-1.38116 0.372,-1.38482 0.372,-1.38852 0.372,-1.39227 0.372,-1.39605 0.372,-1.39987 0.372,-1.40374 0.372,-1.40766 0.372,-1.4116 0.372,-1.41561 0.372,-1.41965 0.372,-1.42374 0.372,-1.42788 0.372,-1.43207 0.372,-1.4363 0.372,-1.4406 0.372,-1.44493 0.372,-1.44933 0.372,-1.45377 0.372,-1.45827 0.372,-1.46283 0.372,-1.46744 0.372,-1.47212 0.372,-1.47685 0.372,-1.48165 0.372,-1.48651 0.372,-1.49143 0.372,-1.49641 0.372,-1.50148 0.372,-1.50659 0.372,-1.5118 0.372,-1.51706 0.372,-1.5224 0.372,-1.52782 0.372,-1.53332 0.372,-1.53889 0.372,-1.54456 0.372,-1.55029 0.372,-1.55612 0.372,-1.56204 0.372,-1.56805 0.372,-1.57415 0.372,-1.58035 0.372,-1.58665 0.372,-1.59304 0.372,-1.59955 0.372,-1.60616 0.372,-1.61288 0.372,-1.61971 0.372,-1.62667 0.372,-1.63373 0.372,-1.64094 0.372,-1.64827 0.372,-1.65572 0.372,-1.66332 0.372,-1.67105 0.372,-1.67894 0.372,-1.68697 0.372,-1.69517 0.372,-1.70351 0.372,-1.71203 0.372,-1.72073 0.372,-1.7296 0.372,-1.73865 0.372,-1.7479 0.372,-1.75735 0.372,-1.76701" /></g></g><g
       id="g126"><g
         clip-path="url(#clipPath130)"
         id="g128"><path
           id="path134"
           style="fill:none;stroke:#ff0000;stroke-width:1;stroke-linecap:square;stroke-linejoin:round;stroke-miterlimit:10;stroke-dasharray:none;stroke-opacity:1"
           d="m 346.56788,157.84631 0.372,-1.45172 0.372,-1.45965 0.372,-1.46777 0.372,-1.47605 0.372,-1.48454 0.372,-1.49322 0.372,-1.50211 0.372,-1.5112 0.372,-1.52054 0.372,-1.5301 0.372,-1.53991 0.372,-1.54997 0.372,-1.56031 0.372,-1.57092 0.372,-1.58183 0.372,-1.59304 0.372,-1.60459 0.372,-1.61648 0.372,-1.62872 0.372,-1.64134 0.372,-1.65438 0.372,-1.66782 0.372,-1.68172 0.372,-1.69609 0.372,-1.71097 0.372,-1.72638 0.372,-1.74237 0.372,-1.75897 0.372,-1.7762 0.372,-1.79415 0.372,-1.81284 0.372,-1.83233 0.372,-1.85269 0.372,-1.87399 0.372,-1.89629 0.372,-1.919708 0.372,-1.94432 0.372,-1.970246 0.372,-1.997612 0.372,-2.026566 0.372,-2.057274 0.372,-2.089935 0.372,-2.124772" /></g></g><g
       id="g136"><g
         clip-path="url(#clipPath140)"
         id="g138"><path
           id="path144"
           style="fill:none;stroke:#ff0000;stroke-width:1;stroke-linecap:square;stroke-linejoin:round;stroke-miterlimit:10;stroke-dasharray:none;stroke-opacity:1"
           d="m 362.91319,82.425621 0.372,-0.725658 0.372,-0.730158 0.372,-0.734771 0.372,-0.739504 0.372,-0.744361 0.372,-0.749348 0.372,-0.754471 0.372,-0.759738 0.372,-0.765154 0.372,-0.77073 0.372,-0.77647 0.372,-0.782385 0.372,-0.788486 0.372,-0.794781 0.372,-0.801282 0.372,-0.808 0.372,-0.814952 0.372,-0.822146 0.372,-0.829604 0.372,-0.837339 0.372,-0.84537 0.372,-0.85372 0.372,-0.862409 0.372,-0.871462 0.372,-0.88091 0.372,-0.890779 0.372,-0.901107 0.372,-0.911932 0.372,-0.923295 0.372,-0.935248 0.372,-0.947844 0.372,-0.961148 0.372,-0.975232 0.372,-0.99018 0.372,-1.006087 0.372,-1.023071 0.372,-1.041262 0.372,-1.060821 0.372,-1.081937 0.372,-1.104844 0.372,-1.129821 0.372,-1.157225 0.372,-1.187499 0.372,-1.221213 0.372,-1.259117 0.372,-1.302219 0.372,-1.351909 0.372,-1.410185" /></g></g><g
       id="g146"><g
         clip-path="url(#clipPath150)"
         id="g148"><path
           id="path154"
           style="fill:none;stroke:#ff0000;stroke-width:1;stroke-linecap:square;stroke-linejoin:round;stroke-miterlimit:10;stroke-dasharray:none;stroke-opacity:1"
           d="m 380.94639,37.112987 23.808,-2.47941 19.716,-2.270451 15.624,-2.012624 12.276,-1.794434 9.3,-1.574535 6.696,-1.351801 4.464,-1.123879 2.232,-0.734791 1.116,-0.507236 0.372,-0.251829 0,0" /></g></g><g
       id="g156"><g
         clip-path="url(#clipPath160)"
         id="g158"><path
           id="path164"
           style="fill:none;stroke:#ff0000;stroke-width:1;stroke-linecap:square;stroke-linejoin:round;stroke-miterlimit:10;stroke-dasharray:none;stroke-opacity:1"
           d="m 476.69375,22.825 0,0" /></g></g><g
       id="g166"><g
         clip-path="url(#clipPath170)"
         id="g168"><path
           id="path174"
           style="fill:none;stroke:#008000;stroke-width:1;stroke-linecap:square;stroke-linejoin:round;stroke-miterlimit:10;stroke-dasharray:none;stroke-opacity:1"
           d="m 30.29375,27.144998 17.856,1.434259 23.436,1.647008 21.576,1.367196 0,0" /></g></g><g
       id="g176"><g
         clip-path="url(#clipPath180)"
         id="g178"><path
           id="path184"
           style="fill:none;stroke:#008000;stroke-width:1;stroke-linecap:square;stroke-linejoin:round;stroke-miterlimit:10;stroke-dasharray:none;stroke-opacity:1"
           d="m 93.320005,38.02247 0.372,0.111745 0.372,0.111339 0.372,0.110938 0.372,0.110543 0.372,0.110155 0.372,0.10977 0.372,0.109392 0.372,0.109018 0.372,0.108651 0.372,0.108286 0.372,0.107929 0.372,0.107574 0.372,0.107225 0.372,0.106881 0.372,0.10654 0.372,0.106204 0.372,0.105872 0.372005,0.105544 0.37199,0.10522 0.37201,0.104901 0.37199,0.104585 0.37201,0.104272 0.37199,0.103964 0.37201,0.103659 0.37199,0.103358 0.37201,0.10306 0.372,0.102765 0.372,0.102475 0.37199,0.102186 0.37201,0.101902 0.37199,0.10162 0.37201,0.101342 0.372,0.101067 0.372,0.100794 0.372,0.100524 0.372,0.100258 0.372,0.09999 0.372,0.09973 0.37199,0.09947 0.37201,0.09922 0.37199,0.09897 0.37201,0.09871 0.372,0.09847 0.37199,0.09822 0.37201,0.09798 0.372,0.09774 0.372,0.0975 0.37199,0.09726 0.37201,0.09703 0.372,0.0968 0.372,0.09657 0.372,0.09634 0.372,0.09612 0.372,0.09589 0.372,0.09567 0.37199,0.09545 0.37201,0.09524 0.372,0.09502 0.372,0.09481 0.372,0.0946 0.372,0.09439 0.372,0.09418 0.372,0.09398 0.37199,0.09377 0.37201,0.09357 0.37199,0.09337 0.37201,0.09317 0.372,0.09297 0.372,0.09278 0.372,0.09258 0.372,0.09239" /></g></g><g
       id="g186"><g
         clip-path="url(#clipPath190)"
         id="g188"><path
           id="path194"
           style="fill:none;stroke:#008000;stroke-width:1;stroke-linecap:square;stroke-linejoin:round;stroke-miterlimit:10;stroke-dasharray:none;stroke-opacity:1"
           d="m 120.02379,48.533056 0.372,0.186587 0.372,0.185917 0.372,0.185257 0.372,0.184606 0.372,0.183963 0.372,0.183331 0.372,0.182706 0.372,0.18209 0.372,0.181482 0.372,0.180883 0.372,0.18029 0.372,0.179706 0.372,0.179129 0.372,0.17856 0.372,0.177997 0.372,0.177443 0.372,0.176894 0.372,0.176352 0.372,0.175817 0.372,0.175288 0.372,0.174766 0.372,0.17425 0.372,0.173739 0.372,0.173236 0.372,0.172736 0.372,0.172245 0.372,0.171757 0.372,0.171275 0.372,0.170799 0.372,0.170328 0.372,0.169861 0.372,0.169401 0.372,0.168946 0.372,0.168494 0.372,0.168047 0.372,0.167606 0.372,0.16717 0.372,0.166736 0.372,0.166309 0.372,0.165885 0.372,0.165466 0.372,0.16505 0.372,0.16464 0.372,0.164233 0.372,0.163829 0.372,0.163431 0.372,0.163035 0.372,0.162644 0.372,0.162256 0.372,0.161873 0.372,0.161492 0.372,0.161115 0.372,0.160742 0.372,0.160372 0.372,0.160005 0.372,0.159642 0.372,0.159282 0.372,0.158926 0.372,0.158572 0.372,0.158222 0.372,0.157874 0.372,0.15753 0.372,0.157189 0.372,0.156851 0.372,0.156515 0.372,0.156182 0.372,0.155852 0.372,0.155526 0.372,0.155201 0.372,0.15488 0.372,0.15456 0.372,0.154245 0.372,0.15393 0.372,0.153619 0.372,0.153311 0.372,0.153004 0.372,0.1527 0.372,0.152399 0.372,0.1521 0.372,0.151803 0.372,0.151509 0.372,0.151216 0.372,0.150927 0.372,0.150639 0.372,0.150353 0.372,0.15007 0.372,0.149788 0.372,0.14951 0.372,0.149232 0.372,0.148958 0.372,0.148684 0.372,0.148413 0.372,0.148144 0.372,0.147877 0.372,0.147612 0.372,0.147349 0.372,0.147087 0.372,0.146827 0.372,0.14657 0.372,0.146313 0.372,0.14606 0.372,0.145807 0.372,0.145556 0.372,0.145307 0.372,0.14506 0.372,0.144814 0.372,0.144571 0.372,0.144328 0.372,0.144087 0.372,0.143848" /></g></g><g
       id="g196"><g
         clip-path="url(#clipPath200)"
         id="g198"><path
           id="path204"
           style="fill:none;stroke:#008000;stroke-width:1;stroke-linecap:square;stroke-linejoin:round;stroke-miterlimit:10;stroke-dasharray:none;stroke-opacity:1"
           d="m 161.27878,79.592165 0.372,0.395211 0.372,0.393849 0.372,0.392507 0.372,0.391182 0.372,0.389875 0.372,0.388584 0.372,0.387312 0.372,0.386056 0.372,0.384815 0.372,0.383591 0.372,0.382382 0.372,0.381188 0.372,0.380008 0.372,0.378844 0.372,0.377694 0.372,0.376557 0.372,0.375433 0.372,0.374324 0.372,0.373227 0.372,0.372143 0.372,0.371071 0.372,0.370012 0.372,0.368964 0.372,0.367929 0.372,0.366905 0.372,0.365892 0.372,0.36489 0.372,0.363899 0.372,0.36292 0.372,0.361949 0.372,0.36099 0.372,0.360041 0.372,0.359102 0.372,0.358172 0.372,0.357251 0.372,0.356341 0.372,0.35544 0.372,0.354547 0.372,0.353664 0.372,0.352788 0.372,0.351923 0.372,0.351064 0.372,0.350216 0.372,0.349374 0.372,0.34854 0.372,0.347716 0.372,0.346897 0.372,0.346088 0.372,0.345285 0.372,0.34449 0.372,0.343702 0.372,0.342922 0.372,0.342148 0.372,0.341381 0.372,0.340621 0.372,0.339869 0.372,0.33912 0.372,0.33838 0.372,0.33765 0.372,0.33692 0.372,0.3362 0.372,0.33549 0.372,0.33477 0.372,0.33408 0.372,0.33337 0.372,0.33269 0.372,0.332 0.372,0.33132 0.372,0.33064 0.372,0.32998 0.372,0.32931 0.372,0.32865 0.372,0.32801 0.372,0.32735 0.372,0.32671 0.372,0.32607 0.372,0.32544 0.372,0.32481 0.372,0.32419 0.372,0.32357 0.372,0.32296 0.372,0.32235 0.372,0.32174 0.372,0.32115 0.372,0.32054" /></g></g><g
       id="g206"><g
         clip-path="url(#clipPath210)"
         id="g208"><path
           id="path214"
           style="fill:none;stroke:#008000;stroke-width:1;stroke-linecap:square;stroke-linejoin:round;stroke-miterlimit:10;stroke-dasharray:none;stroke-opacity:1"
           d="m 193.07406,124.01396 0.372,0.65682 0.372,0.65471 0.372,0.65262 0.372,0.65057 0.372,0.64853 0.372,0.64653 0.372,0.64455 0.372,0.64258 0.372,0.64065 0.372,0.63874 0.372,0.63686 0.372,0.63498 0.372,0.63314 0.372,0.63131 0.372,0.62951 0.372,0.62773 0.372,0.62597 0.372,0.62422 0.372,0.6225 0.372,0.6208 0.372,0.6191 0.372,0.61744 0.372,0.61579 0.372,0.61416 0.372,0.61254 0.372,0.61094 0.372,0.60936 0.372,0.60779 0.372,0.60625 0.372,0.60471 0.372,0.60319 0.372,0.60168 0.372,0.6002 0.372,0.59872 0.372,0.59727 0.372,0.59581 0.372,0.59439 0.372,0.59297 0.372,0.59156 0.372,0.59017 0.372,0.58879 0.372,0.58743 0.372,0.58607 0.372,0.58474 0.372,0.5834 0.372,0.58209 0.372,0.58078 0.372,0.57949 0.372,0.57821 0.372,0.57694 0.372,0.57567 0.372,0.57443 0.372,0.5732 0.372,0.57196 0.372,0.57075 0.372,0.56954" /></g></g><g
       id="g216"><g
         clip-path="url(#clipPath220)"
         id="g218"><path
           id="path224"
           style="fill:none;stroke:#008000;stroke-width:1;stroke-linecap:square;stroke-linejoin:round;stroke-miterlimit:10;stroke-dasharray:none;stroke-opacity:1"
           d="m 214.01232,166.73823 0.372,0.85891 0.372,0.85636 0.372,0.85386 0.372,0.85138 0.372,0.84892 0.372,0.8465 0.372,0.84411 0.372,0.84173 0.372,0.83939 0.372,0.83707 0.372,0.83477 0.372,0.83251 0.372,0.83027 0.372,0.82804 0.372,0.82585 0.372,0.82368 0.372,0.82153 0.372,0.8194 0.372,0.8173 0.372,0.81521 0.372,0.81314 0.372,0.81111 0.372,0.80908 0.372,0.80708 0.372,0.8051 0.372,0.80313 0.372,0.80119 0.372,0.79927 0.372,0.79735 0.372,0.79547 0.372,0.7936 0.372,0.79174 0.372,0.78991 0.372,0.78809 0.372,0.78628 0.372,0.7845 0.372,0.78273 0.372,0.78097 0.372,0.77923 0.372,0.77751 0.372,0.77581 0.372,0.7741 0.372,0.77243 0.372,0.77077 0.372,0.76911 0.372,0.76748 0.372,0.76586 0.372,0.76425 0.372,0.76265 0.372,0.76107 0.372,0.7595 0.372,0.75795 0.372,0.7564 0.372,0.75488 0.372,0.75335 0.372,0.75185 0.372,0.75035 0.372,0.74887 0.372,0.7474 0.372,0.74594 0.372,0.74449 0.372,0.74305 0.372,0.74163 0.372,0.74022 0.372,0.73881 0.372,0.73741 0.372,0.73603 0.372,0.73466 0.372,0.7333" /></g></g><g
       id="g226"><g
         clip-path="url(#clipPath230)"
         id="g228"><path
           id="path234"
           style="fill:none;stroke:#008000;stroke-width:1;stroke-linecap:square;stroke-linejoin:round;stroke-miterlimit:10;stroke-dasharray:none;stroke-opacity:1"
           d="m 240.04922,234.27177 0.372,1.04027 0.372,1.03773 0.372,1.03522 0.372,1.03273 0.372,1.03025 0.372,1.02782 0.372,1.02539 0.372,1.023 0.372,1.02061 0.372,1.01827 0.372,1.01593 0.372,1.01362 0.372,1.01133 0.372,1.00906 0.372,1.00681 0.372,1.00457 0.372,1.00237 0.372,1.00018 0.372,0.99801 0.372,0.99585 0.372,0.99372 0.372,0.9916 0.372,0.98951 0.372,0.98742 0.372,0.98536 0.372,0.98331 0.372,0.98129 0.372,0.97927 0.372,0.97727 0.372,0.9753 0.372,0.97333 0.372,0.97138 0.372,0.96944 0.372,0.96754 0.372,0.96562 0.372,0.96374 0.372,0.96187 0.372,0.96001 0.372,0.95816 0.372,0.95634 0.372,0.95451 0.372,0.95272 0.372,0.95093 0.372,0.94915 0.372,0.94738 0.372,0.94564 0.372,0.9439 0.372,0.94218 0.372,0.94047 0.372,0.93876 0.372,0.93708 0.372,0.93541 0.372,0.93374 0.372,0.93209 0.372,0.93046 0.372,0.92882 0.372,0.92721 0.372,0.9256 0.372,0.92401 0.372,0.92242 0.372,0.92085 0.372,0.91929 0.372,0.91774 0.372,0.9162 0.372,0.91466 0.372,0.91314 0.372,0.91164 0.372,0.91013 0.372,0.90865 0.372,0.90716 0.372,0.90569 0.372,0.90423 0.372,0.90277 0.372,0.90134 0.372,0.8999 0.372,0.89847 0.372,0.89706 0.372,0.89565 0.372,0.89425 0.372,0.89287 0.372,0.89148 0.372,0.89011 0.372,0.88874 0.372,0.88739 0.372,0.88604 0.372,0.88471 0.372,0.88337 0.372,0.88205 0.372,0.88073" /></g></g><g
       id="g236"><g
         clip-path="url(#clipPath240)"
         id="g238"><path
           id="path244"
           style="fill:none;stroke:#008000;stroke-width:1;stroke-linecap:square;stroke-linejoin:round;stroke-miterlimit:10;stroke-dasharray:none;stroke-opacity:1"
           d="m 273.45195,320.97212 0.372,0.39074 0.372,0.39048 0.372,0.39023 0.372,0.38997 0.372,0.38972 0.372,0.38947 0.372,0.38921 0.372,0.38896 0.372,0.38872 0.372,0.38846 0.372,0.38821 0.372,0.38796 0.372,0.38772 0.372,0.38746 0.372,0.38722 0.372,0.38698 0.372,0.38672 0.372,0.38649 0.372,0.38623 0.372,0.386 0.372,0.38575 0.372,0.3855 0.372,0.38527 0.372,0.38502 0.372,0.38479 0.372,0.38454 0.372,0.3843 0.372,0.38407 0.372,0.38382 0.372,0.38359 0.372,0.38335 0.372,0.38311 0.372,0.38288 0.372,0.38264 0.372,0.3824 0.372,0.38218 0.372,0.38193 0.372,0.38171 0.372,0.38147 0.372,0.38124 0.372,0.38101 0.372,0.38077 0.372,0.38055 0.372,0.38032 0.372,0.38009 0.372,0.37985 0.372,0.37963 0.372,0.37941 0.372,0.37917 0.372,0.37895 0.372,0.37872 0.372,0.3785 0.372,0.37827 0.372,0.37805 0.372,0.37782" /></g></g><g
       id="g246"><g
         clip-path="url(#clipPath250)"
         id="g248"><path
           id="path254"
           style="fill:none;stroke:#008000;stroke-width:1;stroke-linecap:square;stroke-linejoin:round;stroke-miterlimit:10;stroke-dasharray:none;stroke-opacity:1"
           d="m 294.01999,342.20943 0.372,-0.66729 0.372,-0.66799 0.372,-0.6687 0.372,-0.66939 0.372,-0.67011 0.372,-0.67081 0.372,-0.67154 0.372,-0.67224 0.372,-0.67297 0.372,-0.67369 0.372,-0.67442 0.372,-0.67515 0.372,-0.67588 0.372,-0.67662 0.372,-0.67735 0.372,-0.6781 0.372,-0.67885 0.372,-0.67959 0.372,-0.68035 0.372,-0.6811 0.372,-0.68186 0.372,-0.68262 0.372,-0.68339 0.372,-0.68416 0.372,-0.68493 0.372,-0.68571 0.372,-0.68649 0.372,-0.68727 0.372,-0.68806 0.372,-0.68885 0.372,-0.68964 0.372,-0.69044 0.372,-0.69124 0.372,-0.69205 0.372,-0.69286 0.372,-0.69367 0.372,-0.69448 0.372,-0.69531 0.372,-0.69613 0.372,-0.69696 0.372,-0.6978 0.372,-0.69863 0.372,-0.69947 0.372,-0.70031 0.372,-0.70116 0.372,-0.70202 0.372,-0.70287 0.372,-0.70374 0.372,-0.7046 0.372,-0.70546 0.372,-0.70635 0.372,-0.70722 0.372,-0.7081 0.372,-0.70899 0.372,-0.70988 0.372,-0.71078 0.372,-0.71168 0.372,-0.71259 0.372,-0.71349 0.372,-0.71441 0.372,-0.71532 0.372,-0.71626 0.372,-0.71717 0.372,-0.71812" /></g></g><g
       id="g256"><g
         clip-path="url(#clipPath260)"
         id="g258"><path
           id="path264"
           style="fill:none;stroke:#008000;stroke-width:1;stroke-linecap:square;stroke-linejoin:round;stroke-miterlimit:10;stroke-dasharray:none;stroke-opacity:1"
           d="m 318.06159,282.80768 0.372,-1.41721 0.372,-1.42111 0.372,-1.42504 0.372,-1.42902 0.372,-1.43305 0.372,-1.43713 0.372,-1.44124 0.372,-1.44541 0.372,-1.44962 0.372,-1.45389 0.372,-1.45821 0.372,-1.46257 0.372,-1.46699 0.372,-1.47147 0.372,-1.47599 0.372,-1.48058 0.372,-1.48523 0.372,-1.48992 0.372,-1.49469 0.372,-1.49951 0.372,-1.5044 0.372,-1.50934 0.372,-1.51437 0.372,-1.51944 0.372,-1.5246 0.372,-1.52983 0.372,-1.53512 0.372,-1.54048 0.372,-1.54594 0.372,-1.55145 0.372,-1.55706 0.372,-1.56275 0.372,-1.56851 0.372,-1.57437 0.372,-1.58032 0.372,-1.58634 0.372,-1.59248 0.372,-1.5987 0.372,-1.60501 0.372,-1.61145 0.372,-1.61797 0.372,-1.6246 0.372,-1.63135 0.372,-1.6382 0.372,-1.64518 0.372,-1.65228 0.372,-1.65949 0.372,-1.66684 0.372,-1.67432 0.372,-1.68193 0.372,-1.68969 0.372,-1.69759 0.372,-1.70564 0.372,-1.71384 0.372,-1.72221 0.372,-1.73073 0.372,-1.73944 0.372,-1.74832 0.372,-1.75738 0.372,-1.76664 0.372,-1.77609 0.372,-1.78575 0.372,-1.79563 0.372,-1.80571 0.372,-1.81604 0.372,-1.82661 0.372,-1.83742 0.372,-1.8485 0.372,-1.85985 0.372,-1.87148 0.372,-1.88341 0.372,-1.89565 0.372,-1.90821 0.372,-1.92112 0.372,-1.93437 0.372,-1.94801" /></g></g><g
       id="g266"><g
         clip-path="url(#clipPath270)"
         id="g268"><path
           id="path274"
           style="fill:none;stroke:#008000;stroke-width:1;stroke-linecap:square;stroke-linejoin:round;stroke-miterlimit:10;stroke-dasharray:none;stroke-opacity:1"
           d="m 346.56788,133.36319 0.372,-1.01546 0.372,-1.0202 0.372,-1.02501 0.372,-1.02993 0.372,-1.03493 0.372,-1.04004 0.372,-1.04525 0.372,-1.05056 0.372,-1.05598 0.372,-1.06152 0.372,-1.06718 0.372,-1.07295 0.372,-1.07886 0.372,-1.0849 0.372,-1.09107 0.372,-1.09739 0.372,-1.10385 0.372,-1.11048 0.372,-1.11726 0.372,-1.12421 0.372,-1.13134 0.372,-1.13866 0.372,-1.14616 0.372,-1.15387 0.372,-1.16179 0.372,-1.16993 0.372,-1.1783 0.372,-1.18693 0.372,-1.1958 0.372,-1.20495 0.372,-1.214386 0.372,-1.224126 0.372,-1.234184 0.372,-1.244582 0.372,-1.25534 0.372,-1.266478 0.372,-1.278024 0.372,-1.290002 0.372,-1.302442 0.372,-1.315377 0.372,-1.328841 0.372,-1.342874 0.372,-1.35752" /></g></g><g
       id="g276"><g
         clip-path="url(#clipPath280)"
         id="g278"><path
           id="path284"
           style="fill:none;stroke:#008000;stroke-width:1;stroke-linecap:square;stroke-linejoin:round;stroke-miterlimit:10;stroke-dasharray:none;stroke-opacity:1"
           d="m 362.91319,56.761339 0.372,-0.340062 0.372,-0.341791 0.372,-0.343558 0.372,-0.34536 0.372,-0.347201 0.372,-0.349082 0.372,-0.351005 0.372,-0.35297 0.372,-0.35498 0.372,-0.357037 0.372,-0.359143 0.372,-0.361299 0.372,-0.363507 0.372,-0.365771 0.372,-0.368092 0.372,-0.370474 0.372,-0.372917 0.372,-0.375428 0.372,-0.378006 0.372,-0.380657 0.372,-0.383385 0.372,-0.386192 0.372,-0.389082 0.372,-0.392063 0.372,-0.395135 0.372,-0.398308 0.372,-0.401583 0.372,-0.40497 0.372,-0.408474 0.372,-0.412103 0.372,-0.415863 0.372,-0.419766 0.372,-0.423818 0.372,-0.428032 0.372,-0.432419 0.372,-0.436991 0.372,-0.441763 0.372,-0.446751 0.372,-0.451972 0.372,-0.457445 0.372,-0.463194 0.372,-0.469244 0.372,-0.475621 0.372,-0.482362 0.372,-0.489501 0.372,-0.497082 0.372,-0.505156 0.372,-0.513783" /></g></g><g
       id="g286"><g
         clip-path="url(#clipPath290)"
         id="g288"><path
           id="path294"
           style="fill:none;stroke:#008000;stroke-width:1;stroke-linecap:square;stroke-linejoin:round;stroke-miterlimit:10;stroke-dasharray:none;stroke-opacity:1"
           d="m 380.94639,22.825 95.604,0 0,0" /></g></g><g
       id="g296"><g
         clip-path="url(#clipPath300)"
         id="g298"><path
           id="path304"
           style="fill:none;stroke:#008000;stroke-width:1;stroke-linecap:square;stroke-linejoin:round;stroke-miterlimit:10;stroke-dasharray:none;stroke-opacity:1"
           d="m 476.69375,22.825 0,0" /></g></g><g
       id="g306"><path
         id="path308"
         style="fill:none;stroke:#000000;stroke-width:1;stroke-linecap:square;stroke-linejoin:miter;stroke-miterlimit:10;stroke-dasharray:none;stroke-opacity:1"
         d="m 30.29375,22.825 0,345.6" /><path
         id="path310"
         style="fill:none;stroke:#000000;stroke-width:1;stroke-linecap:square;stroke-linejoin:miter;stroke-miterlimit:10;stroke-dasharray:none;stroke-opacity:1"
         d="m 30.29375,22.825 446.4,0" /><path
         id="path312"
         style="fill:none;stroke:#000000;stroke-width:1;stroke-linecap:square;stroke-linejoin:miter;stroke-miterlimit:10;stroke-dasharray:none;stroke-opacity:1"
         d="m 476.69375,22.825 0,345.6" /><path
         id="path314"
         style="fill:none;stroke:#000000;stroke-width:1;stroke-linecap:square;stroke-linejoin:miter;stroke-miterlimit:10;stroke-dasharray:none;stroke-opacity:1"
         d="m 30.29375,368.425 446.4,0" /><path
         id="path316"
         style="fill:#000000;fill-opacity:1;fill-rule:nonzero;stroke:#000000;stroke-width:0.5;stroke-linecap:butt;stroke-linejoin:round;stroke-miterlimit:10;stroke-dasharray:none;stroke-opacity:1"
         d="m 30.29375,22.825 0,4" /><path
         id="path318"
         style="fill:#000000;fill-opacity:1;fill-rule:nonzero;stroke:#000000;stroke-width:0.5;stroke-linecap:butt;stroke-linejoin:round;stroke-miterlimit:10;stroke-dasharray:none;stroke-opacity:1"
         d="m 30.29375,368.425 0,-4" /><text
         id="text320"
         style="font-variant:normal;font-weight:normal;font-size:12px;font-family:'Bitstream Vera Sans';-inkscape-font-specification:BitstreamVeraSans-Roman;writing-mode:lr-tb;fill:#000000;fill-opacity:1;fill-rule:nonzero;stroke:none"
         transform="matrix(1,0,0,-1,26.473437,9.7)"><tspan
           id="tspan322"
           y="0"
           x="0">0</tspan></text>
<path
         id="path324"
         style="fill:#000000;fill-opacity:1;fill-rule:nonzero;stroke:#000000;stroke-width:0.5;stroke-linecap:butt;stroke-linejoin:round;stroke-miterlimit:10;stroke-dasharray:none;stroke-opacity:1"
         d="m 104.69375,22.825 0,4" /><path
         id="path326"
         style="fill:#000000;fill-opacity:1;fill-rule:nonzero;stroke:#000000;stroke-width:0.5;stroke-linecap:butt;stroke-linejoin:round;stroke-miterlimit:10;stroke-dasharray:none;stroke-opacity:1"
         d="m 104.69375,368.425 0,-4" /><text
         id="text328"
         style="font-variant:normal;font-weight:normal;font-size:12px;font-family:'Bitstream Vera Sans';-inkscape-font-specification:BitstreamVeraSans-Roman;writing-mode:lr-tb;fill:#000000;fill-opacity:1;fill-rule:nonzero;stroke:none"
         transform="matrix(1,0,0,-1,100.87344,9.7)"><tspan
           id="tspan330"
           y="0"
           x="0">1</tspan></text>
<path
         id="path332"
         style="fill:#000000;fill-opacity:1;fill-rule:nonzero;stroke:#000000;stroke-width:0.5;stroke-linecap:butt;stroke-linejoin:round;stroke-miterlimit:10;stroke-dasharray:none;stroke-opacity:1"
         d="m 179.09375,22.825 0,4" /><path
         id="path334"
         style="fill:#000000;fill-opacity:1;fill-rule:nonzero;stroke:#000000;stroke-width:0.5;stroke-linecap:butt;stroke-linejoin:round;stroke-miterlimit:10;stroke-dasharray:none;stroke-opacity:1"
         d="m 179.09375,368.425 0,-4" /><text
         id="text336"
         style="font-variant:normal;font-weight:normal;font-size:12px;font-family:'Bitstream Vera Sans';-inkscape-font-specification:BitstreamVeraSans-Roman;writing-mode:lr-tb;fill:#000000;fill-opacity:1;fill-rule:nonzero;stroke:none"
         transform="matrix(1,0,0,-1,175.27344,9.7)"><tspan
           id="tspan338"
           y="0"
           x="0">2</tspan></text>
<path
         id="path340"
         style="fill:#000000;fill-opacity:1;fill-rule:nonzero;stroke:#000000;stroke-width:0.5;stroke-linecap:butt;stroke-linejoin:round;stroke-miterlimit:10;stroke-dasharray:none;stroke-opacity:1"
         d="m 253.49375,22.825 0,4" /><path
         id="path342"
         style="fill:#000000;fill-opacity:1;fill-rule:nonzero;stroke:#000000;stroke-width:0.5;stroke-linecap:butt;stroke-linejoin:round;stroke-miterlimit:10;stroke-dasharray:none;stroke-opacity:1"
         d="m 253.49375,368.425 0,-4" /><text
         id="text344"
         style="font-variant:normal;font-weight:normal;font-size:12px;font-family:'Bitstream Vera Sans';-inkscape-font-specification:BitstreamVeraSans-Roman;writing-mode:lr-tb;fill:#000000;fill-opacity:1;fill-rule:nonzero;stroke:none"
         transform="matrix(1,0,0,-1,249.67344,9.7)"><tspan
           id="tspan346"
           y="0"
           x="0">3</tspan></text>
<path
         id="path348"
         style="fill:#000000;fill-opacity:1;fill-rule:nonzero;stroke:#000000;stroke-width:0.5;stroke-linecap:butt;stroke-linejoin:round;stroke-miterlimit:10;stroke-dasharray:none;stroke-opacity:1"
         d="m 327.89375,22.825 0,4" /><path
         id="path350"
         style="fill:#000000;fill-opacity:1;fill-rule:nonzero;stroke:#000000;stroke-width:0.5;stroke-linecap:butt;stroke-linejoin:round;stroke-miterlimit:10;stroke-dasharray:none;stroke-opacity:1"
         d="m 327.89375,368.425 0,-4" /><text
         id="text352"
         style="font-variant:normal;font-weight:normal;font-size:12px;font-family:'Bitstream Vera Sans';-inkscape-font-specification:BitstreamVeraSans-Roman;writing-mode:lr-tb;fill:#000000;fill-opacity:1;fill-rule:nonzero;stroke:none"
         transform="matrix(1,0,0,-1,324.07344,9.7)"><tspan
           id="tspan354"
           y="0"
           x="0">4</tspan></text>
<path
         id="path356"
         style="fill:#000000;fill-opacity:1;fill-rule:nonzero;stroke:#000000;stroke-width:0.5;stroke-linecap:butt;stroke-linejoin:round;stroke-miterlimit:10;stroke-dasharray:none;stroke-opacity:1"
         d="m 402.29375,22.825 0,4" /><path
         id="path358"
         style="fill:#000000;fill-opacity:1;fill-rule:nonzero;stroke:#000000;stroke-width:0.5;stroke-linecap:butt;stroke-linejoin:round;stroke-miterlimit:10;stroke-dasharray:none;stroke-opacity:1"
         d="m 402.29375,368.425 0,-4" /><text
         id="text360"
         style="font-variant:normal;font-weight:normal;font-size:12px;font-family:'Bitstream Vera Sans';-inkscape-font-specification:BitstreamVeraSans-Roman;writing-mode:lr-tb;fill:#000000;fill-opacity:1;fill-rule:nonzero;stroke:none"
         transform="matrix(1,0,0,-1,398.47344,9.7)"><tspan
           id="tspan362"
           y="0"
           x="0">5</tspan></text>
<path
         id="path364"
         style="fill:#000000;fill-opacity:1;fill-rule:nonzero;stroke:#000000;stroke-width:0.5;stroke-linecap:butt;stroke-linejoin:round;stroke-miterlimit:10;stroke-dasharray:none;stroke-opacity:1"
         d="m 476.69375,22.825 0,4" /><path
         id="path366"
         style="fill:#000000;fill-opacity:1;fill-rule:nonzero;stroke:#000000;stroke-width:0.5;stroke-linecap:butt;stroke-linejoin:round;stroke-miterlimit:10;stroke-dasharray:none;stroke-opacity:1"
         d="m 476.69375,368.425 0,-4" /><text
         id="text368"
         style="font-variant:normal;font-weight:normal;font-size:12px;font-family:'Bitstream Vera Sans';-inkscape-font-specification:BitstreamVeraSans-Roman;writing-mode:lr-tb;fill:#000000;fill-opacity:1;fill-rule:nonzero;stroke:none"
         transform="matrix(1,0,0,-1,472.87344,9.7)"><tspan
           id="tspan370"
           y="0"
           x="0">6</tspan></text>
<path
         id="path372"
         style="fill:#000000;fill-opacity:1;fill-rule:nonzero;stroke:#000000;stroke-width:0.5;stroke-linecap:butt;stroke-linejoin:round;stroke-miterlimit:10;stroke-dasharray:none;stroke-opacity:1"
         d="m 30.29375,22.825 4,0" /><path
         id="path374"
         style="fill:#000000;fill-opacity:1;fill-rule:nonzero;stroke:#000000;stroke-width:0.5;stroke-linecap:butt;stroke-linejoin:round;stroke-miterlimit:10;stroke-dasharray:none;stroke-opacity:1"
         d="m 476.69375,22.825 -4,0" /><text
         id="text376"
         style="font-variant:normal;font-weight:normal;font-size:12px;font-family:'Bitstream Vera Sans';-inkscape-font-specification:BitstreamVeraSans-Roman;writing-mode:lr-tb;fill:#000000;fill-opacity:1;fill-rule:nonzero;stroke:none"
         transform="matrix(1,0,0,-1,7.2,19.5125)"><tspan
           id="tspan378"
           y="0"
           x="0 7.632 11.448">0.0</tspan></text>
<path
         id="path380"
         style="fill:#000000;fill-opacity:1;fill-rule:nonzero;stroke:#000000;stroke-width:0.5;stroke-linecap:butt;stroke-linejoin:round;stroke-miterlimit:10;stroke-dasharray:none;stroke-opacity:1"
         d="m 30.29375,80.425 4,0" /><path
         id="path382"
         style="fill:#000000;fill-opacity:1;fill-rule:nonzero;stroke:#000000;stroke-width:0.5;stroke-linecap:butt;stroke-linejoin:round;stroke-miterlimit:10;stroke-dasharray:none;stroke-opacity:1"
         d="m 476.69375,80.425 -4,0" /><text
         id="text384"
         style="font-variant:normal;font-weight:normal;font-size:12px;font-family:'Bitstream Vera Sans';-inkscape-font-specification:BitstreamVeraSans-Roman;writing-mode:lr-tb;fill:#000000;fill-opacity:1;fill-rule:nonzero;stroke:none"
         transform="matrix(1,0,0,-1,7.2,77.1125)"><tspan
           id="tspan386"
           y="0"
           x="0 7.632 11.448">0.1</tspan></text>
<path
         id="path388"
         style="fill:#000000;fill-opacity:1;fill-rule:nonzero;stroke:#000000;stroke-width:0.5;stroke-linecap:butt;stroke-linejoin:round;stroke-miterlimit:10;stroke-dasharray:none;stroke-opacity:1"
         d="m 30.29375,138.025 4,0" /><path
         id="path390"
         style="fill:#000000;fill-opacity:1;fill-rule:nonzero;stroke:#000000;stroke-width:0.5;stroke-linecap:butt;stroke-linejoin:round;stroke-miterlimit:10;stroke-dasharray:none;stroke-opacity:1"
         d="m 476.69375,138.025 -4,0" /><text
         id="text392"
         style="font-variant:normal;font-weight:normal;font-size:12px;font-family:'Bitstream Vera Sans';-inkscape-font-specification:BitstreamVeraSans-Roman;writing-mode:lr-tb;fill:#000000;fill-opacity:1;fill-rule:nonzero;stroke:none"
         transform="matrix(1,0,0,-1,7.2,134.7125)"><tspan
           id="tspan394"
           y="0"
           x="0 7.632 11.448">0.2</tspan></text>
<path
         id="path396"
         style="fill:#000000;fill-opacity:1;fill-rule:nonzero;stroke:#000000;stroke-width:0.5;stroke-linecap:butt;stroke-linejoin:round;stroke-miterlimit:10;stroke-dasharray:none;stroke-opacity:1"
         d="m 30.29375,195.625 4,0" /><path
         id="path398"
         style="fill:#000000;fill-opacity:1;fill-rule:nonzero;stroke:#000000;stroke-width:0.5;stroke-linecap:butt;stroke-linejoin:round;stroke-miterlimit:10;stroke-dasharray:none;stroke-opacity:1"
         d="m 476.69375,195.625 -4,0" /><text
         id="text400"
         style="font-variant:normal;font-weight:normal;font-size:12px;font-family:'Bitstream Vera Sans';-inkscape-font-specification:BitstreamVeraSans-Roman;writing-mode:lr-tb;fill:#000000;fill-opacity:1;fill-rule:nonzero;stroke:none"
         transform="matrix(1,0,0,-1,7.2,192.3125)"><tspan
           id="tspan402"
           y="0"
           x="0 7.632 11.448">0.3</tspan></text>
<path
         id="path404"
         style="fill:#000000;fill-opacity:1;fill-rule:nonzero;stroke:#000000;stroke-width:0.5;stroke-linecap:butt;stroke-linejoin:round;stroke-miterlimit:10;stroke-dasharray:none;stroke-opacity:1"
         d="m 30.29375,253.225 4,0" /><path
         id="path406"
         style="fill:#000000;fill-opacity:1;fill-rule:nonzero;stroke:#000000;stroke-width:0.5;stroke-linecap:butt;stroke-linejoin:round;stroke-miterlimit:10;stroke-dasharray:none;stroke-opacity:1"
         d="m 476.69375,253.225 -4,0" /><text
         id="text408"
         style="font-variant:normal;font-weight:normal;font-size:12px;font-family:'Bitstream Vera Sans';-inkscape-font-specification:BitstreamVeraSans-Roman;writing-mode:lr-tb;fill:#000000;fill-opacity:1;fill-rule:nonzero;stroke:none"
         transform="matrix(1,0,0,-1,7.2,249.9125)"><tspan
           id="tspan410"
           y="0"
           x="0 7.632 11.448">0.4</tspan></text>
<path
         id="path412"
         style="fill:#000000;fill-opacity:1;fill-rule:nonzero;stroke:#000000;stroke-width:0.5;stroke-linecap:butt;stroke-linejoin:round;stroke-miterlimit:10;stroke-dasharray:none;stroke-opacity:1"
         d="m 30.29375,310.825 4,0" /><path
         id="path414"
         style="fill:#000000;fill-opacity:1;fill-rule:nonzero;stroke:#000000;stroke-width:0.5;stroke-linecap:butt;stroke-linejoin:round;stroke-miterlimit:10;stroke-dasharray:none;stroke-opacity:1"
         d="m 476.69375,310.825 -4,0" /><text
         id="text416"
         style="font-variant:normal;font-weight:normal;font-size:12px;font-family:'Bitstream Vera Sans';-inkscape-font-specification:BitstreamVeraSans-Roman;writing-mode:lr-tb;fill:#000000;fill-opacity:1;fill-rule:nonzero;stroke:none"
         transform="matrix(1,0,0,-1,7.2,307.5125)"><tspan
           id="tspan418"
           y="0"
           x="0 7.632 11.448">0.5</tspan></text>
<path
         id="path420"
         style="fill:#000000;fill-opacity:1;fill-rule:nonzero;stroke:#000000;stroke-width:0.5;stroke-linecap:butt;stroke-linejoin:round;stroke-miterlimit:10;stroke-dasharray:none;stroke-opacity:1"
         d="m 30.29375,368.425 4,0" /><path
         id="path422"
         style="fill:#000000;fill-opacity:1;fill-rule:nonzero;stroke:#000000;stroke-width:0.5;stroke-linecap:butt;stroke-linejoin:round;stroke-miterlimit:10;stroke-dasharray:none;stroke-opacity:1"
         d="m 476.69375,368.425 -4,0" /><text
         id="text424"
         style="font-variant:normal;font-weight:normal;font-size:12px;font-family:'Bitstream Vera Sans';-inkscape-font-specification:BitstreamVeraSans-Roman;writing-mode:lr-tb;fill:#000000;fill-opacity:1;fill-rule:nonzero;stroke:none"
         transform="matrix(1,0,0,-1,7.2,365.1125)"><tspan
           id="tspan426"
           y="0"
           x="0 7.632 11.448">0.6</tspan></text>
</g></g></svg>