<?xml version="1.0" encoding="UTF-8" standalone="no"?>
<svg
   xmlns:dc="http://purl.org/dc/elements/1.1/"
   xmlns:cc="http://creativecommons.org/ns#"
   xmlns:rdf="http://www.w3.org/1999/02/22-rdf-syntax-ns#"
   xmlns:svg="http://www.w3.org/2000/svg"
   xmlns="http://www.w3.org/2000/svg"
   viewBox="0 0 614.41797 476.79688"
   height="476.79688"
   width="614.41797"
   xml:space="preserve"
   version="1.1"
   id="svg2"><metadata
     id="metadata8"><rdf:RDF><cc:Work
         rdf:about=""><dc:format>image/svg+xml</dc:format><dc:type
           rdf:resource="http://purl.org/dc/dcmitype/StillImage" /></cc:Work></rdf:RDF></metadata><defs
     id="defs6"><clipPath
       id="clipPath20"
       clipPathUnits="userSpaceOnUse"><path
         id="path22"
         d="m 30.29375,22.825 446.4,0 0,345.6 -446.4,0 0,-345.6 z" /></clipPath><clipPath
       id="clipPath30"
       clipPathUnits="userSpaceOnUse"><path
         id="path32"
         d="m 30.29375,22.825 446.4,0 0,345.6 -446.4,0 0,-345.6 z" /></clipPath></defs><g
     transform="matrix(1.25,0,0,-1.25,0,476.79687)"
     id="g10"><path
       id="path12"
       style="fill:#ffffff;fill-opacity:1;fill-rule:nonzero;stroke:none"
       d="m 0,0 491.53437,0 0,381.4375 L 0,381.4375 0,0 Z" /><path
       id="path14"
       style="fill:#ffffff;fill-opacity:1;fill-rule:nonzero;stroke:none"
       d="m 30.29375,22.825 446.4,0 0,345.6 -446.4,0 0,-345.6 z" /><g
       id="g16"><g
         clip-path="url(#clipPath20)"
         id="g18"><path
           id="path24"
           style="fill:none;stroke:#0000ff;stroke-width:1;stroke-linecap:butt;stroke-linejoin:miter;stroke-miterlimit:10;stroke-dasharray:none;stroke-opacity:1"
           d="m 30.296104,22.825 0,28.3824 4.463167,0 0,23.9472 4.463168,0 0,18.792 4.463168,0 0,17.2368 4.463167,0 0,15.408 4.463168,0 0,14.0112 4.463168,0 0,11.7216 4.463167,0 0,10.4544 4.463168,0 0,8.9568 4.463168,0 0,8.2944 4.463167,0 0,7.9776 4.463168,0 0,6.7392 4.463168,0 0,6.2928 4.463167,0 0,5.7168 4.463168,0 0,5.4288 4.463168,0 0,5.184 4.463171,0 0,4.3776 4.46316,0 0,4.2768 4.46317,0 0,3.7008 4.46317,0 0,3.5856 4.46317,0 0,3.4992 4.46317,0 0,3.456 4.46316,0 0,3.0672 4.46317,0 0,2.9232 4.46317,0 0,2.5776 4.46316,0 0,2.3904 4.46317,0 0,2.4624 4.46317,0 0,2.4768 4.46317,0 0,2.2608 4.46317,0 0,2.1024 4.46316,0 0,2.1168 4.46317,0 0,1.6992 4.46317,0 0,1.8864 4.46317,0 0,1.656 4.46316,0 0,1.8 4.46317,0 0,1.6848 4.46317,0 0,1.224 4.46317,0 0,1.3824 4.46316,0 0,1.1664 4.46317,0 0,1.1808 4.46317,0 0,1.368 4.46317,0 0,1.296 4.46317,0 0,1.2528 4.46316,0 0,1.08 4.46317,0 0,0.8784 4.46317,0 0,1.2096 4.46317,0 0,1.2096 4.46316,0 0,0.8784 4.46317,0 0,1.0368 4.46317,0 0,0.8496 4.46317,0 0,0.864 4.46316,0 0,0.9648 4.46317,0 0,0.9072 4.46317,0 0,0.8208 4.46317,0 0,0.6048 4.46317,0 0,0.6912 4.46316,0 0,0.6912 4.46317,0 0,0.6768 4.46317,0 0,0.6192 4.46317,0 0,0.576 4.46316,0 0,0.6768 4.46317,0 0,0.432 4.46317,0 0,0.6768 4.46317,0 0,0.6048 4.46316,0 0,0.4752 4.46317,0 0,0.4896 4.46317,0 0,0.6912 4.46317,0 0,0.4464 4.46316,0 0,0.6192 4.46317,0 0,0.5904 4.46317,0 0,0.36 4.46317,0 0,0.576 4.46317,0 0,0.432 4.46316,0 0,0.432 4.46317,0 0,0.36 4.46317,0 0,0.5184 4.46317,0 0,0.4608 4.46316,0 0,0.4896 4.46317,0 0,0.3888 4.46317,0 0,0.2448 4.46317,0 0,0.3312 4.46317,0 0,0.4176 4.46316,0 0,0.3888 4.46317,0 0,0.3888 4.46317,0 0,0.4176 4.46317,0 0,0.2592 4.46316,0 0,0.3024 4.46317,0 0,0.2736 4.46317,0 0,0.288 4.46317,0 0,0.3168 4.46316,0 0,0.2016 4.46317,0 0,0.2736 4.46317,0 0,0.2304 4.46317,0 0,0.288 4.46316,0 0,0.2448 4.46317,0 0,0.3168 4.46317,0 0,0.36 4.46317,0 0,0.288 4.46316,0 0,0.1872 4.46317,0 0,0.288 4.46317,0 0,-288 0,0" /></g></g><g
       id="g26"><g
         clip-path="url(#clipPath30)"
         id="g28"><path
           id="path34"
           style="fill:none;stroke:#000000;stroke-width:1;stroke-linecap:square;stroke-linejoin:round;stroke-miterlimit:10;stroke-dasharray:none;stroke-opacity:1"
           d="m 30.296104,24.404609 2.232,14.970688 2.4552,14.906561 2.4552,13.49612 2.4552,12.276815 2.4552,11.215607 2.6784,11.17931 2.6784,10.21596 2.6784,9.37198 2.9016,9.3167 2.9016,8.55137 2.9016,7.87662 3.1248,7.8158 3.1248,7.20366 3.1248,6.66074 3.348,6.60106 3.348,6.10784 3.348,5.66791 3.5712,5.61245 3.5712,5.21201 3.7944,5.14519 3.7944,4.78264 4.0176,4.70985 4.240796,4.61744 4.2408,4.29161 4.464,4.20203 4.6872,4.09998 4.9104,3.98816 4.9104,3.70673 5.1336,3.60549 5.3568,3.49852 5.8032,3.518 6.0264,3.38568 6.2496,3.25412 6.4728,3.1242 6.9192,3.09275 7.3656,3.04277 7.5888,2.89589 8.0352,2.83154 8.4816,2.75664 9.1512,2.73777 9.5976,2.63862 10.2672,2.59065 10.9368,2.5279 11.6064,2.45374 12.4992,2.41224 13.392,2.35384 14.2848,2.28243 15.4008,2.23227 16.5168,2.16679 17.856,2.1151 19.1952,2.04806 20.7576,1.99021 22.5432,1.93676 24.552,1.88416 26.784,1.82996 22.9896,1.41146 0,0" /></g></g><g
       id="g36"><path
         id="path38"
         style="fill:none;stroke:#000000;stroke-width:1;stroke-linecap:square;stroke-linejoin:miter;stroke-miterlimit:10;stroke-dasharray:none;stroke-opacity:1"
         d="m 476.69375,22.825 0,345.6" /><path
         id="path40"
         style="fill:none;stroke:#000000;stroke-width:1;stroke-linecap:square;stroke-linejoin:miter;stroke-miterlimit:10;stroke-dasharray:none;stroke-opacity:1"
         d="m 30.29375,22.825 446.4,0" /><path
         id="path42"
         style="fill:none;stroke:#000000;stroke-width:1;stroke-linecap:square;stroke-linejoin:miter;stroke-miterlimit:10;stroke-dasharray:none;stroke-opacity:1"
         d="m 30.29375,22.825 0,345.6" /><path
         id="path44"
         style="fill:none;stroke:#000000;stroke-width:1;stroke-linecap:square;stroke-linejoin:miter;stroke-miterlimit:10;stroke-dasharray:none;stroke-opacity:1"
         d="m 30.29375,368.425 446.4,0" /><path
         id="path46"
         style="fill:#000000;fill-opacity:1;fill-rule:nonzero;stroke:#000000;stroke-width:0.5;stroke-linecap:butt;stroke-linejoin:round;stroke-miterlimit:10;stroke-dasharray:none;stroke-opacity:1"
         d="m 30.29375,22.825 0,4" /><path
         id="path48"
         style="fill:#000000;fill-opacity:1;fill-rule:nonzero;stroke:#000000;stroke-width:0.5;stroke-linecap:butt;stroke-linejoin:round;stroke-miterlimit:10;stroke-dasharray:none;stroke-opacity:1"
         d="m 30.29375,368.425 0,-4" /><text
         id="text50"
         style="font-variant:normal;font-weight:normal;font-size:12px;font-family:'Bitstream Vera Sans';-inkscape-font-specification:BitstreamVeraSans-Roman;writing-mode:lr-tb;fill:#000000;fill-opacity:1;fill-rule:nonzero;stroke:none"
         transform="matrix(1,0,0,-1,26.473437,9.7)"><tspan
           id="tspan52"
           y="0"
           x="0">0</tspan></text>
<path
         id="path54"
         style="fill:#000000;fill-opacity:1;fill-rule:nonzero;stroke:#000000;stroke-width:0.5;stroke-linecap:butt;stroke-linejoin:round;stroke-miterlimit:10;stroke-dasharray:none;stroke-opacity:1"
         d="m 119.57375,22.825 0,4" /><path
         id="path56"
         style="fill:#000000;fill-opacity:1;fill-rule:nonzero;stroke:#000000;stroke-width:0.5;stroke-linecap:butt;stroke-linejoin:round;stroke-miterlimit:10;stroke-dasharray:none;stroke-opacity:1"
         d="m 119.57375,368.425 0,-4" /><text
         id="text58"
         style="font-variant:normal;font-weight:normal;font-size:12px;font-family:'Bitstream Vera Sans';-inkscape-font-specification:BitstreamVeraSans-Roman;writing-mode:lr-tb;fill:#000000;fill-opacity:1;fill-rule:nonzero;stroke:none"
         transform="matrix(1,0,0,-1,115.75344,9.7)"><tspan
           id="tspan60"
           y="0"
           x="0">2</tspan></text>
<path
         id="path62"
         style="fill:#000000;fill-opacity:1;fill-rule:nonzero;stroke:#000000;stroke-width:0.5;stroke-linecap:butt;stroke-linejoin:round;stroke-miterlimit:10;stroke-dasharray:none;stroke-opacity:1"
         d="m 208.85375,22.825 0,4" /><path
         id="path64"
         style="fill:#000000;fill-opacity:1;fill-rule:nonzero;stroke:#000000;stroke-width:0.5;stroke-linecap:butt;stroke-linejoin:round;stroke-miterlimit:10;stroke-dasharray:none;stroke-opacity:1"
         d="m 208.85375,368.425 0,-4" /><text
         id="text66"
         style="font-variant:normal;font-weight:normal;font-size:12px;font-family:'Bitstream Vera Sans';-inkscape-font-specification:BitstreamVeraSans-Roman;writing-mode:lr-tb;fill:#000000;fill-opacity:1;fill-rule:nonzero;stroke:none"
         transform="matrix(1,0,0,-1,205.03344,9.7)"><tspan
           id="tspan68"
           y="0"
           x="0">4</tspan></text>
<path
         id="path70"
         style="fill:#000000;fill-opacity:1;fill-rule:nonzero;stroke:#000000;stroke-width:0.5;stroke-linecap:butt;stroke-linejoin:round;stroke-miterlimit:10;stroke-dasharray:none;stroke-opacity:1"
         d="m 298.13375,22.825 0,4" /><path
         id="path72"
         style="fill:#000000;fill-opacity:1;fill-rule:nonzero;stroke:#000000;stroke-width:0.5;stroke-linecap:butt;stroke-linejoin:round;stroke-miterlimit:10;stroke-dasharray:none;stroke-opacity:1"
         d="m 298.13375,368.425 0,-4" /><text
         id="text74"
         style="font-variant:normal;font-weight:normal;font-size:12px;font-family:'Bitstream Vera Sans';-inkscape-font-specification:BitstreamVeraSans-Roman;writing-mode:lr-tb;fill:#000000;fill-opacity:1;fill-rule:nonzero;stroke:none"
         transform="matrix(1,0,0,-1,294.31344,9.7)"><tspan
           id="tspan76"
           y="0"
           x="0">6</tspan></text>
<path
         id="path78"
         style="fill:#000000;fill-opacity:1;fill-rule:nonzero;stroke:#000000;stroke-width:0.5;stroke-linecap:butt;stroke-linejoin:round;stroke-miterlimit:10;stroke-dasharray:none;stroke-opacity:1"
         d="m 387.41375,22.825 0,4" /><path
         id="path80"
         style="fill:#000000;fill-opacity:1;fill-rule:nonzero;stroke:#000000;stroke-width:0.5;stroke-linecap:butt;stroke-linejoin:round;stroke-miterlimit:10;stroke-dasharray:none;stroke-opacity:1"
         d="m 387.41375,368.425 0,-4" /><text
         id="text82"
         style="font-variant:normal;font-weight:normal;font-size:12px;font-family:'Bitstream Vera Sans';-inkscape-font-specification:BitstreamVeraSans-Roman;writing-mode:lr-tb;fill:#000000;fill-opacity:1;fill-rule:nonzero;stroke:none"
         transform="matrix(1,0,0,-1,383.59344,9.7)"><tspan
           id="tspan84"
           y="0"
           x="0">8</tspan></text>
<path
         id="path86"
         style="fill:#000000;fill-opacity:1;fill-rule:nonzero;stroke:#000000;stroke-width:0.5;stroke-linecap:butt;stroke-linejoin:round;stroke-miterlimit:10;stroke-dasharray:none;stroke-opacity:1"
         d="m 476.69375,22.825 0,4" /><path
         id="path88"
         style="fill:#000000;fill-opacity:1;fill-rule:nonzero;stroke:#000000;stroke-width:0.5;stroke-linecap:butt;stroke-linejoin:round;stroke-miterlimit:10;stroke-dasharray:none;stroke-opacity:1"
         d="m 476.69375,368.425 0,-4" /><text
         id="text90"
         style="font-variant:normal;font-weight:normal;font-size:12px;font-family:'Bitstream Vera Sans';-inkscape-font-specification:BitstreamVeraSans-Roman;writing-mode:lr-tb;fill:#000000;fill-opacity:1;fill-rule:nonzero;stroke:none"
         transform="matrix(1,0,0,-1,469.05312,9.7)"><tspan
           id="tspan92"
           y="0"
           x="0 7.632">10</tspan></text>
<path
         id="path94"
         style="fill:#000000;fill-opacity:1;fill-rule:nonzero;stroke:#000000;stroke-width:0.5;stroke-linecap:butt;stroke-linejoin:round;stroke-miterlimit:10;stroke-dasharray:none;stroke-opacity:1"
         d="m 30.29375,22.825 4,0" /><path
         id="path96"
         style="fill:#000000;fill-opacity:1;fill-rule:nonzero;stroke:#000000;stroke-width:0.5;stroke-linecap:butt;stroke-linejoin:round;stroke-miterlimit:10;stroke-dasharray:none;stroke-opacity:1"
         d="m 476.69375,22.825 -4,0" /><text
         id="text98"
         style="font-variant:normal;font-weight:normal;font-size:12px;font-family:'Bitstream Vera Sans';-inkscape-font-specification:BitstreamVeraSans-Roman;writing-mode:lr-tb;fill:#000000;fill-opacity:1;fill-rule:nonzero;stroke:none"
         transform="matrix(1,0,0,-1,7.2,19.5125)"><tspan
           id="tspan100"
           y="0"
           x="0 7.632 11.448">0.0</tspan></text>
<path
         id="path102"
         style="fill:#000000;fill-opacity:1;fill-rule:nonzero;stroke:#000000;stroke-width:0.5;stroke-linecap:butt;stroke-linejoin:round;stroke-miterlimit:10;stroke-dasharray:none;stroke-opacity:1"
         d="m 30.29375,80.425 4,0" /><path
         id="path104"
         style="fill:#000000;fill-opacity:1;fill-rule:nonzero;stroke:#000000;stroke-width:0.5;stroke-linecap:butt;stroke-linejoin:round;stroke-miterlimit:10;stroke-dasharray:none;stroke-opacity:1"
         d="m 476.69375,80.425 -4,0" /><text
         id="text106"
         style="font-variant:normal;font-weight:normal;font-size:12px;font-family:'Bitstream Vera Sans';-inkscape-font-specification:BitstreamVeraSans-Roman;writing-mode:lr-tb;fill:#000000;fill-opacity:1;fill-rule:nonzero;stroke:none"
         transform="matrix(1,0,0,-1,7.2,77.1125)"><tspan
           id="tspan108"
           y="0"
           x="0 7.632 11.448">0.2</tspan></text>
<path
         id="path110"
         style="fill:#000000;fill-opacity:1;fill-rule:nonzero;stroke:#000000;stroke-width:0.5;stroke-linecap:butt;stroke-linejoin:round;stroke-miterlimit:10;stroke-dasharray:none;stroke-opacity:1"
         d="m 30.29375,138.025 4,0" /><path
         id="path112"
         style="fill:#000000;fill-opacity:1;fill-rule:nonzero;stroke:#000000;stroke-width:0.5;stroke-linecap:butt;stroke-linejoin:round;stroke-miterlimit:10;stroke-dasharray:none;stroke-opacity:1"
         d="m 476.69375,138.025 -4,0" /><text
         id="text114"
         style="font-variant:normal;font-weight:normal;font-size:12px;font-family:'Bitstream Vera Sans';-inkscape-font-specification:BitstreamVeraSans-Roman;writing-mode:lr-tb;fill:#000000;fill-opacity:1;fill-rule:nonzero;stroke:none"
         transform="matrix(1,0,0,-1,7.2,134.7125)"><tspan
           id="tspan116"
           y="0"
           x="0 7.632 11.448">0.4</tspan></text>
<path
         id="path118"
         style="fill:#000000;fill-opacity:1;fill-rule:nonzero;stroke:#000000;stroke-width:0.5;stroke-linecap:butt;stroke-linejoin:round;stroke-miterlimit:10;stroke-dasharray:none;stroke-opacity:1"
         d="m 30.29375,195.625 4,0" /><path
         id="path120"
         style="fill:#000000;fill-opacity:1;fill-rule:nonzero;stroke:#000000;stroke-width:0.5;stroke-linecap:butt;stroke-linejoin:round;stroke-miterlimit:10;stroke-dasharray:none;stroke-opacity:1"
         d="m 476.69375,195.625 -4,0" /><text
         id="text122"
         style="font-variant:normal;font-weight:normal;font-size:12px;font-family:'Bitstream Vera Sans';-inkscape-font-specification:BitstreamVeraSans-Roman;writing-mode:lr-tb;fill:#000000;fill-opacity:1;fill-rule:nonzero;stroke:none"
         transform="matrix(1,0,0,-1,7.2,192.3125)"><tspan
           id="tspan124"
           y="0"
           x="0 7.632 11.448">0.6</tspan></text>
<path
         id="path126"
         style="fill:#000000;fill-opacity:1;fill-rule:nonzero;stroke:#000000;stroke-width:0.5;stroke-linecap:butt;stroke-linejoin:round;stroke-miterlimit:10;stroke-dasharray:none;stroke-opacity:1"
         d="m 30.29375,253.225 4,0" /><path
         id="path128"
         style="fill:#000000;fill-opacity:1;fill-rule:nonzero;stroke:#000000;stroke-width:0.5;stroke-linecap:butt;stroke-linejoin:round;stroke-miterlimit:10;stroke-dasharray:none;stroke-opacity:1"
         d="m 476.69375,253.225 -4,0" /><text
         id="text130"
         style="font-variant:normal;font-weight:normal;font-size:12px;font-family:'Bitstream Vera Sans';-inkscape-font-specification:BitstreamVeraSans-Roman;writing-mode:lr-tb;fill:#000000;fill-opacity:1;fill-rule:nonzero;stroke:none"
         transform="matrix(1,0,0,-1,7.2,249.9125)"><tspan
           id="tspan132"
           y="0"
           x="0 7.632 11.448">0.8</tspan></text>
<path
         id="path134"
         style="fill:#000000;fill-opacity:1;fill-rule:nonzero;stroke:#000000;stroke-width:0.5;stroke-linecap:butt;stroke-linejoin:round;stroke-miterlimit:10;stroke-dasharray:none;stroke-opacity:1"
         d="m 30.29375,310.825 4,0" /><path
         id="path136"
         style="fill:#000000;fill-opacity:1;fill-rule:nonzero;stroke:#000000;stroke-width:0.5;stroke-linecap:butt;stroke-linejoin:round;stroke-miterlimit:10;stroke-dasharray:none;stroke-opacity:1"
         d="m 476.69375,310.825 -4,0" /><text
         id="text138"
         style="font-variant:normal;font-weight:normal;font-size:12px;font-family:'Bitstream Vera Sans';-inkscape-font-specification:BitstreamVeraSans-Roman;writing-mode:lr-tb;fill:#000000;fill-opacity:1;fill-rule:nonzero;stroke:none"
         transform="matrix(1,0,0,-1,7.2,307.5125)"><tspan
           id="tspan140"
           y="0"
           x="0 7.632 11.448">1.0</tspan></text>
<path
         id="path142"
         style="fill:#000000;fill-opacity:1;fill-rule:nonzero;stroke:#000000;stroke-width:0.5;stroke-linecap:butt;stroke-linejoin:round;stroke-miterlimit:10;stroke-dasharray:none;stroke-opacity:1"
         d="m 30.29375,368.425 4,0" /><path
         id="path144"
         style="fill:#000000;fill-opacity:1;fill-rule:nonzero;stroke:#000000;stroke-width:0.5;stroke-linecap:butt;stroke-linejoin:round;stroke-miterlimit:10;stroke-dasharray:none;stroke-opacity:1"
         d="m 476.69375,368.425 -4,0" /><text
         id="text146"
         style="font-variant:normal;font-weight:normal;font-size:12px;font-family:'Bitstream Vera Sans';-inkscape-font-specification:BitstreamVeraSans-Roman;writing-mode:lr-tb;fill:#000000;fill-opacity:1;fill-rule:nonzero;stroke:none"
         transform="matrix(1,0,0,-1,7.2,365.1125)"><tspan
           id="tspan148"
           y="0"
           x="0 7.632 11.448">1.2</tspan></text>
</g></g></svg>