<?xml version="1.0" encoding="UTF-8" standalone="no"?>
<svg
   xmlns:dc="http://purl.org/dc/elements/1.1/"
   xmlns:cc="http://creativecommons.org/ns#"
   xmlns:rdf="http://www.w3.org/1999/02/22-rdf-syntax-ns#"
   xmlns:svg="http://www.w3.org/2000/svg"
   xmlns="http://www.w3.org/2000/svg"
   xmlns:sodipodi="http://sodipodi.sourceforge.net/DTD/sodipodi-0.dtd"
   xmlns:inkscape="http://www.inkscape.org/namespaces/inkscape"
   viewBox="0 0 670.05078 472.92999"
   height="472.92999"
   width="670.05078"
   xml:space="preserve"
   version="1.1"
   id="svg2"
   inkscape:version="0.91 r13725"
   sodipodi:docname="dist_density_at_boundaries_b_0_hs.svg"><sodipodi:namedview
     pagecolor="#ffffff"
     bordercolor="#666666"
     borderopacity="1"
     objecttolerance="10"
     gridtolerance="10"
     guidetolerance="10"
     inkscape:pageopacity="0"
     inkscape:pageshadow="2"
     inkscape:window-width="1920"
     inkscape:window-height="1035"
     id="namedview168"
     showgrid="false"
     inkscape:zoom="1.3648197"
     inkscape:cx="25.604432"
     inkscape:cy="230.71747"
     inkscape:window-x="0"
     inkscape:window-y="22"
     inkscape:window-maximized="1"
     inkscape:current-layer="g10"
     fit-margin-top="0.7"
     fit-margin-left="0"
     fit-margin-right="0"
     fit-margin-bottom="0" /><metadata
     id="metadata8"><rdf:RDF><cc:Work
         rdf:about=""><dc:format>image/svg+xml</dc:format><dc:type
           rdf:resource="http://purl.org/dc/dcmitype/StillImage" /><dc:title></dc:title></cc:Work></rdf:RDF></metadata><defs
     id="defs6"><clipPath
       id="clipPath20"
       clipPathUnits="userSpaceOnUse"><path
         id="path22"
         d="m 44.820313,22.825 446.399997,0 0,345.6 -446.399997,0 0,-345.6 z"
         inkscape:connector-curvature="0" /></clipPath><clipPath
       id="clipPath30"
       clipPathUnits="userSpaceOnUse"><path
         id="path32"
         d="m 44.820313,22.825 446.399997,0 0,345.6 -446.399997,0 0,-345.6 z"
         inkscape:connector-curvature="0" /></clipPath><clipPath
       id="clipPath40"
       clipPathUnits="userSpaceOnUse"><path
         id="path42"
         d="m 44.820313,22.825 446.399997,0 0,345.6 -446.399997,0 0,-345.6 z"
         inkscape:connector-curvature="0" /></clipPath><clipPath
       id="clipPath50"
       clipPathUnits="userSpaceOnUse"><path
         id="path52"
         d="m 44.820313,22.825 446.399997,0 0,345.6 -446.399997,0 0,-345.6 z"
         inkscape:connector-curvature="0" /></clipPath><clipPath
       id="clipPath60"
       clipPathUnits="userSpaceOnUse"><path
         id="path62"
         d="m 44.820313,22.825 446.399997,0 0,345.6 -446.399997,0 0,-345.6 z"
         inkscape:connector-curvature="0" /></clipPath><clipPath
       id="clipPath70"
       clipPathUnits="userSpaceOnUse"><path
         id="path72"
         d="m 44.820313,22.825 446.399997,0 0,345.6 -446.399997,0 0,-345.6 z"
         inkscape:connector-curvature="0" /></clipPath><clipPath
       id="clipPath80"
       clipPathUnits="userSpaceOnUse"><path
         id="path82"
         d="m 44.820313,22.825 446.399997,0 0,345.6 -446.399997,0 0,-345.6 z"
         inkscape:connector-curvature="0" /></clipPath><clipPath
       id="clipPath90"
       clipPathUnits="userSpaceOnUse"><path
         id="path92"
         d="m 44.820313,22.825 446.399997,0 0,345.6 -446.399997,0 0,-345.6 z"
         inkscape:connector-curvature="0" /></clipPath><clipPath
       id="clipPath100"
       clipPathUnits="userSpaceOnUse"><path
         id="path102"
         d="m 44.820313,22.825 446.399997,0 0,345.6 -446.399997,0 0,-345.6 z"
         inkscape:connector-curvature="0" /></clipPath><clipPath
       id="clipPath110"
       clipPathUnits="userSpaceOnUse"><path
         id="path112"
         d="m 44.820313,22.825 446.399997,0 0,345.6 -446.399997,0 0,-345.6 z"
         inkscape:connector-curvature="0" /></clipPath><clipPath
       id="clipPath120"
       clipPathUnits="userSpaceOnUse"><path
         id="path122"
         d="m 44.820313,22.825 446.399997,0 0,345.6 -446.399997,0 0,-345.6 z"
         inkscape:connector-curvature="0" /></clipPath><clipPath
       id="clipPath130"
       clipPathUnits="userSpaceOnUse"><path
         id="path132"
         d="m 44.820313,22.825 446.399997,0 0,345.6 -446.399997,0 0,-345.6 z"
         inkscape:connector-curvature="0" /></clipPath><clipPath
       id="clipPath140"
       clipPathUnits="userSpaceOnUse"><path
         id="path142"
         d="m 44.820313,22.825 446.399997,0 0,345.6 -446.399997,0 0,-345.6 z"
         inkscape:connector-curvature="0" /></clipPath><clipPath
       id="clipPath150"
       clipPathUnits="userSpaceOnUse"><path
         id="path152"
         d="m 44.820313,22.825 446.399997,0 0,345.6 -446.399997,0 0,-345.6 z"
         inkscape:connector-curvature="0" /></clipPath><clipPath
       id="clipPath160"
       clipPathUnits="userSpaceOnUse"><path
         id="path162"
         d="m 44.820313,22.825 446.399997,0 0,345.6 -446.399997,0 0,-345.6 z"
         inkscape:connector-curvature="0" /></clipPath><clipPath
       id="clipPath170"
       clipPathUnits="userSpaceOnUse"><path
         id="path172"
         d="m 44.820313,22.825 446.399997,0 0,345.6 -446.399997,0 0,-345.6 z"
         inkscape:connector-curvature="0" /></clipPath><clipPath
       id="clipPath180"
       clipPathUnits="userSpaceOnUse"><path
         id="path182"
         d="m 44.820313,22.825 446.399997,0 0,345.6 -446.399997,0 0,-345.6 z"
         inkscape:connector-curvature="0" /></clipPath><clipPath
       id="clipPath190"
       clipPathUnits="userSpaceOnUse"><path
         id="path192"
         d="m 44.820313,22.825 446.399997,0 0,345.6 -446.399997,0 0,-345.6 z"
         inkscape:connector-curvature="0" /></clipPath><clipPath
       id="clipPath200"
       clipPathUnits="userSpaceOnUse"><path
         id="path202"
         d="m 44.820313,22.825 446.399997,0 0,345.6 -446.399997,0 0,-345.6 z"
         inkscape:connector-curvature="0" /></clipPath><clipPath
       id="clipPath232"
       clipPathUnits="userSpaceOnUse"><path
         id="path234"
         d="m -184,-236 1472,0 0,1165 -1472,0 0,-1165 z"
         inkscape:connector-curvature="0" /></clipPath><clipPath
       id="clipPath254"
       clipPathUnits="userSpaceOnUse"><path
         id="path256"
         d="m -184,-236 1472,0 0,1165 -1472,0 0,-1165 z"
         inkscape:connector-curvature="0" /></clipPath></defs><g
     transform="matrix(1.25,0,0,-1.25,0,472.92999)"
     id="g10"><path
       id="path12"
       style="fill:#ffffff;fill-opacity:1;fill-rule:nonzero;stroke:none"
       d="m 0,0 536.04062,0 0,377.78399 L 0,377.78399 0,0 Z"
       inkscape:connector-curvature="0" /><path
       id="path14"
       style="fill:#ffffff;fill-opacity:1;fill-rule:nonzero;stroke:none"
       d="m 44.820313,22.825 446.399997,0 0,345.6 -446.399997,0 0,-345.6 z"
       inkscape:connector-curvature="0" /><g
       id="g16"><g
         clip-path="url(#clipPath20)"
         id="g18"><path
           id="path24"
           style="fill:none;stroke:#000000;stroke-width:1;stroke-linecap:square;stroke-linejoin:round;stroke-miterlimit:10;stroke-dasharray:none;stroke-opacity:1"
           d="m 44.820312,22.825 4.464,26.829564 4.464,25.236265 4.464001,23.70733 4.463999,22.241431 4.464,20.83725 4.464,19.49344 4.464,18.2087 3.348001,12.84818 3.348,12.18188 3.348,11.53902 3.347999,10.91918 3.348,10.32195 3.348,9.7469 3.348,9.19362 3.347998,8.66168 3.348,8.15068 3.348,7.66016 3.348,7.18974 3.348,6.73899 3.348,6.30748 3.348,5.8948 3.348,5.50052 3.348,5.12422 3.348,4.7655 3.348,4.42392 3.348,4.09907 3.348,3.79051 3.348,3.49786 3.348,3.22066 3.348,2.95851 3.348,2.71099 3.348,2.47768 3.348,2.25814 3.348,2.05199 4.464,2.4376 4.464,2.12359 4.464,1.83778 4.464,1.57884 4.464,1.34546 4.464,1.13628 5.58,1.16095 5.58,0.91159 5.58,0.70079 6.696,0.61218 7.812,0.46743 8.928,0.30022 12.276,0.16492 24.552,0.0346 26.784,-0.0987 11.16,-0.26409 8.928,-0.44679 6.696,-0.54041 6.696,-0.77425 5.58,-0.86645 5.58,-1.10784 4.464,-1.08762 4.464,-1.29094 4.464,-1.51815 4.464,-1.77058 4.464,-2.04955 4.464,-2.35638 3.348,-1.98616 3.348,-2.18797 3.348,-2.40298 3.348,-2.63166 3.348,-2.8744 3.348,-3.13163 3.348,-3.40376 3.348,-3.69122 3.348,-3.99442 3.348,-4.3138 3.348,-4.64975 3.348,-5.00272 3.348,-5.37311 3.348,-5.76135 3.348,-6.16784 3.348,-6.59304 3.348,-7.03733 3.348,-7.50115 3.348,-7.98491 3.348,-8.48904 3.348,-9.01396 3.348,-9.56007 3.348,-10.12783 3.348,-10.71761 3.348,-11.32987 3.348,-11.965 3.348,-12.62345 3.348,-13.30562 3.348,-14.01194 3.348,-14.74281 4.464,-20.83725 4.464,-22.241431 4.464,-23.70733 4.464,-25.236265 4.464,-26.829564 0,0"
           inkscape:connector-curvature="0" /></g></g><g
       id="g26"><g
         clip-path="url(#clipPath30)"
         id="g28"><path
           id="path34"
           style="fill:none;stroke:#ff0000;stroke-width:1;stroke-linecap:square;stroke-linejoin:round;stroke-miterlimit:10;stroke-dasharray:none;stroke-opacity:1"
           d="m 44.820312,98.834656 1.116001,1.992494 1.115999,2.04472 1.116001,2.09832 1.115999,2.15332 1.116001,2.20977 1.115999,2.2677 1.116001,2.32714 1.115999,2.38814 1.116001,2.45075 1.115999,2.51499 1.116001,2.58092 1.116,2.64857 1.116,2.718 1.116,2.78924 1.116,2.86237 1.116,2.9374 1.116,3.0144 1.116,3.09341 1.116,3.17451 1.116,3.25772 1.116,3.34312 1.116,3.43075 1.116,3.52069 1.116,3.61298 1.116,3.70768 1.116,3.80488 1.116,3.90461 1.116,4.00698 1.116,4.11201"
           inkscape:connector-curvature="0" /></g></g><g
       id="g36"><g
         clip-path="url(#clipPath40)"
         id="g38"><path
           id="path44"
           style="fill:none;stroke:#ff0000;stroke-width:1;stroke-linecap:square;stroke-linejoin:round;stroke-miterlimit:10;stroke-dasharray:none;stroke-opacity:1"
           d="m 78.120905,216.07437 1.116,1.99228 1.116,2.01282 1.116,2.03357 1.116,2.05453 1.116,2.07571 1.116,2.09712 1.116,2.11873 1.116,2.14057 1.116,2.16265 1.116,2.18494 1.116,2.20746 1.116,2.23022 1.116,2.25322 1.116,2.27644 1.116,2.29991 1.116,2.32362 1.116,2.34758 1.116,2.37178 1.116,2.39623 1.116005,2.42094 1.116,2.44589 1.11599,2.47111 1.11601,2.49658 1.116,2.52233 1.116,2.54832 1.116,2.5746"
           inkscape:connector-curvature="0" /></g></g><g
       id="g46"><g
         clip-path="url(#clipPath50)"
         id="g48"><path
           id="path54"
           style="fill:none;stroke:#ff0000;stroke-width:1;stroke-linecap:square;stroke-linejoin:round;stroke-miterlimit:10;stroke-dasharray:none;stroke-opacity:1"
           d="m 107.14686,310.8379 1.116,0.76906 1.11599,0.77111 1.11601,0.77317 1.116,0.77524 1.116,0.77731 1.116,0.77938 1.116,0.78146 1.116,0.78355 1.116,0.78564 1.116,0.78774 1.116,0.78985 1.11599,0.79195 1.116,0.79407 1.116,0.79618 1.116,0.79832 1.116,0.80044 1.116,0.80259 1.11601,0.80472 1.11599,0.80688 1.116,0.80902 1.116,0.81119 1.116,0.81336 1.116,0.81553 1.116,0.8177 1.116,0.81989 1.116,0.82208 1.116,0.82427 1.116,0.82647 1.116,0.82868 1.116,0.8309 1.116,0.83311 1.116,0.83534 1.116,0.83756 1.116,0.83981 1.116,0.84204 1.116,0.8443 1.116,0.84655 1.116,0.84881 1.116,0.85107 1.116,0.85335 1.116,0.85563 1.116,0.85791 1.116,0.8602 1.116,0.8625"
           inkscape:connector-curvature="0" /></g></g><g
       id="g56"><g
         clip-path="url(#clipPath60)"
         id="g58"><path
           id="path64"
           style="fill:none;stroke:#ff0000;stroke-width:1;stroke-linecap:square;stroke-linejoin:round;stroke-miterlimit:10;stroke-dasharray:none;stroke-opacity:1"
           d="m 156.42031,368.425 1.116,0 1.116,0 1.116,0 1.116,0 1.116,0 1.116,0 1.116,0 1.116,0 1.116,0 1.116,0 1.116,0 1.116,0 1.116,0 1.116,0 1.116,0 1.116,0 1.116,0 1.116,0 1.116,0 1.116,0 1.116,0 1.116,0 1.116,0 1.116,0 1.116,0 1.116,0 1.116,0 1.116,0 1.116,0 1.116,0 1.116,0 1.116,0 1.116,0 1.116,0 1.116,0 1.116,0 1.116,0 1.116,0 1.116,0 1.116,0 1.116,0 1.116,0 1.116,0 1.116,0 1.116,0 1.116,0 1.116,0 1.116,0 1.116,0 1.116,0 1.116,0 1.116,0 1.116,0 1.116,0 1.116,0 1.116,0 1.116,0 1.116,0 1.116,0 1.116,0 1.116,0 1.116,0 1.116,0 1.116,0 1.116,0 1.116,0 1.116,0 1.116,0 1.116,0 1.116,0 1.116,0 1.116,0 1.116,0 1.116,0 1.116,0 1.116,0 1.116,0 1.116,0 1.116,0 1.116,0 1.116,0 1.116,0 1.116,0 1.116,0 1.116,0 1.116,0 1.116,0 1.116,0 1.116,0 1.116,0 1.116,0 1.116,0 1.116,0 1.116,0 1.116,0 1.116,0 1.116,0 1.116,0 1.116,0"
           inkscape:connector-curvature="0" /></g></g><g
       id="g66"><g
         clip-path="url(#clipPath70)"
         id="g68"><path
           id="path74"
           style="fill:none;stroke:#ff0000;stroke-width:1;stroke-linecap:square;stroke-linejoin:round;stroke-miterlimit:10;stroke-dasharray:none;stroke-opacity:1"
           d="m 268.02031,368.425 1.116,0 1.116,0 1.116,0 1.116,0 1.116,0 1.116,0 1.116,0 1.116,0 1.116,0 1.116,0 1.116,0 1.116,0 1.116,0 1.116,0 1.116,0 1.116,0 1.116,0 1.116,0 1.116,0 1.116,0 1.116,0 1.116,0 1.116,0 1.116,0 1.116,0 1.116,0 1.116,0 1.116,0 1.116,0 1.116,0 1.116,0 1.116,0 1.116,0 1.116,0 1.116,0 1.116,0 1.116,0 1.116,0 1.116,0 1.116,0 1.116,0 1.116,0 1.116,0 1.116,0 1.116,0 1.116,0 1.116,0 1.116,0 1.116,0 1.116,0 1.116,0 1.116,0 1.116,0 1.116,0 1.116,0 1.116,0 1.116,0 1.116,0 1.116,0 1.116,0 1.116,0 1.116,0 1.116,0 1.116,0 1.116,0 1.116,0 1.116,0 1.116,0 1.116,0 1.116,0 1.116,0 1.116,0 1.116,0 1.116,0 1.116,0 1.116,0 1.116,0 1.116,0 1.116,0 1.116,0 1.116,0 1.116,0 1.116,0 1.116,0 1.116,0 1.116,0 1.116,0 1.116,0 1.116,0 1.116,0 1.116,0 1.116,0 1.116,0 1.116,0 1.116,0 1.116,0 1.116,0 1.116,0 1.116,0"
           inkscape:connector-curvature="0" /></g></g><g
       id="g76"><g
         clip-path="url(#clipPath80)"
         id="g78"><path
           id="path84"
           style="fill:none;stroke:#ff0000;stroke-width:1;stroke-linecap:square;stroke-linejoin:round;stroke-miterlimit:10;stroke-dasharray:none;stroke-opacity:1"
           d="m 379.62031,346.825 1.116,-0.86285 1.116,-0.86055 1.116,-0.85826 1.116,-0.85597 1.116,-0.8537 1.116,-0.85142 1.116,-0.84915 1.116,-0.84689 1.116,-0.84464 1.116,-0.84239 1.116,-0.84014 1.116,-0.83791 1.116,-0.83567 1.116,-0.83345 1.116,-0.83123 1.116,-0.82902 1.116,-0.82681 1.116,-0.8246 1.116,-0.82241 1.116,-0.82022 1.116,-0.81804 1.116,-0.81586 1.116,-0.81368 1.116,-0.81152 1.116,-0.80936 1.116,-0.8072 1.116,-0.80505 1.116,-0.80291 1.116,-0.80077 1.116,-0.79863 1.116,-0.79651 1.116,-0.79439 1.116,-0.79228 1.116,-0.79016 1.116,-0.78806 1.116,-0.78596 1.116,-0.78387 1.116,-0.78178 1.116,-0.77969 1.116,-0.77763 1.116,-0.77555 1.116,-0.77348 1.116,-0.77143 1.116,-0.76937"
           inkscape:connector-curvature="0" /></g></g><g
       id="g86"><g
         clip-path="url(#clipPath90)"
         id="g88"><path
           id="path94"
           style="fill:none;stroke:#ff0000;stroke-width:1;stroke-linecap:square;stroke-linejoin:round;stroke-miterlimit:10;stroke-dasharray:none;stroke-opacity:1"
           d="m 428.89377,275.15659 1.116,-2.57483 1.116,-2.54856 1.116,-2.52255 1.116,-2.49682 1.116,-2.47133 1.116,-2.44612 1.116,-2.42115 1.116,-2.39645 1.116,-2.372 1.116,-2.34779 1.116,-2.32384 1.116,-2.30012 1.116,-2.27665 1.116,-2.25342 1.116,-2.23043 1.116,-2.20766 1.116,-2.18514 1.116,-2.16284 1.116,-2.14077 1.116,-2.11893 1.116,-2.0973 1.116,-2.07591 1.116,-2.05472 1.116,-2.03375 1.116,-2.013 1.116,-1.99246"
           inkscape:connector-curvature="0" /></g></g><g
       id="g96"><g
         clip-path="url(#clipPath100)"
         id="g98"><path
           id="path104"
           style="fill:none;stroke:#ff0000;stroke-width:1;stroke-linecap:square;stroke-linejoin:round;stroke-miterlimit:10;stroke-dasharray:none;stroke-opacity:1"
           d="m 457.91972,187.33627 1.116,-4.20228 1.116,-4.09494 1.116,-3.99033 1.116,-3.88841 1.116,-3.78909 1.116,-3.69229 1.116,-3.59798 1.116,-3.50607 1.116,-3.41651 1.116,-3.32924 1.116,-3.2442 1.116,-3.16133 1.116,-3.08057 1.116,-3.00189"
           inkscape:connector-curvature="0" /></g></g><g
       id="g106"><g
         clip-path="url(#clipPath110)"
         id="g108"><path
           id="path114"
           style="fill:none;stroke:#ff0000;stroke-width:1;stroke-linecap:square;stroke-linejoin:round;stroke-miterlimit:10;stroke-dasharray:none;stroke-opacity:1"
           d="m 473.95184,117.99387 1.116,-5.2767 1.116,-4.98412 1.116,-4.70778 1.116,-4.446752 1.116,-4.2002 1.116,-3.967317 1.116,-3.747346 1.116,-3.539573 1.116,-3.343319 1.116,-3.157947 1.116,-2.982852 1.116,-2.817467 1.116,-2.66125 1.116,-2.513695 1.116,-2.374323"
           inkscape:connector-curvature="0" /></g></g><g
       id="g116"><g
         clip-path="url(#clipPath120)"
         id="g118"><path
           id="path124"
           style="fill:none;stroke:#008000;stroke-width:1;stroke-linecap:square;stroke-linejoin:round;stroke-miterlimit:10;stroke-dasharray:none;stroke-opacity:1"
           d="m 44.820312,22.825 1.116001,0 1.115999,0 1.116001,0 1.115999,0 1.116001,0 1.115999,0 1.116001,0 1.115999,0 1.116001,0 1.115999,0 1.116001,0 1.116,0 1.116,0 1.116,0 1.116,0 1.116,0 1.116,0 1.116,0 1.116,0 1.116,0 1.116,0 1.116,0 1.116,0 1.116,0 1.116,0 1.116,0 1.116,0 1.116,0 1.116,0"
           inkscape:connector-curvature="0" /></g></g><g
       id="g126"><g
         clip-path="url(#clipPath130)"
         id="g128"><path
           id="path134"
           style="fill:none;stroke:#008000;stroke-width:1;stroke-linecap:square;stroke-linejoin:round;stroke-miterlimit:10;stroke-dasharray:none;stroke-opacity:1"
           d="m 78.120905,187.33627 1.116,2.72807 1.116,2.77331 1.116,2.81929 1.116,2.86605 1.116,2.91357 1.116,2.96189 1.116,3.01101 1.116,3.06093 1.116,3.1117 1.116,3.1633 1.116,3.21575 1.116,3.26908 1.116,3.32329 1.116,3.3784 1.116,3.43442 1.116,3.49138 1.116,3.54927 1.116,3.60813 1.116,3.66796 1.116005,3.72879 1.116,3.79063 1.11599,3.85348 1.11601,3.91738 1.116,3.98234 1.116,4.04839 1.116,4.11552"
           inkscape:connector-curvature="0" /></g></g><g
       id="g136"><g
         clip-path="url(#clipPath140)"
         id="g138"><path
           id="path144"
           style="fill:none;stroke:#008000;stroke-width:1;stroke-linecap:square;stroke-linejoin:round;stroke-miterlimit:10;stroke-dasharray:none;stroke-opacity:1"
           d="m 107.14686,275.15659 1.116,1.43282 1.11599,1.44096 1.11601,1.44914 1.116,1.45737 1.116,1.46564 1.116,1.47397 1.116,1.48233 1.116,1.49076 1.116,1.49921 1.116,1.50773 1.116,1.5163 1.11599,1.5249 1.116,1.53356 1.116,1.54227 1.116,1.55102 1.116,1.55984 1.116,1.56869 1.11601,1.5776 1.11599,1.58655 1.116,1.59557 1.116,1.60463 1.116,1.61373 1.116,1.6229 1.116,1.63212 1.116,1.64138 1.116,1.65071 1.116,1.66007 1.116,1.66951 1.116,1.67898 1.116,1.68852 1.116,1.69811 1.116,1.70774 1.116,1.71745 1.116,1.7272 1.116,1.737 1.116,1.74687 1.116,1.75679 1.116,1.76676 1.116,1.77679 1.116,1.78689 1.116,1.79703 1.116,1.80724 1.116,1.81749 1.116,1.82782"
           inkscape:connector-curvature="0" /></g></g><g
       id="g146"><g
         clip-path="url(#clipPath150)"
         id="g148"><path
           id="path154"
           style="fill:none;stroke:#008000;stroke-width:1;stroke-linecap:square;stroke-linejoin:round;stroke-miterlimit:10;stroke-dasharray:none;stroke-opacity:1"
           d="m 156.42031,346.825 1.116,0.20917 1.116,0.20931 1.116,0.20944 1.116,0.20958 1.116,0.20971 1.116,0.20985 1.116,0.20998 1.116,0.21012 1.116,0.21026 1.116,0.21039 1.116,0.21053 1.116,0.21066 1.116,0.2108 1.116,0.21093 1.116,0.21107 1.116,0.21121 1.116,0.21134 1.116,0.21148 1.116,0.21162 1.116,0.21175 1.116,0.21189 1.116,0.21203 1.116,0.21216 1.116,0.2123 1.116,0.21244 1.116,0.21257 1.116,0.21272 1.116,0.21285 1.116,0.21298 1.116,0.21313 1.116,0.21326 1.116,0.2134 1.116,0.21353 1.116,0.21368 1.116,0.21381 1.116,0.21395 1.116,0.21409 1.116,0.21423 1.116,0.21437 1.116,0.2145 1.116,0.21464 1.116,0.21478 1.116,0.21492 1.116,0.21506 1.116,0.2152 1.116,0.21533 1.116,0.21548 1.116,0.21561 1.116,0.21576 1.116,0.21589 1.116,0.21603 1.116,0.21618 1.116,0.21631 1.116,0.21645 1.116,0.21659 1.116,0.21673 1.116,0.21687 1.116,0.21701 1.116,0.21715 1.116,0.21729 1.116,0.21743 1.116,0.21757 1.116,0.21771 1.116,0.21786 1.116,0.21799 1.116,0.21813 1.116,0.21828 1.116,0.21841 1.116,0.21856 1.116,0.2187 1.116,0.21884 1.116,0.21898 1.116,0.21912 1.116,0.21926 1.116,0.2194 1.116,0.21955 1.116,0.21969 1.116,0.21983 1.116,0.21997 1.116,0.22011 1.116,0.22026 1.116,0.2204 1.116,0.22054 1.116,0.22068 1.116,0.22082 1.116,0.22097 1.116,0.22111 1.116,0.22126 1.116,0.22139 1.116,0.22154 1.116,0.22168 1.116,0.22183 1.116,0.22197 1.116,0.22211 1.116,0.22225 1.116,0.2224 1.116,0.22254 1.116,0.22269 1.116,0.22283"
           inkscape:connector-curvature="0" /></g></g><g
       id="g156"><g
         clip-path="url(#clipPath160)"
         id="g158"><path
           id="path164"
           style="fill:none;stroke:#008000;stroke-width:1;stroke-linecap:square;stroke-linejoin:round;stroke-miterlimit:10;stroke-dasharray:none;stroke-opacity:1"
           d="m 268.02031,368.425 1.116,-0.22297 1.116,-0.22283 1.116,-0.22269 1.116,-0.22254 1.116,-0.2224 1.116,-0.22225 1.116,-0.22211 1.116,-0.22197 1.116,-0.22183 1.116,-0.22168 1.116,-0.22154 1.116,-0.22139 1.116,-0.22126 1.116,-0.22111 1.116,-0.22097 1.116,-0.22082 1.116,-0.22068 1.116,-0.22054 1.116,-0.2204 1.116,-0.22026 1.116,-0.22011 1.116,-0.21997 1.116,-0.21983 1.116,-0.21969 1.116,-0.21955 1.116,-0.2194 1.116,-0.21926 1.116,-0.21912 1.116,-0.21898 1.116,-0.21884 1.116,-0.2187 1.116,-0.21856 1.116,-0.21841 1.116,-0.21828 1.116,-0.21813 1.116,-0.21799 1.116,-0.21786 1.116,-0.21771 1.116,-0.21757 1.116,-0.21743 1.116,-0.21729 1.116,-0.21715 1.116,-0.21701 1.116,-0.21687 1.116,-0.21673 1.116,-0.21659 1.116,-0.21645 1.116,-0.21631 1.116,-0.21618 1.116,-0.21603 1.116,-0.21589 1.116,-0.21576 1.116,-0.21561 1.116,-0.21548 1.116,-0.21533 1.116,-0.2152 1.116,-0.21506 1.116,-0.21492 1.116,-0.21478 1.116,-0.21464 1.116,-0.2145 1.116,-0.21437 1.116,-0.21423 1.116,-0.21409 1.116,-0.21395 1.116,-0.21381 1.116,-0.21368 1.116,-0.21353 1.116,-0.2134 1.116,-0.21326 1.116,-0.21313 1.116,-0.21298 1.116,-0.21285 1.116,-0.21272 1.116,-0.21257 1.116,-0.21244 1.116,-0.2123 1.116,-0.21216 1.116,-0.21203 1.116,-0.21189 1.116,-0.21175 1.116,-0.21162 1.116,-0.21148 1.116,-0.21134 1.116,-0.21121 1.116,-0.21107 1.116,-0.21093 1.116,-0.2108 1.116,-0.21066 1.116,-0.21053 1.116,-0.21039 1.116,-0.21026 1.116,-0.21012 1.116,-0.20998 1.116,-0.20985 1.116,-0.20971 1.116,-0.20958 1.116,-0.20944 1.116,-0.20931"
           inkscape:connector-curvature="0" /></g></g><g
       id="g166"><g
         clip-path="url(#clipPath170)"
         id="g168"><path
           id="path174"
           style="fill:none;stroke:#008000;stroke-width:1;stroke-linecap:square;stroke-linejoin:round;stroke-miterlimit:10;stroke-dasharray:none;stroke-opacity:1"
           d="m 379.62031,346.825 1.116,-1.82939 1.116,-1.81906 1.116,-1.80879 1.116,-1.79858 1.116,-1.78842 1.116,-1.77832 1.116,-1.76829 1.116,-1.75829 1.116,-1.74837 1.116,-1.7385 1.116,-1.72869 1.116,-1.71892 1.116,-1.70922 1.116,-1.69956 1.116,-1.68997 1.116,-1.68043 1.116,-1.67094 1.116,-1.6615 1.116,-1.65213 1.116,-1.64279 1.116,-1.63352 1.116,-1.6243 1.116,-1.61513 1.116,-1.606 1.116,-1.59694 1.116,-1.58792 1.116,-1.57896 1.116,-1.57004 1.116,-1.56117 1.116,-1.55236 1.116,-1.5436 1.116,-1.53488 1.116,-1.52621 1.116,-1.5176 1.116,-1.50903 1.116,-1.5005 1.116,-1.49204 1.116,-1.48361 1.116,-1.47523 1.116,-1.46691 1.116,-1.45862 1.116,-1.45038 1.116,-1.4422 1.116,-1.43405"
           inkscape:connector-curvature="0" /></g></g><g
       id="g176"><g
         clip-path="url(#clipPath180)"
         id="g178"><path
           id="path184"
           style="fill:none;stroke:#008000;stroke-width:1;stroke-linecap:square;stroke-linejoin:round;stroke-miterlimit:10;stroke-dasharray:none;stroke-opacity:1"
           d="m 428.89377,275.15659 1.116,-4.11612 1.116,-4.04898 1.116,-3.98292 1.116,-3.91796 1.116,-3.85405 1.116,-3.79118 1.116,-3.72933 1.116,-3.6685 1.116,-3.60866 1.116,-3.5498 1.116,-3.49188 1.116,-3.43493 1.116,-3.3789 1.116,-3.32377 1.116,-3.26956 1.116,-3.21623 1.116,-3.16376 1.116,-3.11215 1.116,-3.06139 1.116,-3.01144 1.116,-2.96233 1.116,-2.914 1.116,-2.86647 1.116,-2.8197 1.116,-2.77372 1.116,-2.72846"
           inkscape:connector-curvature="0" /></g></g><g
       id="g186"><g
         clip-path="url(#clipPath190)"
         id="g188"><path
           id="path194"
           style="fill:none;stroke:#008000;stroke-width:1;stroke-linecap:square;stroke-linejoin:round;stroke-miterlimit:10;stroke-dasharray:none;stroke-opacity:1"
           d="m 457.91972,187.33627 1.116,-6.1499 1.116,-5.92 1.116,-5.6987 1.116,-5.48566 1.116,-5.28059 1.116,-5.08319 1.116,-4.89316 1.116,-4.71025 1.116,-4.53416 1.116,-4.36466 1.116,-4.2015 1.116,-4.04443 1.116,-3.89324 1.116,-3.7477"
           inkscape:connector-curvature="0" /></g></g><g
       id="g196"><g
         clip-path="url(#clipPath200)"
         id="g198"><path
           id="path204"
           style="fill:none;stroke:#008000;stroke-width:1;stroke-linecap:square;stroke-linejoin:round;stroke-miterlimit:10;stroke-dasharray:none;stroke-opacity:1"
           d="m 473.95184,22.825 1.116,0 1.116,0 1.116,0 1.116,0 1.116,0 1.116,0 1.116,0 1.116,0 1.116,0 1.116,0 1.116,0 1.116,0 1.116,0 1.116,0 1.116,0"
           inkscape:connector-curvature="0" /></g></g><g
       id="g206"><path
         id="path208"
         style="fill:none;stroke:#000000;stroke-width:1;stroke-linecap:square;stroke-linejoin:miter;stroke-miterlimit:10;stroke-dasharray:none;stroke-opacity:1"
         d="m 44.820312,22.825 446.399998,0"
         inkscape:connector-curvature="0" /><path
         id="path210"
         style="fill:none;stroke:#000000;stroke-width:1;stroke-linecap:square;stroke-linejoin:miter;stroke-miterlimit:10;stroke-dasharray:none;stroke-opacity:1"
         d="m 44.820313,22.825 0,345.6"
         inkscape:connector-curvature="0" /><path
         id="path212"
         style="fill:none;stroke:#000000;stroke-width:1;stroke-linecap:square;stroke-linejoin:miter;stroke-miterlimit:10;stroke-dasharray:none;stroke-opacity:1"
         d="m 491.22031,22.825 0,345.6"
         inkscape:connector-curvature="0" /><path
         id="path214"
         style="fill:none;stroke:#000000;stroke-width:1;stroke-linecap:square;stroke-linejoin:miter;stroke-miterlimit:10;stroke-dasharray:none;stroke-opacity:1"
         d="m 44.820312,368.425 446.399998,0"
         inkscape:connector-curvature="0" /><path
         id="path216"
         style="fill:#000000;fill-opacity:1;fill-rule:nonzero;stroke:#000000;stroke-width:0.5;stroke-linecap:butt;stroke-linejoin:round;stroke-miterlimit:10;stroke-dasharray:none;stroke-opacity:1"
         d="m 44.820312,22.825 0,4"
         inkscape:connector-curvature="0" /><path
         id="path218"
         style="fill:#000000;fill-opacity:1;fill-rule:nonzero;stroke:#000000;stroke-width:0.5;stroke-linecap:butt;stroke-linejoin:round;stroke-miterlimit:10;stroke-dasharray:none;stroke-opacity:1"
         d="m 44.820312,368.425 0,-4"
         inkscape:connector-curvature="0" /><g
         transform="translate(30.242187,9.7)"
         id="g220"><text
           id="text222"
           style="font-variant:normal;font-weight:normal;font-size:12px;font-family:'Bitstream Vera Sans';-inkscape-font-specification:BitstreamVeraSans-Roman;writing-mode:lr-tb;fill:#000000;fill-opacity:1;fill-rule:nonzero;stroke:none"
           transform="matrix(1,0,0,-1,10.054688,0)"><tspan
             id="tspan224"
             y="0"
             x="0 7.632 11.448">1.0</tspan></text>
<g
           transform="scale(0.012,0.012)"
           id="g226"><g
             id="g228"><g
               clip-path="url(#clipPath232)"
               id="g230"><path
                 id="path236"
                 style="fill:#000000;fill-opacity:1;fill-rule:nonzero;stroke:none"
                 d="m 106,355 626,0 0,-83 -626,0 0,83"
                 inkscape:connector-curvature="0" /></g></g></g></g><path
         id="path238"
         style="fill:#000000;fill-opacity:1;fill-rule:nonzero;stroke:#000000;stroke-width:0.5;stroke-linecap:butt;stroke-linejoin:round;stroke-miterlimit:10;stroke-dasharray:none;stroke-opacity:1"
         d="m 156.42031,22.825 0,4"
         inkscape:connector-curvature="0" /><path
         id="path240"
         style="fill:#000000;fill-opacity:1;fill-rule:nonzero;stroke:#000000;stroke-width:0.5;stroke-linecap:butt;stroke-linejoin:round;stroke-miterlimit:10;stroke-dasharray:none;stroke-opacity:1"
         d="m 156.42031,368.425 0,-4"
         inkscape:connector-curvature="0" /><g
         transform="translate(141.84219,9.7)"
         id="g242"><text
           id="text244"
           style="font-variant:normal;font-weight:normal;font-size:12px;font-family:'Bitstream Vera Sans';-inkscape-font-specification:BitstreamVeraSans-Roman;writing-mode:lr-tb;fill:#000000;fill-opacity:1;fill-rule:nonzero;stroke:none"
           transform="matrix(1,0,0,-1,10.054688,0)"><tspan
             id="tspan246"
             y="0"
             x="0 7.632 11.448">0.5</tspan></text>
<g
           transform="scale(0.012,0.012)"
           id="g248"><g
             id="g250"><g
               clip-path="url(#clipPath254)"
               id="g252"><path
                 id="path258"
                 style="fill:#000000;fill-opacity:1;fill-rule:nonzero;stroke:none"
                 d="m 106,355 626,0 0,-83 -626,0 0,83"
                 inkscape:connector-curvature="0" /></g></g></g></g><path
         id="path260"
         style="fill:#000000;fill-opacity:1;fill-rule:nonzero;stroke:#000000;stroke-width:0.5;stroke-linecap:butt;stroke-linejoin:round;stroke-miterlimit:10;stroke-dasharray:none;stroke-opacity:1"
         d="m 268.02031,22.825 0,4"
         inkscape:connector-curvature="0" /><path
         id="path262"
         style="fill:#000000;fill-opacity:1;fill-rule:nonzero;stroke:#000000;stroke-width:0.5;stroke-linecap:butt;stroke-linejoin:round;stroke-miterlimit:10;stroke-dasharray:none;stroke-opacity:1"
         d="m 268.02031,368.425 0,-4"
         inkscape:connector-curvature="0" /><text
         id="text264"
         style="font-variant:normal;font-weight:normal;font-size:12px;font-family:'Bitstream Vera Sans';-inkscape-font-specification:BitstreamVeraSans-Roman;writing-mode:lr-tb;fill:#000000;fill-opacity:1;fill-rule:nonzero;stroke:none"
         transform="matrix(1,0,0,-1,258.47344,9.7)"><tspan
           id="tspan266"
           y="0"
           x="0 7.632 11.448">0.0</tspan></text>
<path
         id="path268"
         style="fill:#000000;fill-opacity:1;fill-rule:nonzero;stroke:#000000;stroke-width:0.5;stroke-linecap:butt;stroke-linejoin:round;stroke-miterlimit:10;stroke-dasharray:none;stroke-opacity:1"
         d="m 379.62031,22.825 0,4"
         inkscape:connector-curvature="0" /><path
         id="path270"
         style="fill:#000000;fill-opacity:1;fill-rule:nonzero;stroke:#000000;stroke-width:0.5;stroke-linecap:butt;stroke-linejoin:round;stroke-miterlimit:10;stroke-dasharray:none;stroke-opacity:1"
         d="m 379.62031,368.425 0,-4"
         inkscape:connector-curvature="0" /><text
         id="text272"
         style="font-variant:normal;font-weight:normal;font-size:12px;font-family:'Bitstream Vera Sans';-inkscape-font-specification:BitstreamVeraSans-Roman;writing-mode:lr-tb;fill:#000000;fill-opacity:1;fill-rule:nonzero;stroke:none"
         transform="matrix(1,0,0,-1,370.07344,9.7)"><tspan
           id="tspan274"
           y="0"
           x="0 7.632 11.448">0.5</tspan></text>
<path
         id="path276"
         style="fill:#000000;fill-opacity:1;fill-rule:nonzero;stroke:#000000;stroke-width:0.5;stroke-linecap:butt;stroke-linejoin:round;stroke-miterlimit:10;stroke-dasharray:none;stroke-opacity:1"
         d="m 491.22031,22.825 0,4"
         inkscape:connector-curvature="0" /><path
         id="path278"
         style="fill:#000000;fill-opacity:1;fill-rule:nonzero;stroke:#000000;stroke-width:0.5;stroke-linecap:butt;stroke-linejoin:round;stroke-miterlimit:10;stroke-dasharray:none;stroke-opacity:1"
         d="m 491.22031,368.425 0,-4"
         inkscape:connector-curvature="0" /><text
         id="text280"
         style="font-variant:normal;font-weight:normal;font-size:12px;font-family:'Bitstream Vera Sans';-inkscape-font-specification:BitstreamVeraSans-Roman;writing-mode:lr-tb;fill:#000000;fill-opacity:1;fill-rule:nonzero;stroke:none"
         transform="matrix(1,0,0,-1,481.67344,9.7)"><tspan
           id="tspan282"
           y="0"
           x="0 7.632 11.448">1.0</tspan></text>
<path
         id="path284"
         style="fill:#000000;fill-opacity:1;fill-rule:nonzero;stroke:#000000;stroke-width:0.5;stroke-linecap:butt;stroke-linejoin:round;stroke-miterlimit:10;stroke-dasharray:none;stroke-opacity:1"
         d="m 44.820313,22.825 4,0"
         inkscape:connector-curvature="0" /><path
         id="path286"
         style="fill:#000000;fill-opacity:1;fill-rule:nonzero;stroke:#000000;stroke-width:0.5;stroke-linecap:butt;stroke-linejoin:round;stroke-miterlimit:10;stroke-dasharray:none;stroke-opacity:1"
         d="m 491.22031,22.825 -4,0"
         inkscape:connector-curvature="0" /><text
         id="text288"
         style="font-variant:normal;font-weight:normal;font-size:12px;font-family:'Bitstream Vera Sans';-inkscape-font-specification:BitstreamVeraSans-Roman;writing-mode:lr-tb;fill:#000000;fill-opacity:1;fill-rule:nonzero;stroke:none"
         transform="matrix(1,0,0,-1,21.726562,19.5125)"><tspan
           id="tspan290"
           y="0"
           x="0 7.632 11.448">0.0</tspan></text>
<path
         id="path292"
         style="fill:#000000;fill-opacity:1;fill-rule:nonzero;stroke:#000000;stroke-width:0.5;stroke-linecap:butt;stroke-linejoin:round;stroke-miterlimit:10;stroke-dasharray:none;stroke-opacity:1"
         d="m 44.820313,91.945 4,0"
         inkscape:connector-curvature="0" /><path
         id="path294"
         style="fill:#000000;fill-opacity:1;fill-rule:nonzero;stroke:#000000;stroke-width:0.5;stroke-linecap:butt;stroke-linejoin:round;stroke-miterlimit:10;stroke-dasharray:none;stroke-opacity:1"
         d="m 491.22031,91.945 -4,0"
         inkscape:connector-curvature="0" /><text
         id="text296"
         style="font-variant:normal;font-weight:normal;font-size:12px;font-family:'Bitstream Vera Sans';-inkscape-font-specification:BitstreamVeraSans-Roman;writing-mode:lr-tb;fill:#000000;fill-opacity:1;fill-rule:nonzero;stroke:none"
         transform="matrix(1,0,0,-1,21.726562,88.6325)"><tspan
           id="tspan298"
           y="0"
           x="0 7.632 11.448">0.2</tspan></text>
<path
         id="path300"
         style="fill:#000000;fill-opacity:1;fill-rule:nonzero;stroke:#000000;stroke-width:0.5;stroke-linecap:butt;stroke-linejoin:round;stroke-miterlimit:10;stroke-dasharray:none;stroke-opacity:1"
         d="m 44.820313,161.065 4,0"
         inkscape:connector-curvature="0" /><path
         id="path302"
         style="fill:#000000;fill-opacity:1;fill-rule:nonzero;stroke:#000000;stroke-width:0.5;stroke-linecap:butt;stroke-linejoin:round;stroke-miterlimit:10;stroke-dasharray:none;stroke-opacity:1"
         d="m 491.22031,161.065 -4,0"
         inkscape:connector-curvature="0" /><text
         id="text304"
         style="font-variant:normal;font-weight:normal;font-size:12px;font-family:'Bitstream Vera Sans';-inkscape-font-specification:BitstreamVeraSans-Roman;writing-mode:lr-tb;fill:#000000;fill-opacity:1;fill-rule:nonzero;stroke:none"
         transform="matrix(1,0,0,-1,21.726562,157.7525)"><tspan
           id="tspan306"
           y="0"
           x="0 7.632 11.448">0.4</tspan></text>
<path
         id="path308"
         style="fill:#000000;fill-opacity:1;fill-rule:nonzero;stroke:#000000;stroke-width:0.5;stroke-linecap:butt;stroke-linejoin:round;stroke-miterlimit:10;stroke-dasharray:none;stroke-opacity:1"
         d="m 44.820313,230.185 4,0"
         inkscape:connector-curvature="0" /><path
         id="path310"
         style="fill:#000000;fill-opacity:1;fill-rule:nonzero;stroke:#000000;stroke-width:0.5;stroke-linecap:butt;stroke-linejoin:round;stroke-miterlimit:10;stroke-dasharray:none;stroke-opacity:1"
         d="m 491.22031,230.185 -4,0"
         inkscape:connector-curvature="0" /><text
         id="text312"
         style="font-variant:normal;font-weight:normal;font-size:12px;font-family:'Bitstream Vera Sans';-inkscape-font-specification:BitstreamVeraSans-Roman;writing-mode:lr-tb;fill:#000000;fill-opacity:1;fill-rule:nonzero;stroke:none"
         transform="matrix(1,0,0,-1,21.726562,226.8725)"><tspan
           id="tspan314"
           y="0"
           x="0 7.632 11.448">0.6</tspan></text>
<path
         id="path316"
         style="fill:#000000;fill-opacity:1;fill-rule:nonzero;stroke:#000000;stroke-width:0.5;stroke-linecap:butt;stroke-linejoin:round;stroke-miterlimit:10;stroke-dasharray:none;stroke-opacity:1"
         d="m 44.820313,299.305 4,0"
         inkscape:connector-curvature="0" /><path
         id="path318"
         style="fill:#000000;fill-opacity:1;fill-rule:nonzero;stroke:#000000;stroke-width:0.5;stroke-linecap:butt;stroke-linejoin:round;stroke-miterlimit:10;stroke-dasharray:none;stroke-opacity:1"
         d="m 491.22031,299.305 -4,0"
         inkscape:connector-curvature="0" /><text
         id="text320"
         style="font-variant:normal;font-weight:normal;font-size:12px;font-family:'Bitstream Vera Sans';-inkscape-font-specification:BitstreamVeraSans-Roman;writing-mode:lr-tb;fill:#000000;fill-opacity:1;fill-rule:nonzero;stroke:none"
         transform="matrix(1,0,0,-1,21.726562,295.9925)"><tspan
           id="tspan322"
           y="0"
           x="0 7.632 11.448">0.8</tspan></text>
<path
         id="path324"
         style="fill:#000000;fill-opacity:1;fill-rule:nonzero;stroke:#000000;stroke-width:0.5;stroke-linecap:butt;stroke-linejoin:round;stroke-miterlimit:10;stroke-dasharray:none;stroke-opacity:1"
         d="m 44.820313,368.425 4,0"
         inkscape:connector-curvature="0" /><path
         id="path326"
         style="fill:#000000;fill-opacity:1;fill-rule:nonzero;stroke:#000000;stroke-width:0.5;stroke-linecap:butt;stroke-linejoin:round;stroke-miterlimit:10;stroke-dasharray:none;stroke-opacity:1"
         d="m 491.22031,368.425 -4,0"
         inkscape:connector-curvature="0" /><text
         id="text328"
         style="font-variant:normal;font-weight:normal;font-size:12px;font-family:'Bitstream Vera Sans';-inkscape-font-specification:BitstreamVeraSans-Roman;writing-mode:lr-tb;fill:#000000;fill-opacity:1;fill-rule:nonzero;stroke:none"
         transform="matrix(1,0,0,-1,21.726562,365.1125)"><tspan
           id="tspan330"
           y="0"
           x="0 7.632 11.448">1.0</tspan></text>
</g></g></svg>