<?xml version="1.0" encoding="UTF-8" standalone="no"?>
<svg
   xmlns:dc="http://purl.org/dc/elements/1.1/"
   xmlns:cc="http://creativecommons.org/ns#"
   xmlns:rdf="http://www.w3.org/1999/02/22-rdf-syntax-ns#"
   xmlns:svg="http://www.w3.org/2000/svg"
   xmlns="http://www.w3.org/2000/svg"
   viewBox="0 0 616.80078 476.79688"
   height="476.79688"
   width="616.80078"
   xml:space="preserve"
   version="1.1"
   id="svg2"><metadata
     id="metadata8"><rdf:RDF><cc:Work
         rdf:about=""><dc:format>image/svg+xml</dc:format><dc:type
           rdf:resource="http://purl.org/dc/dcmitype/StillImage" /></cc:Work></rdf:RDF></metadata><defs
     id="defs6"><clipPath
       id="clipPath20"
       clipPathUnits="userSpaceOnUse"><path
         id="path22"
         d="m 30.29375,22.825 446.4,0 0,345.6 -446.4,0 0,-345.6 z" /></clipPath><clipPath
       id="clipPath30"
       clipPathUnits="userSpaceOnUse"><path
         id="path32"
         d="m 30.29375,22.825 446.4,0 0,345.6 -446.4,0 0,-345.6 z" /></clipPath><clipPath
       id="clipPath40"
       clipPathUnits="userSpaceOnUse"><path
         id="path42"
         d="m 30.29375,22.825 446.4,0 0,345.6 -446.4,0 0,-345.6 z" /></clipPath><clipPath
       id="clipPath50"
       clipPathUnits="userSpaceOnUse"><path
         id="path52"
         d="m 30.29375,22.825 446.4,0 0,345.6 -446.4,0 0,-345.6 z" /></clipPath><clipPath
       id="clipPath60"
       clipPathUnits="userSpaceOnUse"><path
         id="path62"
         d="m 30.29375,22.825 446.4,0 0,345.6 -446.4,0 0,-345.6 z" /></clipPath><clipPath
       id="clipPath70"
       clipPathUnits="userSpaceOnUse"><path
         id="path72"
         d="m 30.29375,22.825 446.4,0 0,345.6 -446.4,0 0,-345.6 z" /></clipPath><clipPath
       id="clipPath80"
       clipPathUnits="userSpaceOnUse"><path
         id="path82"
         d="m 30.29375,22.825 446.4,0 0,345.6 -446.4,0 0,-345.6 z" /></clipPath><clipPath
       id="clipPath90"
       clipPathUnits="userSpaceOnUse"><path
         id="path92"
         d="m 30.29375,22.825 446.4,0 0,345.6 -446.4,0 0,-345.6 z" /></clipPath><clipPath
       id="clipPath100"
       clipPathUnits="userSpaceOnUse"><path
         id="path102"
         d="m 30.29375,22.825 446.4,0 0,345.6 -446.4,0 0,-345.6 z" /></clipPath></defs><g
     transform="matrix(1.25,0,0,-1.25,0,476.79687)"
     id="g10"><path
       id="path12"
       style="fill:#ffffff;fill-opacity:1;fill-rule:nonzero;stroke:none"
       d="m 0,0 493.44062,0 0,381.4375 L 0,381.4375 0,0 Z" /><path
       id="path14"
       style="fill:#ffffff;fill-opacity:1;fill-rule:nonzero;stroke:none"
       d="m 30.29375,22.825 446.4,0 0,345.6 -446.4,0 0,-345.6 z" /><g
       id="g16"><g
         clip-path="url(#clipPath20)"
         id="g18"><path
           id="path24"
           style="fill:none;stroke:#000000;stroke-width:1;stroke-linecap:square;stroke-linejoin:round;stroke-miterlimit:10;stroke-dasharray:none;stroke-opacity:1"
           d="m 30.29375,368.425 3.72,-16.65295 3.72,-15.47766 3.72,-14.41044 3.72,-13.43912 3.72,-12.55316 3.72,-11.74342 3.72,-11.00184 3.72,-10.32141 3.72,-9.69596 3.72,-9.12004 3.72,-8.58884 3.72,-8.09812 3.72,-7.64407 4.464,-8.62024 4.464,-8.06617 4.464,-7.55859 4.464,-7.09271 4.464,-6.66436 4.464,-6.2698 4.464,-5.9058 4.464,-5.56944 4.464,-5.25814 5.208,-5.77132 5.208,-5.41119 5.208,-5.08044 5.208,-4.77608 5.208,-4.49556 5.952,-4.82185 5.952,-4.51246 5.952,-4.22901 5.952,-3.9688 6.696,-4.17982 6.696,-3.90361 6.696,-3.6512 7.44,-3.78668 7.44,-3.527374 7.44,-3.291203 8.184,-3.372094 8.184,-3.135626 8.928,-3.176313 8.928,-2.945355 9.672,-2.955463 10.416,-2.936315 10.416,-2.706714 11.16,-2.671706 11.904,-2.616918 12.648,-2.545804 13.392,-2.461649 14.136,-2.367493 14.88,-2.266084 15.624,-2.159853 17.112,-2.139418 18.6,-2.091756 19.344,-1.951485 20.832,-1.881094 23.064,-1.853503 8.184,-0.60648 0,0" /></g></g><g
       id="g26"><g
         clip-path="url(#clipPath30)"
         id="g28"><path
           id="path34"
           style="fill:none;stroke:#ff0000;stroke-width:1;stroke-linecap:square;stroke-linejoin:round;stroke-miterlimit:10;stroke-dasharray:none;stroke-opacity:1"
           d="m 30.29375,368.425 8.184,-19.66796 8.184,-19.09179 8.184,-18.51563 8.184,-17.93947 8.184,-17.3633 7.44,-15.28485 7.44,-14.80868 7.44,-14.33251 7.44,-13.85635 7.44,-13.38018 7.44,-12.90401 7.44,-12.42784 6.696,-10.77794 6.696,-10.39224 6.696,-10.00655 6.696,-9.62085 6.696,-9.23516 6.696,-8.84946 0.744,-0.95946 0,0" /></g></g><g
       id="g36"><g
         clip-path="url(#clipPath40)"
         id="g38"><path
           id="path44"
           style="fill:none;stroke:#ff0000;stroke-width:1;stroke-linecap:square;stroke-linejoin:round;stroke-miterlimit:10;stroke-dasharray:none;stroke-opacity:1"
           d="m 164.9559,118.05843 15.624,-6.59039 15.624,-6.35412 15.624,-6.117823 15.624,-5.881542 15.624,-5.645256 15.624,-5.408971 15.624,-5.172687 15.624,-4.9364 15.624,-4.700116 15.624,-4.46383 3.72,-1.02799 0,0" /></g></g><g
       id="g46"><g
         clip-path="url(#clipPath50)"
         id="g48"><path
           id="path54"
           style="fill:none;stroke:#ff0000;stroke-width:1;stroke-linecap:square;stroke-linejoin:round;stroke-miterlimit:10;stroke-dasharray:none;stroke-opacity:1"
           d="m 325.08569,61.712704 35.712,-4.098022 35.712,-3.869908 35.712,-3.641795 34.968,-3.34489 9.50406,-0.871318 0,0" /></g></g><g
       id="g56"><g
         clip-path="url(#clipPath60)"
         id="g58"><path
           id="path64"
           style="fill:none;stroke:#ff0000;stroke-width:1;stroke-linecap:square;stroke-linejoin:round;stroke-miterlimit:10;stroke-dasharray:none;stroke-opacity:1"
           d="m 494.44062,41.44168 -17.74687,0.389092" /></g></g><g
       id="g66"><g
         clip-path="url(#clipPath70)"
         id="g68"><path
           id="path74"
           style="fill:none;stroke:#008000;stroke-width:1;stroke-linecap:square;stroke-linejoin:round;stroke-miterlimit:10;stroke-dasharray:none;stroke-opacity:1"
           d="m 30.29375,230.03471 11.16,-10.9135 11.16,-10.61827 11.16,-10.32305 11.16,-10.02781 11.16,-9.73259 11.16,-9.43736 11.16,-9.14213 11.16,-8.84691 11.16,-8.55167 11.16,-8.25645 10.416,-7.43966 10.416,-7.18248 1.488,-1.00507 0,0" /></g></g><g
       id="g76"><g
         clip-path="url(#clipPath80)"
         id="g78"><path
           id="path84"
           style="fill:none;stroke:#008000;stroke-width:1;stroke-linecap:square;stroke-linejoin:round;stroke-miterlimit:10;stroke-dasharray:none;stroke-opacity:1"
           d="m 164.9559,94.855864 23.808,-5.569111 23.808,-5.345073 23.808,-5.121037 23.808,-4.896998 23.808,-4.672961 23.808,-4.448924 17.112,-3.059281 0,0" /></g></g><g
       id="g86"><g
         clip-path="url(#clipPath90)"
         id="g88"><path
           id="path94"
           style="fill:none;stroke:#008000;stroke-width:1;stroke-linecap:square;stroke-linejoin:round;stroke-miterlimit:10;stroke-dasharray:none;stroke-opacity:1"
           d="m 325.08569,53.827413 52.824,-3.629287 52.824,-3.403431 45.96006,-2.777448 0,0" /></g></g><g
       id="g96"><g
         clip-path="url(#clipPath100)"
         id="g98"><path
           id="path104"
           style="fill:none;stroke:#008000;stroke-width:1;stroke-linecap:square;stroke-linejoin:round;stroke-miterlimit:10;stroke-dasharray:none;stroke-opacity:1"
           d="m 494.44062,30.372867 -17.74687,0.100135" /></g></g><g
       id="g106"><path
         id="path108"
         style="fill:none;stroke:#000000;stroke-width:1;stroke-linecap:square;stroke-linejoin:miter;stroke-miterlimit:10;stroke-dasharray:none;stroke-opacity:1"
         d="m 476.69375,22.825 0,345.6" /><path
         id="path110"
         style="fill:none;stroke:#000000;stroke-width:1;stroke-linecap:square;stroke-linejoin:miter;stroke-miterlimit:10;stroke-dasharray:none;stroke-opacity:1"
         d="m 30.29375,22.825 446.4,0" /><path
         id="path112"
         style="fill:none;stroke:#000000;stroke-width:1;stroke-linecap:square;stroke-linejoin:miter;stroke-miterlimit:10;stroke-dasharray:none;stroke-opacity:1"
         d="m 30.29375,22.825 0,345.6" /><path
         id="path114"
         style="fill:none;stroke:#000000;stroke-width:1;stroke-linecap:square;stroke-linejoin:miter;stroke-miterlimit:10;stroke-dasharray:none;stroke-opacity:1"
         d="m 30.29375,368.425 446.4,0" /><path
         id="path116"
         style="fill:#000000;fill-opacity:1;fill-rule:nonzero;stroke:#000000;stroke-width:0.5;stroke-linecap:butt;stroke-linejoin:round;stroke-miterlimit:10;stroke-dasharray:none;stroke-opacity:1"
         d="m 30.29375,22.825 0,4" /><path
         id="path118"
         style="fill:#000000;fill-opacity:1;fill-rule:nonzero;stroke:#000000;stroke-width:0.5;stroke-linecap:butt;stroke-linejoin:round;stroke-miterlimit:10;stroke-dasharray:none;stroke-opacity:1"
         d="m 30.29375,368.425 0,-4" /><text
         id="text120"
         style="font-variant:normal;font-weight:normal;font-size:12px;font-family:'Bitstream Vera Sans';-inkscape-font-specification:BitstreamVeraSans-Roman;writing-mode:lr-tb;fill:#000000;fill-opacity:1;fill-rule:nonzero;stroke:none"
         transform="matrix(1,0,0,-1,20.746875,9.7)"><tspan
           id="tspan122"
           y="0"
           x="0 7.632 11.448">0.0</tspan></text>
<path
         id="path124"
         style="fill:#000000;fill-opacity:1;fill-rule:nonzero;stroke:#000000;stroke-width:0.5;stroke-linecap:butt;stroke-linejoin:round;stroke-miterlimit:10;stroke-dasharray:none;stroke-opacity:1"
         d="m 104.69375,22.825 0,4" /><path
         id="path126"
         style="fill:#000000;fill-opacity:1;fill-rule:nonzero;stroke:#000000;stroke-width:0.5;stroke-linecap:butt;stroke-linejoin:round;stroke-miterlimit:10;stroke-dasharray:none;stroke-opacity:1"
         d="m 104.69375,368.425 0,-4" /><text
         id="text128"
         style="font-variant:normal;font-weight:normal;font-size:12px;font-family:'Bitstream Vera Sans';-inkscape-font-specification:BitstreamVeraSans-Roman;writing-mode:lr-tb;fill:#000000;fill-opacity:1;fill-rule:nonzero;stroke:none"
         transform="matrix(1,0,0,-1,95.146875,9.7)"><tspan
           id="tspan130"
           y="0"
           x="0 7.632 11.448">0.5</tspan></text>
<path
         id="path132"
         style="fill:#000000;fill-opacity:1;fill-rule:nonzero;stroke:#000000;stroke-width:0.5;stroke-linecap:butt;stroke-linejoin:round;stroke-miterlimit:10;stroke-dasharray:none;stroke-opacity:1"
         d="m 179.09375,22.825 0,4" /><path
         id="path134"
         style="fill:#000000;fill-opacity:1;fill-rule:nonzero;stroke:#000000;stroke-width:0.5;stroke-linecap:butt;stroke-linejoin:round;stroke-miterlimit:10;stroke-dasharray:none;stroke-opacity:1"
         d="m 179.09375,368.425 0,-4" /><text
         id="text136"
         style="font-variant:normal;font-weight:normal;font-size:12px;font-family:'Bitstream Vera Sans';-inkscape-font-specification:BitstreamVeraSans-Roman;writing-mode:lr-tb;fill:#000000;fill-opacity:1;fill-rule:nonzero;stroke:none"
         transform="matrix(1,0,0,-1,169.54687,9.7)"><tspan
           id="tspan138"
           y="0"
           x="0 7.632 11.448">1.0</tspan></text>
<path
         id="path140"
         style="fill:#000000;fill-opacity:1;fill-rule:nonzero;stroke:#000000;stroke-width:0.5;stroke-linecap:butt;stroke-linejoin:round;stroke-miterlimit:10;stroke-dasharray:none;stroke-opacity:1"
         d="m 253.49375,22.825 0,4" /><path
         id="path142"
         style="fill:#000000;fill-opacity:1;fill-rule:nonzero;stroke:#000000;stroke-width:0.5;stroke-linecap:butt;stroke-linejoin:round;stroke-miterlimit:10;stroke-dasharray:none;stroke-opacity:1"
         d="m 253.49375,368.425 0,-4" /><text
         id="text144"
         style="font-variant:normal;font-weight:normal;font-size:12px;font-family:'Bitstream Vera Sans';-inkscape-font-specification:BitstreamVeraSans-Roman;writing-mode:lr-tb;fill:#000000;fill-opacity:1;fill-rule:nonzero;stroke:none"
         transform="matrix(1,0,0,-1,243.94687,9.7)"><tspan
           id="tspan146"
           y="0"
           x="0 7.632 11.448">1.5</tspan></text>
<path
         id="path148"
         style="fill:#000000;fill-opacity:1;fill-rule:nonzero;stroke:#000000;stroke-width:0.5;stroke-linecap:butt;stroke-linejoin:round;stroke-miterlimit:10;stroke-dasharray:none;stroke-opacity:1"
         d="m 327.89375,22.825 0,4" /><path
         id="path150"
         style="fill:#000000;fill-opacity:1;fill-rule:nonzero;stroke:#000000;stroke-width:0.5;stroke-linecap:butt;stroke-linejoin:round;stroke-miterlimit:10;stroke-dasharray:none;stroke-opacity:1"
         d="m 327.89375,368.425 0,-4" /><text
         id="text152"
         style="font-variant:normal;font-weight:normal;font-size:12px;font-family:'Bitstream Vera Sans';-inkscape-font-specification:BitstreamVeraSans-Roman;writing-mode:lr-tb;fill:#000000;fill-opacity:1;fill-rule:nonzero;stroke:none"
         transform="matrix(1,0,0,-1,318.34687,9.7)"><tspan
           id="tspan154"
           y="0"
           x="0 7.632 11.448">2.0</tspan></text>
<path
         id="path156"
         style="fill:#000000;fill-opacity:1;fill-rule:nonzero;stroke:#000000;stroke-width:0.5;stroke-linecap:butt;stroke-linejoin:round;stroke-miterlimit:10;stroke-dasharray:none;stroke-opacity:1"
         d="m 402.29375,22.825 0,4" /><path
         id="path158"
         style="fill:#000000;fill-opacity:1;fill-rule:nonzero;stroke:#000000;stroke-width:0.5;stroke-linecap:butt;stroke-linejoin:round;stroke-miterlimit:10;stroke-dasharray:none;stroke-opacity:1"
         d="m 402.29375,368.425 0,-4" /><text
         id="text160"
         style="font-variant:normal;font-weight:normal;font-size:12px;font-family:'Bitstream Vera Sans';-inkscape-font-specification:BitstreamVeraSans-Roman;writing-mode:lr-tb;fill:#000000;fill-opacity:1;fill-rule:nonzero;stroke:none"
         transform="matrix(1,0,0,-1,392.74687,9.7)"><tspan
           id="tspan162"
           y="0"
           x="0 7.632 11.448">2.5</tspan></text>
<path
         id="path164"
         style="fill:#000000;fill-opacity:1;fill-rule:nonzero;stroke:#000000;stroke-width:0.5;stroke-linecap:butt;stroke-linejoin:round;stroke-miterlimit:10;stroke-dasharray:none;stroke-opacity:1"
         d="m 476.69375,22.825 0,4" /><path
         id="path166"
         style="fill:#000000;fill-opacity:1;fill-rule:nonzero;stroke:#000000;stroke-width:0.5;stroke-linecap:butt;stroke-linejoin:round;stroke-miterlimit:10;stroke-dasharray:none;stroke-opacity:1"
         d="m 476.69375,368.425 0,-4" /><text
         id="text168"
         style="font-variant:normal;font-weight:normal;font-size:12px;font-family:'Bitstream Vera Sans';-inkscape-font-specification:BitstreamVeraSans-Roman;writing-mode:lr-tb;fill:#000000;fill-opacity:1;fill-rule:nonzero;stroke:none"
         transform="matrix(1,0,0,-1,467.14688,9.7)"><tspan
           id="tspan170"
           y="0"
           x="0 7.632 11.448">3.0</tspan></text>
<path
         id="path172"
         style="fill:#000000;fill-opacity:1;fill-rule:nonzero;stroke:#000000;stroke-width:0.5;stroke-linecap:butt;stroke-linejoin:round;stroke-miterlimit:10;stroke-dasharray:none;stroke-opacity:1"
         d="m 30.29375,22.825 4,0" /><path
         id="path174"
         style="fill:#000000;fill-opacity:1;fill-rule:nonzero;stroke:#000000;stroke-width:0.5;stroke-linecap:butt;stroke-linejoin:round;stroke-miterlimit:10;stroke-dasharray:none;stroke-opacity:1"
         d="m 476.69375,22.825 -4,0" /><text
         id="text176"
         style="font-variant:normal;font-weight:normal;font-size:12px;font-family:'Bitstream Vera Sans';-inkscape-font-specification:BitstreamVeraSans-Roman;writing-mode:lr-tb;fill:#000000;fill-opacity:1;fill-rule:nonzero;stroke:none"
         transform="matrix(1,0,0,-1,7.2,19.5125)"><tspan
           id="tspan178"
           y="0"
           x="0 7.632 11.448">0.0</tspan></text>
<path
         id="path180"
         style="fill:#000000;fill-opacity:1;fill-rule:nonzero;stroke:#000000;stroke-width:0.5;stroke-linecap:butt;stroke-linejoin:round;stroke-miterlimit:10;stroke-dasharray:none;stroke-opacity:1"
         d="m 30.29375,91.945 4,0" /><path
         id="path182"
         style="fill:#000000;fill-opacity:1;fill-rule:nonzero;stroke:#000000;stroke-width:0.5;stroke-linecap:butt;stroke-linejoin:round;stroke-miterlimit:10;stroke-dasharray:none;stroke-opacity:1"
         d="m 476.69375,91.945 -4,0" /><text
         id="text184"
         style="font-variant:normal;font-weight:normal;font-size:12px;font-family:'Bitstream Vera Sans';-inkscape-font-specification:BitstreamVeraSans-Roman;writing-mode:lr-tb;fill:#000000;fill-opacity:1;fill-rule:nonzero;stroke:none"
         transform="matrix(1,0,0,-1,7.2,88.6325)"><tspan
           id="tspan186"
           y="0"
           x="0 7.632 11.448">0.2</tspan></text>
<path
         id="path188"
         style="fill:#000000;fill-opacity:1;fill-rule:nonzero;stroke:#000000;stroke-width:0.5;stroke-linecap:butt;stroke-linejoin:round;stroke-miterlimit:10;stroke-dasharray:none;stroke-opacity:1"
         d="m 30.29375,161.065 4,0" /><path
         id="path190"
         style="fill:#000000;fill-opacity:1;fill-rule:nonzero;stroke:#000000;stroke-width:0.5;stroke-linecap:butt;stroke-linejoin:round;stroke-miterlimit:10;stroke-dasharray:none;stroke-opacity:1"
         d="m 476.69375,161.065 -4,0" /><text
         id="text192"
         style="font-variant:normal;font-weight:normal;font-size:12px;font-family:'Bitstream Vera Sans';-inkscape-font-specification:BitstreamVeraSans-Roman;writing-mode:lr-tb;fill:#000000;fill-opacity:1;fill-rule:nonzero;stroke:none"
         transform="matrix(1,0,0,-1,7.2,157.7525)"><tspan
           id="tspan194"
           y="0"
           x="0 7.632 11.448">0.4</tspan></text>
<path
         id="path196"
         style="fill:#000000;fill-opacity:1;fill-rule:nonzero;stroke:#000000;stroke-width:0.5;stroke-linecap:butt;stroke-linejoin:round;stroke-miterlimit:10;stroke-dasharray:none;stroke-opacity:1"
         d="m 30.29375,230.185 4,0" /><path
         id="path198"
         style="fill:#000000;fill-opacity:1;fill-rule:nonzero;stroke:#000000;stroke-width:0.5;stroke-linecap:butt;stroke-linejoin:round;stroke-miterlimit:10;stroke-dasharray:none;stroke-opacity:1"
         d="m 476.69375,230.185 -4,0" /><text
         id="text200"
         style="font-variant:normal;font-weight:normal;font-size:12px;font-family:'Bitstream Vera Sans';-inkscape-font-specification:BitstreamVeraSans-Roman;writing-mode:lr-tb;fill:#000000;fill-opacity:1;fill-rule:nonzero;stroke:none"
         transform="matrix(1,0,0,-1,7.2,226.8725)"><tspan
           id="tspan202"
           y="0"
           x="0 7.632 11.448">0.6</tspan></text>
<path
         id="path204"
         style="fill:#000000;fill-opacity:1;fill-rule:nonzero;stroke:#000000;stroke-width:0.5;stroke-linecap:butt;stroke-linejoin:round;stroke-miterlimit:10;stroke-dasharray:none;stroke-opacity:1"
         d="m 30.29375,299.305 4,0" /><path
         id="path206"
         style="fill:#000000;fill-opacity:1;fill-rule:nonzero;stroke:#000000;stroke-width:0.5;stroke-linecap:butt;stroke-linejoin:round;stroke-miterlimit:10;stroke-dasharray:none;stroke-opacity:1"
         d="m 476.69375,299.305 -4,0" /><text
         id="text208"
         style="font-variant:normal;font-weight:normal;font-size:12px;font-family:'Bitstream Vera Sans';-inkscape-font-specification:BitstreamVeraSans-Roman;writing-mode:lr-tb;fill:#000000;fill-opacity:1;fill-rule:nonzero;stroke:none"
         transform="matrix(1,0,0,-1,7.2,295.9925)"><tspan
           id="tspan210"
           y="0"
           x="0 7.632 11.448">0.8</tspan></text>
<path
         id="path212"
         style="fill:#000000;fill-opacity:1;fill-rule:nonzero;stroke:#000000;stroke-width:0.5;stroke-linecap:butt;stroke-linejoin:round;stroke-miterlimit:10;stroke-dasharray:none;stroke-opacity:1"
         d="m 30.29375,368.425 4,0" /><path
         id="path214"
         style="fill:#000000;fill-opacity:1;fill-rule:nonzero;stroke:#000000;stroke-width:0.5;stroke-linecap:butt;stroke-linejoin:round;stroke-miterlimit:10;stroke-dasharray:none;stroke-opacity:1"
         d="m 476.69375,368.425 -4,0" /><text
         id="text216"
         style="font-variant:normal;font-weight:normal;font-size:12px;font-family:'Bitstream Vera Sans';-inkscape-font-specification:BitstreamVeraSans-Roman;writing-mode:lr-tb;fill:#000000;fill-opacity:1;fill-rule:nonzero;stroke:none"
         transform="matrix(1,0,0,-1,7.2,365.1125)"><tspan
           id="tspan218"
           y="0"
           x="0 7.632 11.448">1.0</tspan></text>
</g></g></svg>