<?xml version="1.0" encoding="UTF-8" standalone="no"?>
<svg
   xmlns:dc="http://purl.org/dc/elements/1.1/"
   xmlns:cc="http://creativecommons.org/ns#"
   xmlns:rdf="http://www.w3.org/1999/02/22-rdf-syntax-ns#"
   xmlns:svg="http://www.w3.org/2000/svg"
   xmlns="http://www.w3.org/2000/svg"
   viewBox="0 0 609.64258 476.79688"
   height="476.79688"
   width="609.64258"
   xml:space="preserve"
   version="1.1"
   id="svg2"><metadata
     id="metadata8"><rdf:RDF><cc:Work
         rdf:about=""><dc:format>image/svg+xml</dc:format><dc:type
           rdf:resource="http://purl.org/dc/dcmitype/StillImage" /></cc:Work></rdf:RDF></metadata><defs
     id="defs6"><clipPath
       id="clipPath20"
       clipPathUnits="userSpaceOnUse"><path
         id="path22"
         d="m 30.29375,22.825 446.4,0 0,345.6 -446.4,0 0,-345.6 z" /></clipPath><clipPath
       id="clipPath30"
       clipPathUnits="userSpaceOnUse"><path
         id="path32"
         d="m 30.29375,22.825 446.4,0 0,345.6 -446.4,0 0,-345.6 z" /></clipPath></defs><g
     transform="matrix(1.25,0,0,-1.25,0,476.79687)"
     id="g10"><path
       id="path12"
       style="fill:#ffffff;fill-opacity:1;fill-rule:nonzero;stroke:none"
       d="m 0,0 487.71406,0 0,381.4375 L 0,381.4375 0,0 Z" /><path
       id="path14"
       style="fill:#ffffff;fill-opacity:1;fill-rule:nonzero;stroke:none"
       d="m 30.29375,22.825 446.4,0 0,345.6 -446.4,0 0,-345.6 z" /><g
       id="g16"><g
         clip-path="url(#clipPath20)"
         id="g18"><path
           id="path24"
           style="fill:none;stroke:#ff0000;stroke-width:1;stroke-linecap:butt;stroke-linejoin:miter;stroke-miterlimit:10;stroke-dasharray:none;stroke-opacity:1"
           d="m 30.299729,22.825 0,23.8176 4.217857,0 0,21.1392 4.217857,0 0,18.4032 4.217856,0 0,18.288 4.217857,0 0,16.0416 4.217857,0 0,15.4656 4.217856,0 0,14.544 4.217857,0 0,14.0544 4.217857,0 0,12.7008 4.217856,0 0,11.0592 4.217857,0 0,10.6848 4.217856,0 0,10.2528 4.217857,0 0,8.352 4.217857,0 0,7.3728 4.217856,0 0,6.2784 4.217857,0 0,6.9408 4.217857,0 0,6.1632 4.217854,0 0,5.3568 4.21786,0 0,4.5792 4.21786,0 0,4.6368 4.21785,0 0,4.1472 4.21786,0 0,3.744 4.21785,0 0,3.4272 4.21786,0 0,3.456 4.21786,0 0,3.2544 4.21785,0 0,2.9952 4.21786,0 0,1.7856 4.21786,0 0,2.5344 4.21785,0 0,2.5056 4.21786,0 0,2.1888 4.21786,0 0,1.7856 4.21785,0 0,1.6416 4.21786,0 0,0.9792 4.21786,0 0,1.584 4.21785,0 0,1.4688 4.21786,0 0,1.1232 4.21786,0 0,1.296 4.21786,0 0,0.9216 4.21785,0 0,0.9504 4.21786,0 0,1.008 4.21785,0 0,0.6336 4.21786,0 0,0.6048 4.21786,0 0,0.5472 4.21785,0 0,0.6912 4.21786,0 0,0.7488 4.21786,0 0,0.6048 4.21786,0 0,0.432 4.21785,0 0,0.432 4.21786,0 0,0.4608 4.21785,0 0,0.3744 4.21786,0 0,0.3744 4.21786,0 0,0.3744 4.21785,0 0,0.2016 4.21786,0 0,0.3168 4.21786,0 0,0.2592 8.43571,0.0576 0,0.2304 8.43571,0.0864 0,0.144 8.43572,0.0576 0,0.1152 8.43571,0.0576 0,0.2016 4.21786,0 0,0.1152 8.43571,0.0288 0,0.144 12.65357,0.0576 0,0.0576 8.43571,0.0576 0,0.144 16.87143,0.0576 0,0.0864 25.30714,0.0864 0,0.0288 59.04999,0.0864 0,0.0288 25.30714,0.0864 0,-288 0,0" /></g></g><g
       id="g26"><g
         clip-path="url(#clipPath30)"
         id="g28"><path
           id="path34"
           style="fill:none;stroke:#000000;stroke-width:1;stroke-linecap:square;stroke-linejoin:round;stroke-miterlimit:10;stroke-dasharray:none;stroke-opacity:1"
           d="m 30.299729,24.261697 3.472,19.377393 3.472,18.067361 3.472,16.845896 3.472,15.70701 3.472,14.645123 3.472,13.65501 3.472,12.73186 3.472,11.8711 3.472,11.06854 3.472,10.32024 3.472,9.62253 3.472,8.97199 3.472,8.36542 3.472,7.79987 3.472,7.27255 3.472,6.78088 3.472,6.32246 3.72,6.3005 3.72,5.84526 3.720001,5.42289 3.72,5.03106 3.72,4.66753 3.72,4.33027 3.968,4.27465 3.968,3.94599 3.968,3.64262 4.216,3.56391 4.216,3.2735 4.464,3.17579 4.464,2.90244 4.712,2.79313 4.712,2.53999 4.96,2.42539 5.208,2.29867 5.456,2.16277 5.704,2.0206 5.952,1.87479 6.448,1.79256 6.696,1.63059 7.192,1.52275 7.688,1.40121 8.432,1.30657 9.176,1.19088 9.92,1.06225 11.16,0.96669 12.4,0.84744 14.136,0.73992 16.616,0.63872 19.592,0.52376 24.304,0.41887 31.744,0.31313 45.632,0.2101 43.152,0.0809 0,0" /></g></g><g
       id="g36"><path
         id="path38"
         style="fill:none;stroke:#000000;stroke-width:1;stroke-linecap:square;stroke-linejoin:miter;stroke-miterlimit:10;stroke-dasharray:none;stroke-opacity:1"
         d="m 30.29375,22.825 0,345.6" /><path
         id="path40"
         style="fill:none;stroke:#000000;stroke-width:1;stroke-linecap:square;stroke-linejoin:miter;stroke-miterlimit:10;stroke-dasharray:none;stroke-opacity:1"
         d="m 30.29375,22.825 446.4,0" /><path
         id="path42"
         style="fill:none;stroke:#000000;stroke-width:1;stroke-linecap:square;stroke-linejoin:miter;stroke-miterlimit:10;stroke-dasharray:none;stroke-opacity:1"
         d="m 30.29375,368.425 446.4,0" /><path
         id="path44"
         style="fill:none;stroke:#000000;stroke-width:1;stroke-linecap:square;stroke-linejoin:miter;stroke-miterlimit:10;stroke-dasharray:none;stroke-opacity:1"
         d="m 476.69375,22.825 0,345.6" /><path
         id="path46"
         style="fill:#000000;fill-opacity:1;fill-rule:nonzero;stroke:#000000;stroke-width:0.5;stroke-linecap:butt;stroke-linejoin:round;stroke-miterlimit:10;stroke-dasharray:none;stroke-opacity:1"
         d="m 30.29375,22.825 0,4" /><path
         id="path48"
         style="fill:#000000;fill-opacity:1;fill-rule:nonzero;stroke:#000000;stroke-width:0.5;stroke-linecap:butt;stroke-linejoin:round;stroke-miterlimit:10;stroke-dasharray:none;stroke-opacity:1"
         d="m 30.29375,368.425 0,-4" /><text
         id="text50"
         style="font-variant:normal;font-weight:normal;font-size:12px;font-family:'Bitstream Vera Sans';-inkscape-font-specification:BitstreamVeraSans-Roman;writing-mode:lr-tb;fill:#000000;fill-opacity:1;fill-rule:nonzero;stroke:none"
         transform="matrix(1,0,0,-1,26.473437,9.7)"><tspan
           id="tspan52"
           y="0"
           x="0">0</tspan></text>
<path
         id="path54"
         style="fill:#000000;fill-opacity:1;fill-rule:nonzero;stroke:#000000;stroke-width:0.5;stroke-linecap:butt;stroke-linejoin:round;stroke-miterlimit:10;stroke-dasharray:none;stroke-opacity:1"
         d="m 79.89375,22.825 0,4" /><path
         id="path56"
         style="fill:#000000;fill-opacity:1;fill-rule:nonzero;stroke:#000000;stroke-width:0.5;stroke-linecap:butt;stroke-linejoin:round;stroke-miterlimit:10;stroke-dasharray:none;stroke-opacity:1"
         d="m 79.89375,368.425 0,-4" /><text
         id="text58"
         style="font-variant:normal;font-weight:normal;font-size:12px;font-family:'Bitstream Vera Sans';-inkscape-font-specification:BitstreamVeraSans-Roman;writing-mode:lr-tb;fill:#000000;fill-opacity:1;fill-rule:nonzero;stroke:none"
         transform="matrix(1,0,0,-1,76.073437,9.7)"><tspan
           id="tspan60"
           y="0"
           x="0">1</tspan></text>
<path
         id="path62"
         style="fill:#000000;fill-opacity:1;fill-rule:nonzero;stroke:#000000;stroke-width:0.5;stroke-linecap:butt;stroke-linejoin:round;stroke-miterlimit:10;stroke-dasharray:none;stroke-opacity:1"
         d="m 129.49375,22.825 0,4" /><path
         id="path64"
         style="fill:#000000;fill-opacity:1;fill-rule:nonzero;stroke:#000000;stroke-width:0.5;stroke-linecap:butt;stroke-linejoin:round;stroke-miterlimit:10;stroke-dasharray:none;stroke-opacity:1"
         d="m 129.49375,368.425 0,-4" /><text
         id="text66"
         style="font-variant:normal;font-weight:normal;font-size:12px;font-family:'Bitstream Vera Sans';-inkscape-font-specification:BitstreamVeraSans-Roman;writing-mode:lr-tb;fill:#000000;fill-opacity:1;fill-rule:nonzero;stroke:none"
         transform="matrix(1,0,0,-1,125.67344,9.7)"><tspan
           id="tspan68"
           y="0"
           x="0">2</tspan></text>
<path
         id="path70"
         style="fill:#000000;fill-opacity:1;fill-rule:nonzero;stroke:#000000;stroke-width:0.5;stroke-linecap:butt;stroke-linejoin:round;stroke-miterlimit:10;stroke-dasharray:none;stroke-opacity:1"
         d="m 179.09375,22.825 0,4" /><path
         id="path72"
         style="fill:#000000;fill-opacity:1;fill-rule:nonzero;stroke:#000000;stroke-width:0.5;stroke-linecap:butt;stroke-linejoin:round;stroke-miterlimit:10;stroke-dasharray:none;stroke-opacity:1"
         d="m 179.09375,368.425 0,-4" /><text
         id="text74"
         style="font-variant:normal;font-weight:normal;font-size:12px;font-family:'Bitstream Vera Sans';-inkscape-font-specification:BitstreamVeraSans-Roman;writing-mode:lr-tb;fill:#000000;fill-opacity:1;fill-rule:nonzero;stroke:none"
         transform="matrix(1,0,0,-1,175.27344,9.7)"><tspan
           id="tspan76"
           y="0"
           x="0">3</tspan></text>
<path
         id="path78"
         style="fill:#000000;fill-opacity:1;fill-rule:nonzero;stroke:#000000;stroke-width:0.5;stroke-linecap:butt;stroke-linejoin:round;stroke-miterlimit:10;stroke-dasharray:none;stroke-opacity:1"
         d="m 228.69375,22.825 0,4" /><path
         id="path80"
         style="fill:#000000;fill-opacity:1;fill-rule:nonzero;stroke:#000000;stroke-width:0.5;stroke-linecap:butt;stroke-linejoin:round;stroke-miterlimit:10;stroke-dasharray:none;stroke-opacity:1"
         d="m 228.69375,368.425 0,-4" /><text
         id="text82"
         style="font-variant:normal;font-weight:normal;font-size:12px;font-family:'Bitstream Vera Sans';-inkscape-font-specification:BitstreamVeraSans-Roman;writing-mode:lr-tb;fill:#000000;fill-opacity:1;fill-rule:nonzero;stroke:none"
         transform="matrix(1,0,0,-1,224.87344,9.7)"><tspan
           id="tspan84"
           y="0"
           x="0">4</tspan></text>
<path
         id="path86"
         style="fill:#000000;fill-opacity:1;fill-rule:nonzero;stroke:#000000;stroke-width:0.5;stroke-linecap:butt;stroke-linejoin:round;stroke-miterlimit:10;stroke-dasharray:none;stroke-opacity:1"
         d="m 278.29375,22.825 0,4" /><path
         id="path88"
         style="fill:#000000;fill-opacity:1;fill-rule:nonzero;stroke:#000000;stroke-width:0.5;stroke-linecap:butt;stroke-linejoin:round;stroke-miterlimit:10;stroke-dasharray:none;stroke-opacity:1"
         d="m 278.29375,368.425 0,-4" /><text
         id="text90"
         style="font-variant:normal;font-weight:normal;font-size:12px;font-family:'Bitstream Vera Sans';-inkscape-font-specification:BitstreamVeraSans-Roman;writing-mode:lr-tb;fill:#000000;fill-opacity:1;fill-rule:nonzero;stroke:none"
         transform="matrix(1,0,0,-1,274.47344,9.7)"><tspan
           id="tspan92"
           y="0"
           x="0">5</tspan></text>
<path
         id="path94"
         style="fill:#000000;fill-opacity:1;fill-rule:nonzero;stroke:#000000;stroke-width:0.5;stroke-linecap:butt;stroke-linejoin:round;stroke-miterlimit:10;stroke-dasharray:none;stroke-opacity:1"
         d="m 327.89375,22.825 0,4" /><path
         id="path96"
         style="fill:#000000;fill-opacity:1;fill-rule:nonzero;stroke:#000000;stroke-width:0.5;stroke-linecap:butt;stroke-linejoin:round;stroke-miterlimit:10;stroke-dasharray:none;stroke-opacity:1"
         d="m 327.89375,368.425 0,-4" /><text
         id="text98"
         style="font-variant:normal;font-weight:normal;font-size:12px;font-family:'Bitstream Vera Sans';-inkscape-font-specification:BitstreamVeraSans-Roman;writing-mode:lr-tb;fill:#000000;fill-opacity:1;fill-rule:nonzero;stroke:none"
         transform="matrix(1,0,0,-1,324.07344,9.7)"><tspan
           id="tspan100"
           y="0"
           x="0">6</tspan></text>
<path
         id="path102"
         style="fill:#000000;fill-opacity:1;fill-rule:nonzero;stroke:#000000;stroke-width:0.5;stroke-linecap:butt;stroke-linejoin:round;stroke-miterlimit:10;stroke-dasharray:none;stroke-opacity:1"
         d="m 377.49375,22.825 0,4" /><path
         id="path104"
         style="fill:#000000;fill-opacity:1;fill-rule:nonzero;stroke:#000000;stroke-width:0.5;stroke-linecap:butt;stroke-linejoin:round;stroke-miterlimit:10;stroke-dasharray:none;stroke-opacity:1"
         d="m 377.49375,368.425 0,-4" /><text
         id="text106"
         style="font-variant:normal;font-weight:normal;font-size:12px;font-family:'Bitstream Vera Sans';-inkscape-font-specification:BitstreamVeraSans-Roman;writing-mode:lr-tb;fill:#000000;fill-opacity:1;fill-rule:nonzero;stroke:none"
         transform="matrix(1,0,0,-1,373.67344,9.7)"><tspan
           id="tspan108"
           y="0"
           x="0">7</tspan></text>
<path
         id="path110"
         style="fill:#000000;fill-opacity:1;fill-rule:nonzero;stroke:#000000;stroke-width:0.5;stroke-linecap:butt;stroke-linejoin:round;stroke-miterlimit:10;stroke-dasharray:none;stroke-opacity:1"
         d="m 427.09375,22.825 0,4" /><path
         id="path112"
         style="fill:#000000;fill-opacity:1;fill-rule:nonzero;stroke:#000000;stroke-width:0.5;stroke-linecap:butt;stroke-linejoin:round;stroke-miterlimit:10;stroke-dasharray:none;stroke-opacity:1"
         d="m 427.09375,368.425 0,-4" /><text
         id="text114"
         style="font-variant:normal;font-weight:normal;font-size:12px;font-family:'Bitstream Vera Sans';-inkscape-font-specification:BitstreamVeraSans-Roman;writing-mode:lr-tb;fill:#000000;fill-opacity:1;fill-rule:nonzero;stroke:none"
         transform="matrix(1,0,0,-1,423.27344,9.7)"><tspan
           id="tspan116"
           y="0"
           x="0">8</tspan></text>
<path
         id="path118"
         style="fill:#000000;fill-opacity:1;fill-rule:nonzero;stroke:#000000;stroke-width:0.5;stroke-linecap:butt;stroke-linejoin:round;stroke-miterlimit:10;stroke-dasharray:none;stroke-opacity:1"
         d="m 476.69375,22.825 0,4" /><path
         id="path120"
         style="fill:#000000;fill-opacity:1;fill-rule:nonzero;stroke:#000000;stroke-width:0.5;stroke-linecap:butt;stroke-linejoin:round;stroke-miterlimit:10;stroke-dasharray:none;stroke-opacity:1"
         d="m 476.69375,368.425 0,-4" /><text
         id="text122"
         style="font-variant:normal;font-weight:normal;font-size:12px;font-family:'Bitstream Vera Sans';-inkscape-font-specification:BitstreamVeraSans-Roman;writing-mode:lr-tb;fill:#000000;fill-opacity:1;fill-rule:nonzero;stroke:none"
         transform="matrix(1,0,0,-1,472.87344,9.7)"><tspan
           id="tspan124"
           y="0"
           x="0">9</tspan></text>
<path
         id="path126"
         style="fill:#000000;fill-opacity:1;fill-rule:nonzero;stroke:#000000;stroke-width:0.5;stroke-linecap:butt;stroke-linejoin:round;stroke-miterlimit:10;stroke-dasharray:none;stroke-opacity:1"
         d="m 30.29375,22.825 4,0" /><path
         id="path128"
         style="fill:#000000;fill-opacity:1;fill-rule:nonzero;stroke:#000000;stroke-width:0.5;stroke-linecap:butt;stroke-linejoin:round;stroke-miterlimit:10;stroke-dasharray:none;stroke-opacity:1"
         d="m 476.69375,22.825 -4,0" /><text
         id="text130"
         style="font-variant:normal;font-weight:normal;font-size:12px;font-family:'Bitstream Vera Sans';-inkscape-font-specification:BitstreamVeraSans-Roman;writing-mode:lr-tb;fill:#000000;fill-opacity:1;fill-rule:nonzero;stroke:none"
         transform="matrix(1,0,0,-1,7.2,19.5125)"><tspan
           id="tspan132"
           y="0"
           x="0 7.632 11.448">0.0</tspan></text>
<path
         id="path134"
         style="fill:#000000;fill-opacity:1;fill-rule:nonzero;stroke:#000000;stroke-width:0.5;stroke-linecap:butt;stroke-linejoin:round;stroke-miterlimit:10;stroke-dasharray:none;stroke-opacity:1"
         d="m 30.29375,80.425 4,0" /><path
         id="path136"
         style="fill:#000000;fill-opacity:1;fill-rule:nonzero;stroke:#000000;stroke-width:0.5;stroke-linecap:butt;stroke-linejoin:round;stroke-miterlimit:10;stroke-dasharray:none;stroke-opacity:1"
         d="m 476.69375,80.425 -4,0" /><text
         id="text138"
         style="font-variant:normal;font-weight:normal;font-size:12px;font-family:'Bitstream Vera Sans';-inkscape-font-specification:BitstreamVeraSans-Roman;writing-mode:lr-tb;fill:#000000;fill-opacity:1;fill-rule:nonzero;stroke:none"
         transform="matrix(1,0,0,-1,7.2,77.1125)"><tspan
           id="tspan140"
           y="0"
           x="0 7.632 11.448">0.2</tspan></text>
<path
         id="path142"
         style="fill:#000000;fill-opacity:1;fill-rule:nonzero;stroke:#000000;stroke-width:0.5;stroke-linecap:butt;stroke-linejoin:round;stroke-miterlimit:10;stroke-dasharray:none;stroke-opacity:1"
         d="m 30.29375,138.025 4,0" /><path
         id="path144"
         style="fill:#000000;fill-opacity:1;fill-rule:nonzero;stroke:#000000;stroke-width:0.5;stroke-linecap:butt;stroke-linejoin:round;stroke-miterlimit:10;stroke-dasharray:none;stroke-opacity:1"
         d="m 476.69375,138.025 -4,0" /><text
         id="text146"
         style="font-variant:normal;font-weight:normal;font-size:12px;font-family:'Bitstream Vera Sans';-inkscape-font-specification:BitstreamVeraSans-Roman;writing-mode:lr-tb;fill:#000000;fill-opacity:1;fill-rule:nonzero;stroke:none"
         transform="matrix(1,0,0,-1,7.2,134.7125)"><tspan
           id="tspan148"
           y="0"
           x="0 7.632 11.448">0.4</tspan></text>
<path
         id="path150"
         style="fill:#000000;fill-opacity:1;fill-rule:nonzero;stroke:#000000;stroke-width:0.5;stroke-linecap:butt;stroke-linejoin:round;stroke-miterlimit:10;stroke-dasharray:none;stroke-opacity:1"
         d="m 30.29375,195.625 4,0" /><path
         id="path152"
         style="fill:#000000;fill-opacity:1;fill-rule:nonzero;stroke:#000000;stroke-width:0.5;stroke-linecap:butt;stroke-linejoin:round;stroke-miterlimit:10;stroke-dasharray:none;stroke-opacity:1"
         d="m 476.69375,195.625 -4,0" /><text
         id="text154"
         style="font-variant:normal;font-weight:normal;font-size:12px;font-family:'Bitstream Vera Sans';-inkscape-font-specification:BitstreamVeraSans-Roman;writing-mode:lr-tb;fill:#000000;fill-opacity:1;fill-rule:nonzero;stroke:none"
         transform="matrix(1,0,0,-1,7.2,192.3125)"><tspan
           id="tspan156"
           y="0"
           x="0 7.632 11.448">0.6</tspan></text>
<path
         id="path158"
         style="fill:#000000;fill-opacity:1;fill-rule:nonzero;stroke:#000000;stroke-width:0.5;stroke-linecap:butt;stroke-linejoin:round;stroke-miterlimit:10;stroke-dasharray:none;stroke-opacity:1"
         d="m 30.29375,253.225 4,0" /><path
         id="path160"
         style="fill:#000000;fill-opacity:1;fill-rule:nonzero;stroke:#000000;stroke-width:0.5;stroke-linecap:butt;stroke-linejoin:round;stroke-miterlimit:10;stroke-dasharray:none;stroke-opacity:1"
         d="m 476.69375,253.225 -4,0" /><text
         id="text162"
         style="font-variant:normal;font-weight:normal;font-size:12px;font-family:'Bitstream Vera Sans';-inkscape-font-specification:BitstreamVeraSans-Roman;writing-mode:lr-tb;fill:#000000;fill-opacity:1;fill-rule:nonzero;stroke:none"
         transform="matrix(1,0,0,-1,7.2,249.9125)"><tspan
           id="tspan164"
           y="0"
           x="0 7.632 11.448">0.8</tspan></text>
<path
         id="path166"
         style="fill:#000000;fill-opacity:1;fill-rule:nonzero;stroke:#000000;stroke-width:0.5;stroke-linecap:butt;stroke-linejoin:round;stroke-miterlimit:10;stroke-dasharray:none;stroke-opacity:1"
         d="m 30.29375,310.825 4,0" /><path
         id="path168"
         style="fill:#000000;fill-opacity:1;fill-rule:nonzero;stroke:#000000;stroke-width:0.5;stroke-linecap:butt;stroke-linejoin:round;stroke-miterlimit:10;stroke-dasharray:none;stroke-opacity:1"
         d="m 476.69375,310.825 -4,0" /><text
         id="text170"
         style="font-variant:normal;font-weight:normal;font-size:12px;font-family:'Bitstream Vera Sans';-inkscape-font-specification:BitstreamVeraSans-Roman;writing-mode:lr-tb;fill:#000000;fill-opacity:1;fill-rule:nonzero;stroke:none"
         transform="matrix(1,0,0,-1,7.2,307.5125)"><tspan
           id="tspan172"
           y="0"
           x="0 7.632 11.448">1.0</tspan></text>
<path
         id="path174"
         style="fill:#000000;fill-opacity:1;fill-rule:nonzero;stroke:#000000;stroke-width:0.5;stroke-linecap:butt;stroke-linejoin:round;stroke-miterlimit:10;stroke-dasharray:none;stroke-opacity:1"
         d="m 30.29375,368.425 4,0" /><path
         id="path176"
         style="fill:#000000;fill-opacity:1;fill-rule:nonzero;stroke:#000000;stroke-width:0.5;stroke-linecap:butt;stroke-linejoin:round;stroke-miterlimit:10;stroke-dasharray:none;stroke-opacity:1"
         d="m 476.69375,368.425 -4,0" /><text
         id="text178"
         style="font-variant:normal;font-weight:normal;font-size:12px;font-family:'Bitstream Vera Sans';-inkscape-font-specification:BitstreamVeraSans-Roman;writing-mode:lr-tb;fill:#000000;fill-opacity:1;fill-rule:nonzero;stroke:none"
         transform="matrix(1,0,0,-1,7.2,365.1125)"><tspan
           id="tspan180"
           y="0"
           x="0 7.632 11.448">1.2</tspan></text>
</g></g></svg>