<?xml version="1.0" encoding="UTF-8" standalone="no"?>
<svg
   xmlns:dc="http://purl.org/dc/elements/1.1/"
   xmlns:cc="http://creativecommons.org/ns#"
   xmlns:rdf="http://www.w3.org/1999/02/22-rdf-syntax-ns#"
   xmlns:svg="http://www.w3.org/2000/svg"
   xmlns="http://www.w3.org/2000/svg"
   viewBox="0 0 604.86719 469.53125"
   height="469.53125"
   width="604.86719"
   xml:space="preserve"
   version="1.1"
   id="svg2"><metadata
     id="metadata8"><rdf:RDF><cc:Work
         rdf:about=""><dc:format>image/svg+xml</dc:format><dc:type
           rdf:resource="http://purl.org/dc/dcmitype/StillImage" /></cc:Work></rdf:RDF></metadata><defs
     id="defs6"><clipPath
       id="clipPath20"
       clipPathUnits="userSpaceOnUse"><path
         id="path22"
         d="m 30.29375,22.825 446.4,0 0,345.6 -446.4,0 0,-345.6 z" /></clipPath><clipPath
       id="clipPath32"
       clipPathUnits="userSpaceOnUse"><path
         id="path34"
         d="m 30.29375,22.825 446.4,0 0,345.6 -446.4,0 0,-345.6 z" /></clipPath><clipPath
       id="clipPath42"
       clipPathUnits="userSpaceOnUse"><path
         id="path44"
         d="m -3.236068,-3.236068 6.472136,0 0,6.472136 -6.472136,0 0,-6.472136 z" /></clipPath><clipPath
       id="clipPath54"
       clipPathUnits="userSpaceOnUse"><path
         id="path56"
         d="m -3.236068,-3.236068 6.472136,0 0,6.472136 -6.472136,0 0,-6.472136 z" /></clipPath><clipPath
       id="clipPath66"
       clipPathUnits="userSpaceOnUse"><path
         id="path68"
         d="m -3.236068,-3.236068 6.472136,0 0,6.472136 -6.472136,0 0,-6.472136 z" /></clipPath><clipPath
       id="clipPath78"
       clipPathUnits="userSpaceOnUse"><path
         id="path80"
         d="m -3.236068,-3.236068 6.472136,0 0,6.472136 -6.472136,0 0,-6.472136 z" /></clipPath><clipPath
       id="clipPath90"
       clipPathUnits="userSpaceOnUse"><path
         id="path92"
         d="m -3.236068,-3.236068 6.472136,0 0,6.472136 -6.472136,0 0,-6.472136 z" /></clipPath><clipPath
       id="clipPath102"
       clipPathUnits="userSpaceOnUse"><path
         id="path104"
         d="m -3.236068,-3.236068 6.472136,0 0,6.472136 -6.472136,0 0,-6.472136 z" /></clipPath><clipPath
       id="clipPath114"
       clipPathUnits="userSpaceOnUse"><path
         id="path116"
         d="m -3.236068,-3.236068 6.472136,0 0,6.472136 -6.472136,0 0,-6.472136 z" /></clipPath><clipPath
       id="clipPath126"
       clipPathUnits="userSpaceOnUse"><path
         id="path128"
         d="m -3.236068,-3.236068 6.472136,0 0,6.472136 -6.472136,0 0,-6.472136 z" /></clipPath><clipPath
       id="clipPath138"
       clipPathUnits="userSpaceOnUse"><path
         id="path140"
         d="m -3.236068,-3.236068 6.472136,0 0,6.472136 -6.472136,0 0,-6.472136 z" /></clipPath><clipPath
       id="clipPath150"
       clipPathUnits="userSpaceOnUse"><path
         id="path152"
         d="m -3.236068,-3.236068 6.472136,0 0,6.472136 -6.472136,0 0,-6.472136 z" /></clipPath><clipPath
       id="clipPath162"
       clipPathUnits="userSpaceOnUse"><path
         id="path164"
         d="m -3.236068,-3.236068 6.472136,0 0,6.472136 -6.472136,0 0,-6.472136 z" /></clipPath><clipPath
       id="clipPath174"
       clipPathUnits="userSpaceOnUse"><path
         id="path176"
         d="m -3.236068,-3.236068 6.472136,0 0,6.472136 -6.472136,0 0,-6.472136 z" /></clipPath><clipPath
       id="clipPath186"
       clipPathUnits="userSpaceOnUse"><path
         id="path188"
         d="m 30.29375,22.825 446.4,0 0,345.6 -446.4,0 0,-345.6 z" /></clipPath><clipPath
       id="clipPath196"
       clipPathUnits="userSpaceOnUse"><path
         id="path198"
         d="m -3.236068,-3.236068 6.472136,0 0,6.472136 -6.472136,0 0,-6.472136 z" /></clipPath><clipPath
       id="clipPath208"
       clipPathUnits="userSpaceOnUse"><path
         id="path210"
         d="m -3.236068,-3.236068 6.472136,0 0,6.472136 -6.472136,0 0,-6.472136 z" /></clipPath><clipPath
       id="clipPath220"
       clipPathUnits="userSpaceOnUse"><path
         id="path222"
         d="m -3.236068,-3.236068 6.472136,0 0,6.472136 -6.472136,0 0,-6.472136 z" /></clipPath><clipPath
       id="clipPath232"
       clipPathUnits="userSpaceOnUse"><path
         id="path234"
         d="m -3.236068,-3.236068 6.472136,0 0,6.472136 -6.472136,0 0,-6.472136 z" /></clipPath><clipPath
       id="clipPath244"
       clipPathUnits="userSpaceOnUse"><path
         id="path246"
         d="m -3.236068,-3.236068 6.472136,0 0,6.472136 -6.472136,0 0,-6.472136 z" /></clipPath><clipPath
       id="clipPath256"
       clipPathUnits="userSpaceOnUse"><path
         id="path258"
         d="m -3.236068,-3.236068 6.472136,0 0,6.472136 -6.472136,0 0,-6.472136 z" /></clipPath><clipPath
       id="clipPath268"
       clipPathUnits="userSpaceOnUse"><path
         id="path270"
         d="m -3.236068,-3.236068 6.472136,0 0,6.472136 -6.472136,0 0,-6.472136 z" /></clipPath><clipPath
       id="clipPath280"
       clipPathUnits="userSpaceOnUse"><path
         id="path282"
         d="m -3.236068,-3.236068 6.472136,0 0,6.472136 -6.472136,0 0,-6.472136 z" /></clipPath><clipPath
       id="clipPath290"
       clipPathUnits="userSpaceOnUse"><path
         id="path292"
         d="m 30.29375,22.825 446.4,0 0,345.6 -446.4,0 0,-345.6 z" /></clipPath><clipPath
       id="clipPath300"
       clipPathUnits="userSpaceOnUse"><path
         id="path302"
         d="m 30.29375,22.825 446.4,0 0,345.6 -446.4,0 0,-345.6 z" /></clipPath><clipPath
       id="clipPath310"
       clipPathUnits="userSpaceOnUse"><path
         id="path312"
         d="m 30.29375,22.825 446.4,0 0,345.6 -446.4,0 0,-345.6 z" /></clipPath></defs><g
     transform="matrix(1.25,0,0,-1.25,0,469.53125)"
     id="g10"><path
       id="path12"
       style="fill:#ffffff;fill-opacity:1;fill-rule:nonzero;stroke:none"
       d="m 0,0 483.89375,0 0,375.625 L 0,375.625 0,0 Z" /><path
       id="path14"
       style="fill:#ffffff;fill-opacity:1;fill-rule:nonzero;stroke:none"
       d="m 30.29375,22.825 446.4,0 0,345.6 -446.4,0 0,-345.6 z" /><g
       id="g16"><g
         clip-path="url(#clipPath20)"
         id="g18"><path
           id="path24"
           style="fill:#808080;fill-opacity:0.5;fill-rule:nonzero;stroke:#808080;stroke-width:1;stroke-linecap:butt;stroke-linejoin:round;stroke-miterlimit:10;stroke-dasharray:none;stroke-opacity:0.5"
           d="m 30.293749,22.825 0.223424,0.494009 0.893694,1.976014 0.893694,1.975916 0.893694,1.975739 0.893693,1.975486 0.893694,1.975154 0.893694,1.974743 0.893693,1.974255 0.893694,1.973688 0.893694,1.973044 0.893693,1.972321 0.893694,1.971521 0.893694,1.970642 0.893693,1.969685 0.893694,1.968651 0.893694,1.967538 0.893694,1.966348 0.893693,1.96508 0.893694,1.963735 0.893694,1.962311 0.893693,1.96081 0.893694,1.959231 0.893694,1.957575 0.893693,1.955842 0.893694,1.954031 0.893694,1.952142 0.893693,1.950177 0.893694,1.948135 0.893694,1.946015 0.893694,1.943818 0.893693,1.941545 0.893694,1.939195 0.893694,1.936767 0.893693,1.934264 0.893694,1.931684 0.893694,1.929027 0.893693,1.926294 0.893694,1.923485 0.893694,1.9206 0.893693,1.917639 0.893694,1.914604 0.893694,1.91149 0.893694,1.9083 0.893693,1.90504 0.893694,1.90169 0.893694,1.89829 0.893693,1.89479 0.893694,1.89123 0.893694,1.88759 0.893693,1.88388 0.893694,1.88009 0.893694,1.87622 0.893693,1.87229 0.893694,1.86827 0.893694,1.8642 0.893694,1.86003 0.893693,1.8558 0.893694,1.8515 0.893694,1.84711 0.893693,1.84267 0.893694,1.83814 0.893694,1.83354 0.893693,1.82887 0.893694,1.82413 0.893694,1.81931 0.893694,1.81443 0.893693,1.80947 0.893694,1.80444 0.893694,1.79933 0.893693,1.79417 0.893694,1.78892 0.893694,1.78361 0.893693,1.77822 0.893694,1.77277 0.893694,1.76724 0.893693,1.76165 0.893694,1.75598 0.893694,1.75025 0.893692,1.74444 0.89369,1.73857 0.8937,1.73263 0.89369,1.72662 0.8937,1.72054 0.89369,1.7144 0.89369,1.70818 0.8937,1.7019 0.89369,1.69555 0.8937,1.68913 0.89369,1.68266 0.89369,1.6761 0.8937,1.66949 0.89369,1.6628 0.89369,1.65606 0.8937,1.64924 0.89369,1.64237 0.89369,1.63542 0.8937,1.62841 0.89369,1.62135 0.8937,1.6142 0.89369,1.60701 0.89369,1.59974 0.8937,1.59241 0.89369,1.58503 0.89369,1.57757 0.8937,1.57005 0.89369,1.56248 0.8937,1.55484 0.89369,1.54714 0.89369,1.53937 0.8937,1.53156 0.89369,1.52367 0.89369,1.51572 0.8937,1.50773 0.89369,1.49965 0.89369,1.49154 0.8937,1.48336 0.89369,1.47511 0.8937,1.46682 0.89369,1.45846 0.89369,1.45004 0.8937,1.44157 0.89369,1.43305 0.89369,1.42446 0.8937,1.41582 0.89369,1.40712 0.89369,1.39836 0.8937,1.38956 0.89369,1.38069 0.8937,1.37178 0.89369,1.3628 0.89369,1.35378 0.8937,1.34469 0.89369,1.33557 0.8937,1.32637 0.89369,1.31714 0.89369,1.30785 0.8937,1.2985 0.89369,1.28911 0.89369,1.27967 0.8937,1.27017 0.89369,1.26063 0.89369,1.25103 0.8937,1.24138 0.89369,1.23169 0.89369,1.22195 0.8937,1.21216 0.89369,1.20232 0.8937,1.19243 0.89369,1.18249 0.89369,1.17252 0.8937,1.16249 0.89369,1.15242 0.8937,1.14229 0.89369,1.13214 0.89369,1.12192 0.8937,1.11168 0.89369,1.10137 0.89369,1.09104 0.8937,1.08065 0.89369,1.07023 0.89369,1.05975 0.8937,1.04925 0.89369,1.03869 0.89369,1.02811 0.8937,1.01746 0.89369,1.0068 0.8937,0.99608 0.89369,0.98532 0.89369,0.97453 0.8937,0.96371 0.89369,0.95283 0.89369,0.94193 0.8937,0.93098 0.89369,0.92 0.8937,0.90899 0.89369,0.89793 0.89369,0.88684 0.8937,0.87572 0.89369,0.86456 0.8937,0.85337 0.89369,0.84214 0.89369,0.83088 0.8937,0.81959 0.89369,0.80827 0.89369,0.79691 0.8937,0.78552 0.89369,0.7741 0.89369,0.76265 0.8937,0.75117 0.89369,0.73966 0.89369,0.72812 0.8937,0.71655 0.89369,0.70495 0.8937,0.69334 0.89369,0.68168 0.89369,0.67 0.8937,0.65829 0.89369,0.64657 0.89369,0.63481 0.8937,0.62302 0.89369,0.61122 0.8937,0.59939 0.89369,0.58753 0.89369,0.57566 0.8937,0.56376 0.89369,0.55183 0.89369,0.53989 0.8937,0.52792 0.89369,0.51594 0.89369,0.50393 0.8937,0.4919 0.89369,0.47985 0.8937,0.46779 0.89369,0.45571 0.89369,0.4436 0.8937,0.43148 0.89369,0.41935 0.89369,0.40719 0.8937,0.39503 0.89369,0.38284 0.8937,0.37063 0.89369,0.35843 0.89369,0.34619 0.8937,0.33395 0.89369,0.3217 0.89369,0.30943 0.8937,0.29714 0.89369,0.28485 0.8937,0.27255 0.89369,0.26024 0.89369,0.24791 0.8937,0.23557 0.89369,0.22323 0.89369,0.21088 0.8937,0.19852 0.89369,0.18614 0.89369,0.17377 0.8937,0.16139 0.89369,0.149 0.8937,0.1366 0.89369,0.1242 0.89369,0.11179 0.8937,0.0994 0.89369,0.087 0.8937,0.0745 0.89369,0.0621 0.89369,0.0497 0.8937,0.0373 0.89369,0.0249 0.89369,0.0124 0.8937,0 0.89369,-0.0124 0.89369,-0.0249 0.8937,-0.0373 0.89369,-0.0497 0.89369,-0.0621 0.8937,-0.0745 0.89369,-0.087 0.8937,-0.0994 0.89369,-0.11179 0.89369,-0.1242 0.8937,-0.1366 0.89369,-0.149 0.89369,-0.16139 0.8937,-0.17377 0.89369,-0.18614 0.8937,-0.19852 0.89369,-0.21088 0.89369,-0.22323 0.8937,-0.23557 0.89369,-0.24791 0.89369,-0.26024 0.8937,-0.27255 0.89369,-0.28485 0.8937,-0.29714 0.89369,-0.30943 0.89369,-0.3217 0.8937,-0.33395 0.89369,-0.34619 0.89369,-0.35843 0.8937,-0.37063 0.89369,-0.38284 0.89369,-0.39503 0.8937,-0.40719 0.89369,-0.41935 0.8937,-0.43148 0.89369,-0.4436 0.89369,-0.45571 0.8937,-0.46779 0.89369,-0.47985 0.89369,-0.4919 0.8937,-0.50393 0.89369,-0.51594 0.8937,-0.52792 0.89369,-0.53989 0.89369,-0.55183 0.8937,-0.56376 0.89369,-0.57566 0.89369,-0.58753 0.8937,-0.59939 0.89369,-0.61122 0.89369,-0.62302 0.8937,-0.63481 0.89369,-0.64657 0.8937,-0.65829 0.89369,-0.67 0.89369,-0.68168 0.8937,-0.69334 0.89369,-0.70495 0.89369,-0.71655 0.8937,-0.72812 0.89369,-0.73966 0.8937,-0.75117 0.89369,-0.76265 0.89369,-0.7741 0.8937,-0.78552 0.89369,-0.79691 0.89369,-0.80827 0.8937,-0.81959 0.89369,-0.83088 0.89369,-0.84214 0.8937,-0.85337 0.89369,-0.86456 0.8937,-0.87572 0.89369,-0.88684 0.89369,-0.89793 0.8937,-0.90899 0.89369,-0.92 0.89369,-0.93098 0.8937,-0.94193 0.89369,-0.95283 0.8937,-0.96371 0.89369,-0.97453 0.89369,-0.98532 0.8937,-0.99608 0.89369,-1.0068 0.89369,-1.01746 0.8937,-1.02811 0.89369,-1.03869 0.8937,-1.04925 0.89369,-1.05975 0.89369,-1.07023 0.8937,-1.08065 0.89369,-1.09104 0.89369,-1.10137 0.8937,-1.11168 0.89369,-1.12192 0.8937,-1.13214 0.89369,-1.14229 0.89369,-1.15242 0.8937,-1.16249 0.89369,-1.17252 0.89369,-1.18249 0.8937,-1.19243 0.89369,-1.20232 0.89369,-1.21216 0.8937,-1.22195 0.89369,-1.23169 0.8937,-1.24138 0.89369,-1.25103 0.89369,-1.26063 0.8937,-1.27017 0.89369,-1.27967 0.89369,-1.28911 0.8937,-1.2985 0.89369,-1.30785 0.8937,-1.31714 0.89369,-1.32637 0.89369,-1.33557 0.8937,-1.34469 0.89369,-1.35378 0.89369,-1.3628 0.8937,-1.37178 0.89369,-1.38069 0.89369,-1.38956 0.8937,-1.39836 0.89369,-1.40712 0.8937,-1.41582 0.89369,-1.42446 0.89369,-1.43305 0.8937,-1.44157 0.89369,-1.45004 0.89369,-1.45846 0.8937,-1.46682 0.89369,-1.47511 0.89369,-1.48336 0.8937,-1.49154 0.89369,-1.49965 0.8937,-1.50773 0.89369,-1.51572 0.89369,-1.52367 0.8937,-1.53156 0.89369,-1.53937 0.89369,-1.54714 0.8937,-1.55484 0.89369,-1.56248 0.8937,-1.57005 0.89369,-1.57757 0.89369,-1.58503 0.8937,-1.59241 0.89369,-1.59974 0.89369,-1.60701 0.8937,-1.6142 0.89369,-1.62135 0.8937,-1.62841 0.89369,-1.63542 0.89369,-1.64237 0.8937,-1.64924 0.89369,-1.65606 0.89369,-1.6628 0.8937,-1.66949 0.89369,-1.6761 0.89369,-1.68266 0.8937,-1.68913 0.89369,-1.69555 0.8937,-1.7019 0.89369,-1.70818 0.89369,-1.7144 0.8937,-1.72054 0.89369,-1.72662 0.89369,-1.73263 0.8937,-1.73857 0.89369,-1.74444 0.8937,-1.75025 0.89369,-1.75598 0.89369,-1.76165 0.8937,-1.76724 0.89369,-1.77277 0.89369,-1.77822 0.8937,-1.78361 0.89369,-1.78892 0.89369,-1.79417 0.8937,-1.79933 0.89369,-1.80444 0.8937,-1.80947 0.89369,-1.81443 0.89369,-1.81931 0.8937,-1.82413 0.89369,-1.82887 0.89369,-1.83354 0.8937,-1.83814 0.89369,-1.84267 0.8937,-1.84711 0.89369,-1.8515 0.89369,-1.8558 0.8937,-1.86003 0.89369,-1.8642 0.89369,-1.86827 0.8937,-1.87229 0.89369,-1.87622 0.8937,-1.88009 0.89369,-1.88388 0.89369,-1.88759 0.8937,-1.89123 0.89369,-1.89479 0.89369,-1.89829 0.8937,-1.90169 0.89369,-1.90504 0.8937,-1.9083 0.89369,-1.91149 0.89369,-1.914604 0.8937,-1.917639 0.89369,-1.9206 0.89369,-1.923485 0.8937,-1.926294 0.89369,-1.929027 0.89369,-1.931684 0.8937,-1.934264 0.89369,-1.936767 0.8937,-1.939195 0.89369,-1.941545 0.89369,-1.943818 0.8937,-1.946015 0.89369,-1.948135 0.89369,-1.950177 0.8937,-1.952142 0.89369,-1.954031 0.8937,-1.955842 0.89369,-1.957575 0.89369,-1.959231 0.8937,-1.96081 0.89369,-1.962311 0.89369,-1.963735 0.8937,-1.96508 0.89369,-1.966348 0.89369,-1.967538 0.8937,-1.968651 0.89369,-1.969685 0.8937,-1.970642 0.89369,-1.971521 0.89369,-1.972321 0.8937,-1.973044 0.89369,-1.973688 0.89369,-1.974255 0.8937,-1.974743 0.89369,-1.975154 0.89369,-1.975486 0.8937,-1.975739 0.89369,-1.975916 0.8937,-1.976014 0.22342,-0.494009 -0.22342,0 -0.8937,0 -0.89369,0 -0.8937,0 -0.89369,0 -0.89369,0 -0.8937,0 -0.89369,0 -0.89369,0 -0.8937,0 -0.89369,0 -0.89369,0 -0.8937,0 -0.89369,0 -0.8937,0 -0.89369,0 -0.89369,0 -0.8937,0 -0.89369,0 -0.89369,0 -0.8937,0 -0.89369,0 -0.89369,0 -0.8937,0 -0.89369,0 -0.8937,0 -0.89369,0 -0.89369,0 -0.8937,0 -0.89369,0 -0.89369,0 -0.8937,0 -0.89369,0 -0.8937,0 -0.89369,0 -0.89369,0 -0.8937,0 -0.89369,0 -0.89369,0 -0.8937,0 -0.89369,0 -0.89369,0 -0.8937,0 -0.89369,0 -0.8937,0 -0.89369,0 -0.89369,0 -0.8937,0 -0.89369,0 -0.89369,0 -0.8937,0 -0.89369,0 -0.8937,0 -0.89369,0 -0.89369,0 -0.8937,0 -0.89369,0 -0.89369,0 -0.8937,0 -0.89369,0 -0.8937,0 -0.89369,0 -0.89369,0 -0.8937,0 -0.89369,0 -0.89369,0 -0.8937,0 -0.89369,0 -0.8937,0 -0.89369,0 -0.89369,0 -0.8937,0 -0.89369,0 -0.89369,0 -0.8937,0 -0.89369,0 -0.89369,0 -0.8937,0 -0.89369,0 -0.8937,0 -0.89369,0 -0.89369,0 -0.8937,0 -0.89369,0 -0.89369,0 -0.8937,0 -0.89369,0 -0.8937,0 -0.89369,0 -0.89369,0 -0.8937,0 -0.89369,0 -0.89369,0 -0.8937,0 -0.89369,0 -0.89369,0 -0.8937,0 -0.89369,0 -0.8937,0 -0.89369,0 -0.89369,0 -0.8937,0 -0.89369,0 -0.89369,0 -0.8937,0 -0.89369,0 -0.8937,0 -0.89369,0 -0.89369,0 -0.8937,0 -0.89369,0 -0.89369,0 -0.8937,0 -0.89369,0 -0.8937,0 -0.89369,0 -0.89369,0 -0.8937,0 -0.89369,0 -0.89369,0 -0.8937,0 -0.89369,0 -0.89369,0 -0.8937,0 -0.89369,0 -0.8937,0 -0.89369,0 -0.89369,0 -0.8937,0 -0.89369,0 -0.89369,0 -0.8937,0 -0.89369,0 -0.89369,0 -0.8937,0 -0.89369,0 -0.8937,0 -0.89369,0 -0.89369,0 -0.8937,0 -0.89369,0 -0.89369,0 -0.8937,0 -0.89369,0 -0.8937,0 -0.89369,0 -0.89369,0 -0.8937,0 -0.89369,0 -0.89369,0 -0.8937,0 -0.89369,0 -0.89369,0 -0.8937,0 -0.89369,0 -0.8937,0 -0.89369,0 -0.89369,0 -0.8937,0 -0.89369,0 -0.89369,0 -0.8937,0 -0.89369,0 -0.8937,0 -0.89369,0 -0.89369,0 -0.8937,0 -0.89369,0 -0.89369,0 -0.8937,0 -0.89369,0 -0.8937,0 -0.89369,0 -0.89369,0 -0.8937,0 -0.89369,0 -0.89369,0 -0.8937,0 -0.89369,0 -0.8937,0 -0.89369,0 -0.89369,0 -0.8937,0 -0.89369,0 -0.89369,0 -0.8937,0 -0.89369,0 -0.89369,0 -0.8937,0 -0.89369,0 -0.8937,0 -0.89369,0 -0.89369,0 -0.8937,0 -0.89369,0 -0.89369,0 -0.8937,0 -0.89369,0 -0.8937,0 -0.89369,0 -0.89369,0 -0.8937,0 -0.89369,0 -0.89369,0 -0.8937,0 -0.89369,0 -0.89369,0 -0.8937,0 -0.89369,0 -0.8937,0 -0.89369,0 -0.89369,0 -0.8937,0 -0.89369,0 -0.89369,0 -0.8937,0 -0.89369,0 -0.8937,0 -0.89369,0 -0.89369,0 -0.8937,0 -0.89369,0 -0.89369,0 -0.8937,0 -0.89369,0 -0.89369,0 -0.8937,0 -0.89369,0 -0.8937,0 -0.89369,0 -0.89369,0 -0.8937,0 -0.89369,0 -0.89369,0 -0.8937,0 -0.89369,0 -0.8937,0 -0.89369,0 -0.89369,0 -0.8937,0 -0.89369,0 -0.89369,0 -0.8937,0 -0.89369,0 -0.8937,0 -0.89369,0 -0.89369,0 -0.8937,0 -0.89369,0 -0.89369,0 -0.8937,0 -0.89369,0 -0.89369,0 -0.8937,0 -0.89369,0 -0.89369,0 -0.8937,0 -0.89369,0 -0.8937,0 -0.89369,0 -0.89369,0 -0.8937,0 -0.89369,0 -0.8937,0 -0.89369,0 -0.89369,0 -0.8937,0 -0.89369,0 -0.89369,0 -0.8937,0 -0.89369,0 -0.89369,0 -0.8937,0 -0.89369,0 -0.8937,0 -0.89369,0 -0.89369,0 -0.8937,0 -0.89369,0 -0.89369,0 -0.8937,0 -0.89369,0 -0.8937,0 -0.89369,0 -0.89369,0 -0.8937,0 -0.89369,0 -0.89369,0 -0.8937,0 -0.89369,0 -0.8937,0 -0.89369,0 -0.89369,0 -0.8937,0 -0.89369,0 -0.89369,0 -0.8937,0 -0.89369,0 -0.89369,0 -0.8937,0 -0.89369,0 -0.8937,0 -0.89369,0 -0.89369,0 -0.8937,0 -0.89369,0 -0.89369,0 -0.8937,0 -0.89369,0 -0.8937,0 -0.89369,0 -0.89369,0 -0.8937,0 -0.89369,0 -0.89369,0 -0.8937,0 -0.89369,0 -0.89369,0 -0.8937,0 -0.89369,0 -0.89369,0 -0.8937,0 -0.89369,0 -0.8937,0 -0.89369,0 -0.89369,0 -0.8937,0 -0.89369,0 -0.8937,0 -0.89369,0 -0.89369,0 -0.8937,0 -0.89369,0 -0.89369,0 -0.8937,0 -0.89369,0 -0.8937,0 -0.89369,0 -0.89369,0 -0.8937,0 -0.89369,0 -0.89369,0 -0.8937,0 -0.89369,0 -0.89369,0 -0.8937,0 -0.89369,0 -0.89369,0 -0.8937,0 -0.89369,0 -0.8937,0 -0.89369,0 -0.89369,0 -0.8937,0 -0.89369,0 -0.8937,0 -0.89369,0 -0.89369,0 -0.8937,0 -0.89369,0 -0.89369,0 -0.8937,0 -0.89369,0 -0.89369,0 -0.8937,0 -0.89369,0 -0.89369,0 -0.8937,0 -0.89369,0 -0.8937,0 -0.89369,0 -0.89369,0 -0.8937,0 -0.89369,0 -0.8937,0 -0.89369,0 -0.89369,0 -0.8937,0 -0.89369,0 -0.89369,0 -0.8937,0 -0.89369,0 -0.89369,0 -0.8937,0 -0.89369,0 -0.8937,0 -0.89369,0 -0.89369,0 -0.8937,0 -0.89369,0 -0.89369,0 -0.8937,0 -0.89369,0 -0.89369,0 -0.8937,0 -0.89369,0 -0.8937,0 -0.89369,0 -0.89369,0 -0.8937,0 -0.89369,0 -0.89369,0 -0.8937,0 -0.89369,0 -0.8937,0 -0.89369,0 -0.89369,0 -0.8937,0 -0.89369,0 -0.89369,0 -0.8937,0 -0.89369,0 -0.89369,0 -0.8937,0 -0.89369,0 -0.8937,0 -0.89369,0 -0.89369,0 -0.8937,0 -0.89369,0 -0.8937,0 -0.89369,0 -0.893692,0 -0.893694,0 -0.893694,0 -0.893693,0 -0.893694,0 -0.893694,0 -0.893693,0 -0.893694,0 -0.893694,0 -0.893693,0 -0.893694,0 -0.893694,0 -0.893693,0 -0.893694,0 -0.893694,0 -0.893694,0 -0.893693,0 -0.893694,0 -0.893694,0 -0.893693,0 -0.893694,0 -0.893694,0 -0.893693,0 -0.893694,0 -0.893694,0 -0.893694,0 -0.893693,0 -0.893694,0 -0.893694,0 -0.893693,0 -0.893694,0 -0.893694,0 -0.893693,0 -0.893694,0 -0.893694,0 -0.893693,0 -0.893694,0 -0.893694,0 -0.893694,0 -0.893693,0 -0.893694,0 -0.893694,0 -0.893693,0 -0.893694,0 -0.893694,0 -0.893693,0 -0.893694,0 -0.893694,0 -0.893693,0 -0.893694,0 -0.893694,0 -0.893694,0 -0.893693,0 -0.893694,0 -0.893694,0 -0.893693,0 -0.893694,0 -0.893694,0 -0.893693,0 -0.893694,0 -0.893694,0 -0.893693,0 -0.893694,0 -0.893694,0 -0.893694,0 -0.893693,0 -0.893694,0 -0.893694,0 -0.893693,0 -0.893694,0 -0.893694,0 -0.893693,0 -0.893694,0 -0.893694,0 -0.893693,0 -0.893694,0 -0.893694,0 -0.893694,0 -0.223424,0 z" /><g
           id="g26" /></g></g><g
       id="g28"><g
         clip-path="url(#clipPath32)"
         id="g30"><g
           transform="translate(144.13469,154.92813)"
           id="g36"><g
             id="g38"><g
               clip-path="url(#clipPath42)"
               id="g40"><path
                 id="path46"
                 style="fill:#000000;fill-opacity:1;fill-rule:nonzero;stroke:#000000;stroke-width:1;stroke-linecap:butt;stroke-linejoin:round;stroke-miterlimit:10;stroke-dasharray:none;stroke-opacity:1"
                 d="m 0,-2.236068 c 0.593012,0 1.161816,0.235606 1.581139,0.654929 C 2.000462,-1.161816 2.236068,-0.593012 2.236068,0 c 0,0.593012 -0.235606,1.161816 -0.654929,1.581139 C 1.161816,2.000462 0.593012,2.236068 0,2.236068 c -0.593012,0 -1.161816,-0.235606 -1.581139,-0.654929 C -2.000462,1.161816 -2.236068,0.593012 -2.236068,0 c 0,-0.593012 0.235606,-1.161816 0.654929,-1.581139 C -1.161816,-2.000462 -0.593012,-2.236068 0,-2.236068 Z" /></g></g><g
             transform="translate(244.8961,-94.455573)"
             id="g48"><g
               id="g50"><g
                 clip-path="url(#clipPath54)"
                 id="g52"><path
                   id="path58"
                   style="fill:#000000;fill-opacity:1;fill-rule:nonzero;stroke:#000000;stroke-width:1;stroke-linecap:butt;stroke-linejoin:round;stroke-miterlimit:10;stroke-dasharray:none;stroke-opacity:1"
                   d="m 0,-2.236068 c 0.593012,0 1.161816,0.235606 1.581139,0.654929 C 2.000462,-1.161816 2.236068,-0.593012 2.236068,0 c 0,0.593012 -0.235606,1.161816 -0.654929,1.581139 C 1.161816,2.000462 0.593012,2.236068 0,2.236068 c -0.593012,0 -1.161816,-0.235606 -1.581139,-0.654929 C -2.000462,1.161816 -2.236068,0.593012 -2.236068,0 c 0,-0.593012 0.235606,-1.161816 0.654929,-1.581139 C -1.161816,-2.000462 -0.593012,-2.236068 0,-2.236068 Z" /></g></g><g
               transform="translate(-161.09208,25.348876)"
               id="g60"><g
                 id="g62"><g
                   clip-path="url(#clipPath66)"
                   id="g64"><path
                     id="path70"
                     style="fill:#000000;fill-opacity:1;fill-rule:nonzero;stroke:#000000;stroke-width:1;stroke-linecap:butt;stroke-linejoin:round;stroke-miterlimit:10;stroke-dasharray:none;stroke-opacity:1"
                     d="m 0,-2.236068 c 0.593012,0 1.161816,0.235606 1.581139,0.654929 C 2.000462,-1.161816 2.236068,-0.593012 2.236068,0 c 0,0.593012 -0.235606,1.161816 -0.654929,1.581139 C 1.161816,2.000462 0.593012,2.236068 0,2.236068 c -0.593012,0 -1.161816,-0.235606 -1.581139,-0.654929 C -2.000462,1.161816 -2.236068,0.593012 -2.236068,0 c 0,-0.593012 0.235606,-1.161816 0.654929,-1.581139 C -1.161816,-2.000462 -0.593012,-2.236068 0,-2.236068 Z" /></g></g><g
                 transform="translate(-39.124986,78.095685)"
                 id="g72"><g
                   id="g74"><g
                     clip-path="url(#clipPath78)"
                     id="g76"><path
                       id="path82"
                       style="fill:#000000;fill-opacity:1;fill-rule:nonzero;stroke:#000000;stroke-width:1;stroke-linecap:butt;stroke-linejoin:round;stroke-miterlimit:10;stroke-dasharray:none;stroke-opacity:1"
                       d="m 0,-2.236068 c 0.593012,0 1.161816,0.235606 1.581139,0.654929 C 2.000462,-1.161816 2.236068,-0.593012 2.236068,0 c 0,0.593012 -0.235606,1.161816 -0.654929,1.581139 C 1.161816,2.000462 0.593012,2.236068 0,2.236068 c -0.593012,0 -1.161816,-0.235606 -1.581139,-0.654929 C -2.000462,1.161816 -2.236068,0.593012 -2.236068,0 c 0,-0.593012 0.235606,-1.161816 0.654929,-1.581139 C -1.161816,-2.000462 -0.593012,-2.236068 0,-2.236068 Z" /></g></g><g
                   transform="translate(167.35737,73.613244)"
                   id="g84"><g
                     id="g86"><g
                       clip-path="url(#clipPath90)"
                       id="g88"><path
                         id="path94"
                         style="fill:#000000;fill-opacity:1;fill-rule:nonzero;stroke:#000000;stroke-width:1;stroke-linecap:butt;stroke-linejoin:round;stroke-miterlimit:10;stroke-dasharray:none;stroke-opacity:1"
                         d="m 0,-2.236068 c 0.593012,0 1.161816,0.235606 1.581139,0.654929 C 2.000462,-1.161816 2.236068,-0.593012 2.236068,0 c 0,0.593012 -0.235606,1.161816 -0.654929,1.581139 C 1.161816,2.000462 0.593012,2.236068 0,2.236068 c -0.593012,0 -1.161816,-0.235606 -1.581139,-0.654929 C -2.000462,1.161816 -2.236068,0.593012 -2.236068,0 c 0,-0.593012 0.235606,-1.161816 0.654929,-1.581139 C -1.161816,-2.000462 -0.593012,-2.236068 0,-2.236068 Z" /></g></g><g
                     transform="translate(-72.516698,-98.994896)"
                     id="g96"><g
                       id="g98"><g
                         clip-path="url(#clipPath102)"
                         id="g100"><path
                           id="path106"
                           style="fill:#000000;fill-opacity:1;fill-rule:nonzero;stroke:#000000;stroke-width:1;stroke-linecap:butt;stroke-linejoin:round;stroke-miterlimit:10;stroke-dasharray:none;stroke-opacity:1"
                           d="m 0,-2.236068 c 0.593012,0 1.161816,0.235606 1.581139,0.654929 C 2.000462,-1.161816 2.236068,-0.593012 2.236068,0 c 0,0.593012 -0.235606,1.161816 -0.654929,1.581139 C 1.161816,2.000462 0.593012,2.236068 0,2.236068 c -0.593012,0 -1.161816,-0.235606 -1.581139,-0.654929 C -2.000462,1.161816 -2.236068,0.593012 -2.236068,0 c 0,-0.593012 0.235606,-1.161816 0.654929,-1.581139 C -1.161816,-2.000462 -0.593012,-2.236068 0,-2.236068 Z" /></g></g><g
                       transform="translate(37.99553,-74.679129)"
                       id="g108"><g
                         id="g110"><g
                           clip-path="url(#clipPath114)"
                           id="g112"><path
                             id="path118"
                             style="fill:#000000;fill-opacity:1;fill-rule:nonzero;stroke:#000000;stroke-width:1;stroke-linecap:butt;stroke-linejoin:round;stroke-miterlimit:10;stroke-dasharray:none;stroke-opacity:1"
                             d="m 0,-2.236068 c 0.593012,0 1.161816,0.235606 1.581139,0.654929 C 2.000462,-1.161816 2.236068,-0.593012 2.236068,0 c 0,0.593012 -0.235606,1.161816 -0.654929,1.581139 C 1.161816,2.000462 0.593012,2.236068 0,2.236068 c -0.593012,0 -1.161816,-0.235606 -1.581139,-0.654929 C -2.000462,1.161816 -2.236068,0.593012 -2.236068,0 c 0,-0.593012 0.235606,-1.161816 0.654929,-1.581139 C -1.161816,-2.000462 -0.593012,-2.236068 0,-2.236068 Z" /></g></g><g
                         transform="translate(-190.36959,121.29093)"
                         id="g120"><g
                           id="g122"><g
                             clip-path="url(#clipPath126)"
                             id="g124"><path
                               id="path130"
                               style="fill:#000000;fill-opacity:1;fill-rule:nonzero;stroke:#000000;stroke-width:1;stroke-linecap:butt;stroke-linejoin:round;stroke-miterlimit:10;stroke-dasharray:none;stroke-opacity:1"
                               d="m 0,-2.236068 c 0.593012,0 1.161816,0.235606 1.581139,0.654929 C 2.000462,-1.161816 2.236068,-0.593012 2.236068,0 c 0,0.593012 -0.235606,1.161816 -0.654929,1.581139 C 1.161816,2.000462 0.593012,2.236068 0,2.236068 c -0.593012,0 -1.161816,-0.235606 -1.581139,-0.654929 C -2.000462,1.161816 -2.236068,0.593012 -2.236068,0 c 0,-0.593012 0.235606,-1.161816 0.654929,-1.581139 C -1.161816,-2.000462 -0.593012,-2.236068 0,-2.236068 Z" /></g></g><g
                           transform="translate(105.61629,145.50401)"
                           id="g132"><g
                             id="g134"><g
                               clip-path="url(#clipPath138)"
                               id="g136"><path
                                 id="path142"
                                 style="fill:#000000;fill-opacity:1;fill-rule:nonzero;stroke:#000000;stroke-width:1;stroke-linecap:butt;stroke-linejoin:round;stroke-miterlimit:10;stroke-dasharray:none;stroke-opacity:1"
                                 d="m 0,-2.236068 c 0.593012,0 1.161816,0.235606 1.581139,0.654929 C 2.000462,-1.161816 2.236068,-0.593012 2.236068,0 c 0,0.593012 -0.235606,1.161816 -0.654929,1.581139 C 1.161816,2.000462 0.593012,2.236068 0,2.236068 c -0.593012,0 -1.161816,-0.235606 -1.581139,-0.654929 C -2.000462,1.161816 -2.236068,0.593012 -2.236068,0 c 0,-0.593012 0.235606,-1.161816 0.654929,-1.581139 C -1.161816,-2.000462 -0.593012,-2.236068 0,-2.236068 Z" /></g></g><g
                             transform="translate(-39.319213,-304.40532)"
                             id="g144"><g
                               id="g146"><g
                                 clip-path="url(#clipPath150)"
                                 id="g148"><path
                                   id="path154"
                                   style="fill:#000000;fill-opacity:1;fill-rule:nonzero;stroke:#000000;stroke-width:1;stroke-linecap:butt;stroke-linejoin:round;stroke-miterlimit:10;stroke-dasharray:none;stroke-opacity:1"
                                   d="m 0,-2.236068 c 0.593012,0 1.161816,0.235606 1.581139,0.654929 C 2.000462,-1.161816 2.236068,-0.593012 2.236068,0 c 0,0.593012 -0.235606,1.161816 -0.654929,1.581139 C 1.161816,2.000462 0.593012,2.236068 0,2.236068 c -0.593012,0 -1.161816,-0.235606 -1.581139,-0.654929 C -2.000462,1.161816 -2.236068,0.593012 -2.236068,0 c 0,-0.593012 0.235606,-1.161816 0.654929,-1.581139 C -1.161816,-2.000462 -0.593012,-2.236068 0,-2.236068 Z" /></g></g><g
                               transform="translate(62.716123,79.289577)"
                               id="g156"><g
                                 id="g158"><g
                                   clip-path="url(#clipPath162)"
                                   id="g160"><path
                                   id="path166"
                                   style="fill:#000000;fill-opacity:1;fill-rule:nonzero;stroke:#000000;stroke-width:1;stroke-linecap:butt;stroke-linejoin:round;stroke-miterlimit:10;stroke-dasharray:none;stroke-opacity:1"
                                   d="m 0,-2.236068 c 0.593012,0 1.161816,0.235606 1.581139,0.654929 C 2.000462,-1.161816 2.236068,-0.593012 2.236068,0 c 0,0.593012 -0.235606,1.161816 -0.654929,1.581139 C 1.161816,2.000462 0.593012,2.236068 0,2.236068 c -0.593012,0 -1.161816,-0.235606 -1.581139,-0.654929 C -2.000462,1.161816 -2.236068,0.593012 -2.236068,0 c 0,-0.593012 0.235606,-1.161816 0.654929,-1.581139 C -1.161816,-2.000462 -0.593012,-2.236068 0,-2.236068 Z" /></g></g><g
                                 transform="translate(-25.754932,133.71377)"
                                 id="g168"><g
                                   id="g170"><g
                                   clip-path="url(#clipPath174)"
                                   id="g172"><path
                                   id="path178"
                                   style="fill:#000000;fill-opacity:1;fill-rule:nonzero;stroke:#000000;stroke-width:1;stroke-linecap:butt;stroke-linejoin:round;stroke-miterlimit:10;stroke-dasharray:none;stroke-opacity:1"
                                   d="m 0,-2.236068 c 0.593012,0 1.161816,0.235606 1.581139,0.654929 C 2.000462,-1.161816 2.236068,-0.593012 2.236068,0 c 0,0.593012 -0.235606,1.161816 -0.654929,1.581139 C 1.161816,2.000462 0.593012,2.236068 0,2.236068 c -0.593012,0 -1.161816,-0.235606 -1.581139,-0.654929 C -2.000462,1.161816 -2.236068,0.593012 -2.236068,0 c 0,-0.593012 0.235606,-1.161816 0.654929,-1.581139 C -1.161816,-2.000462 -0.593012,-2.236068 0,-2.236068 Z" /></g></g></g></g></g></g></g></g></g></g></g></g></g></g></g></g><g
       id="g180" /><g
       id="g182"><g
         clip-path="url(#clipPath186)"
         id="g184"><g
           transform="translate(187.53437,315.88165)"
           id="g190"><g
             id="g192"><g
               clip-path="url(#clipPath196)"
               id="g194"><path
                 id="path200"
                 style="fill:#a52a2a;fill-opacity:1;fill-rule:nonzero;stroke:#a52a2a;stroke-width:1;stroke-linecap:butt;stroke-linejoin:round;stroke-miterlimit:10;stroke-dasharray:none;stroke-opacity:1"
                 d="m 0,-2.236068 c 0.593012,0 1.161816,0.235606 1.581139,0.654929 C 2.000462,-1.161816 2.236068,-0.593012 2.236068,0 c 0,0.593012 -0.235606,1.161816 -0.654929,1.581139 C 1.161816,2.000462 0.593012,2.236068 0,2.236068 c -0.593012,0 -1.161816,-0.235606 -1.581139,-0.654929 C -2.000462,1.161816 -2.236068,0.593012 -2.236068,0 c 0,-0.593012 0.235606,-1.161816 0.654929,-1.581139 C -1.161816,-2.000462 -0.593012,-2.236068 0,-2.236068 Z" /></g></g><g
             transform="translate(-64.094512,-83.931968)"
             id="g202"><g
               id="g204"><g
                 clip-path="url(#clipPath208)"
                 id="g206"><path
                   id="path212"
                   style="fill:#a52a2a;fill-opacity:1;fill-rule:nonzero;stroke:#a52a2a;stroke-width:1;stroke-linecap:butt;stroke-linejoin:round;stroke-miterlimit:10;stroke-dasharray:none;stroke-opacity:1"
                   d="m 0,-2.236068 c 0.593012,0 1.161816,0.235606 1.581139,0.654929 C 2.000462,-1.161816 2.236068,-0.593012 2.236068,0 c 0,0.593012 -0.235606,1.161816 -0.654929,1.581139 C 1.161816,2.000462 0.593012,2.236068 0,2.236068 c -0.593012,0 -1.161816,-0.235606 -1.581139,-0.654929 C -2.000462,1.161816 -2.236068,0.593012 -2.236068,0 c 0,-0.593012 0.235606,-1.161816 0.654929,-1.581139 C -1.161816,-2.000462 -0.593012,-2.236068 0,-2.236068 Z" /></g></g><g
               transform="translate(314.74138,-15.879734)"
               id="g214"><g
                 id="g216"><g
                   clip-path="url(#clipPath220)"
                   id="g218"><path
                     id="path224"
                     style="fill:#a52a2a;fill-opacity:1;fill-rule:nonzero;stroke:#a52a2a;stroke-width:1;stroke-linecap:butt;stroke-linejoin:round;stroke-miterlimit:10;stroke-dasharray:none;stroke-opacity:1"
                     d="m 0,-2.236068 c 0.593012,0 1.161816,0.235606 1.581139,0.654929 C 2.000462,-1.161816 2.236068,-0.593012 2.236068,0 c 0,0.593012 -0.235606,1.161816 -0.654929,1.581139 C 1.161816,2.000462 0.593012,2.236068 0,2.236068 c -0.593012,0 -1.161816,-0.235606 -1.581139,-0.654929 C -2.000462,1.161816 -2.236068,0.593012 -2.236068,0 c 0,-0.593012 0.235606,-1.161816 0.654929,-1.581139 C -1.161816,-2.000462 -0.593012,-2.236068 0,-2.236068 Z" /></g></g><g
                 transform="translate(14.428255,52.975106)"
                 id="g226"><g
                   id="g228"><g
                     clip-path="url(#clipPath232)"
                     id="g230"><path
                       id="path236"
                       style="fill:#a52a2a;fill-opacity:1;fill-rule:nonzero;stroke:#a52a2a;stroke-width:1;stroke-linecap:butt;stroke-linejoin:round;stroke-miterlimit:10;stroke-dasharray:none;stroke-opacity:1"
                       d="m 0,-2.236068 c 0.593012,0 1.161816,0.235606 1.581139,0.654929 C 2.000462,-1.161816 2.236068,-0.593012 2.236068,0 c 0,0.593012 -0.235606,1.161816 -0.654929,1.581139 C 1.161816,2.000462 0.593012,2.236068 0,2.236068 c -0.593012,0 -1.161816,-0.235606 -1.581139,-0.654929 C -2.000462,1.161816 -2.236068,0.593012 -2.236068,0 c 0,-0.593012 0.235606,-1.161816 0.654929,-1.581139 C -1.161816,-2.000462 -0.593012,-2.236068 0,-2.236068 Z" /></g></g><g
                   transform="translate(-21.52714,-143.34548)"
                   id="g238"><g
                     id="g240"><g
                       clip-path="url(#clipPath244)"
                       id="g242"><path
                         id="path248"
                         style="fill:#a52a2a;fill-opacity:1;fill-rule:nonzero;stroke:#a52a2a;stroke-width:1;stroke-linecap:butt;stroke-linejoin:round;stroke-miterlimit:10;stroke-dasharray:none;stroke-opacity:1"
                         d="m 0,-2.236068 c 0.593012,0 1.161816,0.235606 1.581139,0.654929 C 2.000462,-1.161816 2.236068,-0.593012 2.236068,0 c 0,0.593012 -0.235606,1.161816 -0.654929,1.581139 C 1.161816,2.000462 0.593012,2.236068 0,2.236068 c -0.593012,0 -1.161816,-0.235606 -1.581139,-0.654929 C -2.000462,1.161816 -2.236068,0.593012 -2.236068,0 c 0,-0.593012 0.235606,-1.161816 0.654929,-1.581139 C -1.161816,-2.000462 -0.593012,-2.236068 0,-2.236068 Z" /></g></g><g
                     transform="translate(-274.92226,204.60144)"
                     id="g250"><g
                       id="g252"><g
                         clip-path="url(#clipPath256)"
                         id="g254"><path
                           id="path260"
                           style="fill:#a52a2a;fill-opacity:1;fill-rule:nonzero;stroke:#a52a2a;stroke-width:1;stroke-linecap:butt;stroke-linejoin:round;stroke-miterlimit:10;stroke-dasharray:none;stroke-opacity:1"
                           d="m 0,-2.236068 c 0.593012,0 1.161816,0.235606 1.581139,0.654929 C 2.000462,-1.161816 2.236068,-0.593012 2.236068,0 c 0,0.593012 -0.235606,1.161816 -0.654929,1.581139 C 1.161816,2.000462 0.593012,2.236068 0,2.236068 c -0.593012,0 -1.161816,-0.235606 -1.581139,-0.654929 C -2.000462,1.161816 -2.236068,0.593012 -2.236068,0 c 0,-0.593012 0.235606,-1.161816 0.654929,-1.581139 C -1.161816,-2.000462 -0.593012,-2.236068 0,-2.236068 Z" /></g></g><g
                       transform="translate(-74.439935,-173.24876)"
                       id="g262"><g
                         id="g264"><g
                           clip-path="url(#clipPath268)"
                           id="g266"><path
                             id="path272"
                             style="fill:#a52a2a;fill-opacity:1;fill-rule:nonzero;stroke:#a52a2a;stroke-width:1;stroke-linecap:butt;stroke-linejoin:round;stroke-miterlimit:10;stroke-dasharray:none;stroke-opacity:1"
                             d="m 0,-2.236068 c 0.593012,0 1.161816,0.235606 1.581139,0.654929 C 2.000462,-1.161816 2.236068,-0.593012 2.236068,0 c 0,0.593012 -0.235606,1.161816 -0.654929,1.581139 C 1.161816,2.000462 0.593012,2.236068 0,2.236068 c -0.593012,0 -1.161816,-0.235606 -1.581139,-0.654929 C -2.000462,1.161816 -2.236068,0.593012 -2.236068,0 c 0,-0.593012 0.235606,-1.161816 0.654929,-1.581139 C -1.161816,-2.000462 -0.593012,-2.236068 0,-2.236068 Z" /></g></g><g
                         transform="translate(363.63672,175.36744)"
                         id="g274"><g
                           id="g276"><g
                             clip-path="url(#clipPath280)"
                             id="g278"><path
                               id="path284"
                               style="fill:#a52a2a;fill-opacity:1;fill-rule:nonzero;stroke:#a52a2a;stroke-width:1;stroke-linecap:butt;stroke-linejoin:round;stroke-miterlimit:10;stroke-dasharray:none;stroke-opacity:1"
                               d="m 0,-2.236068 c 0.593012,0 1.161816,0.235606 1.581139,0.654929 C 2.000462,-1.161816 2.236068,-0.593012 2.236068,0 c 0,0.593012 -0.235606,1.161816 -0.654929,1.581139 C 1.161816,2.000462 0.593012,2.236068 0,2.236068 c -0.593012,0 -1.161816,-0.235606 -1.581139,-0.654929 C -2.000462,1.161816 -2.236068,0.593012 -2.236068,0 c 0,-0.593012 0.235606,-1.161816 0.654929,-1.581139 C -1.161816,-2.000462 -0.593012,-2.236068 0,-2.236068 Z" /></g></g></g></g></g></g></g></g></g></g></g></g><g
       id="g286"><g
         clip-path="url(#clipPath290)"
         id="g288"><path
           id="path294"
           style="fill:none;stroke:#0000ff;stroke-width:1;stroke-linecap:square;stroke-linejoin:round;stroke-miterlimit:10;stroke-dasharray:none;stroke-opacity:1"
           d="m 19.508129,-1 40.500936,89.050427 11.618018,24.882933 10.724325,22.43821 8.936937,18.21433 8.936935,17.69725 8.04325,15.42752 7.14954,13.27414 7.14955,12.82572 7.14955,12.34483 6.25586,10.38267 6.25585,9.97042 6.25586,9.53887 6.25586,9.08881 5.36216,7.41884 5.36216,7.06467 5.36216,6.70044 5.36216,6.32668 5.36217,5.9439 4.46847,4.65473 4.46847,4.37842 4.46846,4.09779 4.46847,3.8131 4.46847,3.52464 4.46847,3.23269 4.46847,2.93756 4.46846,2.63951 4.46847,2.33885 4.46847,2.03589 3.57478,1.4092 3.57477,1.21312 3.57478,1.01627 3.57477,0.81877 3.57478,0.62076 3.57477,0.42235 3.57478,0.22367 3.57477,0.0249 3.57477,-0.17398 3.57478,-0.3727 3.57477,-0.57119 3.57478,-0.76931 3.57477,-0.96695 3.57478,-1.16397 3.57477,-1.36027 3.57478,-1.55569 4.46847,-2.21793 4.46847,-2.51954 4.46846,-2.81867 4.46847,-3.11501 4.46847,-3.40826 4.46847,-3.69815 4.46847,-3.98439 4.46847,-4.26667 4.46846,-4.54474 4.46847,-4.81832 5.36217,-6.13639 5.36216,-6.51472 5.36216,-6.88378 5.36216,-7.24304 5.36216,-7.59199 6.25586,-9.2839 6.25586,-9.72613 6.25585,-10.14951 6.25586,-10.55323 7.14955,-12.52889 7.14955,-12.99774 7.14955,-13.43369 8.04324,-15.59161 8.93694,-17.85982 8.93693,-18.3555 9.83063,-20.67688 11.61802,-24.960884 14.2991,-31.26599 21.82883,-48.209207 0,0" /></g></g><g
       id="g296"><g
         clip-path="url(#clipPath300)"
         id="g298"><path
           id="path304"
           style="fill:none;stroke:#008000;stroke-width:1;stroke-linecap:square;stroke-linejoin:round;stroke-miterlimit:10;stroke-dasharray:none;stroke-opacity:1"
           d="m -1,337.00682 485.89375,0 0,0" /></g></g><g
       id="g306"><g
         clip-path="url(#clipPath310)"
         id="g308"><path
           id="path314"
           style="fill:none;stroke:#ff0000;stroke-width:1;stroke-linecap:square;stroke-linejoin:round;stroke-miterlimit:10;stroke-dasharray:none;stroke-opacity:1"
           d="m 13.368073,-1 239.678827,337.37783 0.8937,0 230.95315,-325.095352 0,0" /></g></g><g
       id="g316"><path
         id="path318"
         style="fill:none;stroke:#000000;stroke-width:1;stroke-linecap:square;stroke-linejoin:miter;stroke-miterlimit:10;stroke-dasharray:none;stroke-opacity:1"
         d="m 30.29375,368.425 446.4,0" /><path
         id="path320"
         style="fill:none;stroke:#000000;stroke-width:1;stroke-linecap:square;stroke-linejoin:miter;stroke-miterlimit:10;stroke-dasharray:none;stroke-opacity:1"
         d="m 30.29375,22.825 446.4,0" /><path
         id="path322"
         style="fill:none;stroke:#000000;stroke-width:1;stroke-linecap:square;stroke-linejoin:miter;stroke-miterlimit:10;stroke-dasharray:none;stroke-opacity:1"
         d="m 30.29375,22.825 0,345.6" /><path
         id="path324"
         style="fill:none;stroke:#000000;stroke-width:1;stroke-linecap:square;stroke-linejoin:miter;stroke-miterlimit:10;stroke-dasharray:none;stroke-opacity:1"
         d="m 476.69375,22.825 0,345.6" /><path
         id="path326"
         style="fill:#000000;fill-opacity:1;fill-rule:nonzero;stroke:#000000;stroke-width:0.5;stroke-linecap:butt;stroke-linejoin:round;stroke-miterlimit:10;stroke-dasharray:none;stroke-opacity:1"
         d="m 30.29375,22.825 0,4" /><path
         id="path328"
         style="fill:#000000;fill-opacity:1;fill-rule:nonzero;stroke:#000000;stroke-width:0.5;stroke-linecap:butt;stroke-linejoin:round;stroke-miterlimit:10;stroke-dasharray:none;stroke-opacity:1"
         d="m 30.29375,368.425 0,-4" /><text
         id="text330"
         style="font-variant:normal;font-weight:normal;font-size:12px;font-family:'Bitstream Vera Sans';-inkscape-font-specification:BitstreamVeraSans-Roman;writing-mode:lr-tb;fill:#000000;fill-opacity:1;fill-rule:nonzero;stroke:none"
         transform="matrix(1,0,0,-1,20.746875,9.7)"><tspan
           id="tspan332"
           y="0"
           x="0 7.632 11.448">0.0</tspan></text>
<path
         id="path334"
         style="fill:#000000;fill-opacity:1;fill-rule:nonzero;stroke:#000000;stroke-width:0.5;stroke-linecap:butt;stroke-linejoin:round;stroke-miterlimit:10;stroke-dasharray:none;stroke-opacity:1"
         d="m 101.34052,22.825 0,4" /><path
         id="path336"
         style="fill:#000000;fill-opacity:1;fill-rule:nonzero;stroke:#000000;stroke-width:0.5;stroke-linecap:butt;stroke-linejoin:round;stroke-miterlimit:10;stroke-dasharray:none;stroke-opacity:1"
         d="m 101.34052,368.425 0,-4" /><text
         id="text338"
         style="font-variant:normal;font-weight:normal;font-size:12px;font-family:'Bitstream Vera Sans';-inkscape-font-specification:BitstreamVeraSans-Roman;writing-mode:lr-tb;fill:#000000;fill-opacity:1;fill-rule:nonzero;stroke:none"
         transform="matrix(1,0,0,-1,91.793642,9.7)"><tspan
           id="tspan340"
           y="0"
           x="0 7.632 11.448">0.5</tspan></text>
<path
         id="path342"
         style="fill:#000000;fill-opacity:1;fill-rule:nonzero;stroke:#000000;stroke-width:0.5;stroke-linecap:butt;stroke-linejoin:round;stroke-miterlimit:10;stroke-dasharray:none;stroke-opacity:1"
         d="m 172.38728,22.825 0,4" /><path
         id="path344"
         style="fill:#000000;fill-opacity:1;fill-rule:nonzero;stroke:#000000;stroke-width:0.5;stroke-linecap:butt;stroke-linejoin:round;stroke-miterlimit:10;stroke-dasharray:none;stroke-opacity:1"
         d="m 172.38728,368.425 0,-4" /><text
         id="text346"
         style="font-variant:normal;font-weight:normal;font-size:12px;font-family:'Bitstream Vera Sans';-inkscape-font-specification:BitstreamVeraSans-Roman;writing-mode:lr-tb;fill:#000000;fill-opacity:1;fill-rule:nonzero;stroke:none"
         transform="matrix(1,0,0,-1,162.84041,9.7)"><tspan
           id="tspan348"
           y="0"
           x="0 7.632 11.448">1.0</tspan></text>
<path
         id="path350"
         style="fill:#000000;fill-opacity:1;fill-rule:nonzero;stroke:#000000;stroke-width:0.5;stroke-linecap:butt;stroke-linejoin:round;stroke-miterlimit:10;stroke-dasharray:none;stroke-opacity:1"
         d="m 243.43405,22.825 0,4" /><path
         id="path352"
         style="fill:#000000;fill-opacity:1;fill-rule:nonzero;stroke:#000000;stroke-width:0.5;stroke-linecap:butt;stroke-linejoin:round;stroke-miterlimit:10;stroke-dasharray:none;stroke-opacity:1"
         d="m 243.43405,368.425 0,-4" /><text
         id="text354"
         style="font-variant:normal;font-weight:normal;font-size:12px;font-family:'Bitstream Vera Sans';-inkscape-font-specification:BitstreamVeraSans-Roman;writing-mode:lr-tb;fill:#000000;fill-opacity:1;fill-rule:nonzero;stroke:none"
         transform="matrix(1,0,0,-1,233.88717,9.7)"><tspan
           id="tspan356"
           y="0"
           x="0 7.632 11.448">1.5</tspan></text>
<path
         id="path358"
         style="fill:#000000;fill-opacity:1;fill-rule:nonzero;stroke:#000000;stroke-width:0.5;stroke-linecap:butt;stroke-linejoin:round;stroke-miterlimit:10;stroke-dasharray:none;stroke-opacity:1"
         d="m 314.48082,22.825 0,4" /><path
         id="path360"
         style="fill:#000000;fill-opacity:1;fill-rule:nonzero;stroke:#000000;stroke-width:0.5;stroke-linecap:butt;stroke-linejoin:round;stroke-miterlimit:10;stroke-dasharray:none;stroke-opacity:1"
         d="m 314.48082,368.425 0,-4" /><text
         id="text362"
         style="font-variant:normal;font-weight:normal;font-size:12px;font-family:'Bitstream Vera Sans';-inkscape-font-specification:BitstreamVeraSans-Roman;writing-mode:lr-tb;fill:#000000;fill-opacity:1;fill-rule:nonzero;stroke:none"
         transform="matrix(1,0,0,-1,304.93394,9.7)"><tspan
           id="tspan364"
           y="0"
           x="0 7.632 11.448">2.0</tspan></text>
<path
         id="path366"
         style="fill:#000000;fill-opacity:1;fill-rule:nonzero;stroke:#000000;stroke-width:0.5;stroke-linecap:butt;stroke-linejoin:round;stroke-miterlimit:10;stroke-dasharray:none;stroke-opacity:1"
         d="m 385.52758,22.825 0,4" /><path
         id="path368"
         style="fill:#000000;fill-opacity:1;fill-rule:nonzero;stroke:#000000;stroke-width:0.5;stroke-linecap:butt;stroke-linejoin:round;stroke-miterlimit:10;stroke-dasharray:none;stroke-opacity:1"
         d="m 385.52758,368.425 0,-4" /><text
         id="text370"
         style="font-variant:normal;font-weight:normal;font-size:12px;font-family:'Bitstream Vera Sans';-inkscape-font-specification:BitstreamVeraSans-Roman;writing-mode:lr-tb;fill:#000000;fill-opacity:1;fill-rule:nonzero;stroke:none"
         transform="matrix(1,0,0,-1,375.98071,9.7)"><tspan
           id="tspan372"
           y="0"
           x="0 7.632 11.448">2.5</tspan></text>
<path
         id="path374"
         style="fill:#000000;fill-opacity:1;fill-rule:nonzero;stroke:#000000;stroke-width:0.5;stroke-linecap:butt;stroke-linejoin:round;stroke-miterlimit:10;stroke-dasharray:none;stroke-opacity:1"
         d="m 456.57435,22.825 0,4" /><path
         id="path376"
         style="fill:#000000;fill-opacity:1;fill-rule:nonzero;stroke:#000000;stroke-width:0.5;stroke-linecap:butt;stroke-linejoin:round;stroke-miterlimit:10;stroke-dasharray:none;stroke-opacity:1"
         d="m 456.57435,368.425 0,-4" /><text
         id="text378"
         style="font-variant:normal;font-weight:normal;font-size:12px;font-family:'Bitstream Vera Sans';-inkscape-font-specification:BitstreamVeraSans-Roman;writing-mode:lr-tb;fill:#000000;fill-opacity:1;fill-rule:nonzero;stroke:none"
         transform="matrix(1,0,0,-1,447.02747,9.7)"><tspan
           id="tspan380"
           y="0"
           x="0 7.632 11.448">3.0</tspan></text>
<path
         id="path382"
         style="fill:#000000;fill-opacity:1;fill-rule:nonzero;stroke:#000000;stroke-width:0.5;stroke-linecap:butt;stroke-linejoin:round;stroke-miterlimit:10;stroke-dasharray:none;stroke-opacity:1"
         d="m 30.29375,22.825 4,0" /><path
         id="path384"
         style="fill:#000000;fill-opacity:1;fill-rule:nonzero;stroke:#000000;stroke-width:0.5;stroke-linecap:butt;stroke-linejoin:round;stroke-miterlimit:10;stroke-dasharray:none;stroke-opacity:1"
         d="m 476.69375,22.825 -4,0" /><text
         id="text386"
         style="font-variant:normal;font-weight:normal;font-size:12px;font-family:'Bitstream Vera Sans';-inkscape-font-specification:BitstreamVeraSans-Roman;writing-mode:lr-tb;fill:#000000;fill-opacity:1;fill-rule:nonzero;stroke:none"
         transform="matrix(1,0,0,-1,7.2,19.5125)"><tspan
           id="tspan388"
           y="0"
           x="0 7.632 11.448">0.0</tspan></text>
<path
         id="path390"
         style="fill:#000000;fill-opacity:1;fill-rule:nonzero;stroke:#000000;stroke-width:0.5;stroke-linecap:butt;stroke-linejoin:round;stroke-miterlimit:10;stroke-dasharray:none;stroke-opacity:1"
         d="m 30.29375,85.661364 4,0" /><path
         id="path392"
         style="fill:#000000;fill-opacity:1;fill-rule:nonzero;stroke:#000000;stroke-width:0.5;stroke-linecap:butt;stroke-linejoin:round;stroke-miterlimit:10;stroke-dasharray:none;stroke-opacity:1"
         d="m 476.69375,85.661364 -4,0" /><text
         id="text394"
         style="font-variant:normal;font-weight:normal;font-size:12px;font-family:'Bitstream Vera Sans';-inkscape-font-specification:BitstreamVeraSans-Roman;writing-mode:lr-tb;fill:#000000;fill-opacity:1;fill-rule:nonzero;stroke:none"
         transform="matrix(1,0,0,-1,7.2,82.348864)"><tspan
           id="tspan396"
           y="0"
           x="0 7.632 11.448">0.2</tspan></text>
<path
         id="path398"
         style="fill:#000000;fill-opacity:1;fill-rule:nonzero;stroke:#000000;stroke-width:0.5;stroke-linecap:butt;stroke-linejoin:round;stroke-miterlimit:10;stroke-dasharray:none;stroke-opacity:1"
         d="m 30.29375,148.49773 4,0" /><path
         id="path400"
         style="fill:#000000;fill-opacity:1;fill-rule:nonzero;stroke:#000000;stroke-width:0.5;stroke-linecap:butt;stroke-linejoin:round;stroke-miterlimit:10;stroke-dasharray:none;stroke-opacity:1"
         d="m 476.69375,148.49773 -4,0" /><text
         id="text402"
         style="font-variant:normal;font-weight:normal;font-size:12px;font-family:'Bitstream Vera Sans';-inkscape-font-specification:BitstreamVeraSans-Roman;writing-mode:lr-tb;fill:#000000;fill-opacity:1;fill-rule:nonzero;stroke:none"
         transform="matrix(1,0,0,-1,7.2,145.18523)"><tspan
           id="tspan404"
           y="0"
           x="0 7.632 11.448">0.4</tspan></text>
<path
         id="path406"
         style="fill:#000000;fill-opacity:1;fill-rule:nonzero;stroke:#000000;stroke-width:0.5;stroke-linecap:butt;stroke-linejoin:round;stroke-miterlimit:10;stroke-dasharray:none;stroke-opacity:1"
         d="m 30.29375,211.33409 4,0" /><path
         id="path408"
         style="fill:#000000;fill-opacity:1;fill-rule:nonzero;stroke:#000000;stroke-width:0.5;stroke-linecap:butt;stroke-linejoin:round;stroke-miterlimit:10;stroke-dasharray:none;stroke-opacity:1"
         d="m 476.69375,211.33409 -4,0" /><text
         id="text410"
         style="font-variant:normal;font-weight:normal;font-size:12px;font-family:'Bitstream Vera Sans';-inkscape-font-specification:BitstreamVeraSans-Roman;writing-mode:lr-tb;fill:#000000;fill-opacity:1;fill-rule:nonzero;stroke:none"
         transform="matrix(1,0,0,-1,7.2,208.02159)"><tspan
           id="tspan412"
           y="0"
           x="0 7.632 11.448">0.6</tspan></text>
<path
         id="path414"
         style="fill:#000000;fill-opacity:1;fill-rule:nonzero;stroke:#000000;stroke-width:0.5;stroke-linecap:butt;stroke-linejoin:round;stroke-miterlimit:10;stroke-dasharray:none;stroke-opacity:1"
         d="m 30.29375,274.17045 4,0" /><path
         id="path416"
         style="fill:#000000;fill-opacity:1;fill-rule:nonzero;stroke:#000000;stroke-width:0.5;stroke-linecap:butt;stroke-linejoin:round;stroke-miterlimit:10;stroke-dasharray:none;stroke-opacity:1"
         d="m 476.69375,274.17045 -4,0" /><text
         id="text418"
         style="font-variant:normal;font-weight:normal;font-size:12px;font-family:'Bitstream Vera Sans';-inkscape-font-specification:BitstreamVeraSans-Roman;writing-mode:lr-tb;fill:#000000;fill-opacity:1;fill-rule:nonzero;stroke:none"
         transform="matrix(1,0,0,-1,7.2,270.85795)"><tspan
           id="tspan420"
           y="0"
           x="0 7.632 11.448">0.8</tspan></text>
<path
         id="path422"
         style="fill:#000000;fill-opacity:1;fill-rule:nonzero;stroke:#000000;stroke-width:0.5;stroke-linecap:butt;stroke-linejoin:round;stroke-miterlimit:10;stroke-dasharray:none;stroke-opacity:1"
         d="m 30.29375,337.00682 4,0" /><path
         id="path424"
         style="fill:#000000;fill-opacity:1;fill-rule:nonzero;stroke:#000000;stroke-width:0.5;stroke-linecap:butt;stroke-linejoin:round;stroke-miterlimit:10;stroke-dasharray:none;stroke-opacity:1"
         d="m 476.69375,337.00682 -4,0" /><text
         id="text426"
         style="font-variant:normal;font-weight:normal;font-size:12px;font-family:'Bitstream Vera Sans';-inkscape-font-specification:BitstreamVeraSans-Roman;writing-mode:lr-tb;fill:#000000;fill-opacity:1;fill-rule:nonzero;stroke:none"
         transform="matrix(1,0,0,-1,7.2,333.69432)"><tspan
           id="tspan428"
           y="0"
           x="0 7.632 11.448">1.0</tspan></text>
</g></g></svg>