<?xml version="1.0" encoding="UTF-8" standalone="no"?>
<svg
   xmlns:dc="http://purl.org/dc/elements/1.1/"
   xmlns:cc="http://creativecommons.org/ns#"
   xmlns:rdf="http://www.w3.org/1999/02/22-rdf-syntax-ns#"
   xmlns:svg="http://www.w3.org/2000/svg"
   xmlns="http://www.w3.org/2000/svg"
   xmlns:sodipodi="http://sodipodi.sourceforge.net/DTD/sodipodi-0.dtd"
   xmlns:inkscape="http://www.inkscape.org/namespaces/inkscape"
   viewBox="0 0 619.19336 489.08203"
   height="489.08203"
   width="619.19336"
   xml:space="preserve"
   version="1.1"
   id="svg2"
   inkscape:version="0.91 r13725"
   sodipodi:docname="tf_example_normal_14.svg"><sodipodi:namedview
     pagecolor="#ffffff"
     bordercolor="#666666"
     borderopacity="1"
     objecttolerance="10"
     gridtolerance="10"
     guidetolerance="10"
     inkscape:pageopacity="0"
     inkscape:pageshadow="2"
     inkscape:window-width="1920"
     inkscape:window-height="1058"
     id="namedview260"
     showgrid="false"
     inkscape:zoom="0.48253664"
     inkscape:cx="-90.372948"
     inkscape:cy="244.54102"
     inkscape:window-x="0"
     inkscape:window-y="22"
     inkscape:window-maximized="1"
     inkscape:current-layer="svg2" /><metadata
     id="metadata8"><rdf:RDF><cc:Work
         rdf:about=""><dc:format>image/svg+xml</dc:format><dc:type
           rdf:resource="http://purl.org/dc/dcmitype/StillImage" /></cc:Work></rdf:RDF></metadata><defs
     id="defs6"><clipPath
       id="clipPath20"
       clipPathUnits="userSpaceOnUse"><path
         id="path22"
         d="m 37.934375,22.825 446.399995,0 0,345.6 -446.399995,0 0,-345.6 z" /></clipPath><clipPath
       id="clipPath30"
       clipPathUnits="userSpaceOnUse"><path
         id="path32"
         d="m 37.934375,22.825 446.399995,0 0,345.6 -446.399995,0 0,-345.6 z" /></clipPath><clipPath
       id="clipPath40"
       clipPathUnits="userSpaceOnUse"><path
         id="path42"
         d="m 37.934375,22.825 446.399995,0 0,345.6 -446.399995,0 0,-345.6 z" /></clipPath><clipPath
       id="clipPath50"
       clipPathUnits="userSpaceOnUse"><path
         id="path52"
         d="m 37.934375,22.825 446.399995,0 0,345.6 -446.399995,0 0,-345.6 z" /></clipPath><clipPath
       id="clipPath60"
       clipPathUnits="userSpaceOnUse"><path
         id="path62"
         d="m 37.934375,22.825 446.399995,0 0,345.6 -446.399995,0 0,-345.6 z" /></clipPath><clipPath
       id="clipPath70"
       clipPathUnits="userSpaceOnUse"><path
         id="path72"
         d="m 37.934375,22.825 446.399995,0 0,345.6 -446.399995,0 0,-345.6 z" /></clipPath><clipPath
       id="clipPath80"
       clipPathUnits="userSpaceOnUse"><path
         id="path82"
         d="m 37.934375,22.825 446.399995,0 0,345.6 -446.399995,0 0,-345.6 z" /></clipPath><clipPath
       id="clipPath90"
       clipPathUnits="userSpaceOnUse"><path
         id="path92"
         d="m 37.934375,22.825 446.399995,0 0,345.6 -446.399995,0 0,-345.6 z" /></clipPath><clipPath
       id="clipPath100"
       clipPathUnits="userSpaceOnUse"><path
         id="path102"
         d="m 37.934375,22.825 446.399995,0 0,345.6 -446.399995,0 0,-345.6 z" /></clipPath><clipPath
       id="clipPath110"
       clipPathUnits="userSpaceOnUse"><path
         id="path112"
         d="m 37.934375,22.825 446.399995,0 0,345.6 -446.399995,0 0,-345.6 z" /></clipPath><clipPath
       id="clipPath120"
       clipPathUnits="userSpaceOnUse"><path
         id="path122"
         d="m 37.934375,22.825 446.399995,0 0,345.6 -446.399995,0 0,-345.6 z" /></clipPath><clipPath
       id="clipPath130"
       clipPathUnits="userSpaceOnUse"><path
         id="path132"
         d="m 37.934375,22.825 446.399995,0 0,345.6 -446.399995,0 0,-345.6 z" /></clipPath><clipPath
       id="clipPath140"
       clipPathUnits="userSpaceOnUse"><path
         id="path142"
         d="m 37.934375,22.825 446.399995,0 0,345.6 -446.399995,0 0,-345.6 z" /></clipPath><clipPath
       id="clipPath150"
       clipPathUnits="userSpaceOnUse"><path
         id="path152"
         d="m 37.934375,22.825 446.399995,0 0,345.6 -446.399995,0 0,-345.6 z" /></clipPath><clipPath
       id="clipPath160"
       clipPathUnits="userSpaceOnUse"><path
         id="path162"
         d="m 37.934375,22.825 446.399995,0 0,345.6 -446.399995,0 0,-345.6 z" /></clipPath><clipPath
       id="clipPath170"
       clipPathUnits="userSpaceOnUse"><path
         id="path172"
         d="m 37.934375,22.825 446.399995,0 0,345.6 -446.399995,0 0,-345.6 z" /></clipPath><clipPath
       id="clipPath180"
       clipPathUnits="userSpaceOnUse"><path
         id="path182"
         d="m 37.934375,22.825 446.399995,0 0,345.6 -446.399995,0 0,-345.6 z" /></clipPath><clipPath
       id="clipPath190"
       clipPathUnits="userSpaceOnUse"><path
         id="path192"
         d="m 37.934375,22.825 446.399995,0 0,345.6 -446.399995,0 0,-345.6 z" /></clipPath><clipPath
       id="clipPath200"
       clipPathUnits="userSpaceOnUse"><path
         id="path202"
         d="m 37.934375,22.825 446.399995,0 0,345.6 -446.399995,0 0,-345.6 z" /></clipPath><clipPath
       id="clipPath210"
       clipPathUnits="userSpaceOnUse"><path
         id="path212"
         d="m 37.934375,22.825 446.399995,0 0,345.6 -446.399995,0 0,-345.6 z" /></clipPath><clipPath
       id="clipPath220"
       clipPathUnits="userSpaceOnUse"><path
         id="path222"
         d="m 37.934375,22.825 446.399995,0 0,345.6 -446.399995,0 0,-345.6 z" /></clipPath><clipPath
       id="clipPath230"
       clipPathUnits="userSpaceOnUse"><path
         id="path232"
         d="m 37.934375,22.825 446.399995,0 0,345.6 -446.399995,0 0,-345.6 z" /></clipPath><clipPath
       id="clipPath240"
       clipPathUnits="userSpaceOnUse"><path
         id="path242"
         d="m 37.934375,22.825 446.399995,0 0,345.6 -446.399995,0 0,-345.6 z" /></clipPath><clipPath
       id="clipPath250"
       clipPathUnits="userSpaceOnUse"><path
         id="path252"
         d="m 37.934375,22.825 446.399995,0 0,345.6 -446.399995,0 0,-345.6 z" /></clipPath><clipPath
       id="clipPath260"
       clipPathUnits="userSpaceOnUse"><path
         id="path262"
         d="m 37.934375,22.825 446.399995,0 0,345.6 -446.399995,0 0,-345.6 z" /></clipPath><clipPath
       id="clipPath270"
       clipPathUnits="userSpaceOnUse"><path
         id="path272"
         d="m 37.934375,22.825 446.399995,0 0,345.6 -446.399995,0 0,-345.6 z" /></clipPath><clipPath
       id="clipPath280"
       clipPathUnits="userSpaceOnUse"><path
         id="path282"
         d="m 37.934375,22.825 446.399995,0 0,345.6 -446.399995,0 0,-345.6 z" /></clipPath><clipPath
       id="clipPath290"
       clipPathUnits="userSpaceOnUse"><path
         id="path292"
         d="m 37.934375,22.825 446.399995,0 0,345.6 -446.399995,0 0,-345.6 z" /></clipPath><clipPath
       id="clipPath300"
       clipPathUnits="userSpaceOnUse"><path
         id="path302"
         d="m 37.934375,22.825 446.399995,0 0,345.6 -446.399995,0 0,-345.6 z" /></clipPath><clipPath
       id="clipPath332"
       clipPathUnits="userSpaceOnUse"><path
         id="path334"
         d="m -184,-236 1472,0 0,1165 -1472,0 0,-1165 z" /></clipPath><clipPath
       id="clipPath354"
       clipPathUnits="userSpaceOnUse"><path
         id="path356"
         d="m -184,-236 1472,0 0,1165 -1472,0 0,-1165 z" /></clipPath><clipPath
       id="clipPath376"
       clipPathUnits="userSpaceOnUse"><path
         id="path378"
         d="m -184,-236 1472,0 0,1165 -1472,0 0,-1165 z" /></clipPath><clipPath
       id="clipPath398"
       clipPathUnits="userSpaceOnUse"><path
         id="path400"
         d="m -184,-236 1472,0 0,1165 -1472,0 0,-1165 z" /></clipPath></defs><g
     transform="matrix(1.25,0,0,-1.25,0,489.08203)"
     id="g10"><path
       id="path12"
       style="fill:#ffffff;fill-opacity:1;fill-rule:nonzero;stroke:none"
       d="m 0,0 495.35469,0 0,391.26562 L 0,391.26562 0,0 Z" /><path
       id="path14"
       style="fill:#ffffff;fill-opacity:1;fill-rule:nonzero;stroke:none"
       d="m 37.934375,22.825 446.399995,0 0,345.6 -446.399995,0 0,-345.6 z" /><g
       id="g16"><g
         clip-path="url(#clipPath20)"
         id="g18"><path
           id="path24"
           style="fill:none;stroke:#000000;stroke-width:1;stroke-linecap:square;stroke-linejoin:round;stroke-miterlimit:10;stroke-dasharray:none;stroke-opacity:1"
           d="m 37.934375,22.940629 16.461,0.244649 10.881,0.36775 8.37,0.490732 6.975,0.621711 6.138,0.77076 5.301,0.886744 4.743,1.011234 4.464005,1.179718 4.18499,1.343868 3.906,1.495882 3.627,1.627903 3.348,1.732517 3.348,1.978039 3.348,2.249012 3.069,2.32223 3.069,2.593131 3.069,2.885365 3.069,3.199066 3.069,3.534108 3.069,3.890079 3.069,4.266236 3.069,4.661494 3.069,5.074378 3.069,5.503019 3.069,5.945127 3.348,7.002358 3.348,7.550864 3.34801,8.103867 3.62699,9.40159 3.627,10.03884 3.906,11.50082 4.185,13.07323 4.464,14.72801 4.743,16.41885 5.859,21.14393 8.64901,32.20052 9.48599,35.11815 5.301,18.75295 4.185,14.02376 3.627,11.42811 3.348,9.83571 3.069,8.33074 2.79,6.94427 2.511,5.69585 2.511,5.13699 2.23201,4.0728 2.23199,3.58866 1.953,2.72968 1.953,2.33627 1.674,1.68294 1.674,1.38316 1.674,1.07967 1.395,0.66578 1.395,0.45174 1.395,0.23686 1.395,0.0215 1.395,-0.19383 1.395,-0.40882 1.395,-0.62305 1.395,-0.83613 1.674,-1.28237 1.674,-1.58347 1.674,-1.88034 1.953,-2.5622 1.953,-2.95015 1.953,-3.32749 2.232,-4.24959 2.232,-4.70722 2.511,-5.81569 2.79,-7.06845 3.069,-8.4556 3.348,-9.95704 3.627,-11.54113 4.185,-14.12961 4.743,-16.82531 6.417,-23.63906 15.345,-56.86518 5.58,-19.62437 4.743,-15.87117 4.185,-13.27042 3.906,-11.69902 3.906,-10.99247 3.627,-9.54989 3.627,-8.904025 3.348,-7.642868 3.348,-7.093237 3.348,-6.552431 3.069,-5.542692 3.069,-5.112726 3.069,-4.698325 3.069,-4.301399 3.069,-3.923454 3.069,-3.565614 3.069,-3.228646 3.069,-2.912996 3.069,-2.618813 3.069,-2.345984 3.348,-2.272775 3.348,-1.999633 3.348,-1.752034 3.627,-1.646827 3.906,-1.51385 3.906,-1.277521 4.185,-1.141642 4.743,-1.052124 5.022,-0.881129 5.58,-0.751954 6.417,-0.634166 7.533,-0.511243 9.207,-0.389864 11.997,-0.271164 9.207,-0.105065 0,0" /></g></g><g
       id="g26"><g
         clip-path="url(#clipPath30)"
         id="g28"><path
           id="path34"
           style="fill:none;stroke:#ff0000;stroke-width:1;stroke-linecap:square;stroke-linejoin:round;stroke-miterlimit:10;stroke-dasharray:none;stroke-opacity:1"
           d="m 37.934375,23.14362 19.809,0.283387 11.16,0.36509 7.254,0.449842 0.558,0.04701 0,0" /></g></g><g
       id="g36"><g
         clip-path="url(#clipPath40)"
         id="g38"><path
           id="path44"
           style="fill:none;stroke:#ff0000;stroke-width:1;stroke-linecap:square;stroke-linejoin:round;stroke-miterlimit:10;stroke-dasharray:none;stroke-opacity:1"
           d="m 76.839494,30.014345 8.091,1.089738 6.975,1.151344 6.138,1.224123 5.579996,1.33212 5.022,1.424697 4.464,1.490961 4.185,1.635652 3.627,1.645652 3.348,1.747232 3.069,1.832693 3.069,2.097606 2.79,2.181668 2.511,2.22985 2.511,2.528996 2.232,2.544117 2.232,2.872849 0,0" /></g></g><g
       id="g46"><g
         clip-path="url(#clipPath50)"
         id="g48"><path
           id="path54"
           style="fill:none;stroke:#ff0000;stroke-width:1;stroke-linecap:square;stroke-linejoin:round;stroke-miterlimit:10;stroke-dasharray:none;stroke-opacity:1"
           d="m 142.91532,75.038241 0.279,0.268524 0.279,0.2706 0.279,0.272699 0.279,0.274818 0.279,0.276961 0.279,0.279124 0.279,0.281312 0.279,0.283522 0.279,0.285755 0.279,0.288011 0.279,0.290292 0.279,0.292597 0.279,0.294925 0.279,0.297279 0.279,0.299659 0.279,0.302062 0.279,0.304493 0.279,0.306949 0.279,0.309432 0.279,0.311941 0.279,0.314479 0.279,0.317042 0.279,0.319635 0.279,0.322256 0.279,0.324906 0.279,0.327584 0.279,0.330292 0.279,0.33303 0.279,0.335798 0.279,0.338598 0.279,0.341428 0.279,0.34429 0.279,0.347184 0.279,0.35011 0.279,0.353071 0.279,0.356063 0.279,0.35909 0.279,0.362152 0.279,0.365248 0.279,0.368379 0.279,0.371547 0.279,0.374751 0.279,0.377992 0.279,0.381271 0.279,0.384587 0.279,0.387942 0.279,0.391336 0.279,0.39477 0.279,0.398244 0.279,0.401759 0.279,0.405315 0.279,0.408915 0.279,0.412555 0.279,0.41624 0.279,0.41997 0.279,0.423742 0.279,0.427561 0.279,0.431426 0.279,0.435337 0.279,0.439297 0.279,0.443303 0.279,0.447359 0.279,0.451465 0.279,0.455621 0.279,0.459828 0.279,0.464087 0.279,0.468399 0.279,0.472765 0.279,0.477184 0.279,0.481661 0.279,0.48619 0.279,0.49078 0.279,0.49542 0.279,0.50013 0.279,0.5049 0.279,0.50972 0.279,0.51461 0.279,0.51955 0.279,0.52457 0.279,0.52965 0.279,0.5348 0.279,0.54 0.279,0.54528 0.279,0.55063 0.279,0.55605 0.279,0.56154 0.279,0.5671 0.279,0.57273 0.279,0.57845 0.279,0.58423 0.279,0.5901 0.279,0.59604 0.279,0.60206 0.279,0.60816 0.279,0.61436 0.279,0.62062 0.279,0.62698 0.279,0.63343 0.279,0.63995 0.279,0.64658 0.279,0.6533 0.279,0.6601 0.279,0.667 0.279,0.67401 0.279,0.6811 0.279,0.6883 0.279,0.6956 0.279,0.703 0.279,0.7105 0.279,0.71813 0.279,0.72585 0.279,0.73368 0.279,0.74164 0.279,0.7497 0.279,0.75788 0.279,0.76618 0.279,0.7746 0.279,0.78316 0.279,0.79182 0.279,0.80063 0.279,0.80956 0.279,0.81862 0.279,0.82783" /></g></g><g
       id="g56"><g
         clip-path="url(#clipPath60)"
         id="g58"><path
           id="path64"
           style="fill:none;stroke:#ff0000;stroke-width:1;stroke-linecap:square;stroke-linejoin:round;stroke-miterlimit:10;stroke-dasharray:none;stroke-opacity:1"
           d="m 177.43437,164.6305 0.279,0.50864 0.279,0.51139 0.279,0.51415 0.279,0.51693 0.279,0.51973 0.279,0.52255 0.27901,0.52539 0.27899,0.52826 0.279,0.53114 0.279,0.53404 0.279,0.53697 0.279,0.53992 0.279,0.54289 0.279,0.54588 0.279,0.54889 0.27901,0.55192 0.27899,0.55499 0.279,0.55806 0.279,0.56116 0.279,0.56429 0.279,0.56744 0.279,0.57062 0.27901,0.5738 0.27899,0.57703 0.279,0.58028 0.279,0.58354 0.279,0.58683 0.279,0.59016 0.279,0.59349 0.279,0.59687 0.279,0.60026 0.27901,0.60367 0.27899,0.60713 0.279,0.61059 0.279,0.6141 0.279,0.61762 0.279,0.62117 0.279,0.62475 0.279,0.62836 0.279,0.632 0.279,0.63565 0.279,0.63935 0.279,0.64307 0.279,0.64682 0.279,0.6506 0.279,0.6544 0.279,0.65824 0.27901,0.66211 0.27899,0.66601 0.279,0.66994 0.279,0.67389 0.279,0.67789 0.279,0.68191 0.279,0.68596 0.279,0.69005 0.279,0.69417 0.279,0.69832 0.279,0.70251 0.279,0.70672 0.279,0.71098 0.279,0.71526 0.279,0.71958 0.279,0.72394 0.279,0.72834 0.279,0.73275 0.279,0.73722 0.279,0.74173 0.279,0.74625 0.279,0.75083 0.279,0.75544 0.279,0.76009 0.279,0.76477 0.279,0.7695 0.279,0.77426 0.279,0.77906 0.279,0.78391 0.279,0.7888 0.279,0.79371 0.279,0.79868 0.279,0.80369 0.279,0.80874 0.279,0.81382 0.279,0.81896 0.279,0.82414 0.279,0.82936 0.27901,0.83462 0.27899,0.83993 0.279,0.84529 0.279,0.85069 0.279,0.85613 0.279,0.86163 0.279,0.86716 0.27901,0.87276 0.27899,0.87839 0.279,0.88407 0.279,0.88981 0.279,0.89559 0.279,0.90143 0.279,0.9073 0.279,0.91325 0.279,0.91923 0.27901,0.92527 0.27899,0.93137 0.279,0.93751 0.279,0.94371 0.279,0.94997 0.279,0.95627 0.279,0.96265 0.279,0.96907 0.279,0.97555 0.279,0.98208 0.279,0.98869 0.279,0.99534 0.279,1.00206 0.279,1.00884 0.279,1.01567 0.279,1.02258 0.27901,1.02953" /></g></g><g
       id="g66"><g
         clip-path="url(#clipPath70)"
         id="g68"><path
           id="path74"
           style="fill:none;stroke:#ff0000;stroke-width:1;stroke-linecap:square;stroke-linejoin:round;stroke-miterlimit:10;stroke-dasharray:none;stroke-opacity:1"
           d="m 210.48041,269.81385 0.279,0.6021 0.279,0.6043 0.279,0.60652 0.279,0.60874 0.279,0.61098 0.279,0.61323 0.279,0.61549 0.279,0.61776 0.279,0.62004 0.279,0.62233 0.279,0.62464 0.279,0.62695 0.279,0.62927 0.279,0.63162 0.279,0.63396 0.279,0.63633 0.279,0.6387 0.279,0.64108 0.279,0.64348 0.279,0.64589 0.279,0.64831 0.279,0.65075 0.279,0.65319 0.279,0.65564 0.279,0.65812 0.279,0.6606 0.279,0.66309 0.279,0.6656 0.279,0.66812 0.279,0.67065 0.279,0.6732 0.279,0.67575 0.279,0.67833 0.279,0.68091 0.279,0.68351 0.279,0.68612 0.279,0.68874 0.279,0.69138 0.279,0.69404 0.279,0.69669 0.279,0.69938 0.279,0.70206 0.279,0.70478 0.279,0.70749 0.279,0.71022 0.279,0.71298 0.279,0.71573 0.279,0.71851 0.279,0.72131 0.279,0.7241 0.279,0.72693 0.279,0.72976 0.279,0.73261 0.279,0.73547 0.279,0.73836 0.279,0.74124 0.279,0.74416 0.279,0.74708 0.279,0.75002 0.279,0.75297 0.279,0.75595 0.279,0.75893 0.279,0.76193 0.279,0.76496 0.279,0.76798 0.279,0.77104 0.279,0.7741 0.279,0.77718 0.279,0.78028 0.279,0.7834 0.279,0.78653 0.279,0.78968 0.279,0.79284 0.279,0.79603" /></g></g><g
       id="g76"><g
         clip-path="url(#clipPath80)"
         id="g78"><path
           id="path84"
           style="fill:none;stroke:#ff0000;stroke-width:1;stroke-linecap:square;stroke-linejoin:round;stroke-miterlimit:10;stroke-dasharray:none;stroke-opacity:1"
           d="m 231.27112,334.23573 0.279,0.37735 0.279,0.37804 0.279,0.37873 0.279,0.37942 0.279,0.3801 0.279,0.3808 0.279,0.3815 0.279,0.38219 0.279,0.38289 0.279,0.38359 0.279,0.38429 0.279,0.385 0.279,0.38569 0.279,0.38641 0.279,0.38711 0.279,0.38783 0.279,0.38853 0.279,0.38925 0.279,0.38997 0.279,0.39068 0.279,0.3914 0.279,0.39212 0.279,0.39285 0.279,0.39356 0.279,0.3943 0.279,0.39502 0.279,0.39575 0.279,0.39648 0.279,0.39722 0.279,0.39795 0.279,0.39868 0.279,0.39943 0.279,0.40016 0.279,0.40091 0.279,0.40166 0.279,0.40239 0.279,0.40315 0.279,0.40389 0.279,0.40465 0.279,0.4054 0.279,0.40615 0.279,0.40692 0.279,0.40767 0.279,0.40843 0.279,0.40919 0.279,0.40996 0.279,0.41073 0.279,0.41149 0.279,0.41227 0.279,0.41303 0.279,0.41382 0.279,0.41458 0.279,0.41537 0.279,0.41614 0.279,0.41693 0.279,0.41771" /></g></g><g
       id="g86"><g
         clip-path="url(#clipPath90)"
         id="g88"><path
           id="path94"
           style="fill:none;stroke:#ff0000;stroke-width:1;stroke-linecap:square;stroke-linejoin:round;stroke-miterlimit:10;stroke-dasharray:none;stroke-opacity:1"
           d="m 247.14169,367.51113 0.279,0 0.279,0 0.279,0 0.279,0 0.279,0 0.279,0 0.279,0 0.279,0 0.279,0 0.279,0 0.279,0 0.279,0 0.279,0 0.279,0 0.279,0 0.279,0 0.279,0 0.279,0 0.279,0 0.279,0 0.279,0 0.279,0 0.279,0 0.279,0 0.279,0 0.279,0 0.279,0 0.279,0 0.279,0 0.279,0 0.279,0 0.279,0 0.279,0 0.279,0 0.279,0 0.279,0 0.279,0 0.279,0 0.279,0 0.279,0 0.279,0 0.279,0 0.279,0 0.279,0 0.279,0 0.279,0 0.279,0 0.279,0 0.279,0 0.279,0" /></g></g><g
       id="g96"><g
         clip-path="url(#clipPath100)"
         id="g98"><path
           id="path104"
           style="fill:none;stroke:#ff0000;stroke-width:1;stroke-linecap:square;stroke-linejoin:round;stroke-miterlimit:10;stroke-dasharray:none;stroke-opacity:1"
           d="m 261.13437,367.51113 0.279,0 0.279,0 0.279,0 0.279,0 0.279,0 0.279,0 0.279,0 0.279,0 0.279,0 0.279,0 0.279,0 0.279,0 0.279,0 0.279,0 0.279,0 0.279,0 0.279,0 0.279,0 0.279,0 0.279,0 0.279,0 0.279,0 0.279,0 0.279,0 0.279,0 0.279,0 0.279,0 0.279,0 0.279,0 0.279,0 0.279,0 0.279,0 0.279,0 0.279,0 0.279,0 0.279,0 0.279,0 0.279,0 0.279,0 0.279,0 0.279,0 0.279,0 0.279,0 0.279,0 0.279,0 0.279,0 0.279,0 0.279,0 0.279,0 0.279,0" /></g></g><g
       id="g106"><g
         clip-path="url(#clipPath110)"
         id="g108"><path
           id="path114"
           style="fill:none;stroke:#ff0000;stroke-width:1;stroke-linecap:square;stroke-linejoin:round;stroke-miterlimit:10;stroke-dasharray:none;stroke-opacity:1"
           d="m 275.12706,356.84228 0.279,-0.41841 0.279,-0.41762 0.279,-0.41683 0.279,-0.41606 0.279,-0.41527 0.279,-0.4145 0.279,-0.41372 0.279,-0.41295 0.279,-0.41217 0.279,-0.41141 0.279,-0.41063 0.279,-0.40987 0.279,-0.40911 0.279,-0.40834 0.279,-0.40758 0.279,-0.40683 0.279,-0.40607 0.279,-0.40531 0.279,-0.40456 0.279,-0.40381 0.279,-0.40306 0.279,-0.40231 0.279,-0.40156 0.279,-0.40082 0.279,-0.40008 0.279,-0.39934 0.279,-0.3986 0.279,-0.39787 0.279,-0.39713 0.279,-0.39639 0.279,-0.39567 0.279,-0.39494 0.279,-0.39421 0.279,-0.39348 0.279,-0.39276 0.279,-0.39204 0.279,-0.39131 0.279,-0.3906 0.279,-0.38988 0.279,-0.38917 0.279,-0.38845 0.279,-0.38775 0.279,-0.38703 0.279,-0.38632 0.279,-0.38562 0.279,-0.38491 0.279,-0.38421 0.279,-0.38351 0.279,-0.38281 0.279,-0.38211 0.279,-0.38141 0.279,-0.38072 0.279,-0.38003 0.279,-0.37933 0.279,-0.37865 0.279,-0.37796" /></g></g><g
       id="g116"><g
         clip-path="url(#clipPath120)"
         id="g118"><path
           id="path124"
           style="fill:none;stroke:#ff0000;stroke-width:1;stroke-linecap:square;stroke-linejoin:round;stroke-miterlimit:10;stroke-dasharray:none;stroke-opacity:1"
           d="m 290.99763,321.52013 0.279,-0.79769 0.279,-0.79449 0.279,-0.79132 0.279,-0.78816 0.279,-0.78502 0.279,-0.78189 0.279,-0.77879 0.279,-0.7757 0.279,-0.77262 0.279,-0.76957 0.279,-0.76652 0.279,-0.7635 0.279,-0.76048 0.279,-0.7575 0.279,-0.75451 0.279,-0.75155 0.279,-0.7486 0.279,-0.74567 0.279,-0.74276 0.279,-0.73985 0.279,-0.73696 0.279,-0.7341 0.279,-0.73123 0.279,-0.7284 0.279,-0.72557 0.279,-0.72275 0.279,-0.71996 0.279,-0.71717 0.279,-0.71441 0.279,-0.71165 0.279,-0.7089 0.279,-0.70618 0.279,-0.70347 0.279,-0.70077 0.279,-0.69809 0.279,-0.69541 0.279,-0.69275 0.279,-0.69011 0.279,-0.68748 0.279,-0.68486 0.279,-0.68226 0.279,-0.67967 0.279,-0.67708 0.279,-0.67453 0.279,-0.67197 0.279,-0.66943 0.279,-0.6669 0.279,-0.66439 0.279,-0.66189 0.279,-0.65941 0.279,-0.65692 0.279,-0.65446 0.279,-0.65201 0.279,-0.64957 0.279,-0.64715 0.279,-0.64473 0.279,-0.64232 0.279,-0.63994 0.279,-0.63755 0.279,-0.63519 0.279,-0.63283 0.279,-0.63049 0.279,-0.62816 0.279,-0.62583 0.279,-0.62353 0.279,-0.62122 0.279,-0.61894 0.279,-0.61667 0.279,-0.6144 0.279,-0.61214 0.279,-0.60991 0.279,-0.60767 0.279,-0.60545 0.279,-0.60324" /></g></g><g
       id="g126"><g
         clip-path="url(#clipPath130)"
         id="g128"><path
           id="path134"
           style="fill:none;stroke:#ff0000;stroke-width:1;stroke-linecap:square;stroke-linejoin:round;stroke-miterlimit:10;stroke-dasharray:none;stroke-opacity:1"
           d="m 311.78834,251.11222 0.279,-1.03266 0.279,-1.02566 0.279,-1.01873 0.279,-1.01187 0.279,-1.00507 0.279,-0.99832 0.279,-0.99163 0.279,-0.98502 0.279,-0.97845 0.279,-0.97194 0.279,-0.96549 0.279,-0.9591 0.279,-0.95277 0.279,-0.94649 0.279,-0.94026 0.279,-0.93409 0.279,-0.92797 0.279,-0.92191 0.279,-0.9159 0.279,-0.90994 0.279,-0.90404 0.279,-0.89817 0.279,-0.89238 0.279,-0.88661 0.279,-0.88092 0.279,-0.87525 0.279,-0.86964 0.279,-0.86409 0.279,-0.85857 0.279,-0.8531 0.279,-0.84768 0.279,-0.84231 0.279,-0.83698 0.279,-0.83169 0.279,-0.82645 0.279,-0.82126 0.279,-0.8161 0.279,-0.811 0.279,-0.80592 0.279,-0.80091 0.279,-0.79591 0.279,-0.79098 0.279,-0.78607 0.279,-0.78122 0.279,-0.77639 0.279,-0.77161 0.279,-0.76687 0.279,-0.76217 0.279,-0.7575 0.279,-0.75287 0.279,-0.74828 0.279,-0.74374 0.279,-0.73921 0.279,-0.73474 0.279,-0.7303 0.279,-0.72588 0.279,-0.72152 0.279,-0.71718 0.279,-0.71288 0.279,-0.70861 0.279,-0.70438 0.279,-0.70017 0.279,-0.69601 0.279,-0.69188 0.279,-0.68778 0.279,-0.6837 0.279,-0.67967 0.279,-0.67567 0.279,-0.67169 0.279,-0.66775 0.279,-0.66384 0.279,-0.65996 0.279,-0.65611 0.279,-0.65228 0.279,-0.6485 0.279,-0.64473 0.279,-0.641 0.279,-0.63729 0.279,-0.63362 0.279,-0.62997 0.279,-0.62636 0.279,-0.62276 0.279,-0.61919 0.279,-0.61566 0.279,-0.61215 0.279,-0.60866 0.279,-0.60521 0.279,-0.60178 0.279,-0.59837 0.279,-0.59499 0.279,-0.59163 0.279,-0.58831 0.279,-0.585 0.279,-0.58173 0.279,-0.57846 0.279,-0.57524 0.279,-0.57203 0.279,-0.56885 0.279,-0.56569 0.279,-0.56255 0.279,-0.55944 0.279,-0.55635 0.279,-0.55328 0.279,-0.55024 0.279,-0.54721 0.279,-0.54421 0.279,-0.54124 0.279,-0.53828 0.279,-0.53534 0.279,-0.53243 0.279,-0.52954 0.279,-0.52666 0.279,-0.52381 0.279,-0.52098 0.279,-0.51818 0.279,-0.51538 0.279,-0.51261 0.279,-0.50986" /></g></g><g
       id="g136"><g
         clip-path="url(#clipPath140)"
         id="g138"><path
           id="path144"
           style="fill:none;stroke:#ff0000;stroke-width:1;stroke-linecap:square;stroke-linejoin:round;stroke-miterlimit:10;stroke-dasharray:none;stroke-opacity:1"
           d="m 344.83437,134.7282 0.279,-0.83457 0.279,-0.82528 0.279,-0.81611 0.279,-0.80708 0.279,-0.79819 0.279,-0.78942 0.279,-0.78078 0.279,-0.77227 0.279,-0.76388 0.279,-0.75561 0.279,-0.74746 0.279,-0.73944 0.279,-0.73151 0.279,-0.72371 0.279,-0.71601 0.279,-0.70843 0.279,-0.70095 0.279,-0.69357 0.279,-0.6863 0.279,-0.67914 0.279,-0.67206 0.279,-0.6651 0.279,-0.65821 0.279,-0.65143 0.279,-0.64475 0.279,-0.63814 0.279,-0.63164 0.279,-0.62522 0.279,-0.61889 0.279,-0.61264 0.279,-0.60647 0.279,-0.60039 0.279,-0.59439 0.279,-0.58847 0.279,-0.58263 0.279,-0.57687 0.279,-0.57117 0.279,-0.56556 0.279,-0.56001 0.279,-0.55455 0.279,-0.54915 0.279,-0.54382 0.279,-0.53856 0.279,-0.53337 0.279,-0.52824 0.279,-0.52318 0.279,-0.51819 0.279,-0.51325 0.279,-0.50839 0.279,-0.50357 0.279,-0.49883 0.279,-0.49413 0.279,-0.48951 0.279,-0.48494 0.279,-0.480417 0.279,-0.47596 0.279,-0.471555 0.279,-0.467204 0.279,-0.462908 0.279,-0.458662 0.279,-0.45447 0.279,-0.450327 0.279,-0.446236 0.279,-0.442194 0.279,-0.438199 0.279,-0.434254 0.279,-0.430356 0.279,-0.426503 0.279,-0.422698 0.279,-0.418936 0.279,-0.41522 0.279,-0.411547 0.279,-0.407917 0.279,-0.404331 0.279,-0.400785 0.279,-0.397282 0.279,-0.393819 0.279,-0.390396 0.279,-0.387013 0.27901,-0.383668 0.27899,-0.380363 0.279,-0.377094 0.279,-0.373864 0.279,-0.37067 0.279,-0.367512 0.279,-0.364391 0.279,-0.361304 0.279,-0.358252 0.279,-0.355234 0.279,-0.352251 0.279,-0.3493 0.279,-0.346383 0.279,-0.343497 0.279,-0.340644 0.279,-0.337823 0.279,-0.335032 0.279,-0.332272 0.279,-0.329542 0.279,-0.326842 0.279,-0.324172 0.279,-0.32153 0.279,-0.318918 0.279,-0.316333 0.279,-0.313775 0.279,-0.311247 0.279,-0.308745 0.279,-0.306269 0.279,-0.303819 0.279,-0.301397 0.279,-0.299 0.279,-0.296628 0.279,-0.29428 0.279,-0.291959 0.279,-0.28966 0.279,-0.287387 0.279,-0.285137 0.279,-0.28291 0.279,-0.280706 0.279,-0.278526 0.279,-0.276367 0.279,-0.274232 0.279,-0.272118 0.279,-0.270025" /></g></g><g
       id="g146"><g
         clip-path="url(#clipPath150)"
         id="g148"><path
           id="path154"
           style="fill:none;stroke:#ff0000;stroke-width:1;stroke-linecap:square;stroke-linejoin:round;stroke-miterlimit:10;stroke-dasharray:none;stroke-opacity:1"
           d="m 379.35343,59.363139 2.232,-2.910173 2.232,-2.575847 2.511,-2.559255 2.511,-2.255423 2.79,-2.205644 3.069,-2.11964 3.069,-1.851091 3.348,-1.763997 3.627,-1.660719 3.906,-1.547707 4.464,-1.518286 4.743,-1.375119 5.301,-1.303311 5.859,-1.21146 6.696,-1.152487 7.533,-1.066608 1.953,-0.243875 0,0" /></g></g><g
       id="g156"><g
         clip-path="url(#clipPath160)"
         id="g158"><path
           id="path164"
           style="fill:none;stroke:#ff0000;stroke-width:1;stroke-linecap:square;stroke-linejoin:round;stroke-miterlimit:10;stroke-dasharray:none;stroke-opacity:1"
           d="m 445.42926,24.299724 6.138,-0.418561 8.649,-0.342614 13.113,-0.271109 11.00511,-0.12382 0,0" /></g></g><g
       id="g166"><g
         clip-path="url(#clipPath170)"
         id="g168"><path
           id="path174"
           style="fill:none;stroke:#008000;stroke-width:1;stroke-linecap:square;stroke-linejoin:round;stroke-miterlimit:10;stroke-dasharray:none;stroke-opacity:1"
           d="m 37.934375,22.825 38.781,0 0,0" /></g></g><g
       id="g176"><g
         clip-path="url(#clipPath180)"
         id="g178"><path
           id="path184"
           style="fill:none;stroke:#008000;stroke-width:1;stroke-linecap:square;stroke-linejoin:round;stroke-miterlimit:10;stroke-dasharray:none;stroke-opacity:1"
           d="m 76.839494,24.299724 11.718,0.527194 8.928,0.617618 6.695996,0.67219 5.58,0.779553 4.464,0.84189 3.627,0.892408 3.069,0.959724 2.79,1.095065 2.511,1.229934 2.232,1.352835 1.953,1.447763 1.674,1.494752 1.674,1.79539 1.395,1.787224 1.395,2.122464 1.395,2.547105 1.395,3.093066 1.116,2.978313 1.116,3.550603 1.116,4.279486 0,0" /></g></g><g
       id="g186"><g
         clip-path="url(#clipPath190)"
         id="g188"><path
           id="path194"
           style="fill:none;stroke:#008000;stroke-width:1;stroke-linecap:square;stroke-linejoin:round;stroke-miterlimit:10;stroke-dasharray:none;stroke-opacity:1"
           d="m 142.91532,59.363139 0.279,0.25446 0.279,0.257128 0.279,0.259832 0.279,0.262575 0.279,0.265357 0.279,0.268178 0.279,0.27104 0.279,0.273941 0.279,0.276885 0.279,0.279871 0.279,0.282901 0.279,0.285973 0.279,0.289091 0.279,0.292254 0.279,0.295463 0.279,0.29872 0.279,0.302025 0.279,0.305378 0.279,0.308781 0.279,0.312236 0.279,0.315742 0.279,0.3193 0.279,0.322913 0.279,0.326579 0.279,0.330302 0.279,0.334081 0.279,0.337919 0.279,0.341815 0.279,0.345772 0.279,0.349789 0.279,0.35387 0.279,0.358014 0.279,0.362222 0.279,0.366498 0.279,0.37084 0.279,0.375252 0.279,0.379734 0.279,0.384287 0.279,0.388914 0.279,0.393615 0.279,0.398392 0.279,0.403247 0.279,0.408181 0.279,0.413196 0.279,0.418294 0.279,0.423474 0.279,0.428743 0.279,0.434097 0.279,0.439543 0.279,0.445078 0.279,0.450708 0.279,0.456433 0.279,0.462256 0.279,0.468177 0.279,0.4742 0.279,0.480328 0.279,0.48656 0.279,0.492902 0.279,0.499354 0.279,0.505919 0.279,0.512601 0.279,0.519399 0.279,0.526318 0.279,0.533362 0.279,0.540531 0.279,0.54783 0.279,0.55526 0.279,0.562826 0.279,0.570529 0.279,0.578374 0.279,0.586363 0.279,0.594501 0.279,0.602788 0.279,0.611232 0.279,0.619833 0.279,0.628597 0.279,0.637526 0.279,0.646626 0.279,0.6559 0.279,0.665352 0.279,0.674986 0.279,0.684807 0.279,0.694819 0.279,0.705029 0.279,0.715438 0.279,0.726054 0.279,0.736881 0.279,0.747924 0.279,0.759188 0.279,0.770681 0.279,0.782407 0.279,0.79437 0.279,0.80658 0.279,0.81904 0.279,0.83176 0.279,0.84475 0.279,0.858 0.279,0.87153 0.279,0.88536 0.279,0.89947 0.279,0.91388 0.279,0.92861 0.279,0.94366 0.279,0.95903 0.279,0.97473 0.279,0.99078 0.279,1.00719 0.279,1.02395 0.279,1.0411 0.279,1.05863 0.279,1.07655 0.279,1.09489 0.279,1.11364 0.279,1.13281 0.279,1.15244 0.279,1.17252 0.279,1.19306 0.279,1.2141 0.279,1.23563 0.279,1.25766 0.279,1.28024 0.279,1.30335 0.279,1.32701" /></g></g><g
       id="g196"><g
         clip-path="url(#clipPath200)"
         id="g198"><path
           id="path204"
           style="fill:none;stroke:#008000;stroke-width:1;stroke-linecap:square;stroke-linejoin:round;stroke-miterlimit:10;stroke-dasharray:none;stroke-opacity:1"
           d="m 177.43437,134.7282 0.279,0.56877 0.279,0.57312 0.279,0.57751 0.279,0.58195 0.279,0.58643 0.279,0.59096 0.27901,0.59553 0.27899,0.60016 0.279,0.60483 0.279,0.60954 0.279,0.61432 0.279,0.61913 0.279,0.624 0.279,0.62892 0.279,0.6339 0.27901,0.63892 0.27899,0.64399 0.279,0.64913 0.279,0.65431 0.279,0.65956 0.279,0.66485 0.279,0.67021 0.27901,0.67562 0.27899,0.68109 0.279,0.68662 0.279,0.69221 0.279,0.69786 0.279,0.70357 0.279,0.70935 0.279,0.71519 0.279,0.72109 0.27901,0.72705 0.27899,0.7331 0.279,0.73919 0.279,0.74536 0.279,0.7516 0.279,0.7579 0.279,0.76428 0.279,0.77074 0.279,0.77726 0.279,0.78385 0.279,0.79052 0.279,0.79727 0.279,0.8041 0.279,0.81099 0.279,0.81798 0.279,0.82504 0.27901,0.83219 0.27899,0.83941 0.279,0.84672 0.279,0.85411 0.279,0.8616 0.279,0.86916 0.279,0.87683 0.279,0.88457 0.279,0.89241 0.279,0.90035 0.279,0.90837 0.279,0.91649 0.279,0.92472 0.279,0.93303 0.279,0.94145 0.279,0.94997 0.279,0.9586 0.279,0.96732 0.279,0.97616 0.279,0.9851 0.279,0.99415 0.279,1.00331 0.279,1.01259 0.279,1.02198 0.279,1.03149 0.279,1.04111 0.279,1.05086 0.279,1.06073 0.279,1.07071 0.279,1.08084 0.279,1.09108 0.279,1.10145 0.279,1.11196 0.279,1.12261 0.279,1.13338 0.279,1.14429 0.279,1.15535 0.279,1.16655 0.27901,1.1779 0.27899,1.18939 0.279,1.20103 0.279,1.21282 0.279,1.22477 0.279,1.23688 0.279,1.24915 0.27901,1.26158 0.27899,1.27417 0.279,1.28694 0.279,1.29987 0.279,1.31297 0.279,1.32627 0.279,1.33972 0.279,1.35338 0.279,1.36721 0.27901,1.38123 0.27899,1.39545 0.279,1.40986 0.279,1.42447 0.279,1.43928 0.279,1.45431 0.279,1.46953 0.279,1.48497 0.279,1.50063 0.279,1.51652 0.279,1.53261 0.279,1.54896 0.279,1.56551 0.279,1.58233 0.279,1.59936 0.279,1.61666 0.27901,1.6342" /></g></g><g
       id="g206"><g
         clip-path="url(#clipPath210)"
         id="g208"><path
           id="path214"
           style="fill:none;stroke:#008000;stroke-width:1;stroke-linecap:square;stroke-linejoin:round;stroke-miterlimit:10;stroke-dasharray:none;stroke-opacity:1"
           d="m 210.48041,251.11222 0.279,0.77253 0.279,0.77646 0.279,0.78042 0.279,0.78439 0.279,0.78841 0.279,0.79244 0.279,0.79651 0.279,0.80059 0.279,0.80472 0.279,0.80887 0.279,0.81304 0.279,0.81725 0.279,0.82148 0.279,0.82574 0.279,0.83004 0.279,0.83436 0.279,0.83872 0.279,0.84309 0.279,0.84751 0.279,0.85196 0.279,0.85643 0.279,0.86094 0.279,0.86548 0.279,0.87005 0.279,0.87466 0.279,0.87929 0.279,0.88396 0.279,0.88866 0.279,0.89339 0.279,0.89817 0.279,0.90296 0.279,0.90781 0.279,0.91268 0.279,0.91758 0.279,0.92252 0.279,0.92751 0.279,0.93251 0.279,0.93757 0.279,0.94265 0.279,0.94778 0.279,0.95293 0.279,0.95814 0.279,0.96336 0.279,0.96865 0.279,0.97395 0.279,0.97931 0.279,0.9847 0.279,0.99012 0.279,0.9956 0.279,1.00111 0.279,1.00666 0.279,1.01225 0.279,1.01788 0.279,1.02356 0.279,1.02928 0.279,1.03504 0.279,1.04085 0.279,1.04669 0.279,1.05258 0.279,1.05852 0.279,1.0645 0.279,1.07052 0.279,1.0766 0.279,1.08271 0.279,1.08887 0.279,1.09509 0.279,1.10134 0.279,1.10765 0.279,1.114 0.279,1.1204 0.279,1.12686 0.279,1.13335 0.279,1.13991 0.279,1.14651" /></g></g><g
       id="g216"><g
         clip-path="url(#clipPath220)"
         id="g218"><path
           id="path224"
           style="fill:none;stroke:#008000;stroke-width:1;stroke-linecap:square;stroke-linejoin:round;stroke-miterlimit:10;stroke-dasharray:none;stroke-opacity:1"
           d="m 231.27112,321.52013 0.279,0.57161 0.279,0.57327 0.279,0.57491 0.279,0.57656 0.279,0.57823 0.279,0.57989 0.279,0.58157 0.279,0.58325 0.279,0.58493 0.279,0.58664 0.279,0.58833 0.279,0.59003 0.279,0.59175 0.279,0.59347 0.279,0.5952 0.279,0.59693 0.279,0.59867 0.279,0.60042 0.279,0.60217 0.279,0.60393 0.279,0.6057 0.279,0.60748 0.279,0.60925 0.279,0.61105 0.279,0.61284 0.279,0.61464 0.279,0.61645 0.279,0.61827 0.279,0.62009 0.279,0.62192 0.279,0.62376 0.279,0.6256 0.279,0.62746 0.279,0.62932 0.279,0.63118 0.279,0.63306 0.279,0.63494 0.279,0.63683 0.279,0.63873 0.279,0.64063 0.279,0.64255 0.279,0.64446 0.279,0.64639 0.279,0.64833 0.279,0.65027 0.279,0.65222 0.279,0.65418 0.279,0.65615 0.279,0.65812 0.279,0.6601 0.279,0.66209 0.279,0.66409 0.279,0.66609 0.279,0.66811 0.279,0.67014 0.279,0.67216" /></g></g><g
       id="g226"><g
         clip-path="url(#clipPath230)"
         id="g228"><path
           id="path234"
           style="fill:none;stroke:#008000;stroke-width:1;stroke-linecap:square;stroke-linejoin:round;stroke-miterlimit:10;stroke-dasharray:none;stroke-opacity:1"
           d="m 247.14169,356.84228 0.279,0.20786 0.279,0.20805 0.279,0.20825 0.279,0.20844 0.279,0.20864 0.279,0.20883 0.279,0.20902 0.279,0.20923 0.279,0.20942 0.279,0.20961 0.279,0.20981 0.279,0.21001 0.279,0.2102 0.279,0.2104 0.279,0.2106 0.279,0.2108 0.279,0.21099 0.279,0.21119 0.279,0.21139 0.279,0.21159 0.279,0.21179 0.279,0.21199 0.279,0.21218 0.279,0.21239 0.279,0.21258 0.279,0.21279 0.279,0.21298 0.279,0.21319 0.279,0.21338 0.279,0.21359 0.279,0.21379 0.279,0.21399 0.279,0.21419 0.279,0.21439 0.279,0.2146 0.279,0.2148 0.279,0.215 0.279,0.2152 0.279,0.21541 0.279,0.21561 0.279,0.21582 0.279,0.21602 0.279,0.21622 0.279,0.21643 0.279,0.21663 0.279,0.21684 0.279,0.21704 0.279,0.21725 0.279,0.21745 0.279,0.21766" /></g></g><g
       id="g236"><g
         clip-path="url(#clipPath240)"
         id="g238"><path
           id="path244"
           style="fill:none;stroke:#008000;stroke-width:1;stroke-linecap:square;stroke-linejoin:round;stroke-miterlimit:10;stroke-dasharray:none;stroke-opacity:1"
           d="m 261.13437,367.51113 0.279,-0.21769 0.279,-0.21749 0.279,-0.21728 0.279,-0.21707 0.279,-0.21687 0.279,-0.21667 0.279,-0.21646 0.279,-0.21625 0.279,-0.21605 0.279,-0.21585 0.279,-0.21564 0.279,-0.21544 0.279,-0.21523 0.279,-0.21503 0.279,-0.21483 0.279,-0.21463 0.279,-0.21443 0.279,-0.21422 0.279,-0.21402 0.279,-0.21382 0.279,-0.21362 0.279,-0.21341 0.279,-0.21322 0.279,-0.21301 0.279,-0.21282 0.279,-0.21262 0.279,-0.21241 0.279,-0.21222 0.279,-0.21201 0.279,-0.21182 0.279,-0.21162 0.279,-0.21142 0.279,-0.21122 0.279,-0.21103 0.279,-0.21082 0.279,-0.21063 0.279,-0.21043 0.279,-0.21024 0.279,-0.21003 0.279,-0.20985 0.279,-0.20964 0.279,-0.20945 0.279,-0.20925 0.279,-0.20906 0.279,-0.20886 0.279,-0.20867 0.279,-0.20847 0.279,-0.20828 0.279,-0.20808 0.279,-0.20789" /></g></g><g
       id="g246"><g
         clip-path="url(#clipPath250)"
         id="g248"><path
           id="path254"
           style="fill:none;stroke:#008000;stroke-width:1;stroke-linecap:square;stroke-linejoin:round;stroke-miterlimit:10;stroke-dasharray:none;stroke-opacity:1"
           d="m 275.12706,356.84228 0.279,-0.67397 0.279,-0.67192 0.279,-0.6699 0.279,-0.66788 0.279,-0.66586 0.279,-0.66386 0.279,-0.66186 0.279,-0.65987 0.279,-0.65789 0.279,-0.65591 0.279,-0.65395 0.279,-0.652 0.279,-0.65004 0.279,-0.6481 0.279,-0.64617 0.279,-0.64424 0.279,-0.64232 0.279,-0.64041 0.279,-0.63851 0.279,-0.63661 0.279,-0.63472 0.279,-0.63285 0.279,-0.63096 0.279,-0.6291 0.279,-0.62725 0.279,-0.62539 0.279,-0.62354 0.279,-0.62171 0.279,-0.61988 0.279,-0.61805 0.279,-0.61624 0.279,-0.61443 0.279,-0.61263 0.279,-0.61084 0.279,-0.60905 0.279,-0.60727 0.279,-0.60549 0.279,-0.60373 0.279,-0.60196 0.279,-0.60022 0.279,-0.59847 0.279,-0.59673 0.279,-0.59499 0.279,-0.59327 0.279,-0.59155 0.279,-0.58984 0.279,-0.58813 0.279,-0.58644 0.279,-0.58474 0.279,-0.58305 0.279,-0.58137 0.279,-0.5797 0.279,-0.57804 0.279,-0.57637 0.279,-0.57472 0.279,-0.57307" /></g></g><g
       id="g256"><g
         clip-path="url(#clipPath260)"
         id="g258"><path
           id="path264"
           style="fill:none;stroke:#008000;stroke-width:1;stroke-linecap:square;stroke-linejoin:round;stroke-miterlimit:10;stroke-dasharray:none;stroke-opacity:1"
           d="m 290.99763,321.52013 0.279,-1.14996 0.279,-1.14332 0.279,-1.13675 0.279,-1.13022 0.279,-1.12374 0.279,-1.11732 0.279,-1.11094 0.279,-1.1046 0.279,-1.09833 0.279,-1.09209 0.279,-1.0859 0.279,-1.07976 0.279,-1.07367 0.279,-1.06762 0.279,-1.06161 0.279,-1.05566 0.279,-1.04974 0.279,-1.04387 0.279,-1.03805 0.279,-1.03226 0.279,-1.02652 0.279,-1.02082 0.279,-1.01517 0.279,-1.00956 0.279,-1.00398 0.279,-0.99845 0.279,-0.99296 0.279,-0.98751 0.279,-0.98209 0.279,-0.97673 0.279,-0.97139 0.279,-0.9661 0.279,-0.96085 0.279,-0.95562 0.279,-0.95045 0.279,-0.9453 0.279,-0.9402 0.279,-0.93513 0.279,-0.9301 0.279,-0.92511 0.279,-0.92014 0.279,-0.91522 0.279,-0.91032 0.279,-0.90547 0.279,-0.90066 0.279,-0.89586 0.279,-0.89111 0.279,-0.8864 0.279,-0.8817 0.279,-0.87706 0.279,-0.87243 0.279,-0.86785 0.279,-0.86329 0.279,-0.85877 0.279,-0.85427 0.279,-0.84981 0.279,-0.84539 0.279,-0.84098 0.279,-0.83662 0.279,-0.83227 0.279,-0.82797 0.279,-0.82369 0.279,-0.81944 0.279,-0.81522 0.279,-0.81103 0.279,-0.80686 0.279,-0.80273 0.279,-0.79863 0.279,-0.79454 0.279,-0.7905 0.279,-0.78647 0.279,-0.78248 0.279,-0.77851 0.279,-0.77457" /></g></g><g
       id="g266"><g
         clip-path="url(#clipPath270)"
         id="g268"><path
           id="path274"
           style="fill:none;stroke:#008000;stroke-width:1;stroke-linecap:square;stroke-linejoin:round;stroke-miterlimit:10;stroke-dasharray:none;stroke-opacity:1"
           d="m 311.78834,251.11222 0.279,-1.64208 0.279,-1.62443 0.279,-1.60702 0.279,-1.58987 0.279,-1.57296 0.279,-1.55629 0.279,-1.53985 0.279,-1.52364 0.279,-1.50767 0.279,-1.49191 0.279,-1.47637 0.279,-1.46104 0.279,-1.44594 0.279,-1.43103 0.279,-1.41633 0.279,-1.40183 0.279,-1.38753 0.279,-1.37342 0.279,-1.3595 0.279,-1.34577 0.279,-1.33223 0.279,-1.31886 0.279,-1.30568 0.279,-1.29266 0.279,-1.27983 0.279,-1.26715 0.279,-1.25466 0.279,-1.24231 0.279,-1.23014 0.279,-1.21811 0.279,-1.20626 0.279,-1.19454 0.279,-1.18299 0.279,-1.17157 0.279,-1.16032 0.279,-1.14919 0.279,-1.13822 0.279,-1.12737 0.279,-1.11668 0.279,-1.10611 0.279,-1.09567 0.279,-1.08538 0.279,-1.0752 0.279,-1.06515 0.279,-1.05523 0.279,-1.04543 0.279,-1.03575 0.279,-1.02619 0.279,-1.01675 0.279,-1.00743 0.279,-0.99821 0.279,-0.98911 0.279,-0.98012 0.279,-0.97123 0.279,-0.96247 0.279,-0.95379 0.279,-0.94522 0.279,-0.93677 0.279,-0.9284 0.279,-0.92013 0.279,-0.91198 0.279,-0.9039 0.279,-0.89592 0.279,-0.88805 0.279,-0.88026 0.279,-0.87256 0.279,-0.86495 0.279,-0.85743 0.279,-0.85 0.279,-0.84264 0.279,-0.83539 0.279,-0.82821 0.279,-0.82111 0.279,-0.81409 0.279,-0.80715 0.279,-0.8003 0.279,-0.79351 0.279,-0.78681 0.279,-0.78018 0.279,-0.77362 0.279,-0.76714 0.279,-0.76074 0.279,-0.75439 0.279,-0.74812 0.279,-0.74193 0.279,-0.7358 0.279,-0.72973 0.279,-0.72373 0.279,-0.7178 0.279,-0.71194 0.279,-0.70613 0.279,-0.7004 0.279,-0.69471 0.279,-0.6891 0.279,-0.68354 0.279,-0.67805 0.279,-0.6726 0.279,-0.66723 0.279,-0.6619 0.279,-0.65664 0.279,-0.65142 0.279,-0.64627 0.279,-0.64117 0.279,-0.63612 0.279,-0.63113 0.279,-0.62618 0.279,-0.62129 0.279,-0.61645 0.279,-0.61166 0.279,-0.60692 0.279,-0.60223 0.279,-0.59758 0.279,-0.59299 0.279,-0.58844 0.279,-0.58393 0.279,-0.57948 0.279,-0.57506 0.279,-0.5707" /></g></g><g
       id="g276"><g
         clip-path="url(#clipPath280)"
         id="g278"><path
           id="path284"
           style="fill:none;stroke:#008000;stroke-width:1;stroke-linecap:square;stroke-linejoin:round;stroke-miterlimit:10;stroke-dasharray:none;stroke-opacity:1"
           d="m 344.83437,134.7282 0.279,-1.34452 0.279,-1.32043 0.279,-1.29692 0.279,-1.27396 0.279,-1.25153 0.279,-1.22964 0.279,-1.20825 0.279,-1.18735 0.279,-1.16693 0.279,-1.14699 0.279,-1.12748 0.279,-1.10842 0.279,-1.08979 0.279,-1.07157 0.279,-1.05375 0.279,-1.03634 0.279,-1.01929 0.279,-1.00263 0.279,-0.98632 0.279,-0.97037 0.279,-0.95475 0.279,-0.93947 0.279,-0.92452 0.279,-0.90988 0.279,-0.89555 0.279,-0.88151 0.279,-0.86778 0.279,-0.85431 0.279,-0.84114 0.279,-0.82823 0.279,-0.81558 0.279,-0.80318 0.279,-0.79105 0.279,-0.779152 0.279,-0.767488 0.279,-0.75606 0.279,-0.744856 0.279,-0.733874 0.279,-0.723105 0.279,-0.712547 0.279,-0.702193 0.279,-0.692039 0.279,-0.68208 0.279,-0.67231 0.279,-0.662727 0.279,-0.653324 0.279,-0.6441 0.279,-0.635047 0.279,-0.626163 0.279,-0.617445 0.279,-0.608888 0.279,-0.600487 0.279,-0.592242 0.279,-0.584145 0.279,-0.576196 0.279,-0.568391 0.279,-0.560725 0.279,-0.553198 0.279,-0.545804 0.279,-0.538541 0.279,-0.531407 0.279,-0.524398 0.279,-0.517512 0.279,-0.510746 0.279,-0.504097 0.279,-0.497564 0.279,-0.491142 0.279,-0.48483 0.279,-0.478628 0.279,-0.472529 0.279,-0.466533 0.279,-0.46064 0.279,-0.454845 0.279,-0.449146 0.279,-0.443542 0.279,-0.438032 0.279,-0.432612 0.279,-0.427281 0.279,-0.422037 0.27901,-0.416879 0.27899,-0.411805 0.279,-0.406813 0.279,-0.4019 0.279,-0.397067 0.279,-0.392311 0.279,-0.38763 0.279,-0.383024 0.279,-0.378491 0.279,-0.374028 0.279,-0.369636 0.279,-0.365312 0.279,-0.361055 0.279,-0.356865 0.279,-0.352738 0.279,-0.348675 0.279,-0.344674 0.279,-0.340735 0.279,-0.336855 0.279,-0.333033 0.279,-0.32927 0.279,-0.325562 0.279,-0.321911 0.279,-0.318314 0.279,-0.314769 0.279,-0.311278 0.279,-0.307838 0.279,-0.304449 0.279,-0.301108 0.279,-0.297817 0.279,-0.294574 0.279,-0.291377 0.279,-0.288226 0.279,-0.285122 0.279,-0.28206 0.279,-0.279044 0.279,-0.276069 0.279,-0.273137 0.279,-0.270246 0.279,-0.267396 0.279,-0.264586 0.279,-0.261815 0.279,-0.259082 0.279,-0.256388" /></g></g><g
       id="g286"><g
         clip-path="url(#clipPath290)"
         id="g288"><path
           id="path294"
           style="fill:none;stroke:#008000;stroke-width:1;stroke-linecap:square;stroke-linejoin:round;stroke-miterlimit:10;stroke-dasharray:none;stroke-opacity:1"
           d="m 379.35343,59.363139 1.116,-4.455427 1.116,-3.687533 1.395,-3.779434 1.395,-3.072175 1.395,-2.530976 1.395,-2.109815 1.674,-2.098834 1.674,-1.73087 1.953,-1.661423 1.953,-1.363715 2.232,-1.279201 2.511,-1.167417 2.79,-1.043234 3.348,-0.991227 3.627,-0.840001 4.464,-0.796478 5.301,-0.709475 6.417,-0.628696 8.091,-0.561157 10.602,-0.49654 1.395,-0.05148 0,0" /></g></g><g
       id="g296"><g
         clip-path="url(#clipPath300)"
         id="g298"><path
           id="path304"
           style="fill:none;stroke:#008000;stroke-width:1;stroke-linecap:square;stroke-linejoin:round;stroke-miterlimit:10;stroke-dasharray:none;stroke-opacity:1"
           d="m 445.42926,22.825 38.90511,0 0,0" /></g></g><g
       id="g306"><path
         id="path308"
         style="fill:none;stroke:#000000;stroke-width:1;stroke-linecap:square;stroke-linejoin:miter;stroke-miterlimit:10;stroke-dasharray:none;stroke-opacity:1"
         d="m 37.934375,22.825 446.399995,0" /><path
         id="path310"
         style="fill:none;stroke:#000000;stroke-width:1;stroke-linecap:square;stroke-linejoin:miter;stroke-miterlimit:10;stroke-dasharray:none;stroke-opacity:1"
         d="m 484.33437,22.825 0,345.6" /><path
         id="path312"
         style="fill:none;stroke:#000000;stroke-width:1;stroke-linecap:square;stroke-linejoin:miter;stroke-miterlimit:10;stroke-dasharray:none;stroke-opacity:1"
         d="m 37.934375,22.825 0,345.6" /><path
         id="path314"
         style="fill:none;stroke:#000000;stroke-width:1;stroke-linecap:square;stroke-linejoin:miter;stroke-miterlimit:10;stroke-dasharray:none;stroke-opacity:1"
         d="m 37.934375,368.425 446.399995,0" /><path
         id="path316"
         style="fill:#000000;fill-opacity:1;fill-rule:nonzero;stroke:#000000;stroke-width:0.5;stroke-linecap:butt;stroke-linejoin:round;stroke-miterlimit:10;stroke-dasharray:none;stroke-opacity:1"
         d="m 37.934375,22.825 0,4" /><path
         id="path318"
         style="fill:#000000;fill-opacity:1;fill-rule:nonzero;stroke:#000000;stroke-width:0.5;stroke-linecap:butt;stroke-linejoin:round;stroke-miterlimit:10;stroke-dasharray:none;stroke-opacity:1"
         d="m 37.934375,368.425 0,-4" /><g
         transform="translate(29.082812,9.7)"
         id="g320"><text
           id="text322"
           style="font-variant:normal;font-weight:normal;font-size:12px;font-family:'Bitstream Vera Sans';-inkscape-font-specification:BitstreamVeraSans-Roman;writing-mode:lr-tb;fill:#000000;fill-opacity:1;fill-rule:nonzero;stroke:none"
           transform="matrix(1,0,0,-1,10.054688,0)"><tspan
             id="tspan324"
             y="0"
             x="0">4</tspan></text>
<g
           transform="scale(0.012,0.012)"
           id="g326"><g
             id="g328"><g
               clip-path="url(#clipPath332)"
               id="g330"><path
                 id="path336"
                 style="fill:#000000;fill-opacity:1;fill-rule:nonzero;stroke:none"
                 d="m 106,355 626,0 0,-83 -626,0 0,83" /></g></g></g></g><path
         id="path338"
         style="fill:#000000;fill-opacity:1;fill-rule:nonzero;stroke:#000000;stroke-width:0.5;stroke-linecap:butt;stroke-linejoin:round;stroke-miterlimit:10;stroke-dasharray:none;stroke-opacity:1"
         d="m 93.734375,22.825 0,4" /><path
         id="path340"
         style="fill:#000000;fill-opacity:1;fill-rule:nonzero;stroke:#000000;stroke-width:0.5;stroke-linecap:butt;stroke-linejoin:round;stroke-miterlimit:10;stroke-dasharray:none;stroke-opacity:1"
         d="m 93.734375,368.425 0,-4" /><g
         transform="translate(84.882812,9.7)"
         id="g342"><text
           id="text344"
           style="font-variant:normal;font-weight:normal;font-size:12px;font-family:'Bitstream Vera Sans';-inkscape-font-specification:BitstreamVeraSans-Roman;writing-mode:lr-tb;fill:#000000;fill-opacity:1;fill-rule:nonzero;stroke:none"
           transform="matrix(1,0,0,-1,10.054688,0)"><tspan
             id="tspan346"
             y="0"
             x="0">3</tspan></text>
<g
           transform="scale(0.012,0.012)"
           id="g348"><g
             id="g350"><g
               clip-path="url(#clipPath354)"
               id="g352"><path
                 id="path358"
                 style="fill:#000000;fill-opacity:1;fill-rule:nonzero;stroke:none"
                 d="m 106,355 626,0 0,-83 -626,0 0,83" /></g></g></g></g><path
         id="path360"
         style="fill:#000000;fill-opacity:1;fill-rule:nonzero;stroke:#000000;stroke-width:0.5;stroke-linecap:butt;stroke-linejoin:round;stroke-miterlimit:10;stroke-dasharray:none;stroke-opacity:1"
         d="m 149.53437,22.825 0,4" /><path
         id="path362"
         style="fill:#000000;fill-opacity:1;fill-rule:nonzero;stroke:#000000;stroke-width:0.5;stroke-linecap:butt;stroke-linejoin:round;stroke-miterlimit:10;stroke-dasharray:none;stroke-opacity:1"
         d="m 149.53437,368.425 0,-4" /><g
         transform="translate(140.68281,9.7)"
         id="g364"><text
           id="text366"
           style="font-variant:normal;font-weight:normal;font-size:12px;font-family:'Bitstream Vera Sans';-inkscape-font-specification:BitstreamVeraSans-Roman;writing-mode:lr-tb;fill:#000000;fill-opacity:1;fill-rule:nonzero;stroke:none"
           transform="matrix(1,0,0,-1,10.054688,0)"><tspan
             id="tspan368"
             y="0"
             x="0">2</tspan></text>
<g
           transform="scale(0.012,0.012)"
           id="g370"><g
             id="g372"><g
               clip-path="url(#clipPath376)"
               id="g374"><path
                 id="path380"
                 style="fill:#000000;fill-opacity:1;fill-rule:nonzero;stroke:none"
                 d="m 106,355 626,0 0,-83 -626,0 0,83" /></g></g></g></g><path
         id="path382"
         style="fill:#000000;fill-opacity:1;fill-rule:nonzero;stroke:#000000;stroke-width:0.5;stroke-linecap:butt;stroke-linejoin:round;stroke-miterlimit:10;stroke-dasharray:none;stroke-opacity:1"
         d="m 205.33437,22.825 0,4" /><path
         id="path384"
         style="fill:#000000;fill-opacity:1;fill-rule:nonzero;stroke:#000000;stroke-width:0.5;stroke-linecap:butt;stroke-linejoin:round;stroke-miterlimit:10;stroke-dasharray:none;stroke-opacity:1"
         d="m 205.33437,368.425 0,-4" /><g
         transform="translate(196.48281,9.7)"
         id="g386"><text
           id="text388"
           style="font-variant:normal;font-weight:normal;font-size:12px;font-family:'Bitstream Vera Sans';-inkscape-font-specification:BitstreamVeraSans-Roman;writing-mode:lr-tb;fill:#000000;fill-opacity:1;fill-rule:nonzero;stroke:none"
           transform="matrix(1,0,0,-1,10.054688,0)"><tspan
             id="tspan390"
             y="0"
             x="0">1</tspan></text>
<g
           transform="scale(0.012,0.012)"
           id="g392"><g
             id="g394"><g
               clip-path="url(#clipPath398)"
               id="g396"><path
                 id="path402"
                 style="fill:#000000;fill-opacity:1;fill-rule:nonzero;stroke:none"
                 d="m 106,355 626,0 0,-83 -626,0 0,83" /></g></g></g></g><path
         id="path404"
         style="fill:#000000;fill-opacity:1;fill-rule:nonzero;stroke:#000000;stroke-width:0.5;stroke-linecap:butt;stroke-linejoin:round;stroke-miterlimit:10;stroke-dasharray:none;stroke-opacity:1"
         d="m 261.13437,22.825 0,4" /><path
         id="path406"
         style="fill:#000000;fill-opacity:1;fill-rule:nonzero;stroke:#000000;stroke-width:0.5;stroke-linecap:butt;stroke-linejoin:round;stroke-miterlimit:10;stroke-dasharray:none;stroke-opacity:1"
         d="m 261.13437,368.425 0,-4" /><text
         id="text408"
         style="font-variant:normal;font-weight:normal;font-size:12px;font-family:'Bitstream Vera Sans';-inkscape-font-specification:BitstreamVeraSans-Roman;writing-mode:lr-tb;fill:#000000;fill-opacity:1;fill-rule:nonzero;stroke:none"
         transform="matrix(1,0,0,-1,257.31406,9.7)"><tspan
           id="tspan410"
           y="0"
           x="0">0</tspan></text>
<path
         id="path412"
         style="fill:#000000;fill-opacity:1;fill-rule:nonzero;stroke:#000000;stroke-width:0.5;stroke-linecap:butt;stroke-linejoin:round;stroke-miterlimit:10;stroke-dasharray:none;stroke-opacity:1"
         d="m 316.93437,22.825 0,4" /><path
         id="path414"
         style="fill:#000000;fill-opacity:1;fill-rule:nonzero;stroke:#000000;stroke-width:0.5;stroke-linecap:butt;stroke-linejoin:round;stroke-miterlimit:10;stroke-dasharray:none;stroke-opacity:1"
         d="m 316.93437,368.425 0,-4" /><text
         id="text416"
         style="font-variant:normal;font-weight:normal;font-size:12px;font-family:'Bitstream Vera Sans';-inkscape-font-specification:BitstreamVeraSans-Roman;writing-mode:lr-tb;fill:#000000;fill-opacity:1;fill-rule:nonzero;stroke:none"
         transform="matrix(1,0,0,-1,313.11406,9.7)"><tspan
           id="tspan418"
           y="0"
           x="0">1</tspan></text>
<path
         id="path420"
         style="fill:#000000;fill-opacity:1;fill-rule:nonzero;stroke:#000000;stroke-width:0.5;stroke-linecap:butt;stroke-linejoin:round;stroke-miterlimit:10;stroke-dasharray:none;stroke-opacity:1"
         d="m 372.73437,22.825 0,4" /><path
         id="path422"
         style="fill:#000000;fill-opacity:1;fill-rule:nonzero;stroke:#000000;stroke-width:0.5;stroke-linecap:butt;stroke-linejoin:round;stroke-miterlimit:10;stroke-dasharray:none;stroke-opacity:1"
         d="m 372.73437,368.425 0,-4" /><text
         id="text424"
         style="font-variant:normal;font-weight:normal;font-size:12px;font-family:'Bitstream Vera Sans';-inkscape-font-specification:BitstreamVeraSans-Roman;writing-mode:lr-tb;fill:#000000;fill-opacity:1;fill-rule:nonzero;stroke:none"
         transform="matrix(1,0,0,-1,368.91406,9.7)"><tspan
           id="tspan426"
           y="0"
           x="0">2</tspan></text>
<path
         id="path428"
         style="fill:#000000;fill-opacity:1;fill-rule:nonzero;stroke:#000000;stroke-width:0.5;stroke-linecap:butt;stroke-linejoin:round;stroke-miterlimit:10;stroke-dasharray:none;stroke-opacity:1"
         d="m 428.53437,22.825 0,4" /><path
         id="path430"
         style="fill:#000000;fill-opacity:1;fill-rule:nonzero;stroke:#000000;stroke-width:0.5;stroke-linecap:butt;stroke-linejoin:round;stroke-miterlimit:10;stroke-dasharray:none;stroke-opacity:1"
         d="m 428.53437,368.425 0,-4" /><text
         id="text432"
         style="font-variant:normal;font-weight:normal;font-size:12px;font-family:'Bitstream Vera Sans';-inkscape-font-specification:BitstreamVeraSans-Roman;writing-mode:lr-tb;fill:#000000;fill-opacity:1;fill-rule:nonzero;stroke:none"
         transform="matrix(1,0,0,-1,424.71406,9.7)"><tspan
           id="tspan434"
           y="0"
           x="0">3</tspan></text>
<path
         id="path436"
         style="fill:#000000;fill-opacity:1;fill-rule:nonzero;stroke:#000000;stroke-width:0.5;stroke-linecap:butt;stroke-linejoin:round;stroke-miterlimit:10;stroke-dasharray:none;stroke-opacity:1"
         d="m 484.33437,22.825 0,4" /><path
         id="path438"
         style="fill:#000000;fill-opacity:1;fill-rule:nonzero;stroke:#000000;stroke-width:0.5;stroke-linecap:butt;stroke-linejoin:round;stroke-miterlimit:10;stroke-dasharray:none;stroke-opacity:1"
         d="m 484.33437,368.425 0,-4" /><text
         id="text440"
         style="font-variant:normal;font-weight:normal;font-size:12px;font-family:'Bitstream Vera Sans';-inkscape-font-specification:BitstreamVeraSans-Roman;writing-mode:lr-tb;fill:#000000;fill-opacity:1;fill-rule:nonzero;stroke:none"
         transform="matrix(1,0,0,-1,480.51406,9.7)"><tspan
           id="tspan442"
           y="0"
           x="0">4</tspan></text>
<path
         id="path444"
         style="fill:#000000;fill-opacity:1;fill-rule:nonzero;stroke:#000000;stroke-width:0.5;stroke-linecap:butt;stroke-linejoin:round;stroke-miterlimit:10;stroke-dasharray:none;stroke-opacity:1"
         d="m 37.934375,22.825 4,0" /><path
         id="path446"
         style="fill:#000000;fill-opacity:1;fill-rule:nonzero;stroke:#000000;stroke-width:0.5;stroke-linecap:butt;stroke-linejoin:round;stroke-miterlimit:10;stroke-dasharray:none;stroke-opacity:1"
         d="m 484.33437,22.825 -4,0" /><text
         id="text448"
         style="font-variant:normal;font-weight:normal;font-size:12px;font-family:'Bitstream Vera Sans';-inkscape-font-specification:BitstreamVeraSans-Roman;writing-mode:lr-tb;fill:#000000;fill-opacity:1;fill-rule:nonzero;stroke:none"
         transform="matrix(1,0,0,-1,7.2,19.5125)"><tspan
           id="tspan450"
           y="0"
           x="0 7.632 11.448 19.08">0.00</tspan></text>
<path
         id="path452"
         style="fill:#000000;fill-opacity:1;fill-rule:nonzero;stroke:#000000;stroke-width:0.5;stroke-linecap:butt;stroke-linejoin:round;stroke-miterlimit:10;stroke-dasharray:none;stroke-opacity:1"
         d="m 37.934375,66.025 4,0" /><path
         id="path454"
         style="fill:#000000;fill-opacity:1;fill-rule:nonzero;stroke:#000000;stroke-width:0.5;stroke-linecap:butt;stroke-linejoin:round;stroke-miterlimit:10;stroke-dasharray:none;stroke-opacity:1"
         d="m 484.33437,66.025 -4,0" /><text
         id="text456"
         style="font-variant:normal;font-weight:normal;font-size:12px;font-family:'Bitstream Vera Sans';-inkscape-font-specification:BitstreamVeraSans-Roman;writing-mode:lr-tb;fill:#000000;fill-opacity:1;fill-rule:nonzero;stroke:none"
         transform="matrix(1,0,0,-1,7.2,62.7125)"><tspan
           id="tspan458"
           y="0"
           x="0 7.632 11.448 19.08">0.05</tspan></text>
<path
         id="path460"
         style="fill:#000000;fill-opacity:1;fill-rule:nonzero;stroke:#000000;stroke-width:0.5;stroke-linecap:butt;stroke-linejoin:round;stroke-miterlimit:10;stroke-dasharray:none;stroke-opacity:1"
         d="m 37.934375,109.225 4,0" /><path
         id="path462"
         style="fill:#000000;fill-opacity:1;fill-rule:nonzero;stroke:#000000;stroke-width:0.5;stroke-linecap:butt;stroke-linejoin:round;stroke-miterlimit:10;stroke-dasharray:none;stroke-opacity:1"
         d="m 484.33437,109.225 -4,0" /><text
         id="text464"
         style="font-variant:normal;font-weight:normal;font-size:12px;font-family:'Bitstream Vera Sans';-inkscape-font-specification:BitstreamVeraSans-Roman;writing-mode:lr-tb;fill:#000000;fill-opacity:1;fill-rule:nonzero;stroke:none"
         transform="matrix(1,0,0,-1,7.2,105.9125)"><tspan
           id="tspan466"
           y="0"
           x="0 7.632 11.448 19.08">0.10</tspan></text>
<path
         id="path468"
         style="fill:#000000;fill-opacity:1;fill-rule:nonzero;stroke:#000000;stroke-width:0.5;stroke-linecap:butt;stroke-linejoin:round;stroke-miterlimit:10;stroke-dasharray:none;stroke-opacity:1"
         d="m 37.934375,152.425 4,0" /><path
         id="path470"
         style="fill:#000000;fill-opacity:1;fill-rule:nonzero;stroke:#000000;stroke-width:0.5;stroke-linecap:butt;stroke-linejoin:round;stroke-miterlimit:10;stroke-dasharray:none;stroke-opacity:1"
         d="m 484.33437,152.425 -4,0" /><text
         id="text472"
         style="font-variant:normal;font-weight:normal;font-size:12px;font-family:'Bitstream Vera Sans';-inkscape-font-specification:BitstreamVeraSans-Roman;writing-mode:lr-tb;fill:#000000;fill-opacity:1;fill-rule:nonzero;stroke:none"
         transform="matrix(1,0,0,-1,7.2,149.1125)"><tspan
           id="tspan474"
           y="0"
           x="0 7.632 11.448 19.08">0.15</tspan></text>
<path
         id="path476"
         style="fill:#000000;fill-opacity:1;fill-rule:nonzero;stroke:#000000;stroke-width:0.5;stroke-linecap:butt;stroke-linejoin:round;stroke-miterlimit:10;stroke-dasharray:none;stroke-opacity:1"
         d="m 37.934375,195.625 4,0" /><path
         id="path478"
         style="fill:#000000;fill-opacity:1;fill-rule:nonzero;stroke:#000000;stroke-width:0.5;stroke-linecap:butt;stroke-linejoin:round;stroke-miterlimit:10;stroke-dasharray:none;stroke-opacity:1"
         d="m 484.33437,195.625 -4,0" /><text
         id="text480"
         style="font-variant:normal;font-weight:normal;font-size:12px;font-family:'Bitstream Vera Sans';-inkscape-font-specification:BitstreamVeraSans-Roman;writing-mode:lr-tb;fill:#000000;fill-opacity:1;fill-rule:nonzero;stroke:none"
         transform="matrix(1,0,0,-1,7.2,192.3125)"><tspan
           id="tspan482"
           y="0"
           x="0 7.632 11.448 19.08">0.20</tspan></text>
<path
         id="path484"
         style="fill:#000000;fill-opacity:1;fill-rule:nonzero;stroke:#000000;stroke-width:0.5;stroke-linecap:butt;stroke-linejoin:round;stroke-miterlimit:10;stroke-dasharray:none;stroke-opacity:1"
         d="m 37.934375,238.825 4,0" /><path
         id="path486"
         style="fill:#000000;fill-opacity:1;fill-rule:nonzero;stroke:#000000;stroke-width:0.5;stroke-linecap:butt;stroke-linejoin:round;stroke-miterlimit:10;stroke-dasharray:none;stroke-opacity:1"
         d="m 484.33437,238.825 -4,0" /><text
         id="text488"
         style="font-variant:normal;font-weight:normal;font-size:12px;font-family:'Bitstream Vera Sans';-inkscape-font-specification:BitstreamVeraSans-Roman;writing-mode:lr-tb;fill:#000000;fill-opacity:1;fill-rule:nonzero;stroke:none"
         transform="matrix(1,0,0,-1,7.2,235.5125)"><tspan
           id="tspan490"
           y="0"
           x="0 7.632 11.448 19.08">0.25</tspan></text>
<path
         id="path492"
         style="fill:#000000;fill-opacity:1;fill-rule:nonzero;stroke:#000000;stroke-width:0.5;stroke-linecap:butt;stroke-linejoin:round;stroke-miterlimit:10;stroke-dasharray:none;stroke-opacity:1"
         d="m 37.934375,282.025 4,0" /><path
         id="path494"
         style="fill:#000000;fill-opacity:1;fill-rule:nonzero;stroke:#000000;stroke-width:0.5;stroke-linecap:butt;stroke-linejoin:round;stroke-miterlimit:10;stroke-dasharray:none;stroke-opacity:1"
         d="m 484.33437,282.025 -4,0" /><text
         id="text496"
         style="font-variant:normal;font-weight:normal;font-size:12px;font-family:'Bitstream Vera Sans';-inkscape-font-specification:BitstreamVeraSans-Roman;writing-mode:lr-tb;fill:#000000;fill-opacity:1;fill-rule:nonzero;stroke:none"
         transform="matrix(1,0,0,-1,7.2,278.7125)"><tspan
           id="tspan498"
           y="0"
           x="0 7.632 11.448 19.08">0.30</tspan></text>
<path
         id="path500"
         style="fill:#000000;fill-opacity:1;fill-rule:nonzero;stroke:#000000;stroke-width:0.5;stroke-linecap:butt;stroke-linejoin:round;stroke-miterlimit:10;stroke-dasharray:none;stroke-opacity:1"
         d="m 37.934375,325.225 4,0" /><path
         id="path502"
         style="fill:#000000;fill-opacity:1;fill-rule:nonzero;stroke:#000000;stroke-width:0.5;stroke-linecap:butt;stroke-linejoin:round;stroke-miterlimit:10;stroke-dasharray:none;stroke-opacity:1"
         d="m 484.33437,325.225 -4,0" /><text
         id="text504"
         style="font-variant:normal;font-weight:normal;font-size:12px;font-family:'Bitstream Vera Sans';-inkscape-font-specification:BitstreamVeraSans-Roman;writing-mode:lr-tb;fill:#000000;fill-opacity:1;fill-rule:nonzero;stroke:none"
         transform="matrix(1,0,0,-1,7.2,321.9125)"><tspan
           id="tspan506"
           y="0"
           x="0 7.632 11.448 19.08">0.35</tspan></text>
<path
         id="path508"
         style="fill:#000000;fill-opacity:1;fill-rule:nonzero;stroke:#000000;stroke-width:0.5;stroke-linecap:butt;stroke-linejoin:round;stroke-miterlimit:10;stroke-dasharray:none;stroke-opacity:1"
         d="m 37.934375,368.425 4,0" /><path
         id="path510"
         style="fill:#000000;fill-opacity:1;fill-rule:nonzero;stroke:#000000;stroke-width:0.5;stroke-linecap:butt;stroke-linejoin:round;stroke-miterlimit:10;stroke-dasharray:none;stroke-opacity:1"
         d="m 484.33437,368.425 -4,0" /><text
         id="text512"
         style="font-variant:normal;font-weight:normal;font-size:12px;font-family:'Bitstream Vera Sans';-inkscape-font-specification:BitstreamVeraSans-Roman;writing-mode:lr-tb;fill:#000000;fill-opacity:1;fill-rule:nonzero;stroke:none"
         transform="matrix(1,0,0,-1,7.2,365.1125)"><tspan
           id="tspan514"
           y="0"
           x="0 7.632 11.448 19.08">0.40</tspan></text>
</g></g></svg>