<?xml version="1.0" encoding="UTF-8" standalone="no"?>
<svg
   xmlns:dc="http://purl.org/dc/elements/1.1/"
   xmlns:cc="http://creativecommons.org/ns#"
   xmlns:rdf="http://www.w3.org/1999/02/22-rdf-syntax-ns#"
   xmlns:svg="http://www.w3.org/2000/svg"
   xmlns="http://www.w3.org/2000/svg"
   xmlns:sodipodi="http://sodipodi.sourceforge.net/DTD/sodipodi-0.dtd"
   xmlns:inkscape="http://www.inkscape.org/namespaces/inkscape"
   viewBox="0 0 619.19336 489.08203"
   height="489.08203"
   width="619.19336"
   xml:space="preserve"
   version="1.1"
   id="svg2"
   inkscape:version="0.91 r13725"
   sodipodi:docname="tf_example_normal_6.svg"><sodipodi:namedview
     pagecolor="#ffffff"
     bordercolor="#666666"
     borderopacity="1"
     objecttolerance="10"
     gridtolerance="10"
     guidetolerance="10"
     inkscape:pageopacity="0"
     inkscape:pageshadow="2"
     inkscape:window-width="1920"
     inkscape:window-height="1058"
     id="namedview180"
     showgrid="false"
     inkscape:zoom="0.48253664"
     inkscape:cx="-90.372948"
     inkscape:cy="244.54102"
     inkscape:window-x="0"
     inkscape:window-y="22"
     inkscape:window-maximized="1"
     inkscape:current-layer="svg2" /><metadata
     id="metadata8"><rdf:RDF><cc:Work
         rdf:about=""><dc:format>image/svg+xml</dc:format><dc:type
           rdf:resource="http://purl.org/dc/dcmitype/StillImage" /></cc:Work></rdf:RDF></metadata><defs
     id="defs6"><clipPath
       id="clipPath20"
       clipPathUnits="userSpaceOnUse"><path
         id="path22"
         d="m 37.934375,22.825 446.399995,0 0,345.6 -446.399995,0 0,-345.6 z" /></clipPath><clipPath
       id="clipPath30"
       clipPathUnits="userSpaceOnUse"><path
         id="path32"
         d="m 37.934375,22.825 446.399995,0 0,345.6 -446.399995,0 0,-345.6 z" /></clipPath><clipPath
       id="clipPath40"
       clipPathUnits="userSpaceOnUse"><path
         id="path42"
         d="m 37.934375,22.825 446.399995,0 0,345.6 -446.399995,0 0,-345.6 z" /></clipPath><clipPath
       id="clipPath50"
       clipPathUnits="userSpaceOnUse"><path
         id="path52"
         d="m 37.934375,22.825 446.399995,0 0,345.6 -446.399995,0 0,-345.6 z" /></clipPath><clipPath
       id="clipPath60"
       clipPathUnits="userSpaceOnUse"><path
         id="path62"
         d="m 37.934375,22.825 446.399995,0 0,345.6 -446.399995,0 0,-345.6 z" /></clipPath><clipPath
       id="clipPath70"
       clipPathUnits="userSpaceOnUse"><path
         id="path72"
         d="m 37.934375,22.825 446.399995,0 0,345.6 -446.399995,0 0,-345.6 z" /></clipPath><clipPath
       id="clipPath80"
       clipPathUnits="userSpaceOnUse"><path
         id="path82"
         d="m 37.934375,22.825 446.399995,0 0,345.6 -446.399995,0 0,-345.6 z" /></clipPath><clipPath
       id="clipPath90"
       clipPathUnits="userSpaceOnUse"><path
         id="path92"
         d="m 37.934375,22.825 446.399995,0 0,345.6 -446.399995,0 0,-345.6 z" /></clipPath><clipPath
       id="clipPath100"
       clipPathUnits="userSpaceOnUse"><path
         id="path102"
         d="m 37.934375,22.825 446.399995,0 0,345.6 -446.399995,0 0,-345.6 z" /></clipPath><clipPath
       id="clipPath110"
       clipPathUnits="userSpaceOnUse"><path
         id="path112"
         d="m 37.934375,22.825 446.399995,0 0,345.6 -446.399995,0 0,-345.6 z" /></clipPath><clipPath
       id="clipPath120"
       clipPathUnits="userSpaceOnUse"><path
         id="path122"
         d="m 37.934375,22.825 446.399995,0 0,345.6 -446.399995,0 0,-345.6 z" /></clipPath><clipPath
       id="clipPath130"
       clipPathUnits="userSpaceOnUse"><path
         id="path132"
         d="m 37.934375,22.825 446.399995,0 0,345.6 -446.399995,0 0,-345.6 z" /></clipPath><clipPath
       id="clipPath140"
       clipPathUnits="userSpaceOnUse"><path
         id="path142"
         d="m 37.934375,22.825 446.399995,0 0,345.6 -446.399995,0 0,-345.6 z" /></clipPath><clipPath
       id="clipPath172"
       clipPathUnits="userSpaceOnUse"><path
         id="path174"
         d="m -184,-236 1472,0 0,1165 -1472,0 0,-1165 z" /></clipPath><clipPath
       id="clipPath194"
       clipPathUnits="userSpaceOnUse"><path
         id="path196"
         d="m -184,-236 1472,0 0,1165 -1472,0 0,-1165 z" /></clipPath><clipPath
       id="clipPath216"
       clipPathUnits="userSpaceOnUse"><path
         id="path218"
         d="m -184,-236 1472,0 0,1165 -1472,0 0,-1165 z" /></clipPath><clipPath
       id="clipPath238"
       clipPathUnits="userSpaceOnUse"><path
         id="path240"
         d="m -184,-236 1472,0 0,1165 -1472,0 0,-1165 z" /></clipPath></defs><g
     transform="matrix(1.25,0,0,-1.25,0,489.08203)"
     id="g10"><path
       id="path12"
       style="fill:#ffffff;fill-opacity:1;fill-rule:nonzero;stroke:none"
       d="m 0,0 495.35469,0 0,391.26562 L 0,391.26562 0,0 Z" /><path
       id="path14"
       style="fill:#ffffff;fill-opacity:1;fill-rule:nonzero;stroke:none"
       d="m 37.934375,22.825 446.399995,0 0,345.6 -446.399995,0 0,-345.6 z" /><g
       id="g16"><g
         clip-path="url(#clipPath20)"
         id="g18"><path
           id="path24"
           style="fill:none;stroke:#000000;stroke-width:1;stroke-linecap:square;stroke-linejoin:round;stroke-miterlimit:10;stroke-dasharray:none;stroke-opacity:1"
           d="m 37.934375,22.940629 16.461,0.244649 10.881,0.36775 8.37,0.490732 6.975,0.621711 6.138,0.77076 5.301,0.886744 4.743,1.011234 4.464005,1.179718 4.18499,1.343868 3.906,1.495882 3.627,1.627903 3.348,1.732517 3.348,1.978039 3.348,2.249012 3.069,2.32223 3.069,2.593131 3.069,2.885365 3.069,3.199066 3.069,3.534108 3.069,3.890079 3.069,4.266236 3.069,4.661494 3.069,5.074378 3.069,5.503019 3.069,5.945127 3.348,7.002358 3.348,7.550864 3.34801,8.103867 3.62699,9.40159 3.627,10.03884 3.906,11.50082 4.185,13.07323 4.464,14.72801 4.743,16.41885 5.859,21.14393 8.64901,32.20052 9.48599,35.11815 5.301,18.75295 4.185,14.02376 3.627,11.42811 3.348,9.83571 3.069,8.33074 2.79,6.94427 2.511,5.69585 2.511,5.13699 2.23201,4.0728 2.23199,3.58866 1.953,2.72968 1.953,2.33627 1.674,1.68294 1.674,1.38316 1.674,1.07967 1.395,0.66578 1.395,0.45174 1.395,0.23686 1.395,0.0215 1.395,-0.19383 1.395,-0.40882 1.395,-0.62305 1.395,-0.83613 1.674,-1.28237 1.674,-1.58347 1.674,-1.88034 1.953,-2.5622 1.953,-2.95015 1.953,-3.32749 2.232,-4.24959 2.232,-4.70722 2.511,-5.81569 2.79,-7.06845 3.069,-8.4556 3.348,-9.95704 3.627,-11.54113 4.185,-14.12961 4.743,-16.82531 6.417,-23.63906 15.345,-56.86518 5.58,-19.62437 4.743,-15.87117 4.185,-13.27042 3.906,-11.69902 3.906,-10.99247 3.627,-9.54989 3.627,-8.904025 3.348,-7.642868 3.348,-7.093237 3.348,-6.552431 3.069,-5.542692 3.069,-5.112726 3.069,-4.698325 3.069,-4.301399 3.069,-3.923454 3.069,-3.565614 3.069,-3.228646 3.069,-2.912996 3.069,-2.618813 3.069,-2.345984 3.348,-2.272775 3.348,-1.999633 3.348,-1.752034 3.627,-1.646827 3.906,-1.51385 3.906,-1.277521 4.185,-1.141642 4.743,-1.052124 5.022,-0.881129 5.58,-0.751954 6.417,-0.634166 7.533,-0.511243 9.207,-0.389864 11.997,-0.271164 9.207,-0.105065 0,0" /></g></g><g
       id="g26"><g
         clip-path="url(#clipPath30)"
         id="g28"><path
           id="path34"
           style="fill:none;stroke:#ff0000;stroke-width:1;stroke-linecap:square;stroke-linejoin:round;stroke-miterlimit:10;stroke-dasharray:none;stroke-opacity:1"
           d="m 37.934375,36.363384 10.881,1.490095 9.765,1.557129 8.928,1.645589 8.091,1.712426 7.533,1.820838 6.975,1.917809 6.417,1.997406 5.858995,2.052934 5.58001,2.192921 5.02199,2.203888 4.743,2.312867 4.464,2.412759 4.185,2.499835 4.185,2.763078 3.906,2.850064 3.627,2.91368 3.627,3.20632 3.348,3.254365 3.348,3.575528 3.06901,3.596883 3.06899,3.942658 3.069,4.334215 2.79,4.324923 2.79,4.739756 2.79,5.2094 2.511,5.1428 2.511,5.62957 2.511,6.17977 2.511,6.80408 1.395,4.08123 0,0" /></g></g><g
       id="g36"><g
         clip-path="url(#clipPath40)"
         id="g38"><path
           id="path44"
           style="fill:none;stroke:#ff0000;stroke-width:1;stroke-linecap:square;stroke-linejoin:round;stroke-miterlimit:10;stroke-dasharray:none;stroke-opacity:1"
           d="m 177.43437,211.51316 4.743,7.01177 4.743,7.40999 4.743,7.83896 4.464,7.7999 4.464,8.24064 4.464,8.71522 4.464,9.22696 4.185,9.15132 4.185,9.67394 4.185,10.23713 4.185,10.84491 4.185,11.50176 0.558,1.58604 0,0" /></g></g><g
       id="g46"><g
         clip-path="url(#clipPath50)"
         id="g48"><path
           id="path54"
           style="fill:none;stroke:#ff0000;stroke-width:1;stroke-linecap:square;stroke-linejoin:round;stroke-miterlimit:10;stroke-dasharray:none;stroke-opacity:1"
           d="m 231.27112,367.51113 0.279,0 0.279,0 0.279,0 0.279,0 0.279,0 0.279,0 0.279,0 0.279,0 0.279,0 0.279,0 0.279,0 0.279,0 0.279,0 0.279,0 0.279,0 0.279,0 0.279,0 0.279,0 0.279,0 0.279,0 0.279,0 0.279,0 0.279,0 0.279,0 0.279,0 0.279,0 0.279,0 0.279,0 0.279,0 0.279,0 0.279,0 0.279,0 0.279,0 0.279,0 0.279,0 0.279,0 0.279,0 0.279,0 0.279,0 0.279,0 0.279,0 0.279,0 0.279,0 0.279,0 0.279,0 0.279,0 0.279,0 0.279,0 0.279,0 0.279,0 0.279,0 0.279,0 0.279,0 0.279,0 0.279,0 0.279,0 0.279,0 0.279,0 0.279,0 0.279,0 0.279,0 0.279,0 0.279,0 0.279,0 0.279,0 0.279,0 0.279,0 0.279,0 0.279,0 0.279,0 0.279,0 0.279,0 0.279,0 0.279,0 0.279,0 0.279,0 0.279,0 0.279,0 0.279,0 0.279,0 0.279,0 0.279,0 0.279,0 0.279,0 0.279,0 0.279,0 0.279,0 0.279,0 0.279,0 0.279,0 0.279,0 0.279,0 0.279,0 0.279,0 0.279,0 0.279,0 0.279,0 0.279,0 0.279,0 0.279,0 0.279,0 0.279,0 0.279,0 0.279,0 0.279,0 0.279,0 0.279,0" /></g></g><g
       id="g56"><g
         clip-path="url(#clipPath60)"
         id="g58"><path
           id="path64"
           style="fill:none;stroke:#ff0000;stroke-width:1;stroke-linecap:square;stroke-linejoin:round;stroke-miterlimit:10;stroke-dasharray:none;stroke-opacity:1"
           d="m 261.13437,367.51113 0.279,0 0.279,0 0.279,0 0.279,0 0.279,0 0.279,0 0.279,0 0.279,0 0.279,0 0.279,0 0.279,0 0.279,0 0.279,0 0.279,0 0.279,0 0.279,0 0.279,0 0.279,0 0.279,0 0.279,0 0.279,0 0.279,0 0.279,0 0.279,0 0.279,0 0.279,0 0.279,0 0.279,0 0.279,0 0.279,0 0.279,0 0.279,0 0.279,0 0.279,0 0.279,0 0.279,0 0.279,0 0.279,0 0.279,0 0.279,0 0.279,0 0.279,0 0.279,0 0.279,0 0.279,0 0.279,0 0.279,0 0.279,0 0.279,0 0.279,0 0.279,0 0.27901,0 0.27899,0 0.279,0 0.279,0 0.279,0 0.279,0 0.279,0 0.279,0 0.279,0 0.279,0 0.279,0 0.279,0 0.279,0 0.279,0 0.279,0 0.279,0 0.279,0 0.279,0 0.279,0 0.279,0 0.279,0 0.279,0 0.279,0 0.279,0 0.279,0 0.279,0 0.279,0 0.279,0 0.279,0 0.279,0 0.279,0 0.279,0 0.279,0 0.279,0 0.279,0 0.279,0 0.279,0 0.279,0 0.279,0 0.279,0 0.279,0 0.279,0 0.279,0 0.279,0 0.279,0 0.279,0 0.279,0 0.279,0 0.279,0 0.279,0 0.279,0 0.279,0 0.279,0 0.279,0 0.279,0 0.279,0" /></g></g><g
       id="g66"><g
         clip-path="url(#clipPath70)"
         id="g68"><path
           id="path74"
           style="fill:none;stroke:#ff0000;stroke-width:1;stroke-linecap:square;stroke-linejoin:round;stroke-miterlimit:10;stroke-dasharray:none;stroke-opacity:1"
           d="m 290.99763,321.52013 4.185,-11.63776 4.185,-10.97063 4.185,-10.35353 4.185,-9.78186 4.464,-9.85038 4.464,-9.29248 4.464,-8.77594 4.464,-8.29699 4.464,-7.85226 4.743,-7.89062 4.743,-7.4579 4.743,-7.05628 0.279,-0.40318 0,0" /></g></g><g
       id="g76"><g
         clip-path="url(#clipPath80)"
         id="g78"><path
           id="path84"
           style="fill:none;stroke:#ff0000;stroke-width:1;stroke-linecap:square;stroke-linejoin:round;stroke-miterlimit:10;stroke-dasharray:none;stroke-opacity:1"
           d="m 344.83437,134.7282 2.511,-7.18758 2.511,-6.51669 2.511,-5.92677 2.511,-5.40597 2.79,-5.46761 2.79,-4.967187 2.79,-4.526009 2.79,-4.135575 3.069,-4.150094 3.069,-3.78023 3.348,-3.752047 3.348,-3.40991 3.348,-3.10814 3.627,-3.066607 3.906,-2.994775 3.906,-2.714528 4.18501,-2.635851 4.46399,-2.539586 4.743,-2.430208 5.022,-2.311716 5.301,-2.187586 5.58,-2.060761 6.138,-2.020443 6.417,-1.875948 6.975,-1.805725 7.533,-1.718724 8.091,-1.6204 8.928,-1.560995 9.765,-1.480731 7.533,-1.00642 0,0" /></g></g><g
       id="g86"><g
         clip-path="url(#clipPath90)"
         id="g88"><path
           id="path94"
           style="fill:none;stroke:#008000;stroke-width:1;stroke-linecap:square;stroke-linejoin:round;stroke-miterlimit:10;stroke-dasharray:none;stroke-opacity:1"
           d="m 37.934375,22.825 139.499995,0 0,0" /></g></g><g
       id="g96"><g
         clip-path="url(#clipPath100)"
         id="g98"><path
           id="path104"
           style="fill:none;stroke:#008000;stroke-width:1;stroke-linecap:square;stroke-linejoin:round;stroke-miterlimit:10;stroke-dasharray:none;stroke-opacity:1"
           d="m 177.43437,134.7282 3.348,5.60097 3.348,6.03226 3.348,6.50897 3.069,6.42928 3.069,6.91812 3.069,7.45781 3.069,8.05513 3.069,8.71797 2.79,8.56335 2.79,9.23672 2.79,9.98259 2.79,10.81099 2.79,11.73363 2.79,12.76434 2.79,13.9194 2.511,13.63332 2.511,14.80558 2.51101,16.11618 1.11599,7.62426 0,0" /></g></g><g
       id="g106"><g
         clip-path="url(#clipPath110)"
         id="g108"><path
           id="path114"
           style="fill:none;stroke:#008000;stroke-width:1;stroke-linecap:square;stroke-linejoin:round;stroke-miterlimit:10;stroke-dasharray:none;stroke-opacity:1"
           d="m 231.27112,321.52013 0.279,0.38604 0.279,0.38679 0.279,0.38754 0.279,0.3883 0.279,0.38905 0.279,0.38981 0.279,0.39056 0.279,0.39133 0.279,0.39209 0.279,0.39285 0.279,0.39362 0.279,0.39439 0.279,0.39516 0.279,0.39593 0.279,0.3967 0.279,0.39749 0.279,0.39826 0.279,0.39904 0.279,0.39982 0.279,0.40061 0.279,0.4014 0.279,0.40218 0.279,0.40298 0.279,0.40377 0.279,0.40456 0.279,0.40537 0.279,0.40616 0.279,0.40696 0.279,0.40776 0.279,0.40857 0.279,0.40938 0.279,0.41019 0.279,0.411 0.279,0.41182 0.279,0.41263 0.279,0.41345 0.279,0.41427 0.279,0.41509 0.279,0.41592 0.279,0.41674 0.279,0.41758 0.279,0.41841 0.279,0.41924 0.279,0.42007 0.279,0.42092 0.279,0.42175 0.279,0.4226 0.279,0.42344 0.279,0.42429 0.279,0.42514 0.279,0.42599 0.279,0.42684 0.279,0.4277 0.279,0.42856 0.279,0.42942 0.279,0.43029 0.279,0.43114 0.279,0.43202 0.279,0.43289 0.279,0.43376 0.279,0.43463 0.279,0.43551 0.279,0.43639 0.279,0.43728 0.279,0.43815 0.279,0.43905 0.279,0.43993 0.279,0.44082 0.279,0.44172 0.279,0.44262 0.279,0.44351 0.279,0.44441 0.279,0.44532 0.279,0.44623 0.279,0.44713 0.279,0.44804 0.279,0.44896 0.279,0.44987 0.279,0.45079 0.279,0.45171 0.279,0.45264 0.279,0.45356 0.279,0.45449 0.279,0.45542 0.279,0.45636 0.279,0.45729 0.279,0.45823 0.279,0.45917 0.279,0.46011 0.279,0.46106 0.279,0.46201 0.279,0.46297 0.279,0.46391 0.279,0.46488 0.279,0.46583 0.279,0.46679 0.279,0.46776 0.279,0.46873 0.279,0.4697 0.279,0.47067 0.279,0.47164 0.279,0.47262 0.279,0.47361 0.279,0.47459 0.279,0.47557 0.279,0.47656 0.279,0.47756" /></g></g><g
       id="g116"><g
         clip-path="url(#clipPath120)"
         id="g118"><path
           id="path124"
           style="fill:none;stroke:#008000;stroke-width:1;stroke-linecap:square;stroke-linejoin:round;stroke-miterlimit:10;stroke-dasharray:none;stroke-opacity:1"
           d="m 261.13437,367.51113 0.279,-0.47759 0.279,-0.4766 0.279,-0.47561 0.279,-0.47463 0.279,-0.47364 0.279,-0.47266 0.279,-0.47168 0.279,-0.4707 0.279,-0.46974 0.279,-0.46876 0.279,-0.46779 0.279,-0.46683 0.279,-0.46587 0.279,-0.46491 0.279,-0.46395 0.279,-0.463 0.279,-0.46204 0.279,-0.4611 0.279,-0.46015 0.279,-0.4592 0.279,-0.45827 0.279,-0.45732 0.279,-0.45639 0.279,-0.45546 0.279,-0.45452 0.279,-0.4536 0.279,-0.45267 0.279,-0.45174 0.279,-0.45083 0.279,-0.4499 0.279,-0.44899 0.279,-0.44808 0.279,-0.44717 0.279,-0.44625 0.279,-0.44536 0.279,-0.44444 0.279,-0.44355 0.279,-0.44265 0.279,-0.44175 0.279,-0.44085 0.279,-0.43997 0.279,-0.43908 0.279,-0.43819 0.279,-0.4373 0.279,-0.43643 0.279,-0.43554 0.279,-0.43466 0.279,-0.4338 0.279,-0.43292 0.279,-0.43204 0.279,-0.43118 0.27901,-0.43032 0.27899,-0.42945 0.279,-0.42859 0.279,-0.42773 0.279,-0.42688 0.279,-0.42602 0.279,-0.42517 0.279,-0.42432 0.279,-0.42348 0.279,-0.42262 0.279,-0.42179 0.279,-0.42094 0.279,-0.42011 0.279,-0.41927 0.279,-0.41844 0.279,-0.4176 0.279,-0.41678 0.279,-0.41595 0.279,-0.41512 0.279,-0.4143 0.279,-0.41348 0.279,-0.41266 0.279,-0.41185 0.279,-0.41103 0.279,-0.41021 0.279,-0.40941 0.279,-0.40861 0.279,-0.40779 0.279,-0.40699 0.279,-0.40619 0.279,-0.40539 0.279,-0.4046 0.279,-0.40379 0.279,-0.40301 0.279,-0.40221 0.279,-0.40143 0.279,-0.40064 0.279,-0.39985 0.279,-0.39907 0.279,-0.39829 0.279,-0.39751 0.279,-0.39674 0.279,-0.39596 0.279,-0.39518 0.279,-0.39442 0.279,-0.39365 0.279,-0.39288 0.279,-0.39212 0.279,-0.39135 0.279,-0.39059 0.279,-0.38984 0.279,-0.38908 0.279,-0.38832 0.279,-0.38757 0.279,-0.38682 0.279,-0.38607" /></g></g><g
       id="g126"><g
         clip-path="url(#clipPath130)"
         id="g128"><path
           id="path134"
           style="fill:none;stroke:#008000;stroke-width:1;stroke-linecap:square;stroke-linejoin:round;stroke-miterlimit:10;stroke-dasharray:none;stroke-opacity:1"
           d="m 290.99763,321.52013 2.511,-16.90563 2.511,-15.50996 2.79,-15.77758 2.79,-14.41574 2.79,-13.20623 2.79,-12.12836 2.79,-11.16466 2.79,-10.30042 2.79,-9.52313 3.069,-9.66845 3.069,-8.9089 3.069,-8.22688 3.069,-7.61274 3.069,-7.05824 3.348,-7.1291 3.348,-6.5917 3.348,-6.10698 3.348,-5.66865 0.279,-0.45392 0,0" /></g></g><g
       id="g136"><g
         clip-path="url(#clipPath140)"
         id="g138"><path
           id="path144"
           style="fill:none;stroke:#008000;stroke-width:1;stroke-linecap:square;stroke-linejoin:round;stroke-miterlimit:10;stroke-dasharray:none;stroke-opacity:1"
           d="m 344.83437,22.825 139.5,0 0,0" /></g></g><g
       id="g146"><path
         id="path148"
         style="fill:none;stroke:#000000;stroke-width:1;stroke-linecap:square;stroke-linejoin:miter;stroke-miterlimit:10;stroke-dasharray:none;stroke-opacity:1"
         d="m 484.33437,22.825 0,345.6" /><path
         id="path150"
         style="fill:none;stroke:#000000;stroke-width:1;stroke-linecap:square;stroke-linejoin:miter;stroke-miterlimit:10;stroke-dasharray:none;stroke-opacity:1"
         d="m 37.934375,22.825 0,345.6" /><path
         id="path152"
         style="fill:none;stroke:#000000;stroke-width:1;stroke-linecap:square;stroke-linejoin:miter;stroke-miterlimit:10;stroke-dasharray:none;stroke-opacity:1"
         d="m 37.934375,22.825 446.399995,0" /><path
         id="path154"
         style="fill:none;stroke:#000000;stroke-width:1;stroke-linecap:square;stroke-linejoin:miter;stroke-miterlimit:10;stroke-dasharray:none;stroke-opacity:1"
         d="m 37.934375,368.425 446.399995,0" /><path
         id="path156"
         style="fill:#000000;fill-opacity:1;fill-rule:nonzero;stroke:#000000;stroke-width:0.5;stroke-linecap:butt;stroke-linejoin:round;stroke-miterlimit:10;stroke-dasharray:none;stroke-opacity:1"
         d="m 37.934375,22.825 0,4" /><path
         id="path158"
         style="fill:#000000;fill-opacity:1;fill-rule:nonzero;stroke:#000000;stroke-width:0.5;stroke-linecap:butt;stroke-linejoin:round;stroke-miterlimit:10;stroke-dasharray:none;stroke-opacity:1"
         d="m 37.934375,368.425 0,-4" /><g
         transform="translate(29.082812,9.7)"
         id="g160"><text
           id="text162"
           style="font-variant:normal;font-weight:normal;font-size:12px;font-family:'Bitstream Vera Sans';-inkscape-font-specification:BitstreamVeraSans-Roman;writing-mode:lr-tb;fill:#000000;fill-opacity:1;fill-rule:nonzero;stroke:none"
           transform="matrix(1,0,0,-1,10.054688,0)"><tspan
             id="tspan164"
             y="0"
             x="0">4</tspan></text>
<g
           transform="scale(0.012,0.012)"
           id="g166"><g
             id="g168"><g
               clip-path="url(#clipPath172)"
               id="g170"><path
                 id="path176"
                 style="fill:#000000;fill-opacity:1;fill-rule:nonzero;stroke:none"
                 d="m 106,355 626,0 0,-83 -626,0 0,83" /></g></g></g></g><path
         id="path178"
         style="fill:#000000;fill-opacity:1;fill-rule:nonzero;stroke:#000000;stroke-width:0.5;stroke-linecap:butt;stroke-linejoin:round;stroke-miterlimit:10;stroke-dasharray:none;stroke-opacity:1"
         d="m 93.734375,22.825 0,4" /><path
         id="path180"
         style="fill:#000000;fill-opacity:1;fill-rule:nonzero;stroke:#000000;stroke-width:0.5;stroke-linecap:butt;stroke-linejoin:round;stroke-miterlimit:10;stroke-dasharray:none;stroke-opacity:1"
         d="m 93.734375,368.425 0,-4" /><g
         transform="translate(84.882812,9.7)"
         id="g182"><text
           id="text184"
           style="font-variant:normal;font-weight:normal;font-size:12px;font-family:'Bitstream Vera Sans';-inkscape-font-specification:BitstreamVeraSans-Roman;writing-mode:lr-tb;fill:#000000;fill-opacity:1;fill-rule:nonzero;stroke:none"
           transform="matrix(1,0,0,-1,10.054688,0)"><tspan
             id="tspan186"
             y="0"
             x="0">3</tspan></text>
<g
           transform="scale(0.012,0.012)"
           id="g188"><g
             id="g190"><g
               clip-path="url(#clipPath194)"
               id="g192"><path
                 id="path198"
                 style="fill:#000000;fill-opacity:1;fill-rule:nonzero;stroke:none"
                 d="m 106,355 626,0 0,-83 -626,0 0,83" /></g></g></g></g><path
         id="path200"
         style="fill:#000000;fill-opacity:1;fill-rule:nonzero;stroke:#000000;stroke-width:0.5;stroke-linecap:butt;stroke-linejoin:round;stroke-miterlimit:10;stroke-dasharray:none;stroke-opacity:1"
         d="m 149.53437,22.825 0,4" /><path
         id="path202"
         style="fill:#000000;fill-opacity:1;fill-rule:nonzero;stroke:#000000;stroke-width:0.5;stroke-linecap:butt;stroke-linejoin:round;stroke-miterlimit:10;stroke-dasharray:none;stroke-opacity:1"
         d="m 149.53437,368.425 0,-4" /><g
         transform="translate(140.68281,9.7)"
         id="g204"><text
           id="text206"
           style="font-variant:normal;font-weight:normal;font-size:12px;font-family:'Bitstream Vera Sans';-inkscape-font-specification:BitstreamVeraSans-Roman;writing-mode:lr-tb;fill:#000000;fill-opacity:1;fill-rule:nonzero;stroke:none"
           transform="matrix(1,0,0,-1,10.054688,0)"><tspan
             id="tspan208"
             y="0"
             x="0">2</tspan></text>
<g
           transform="scale(0.012,0.012)"
           id="g210"><g
             id="g212"><g
               clip-path="url(#clipPath216)"
               id="g214"><path
                 id="path220"
                 style="fill:#000000;fill-opacity:1;fill-rule:nonzero;stroke:none"
                 d="m 106,355 626,0 0,-83 -626,0 0,83" /></g></g></g></g><path
         id="path222"
         style="fill:#000000;fill-opacity:1;fill-rule:nonzero;stroke:#000000;stroke-width:0.5;stroke-linecap:butt;stroke-linejoin:round;stroke-miterlimit:10;stroke-dasharray:none;stroke-opacity:1"
         d="m 205.33437,22.825 0,4" /><path
         id="path224"
         style="fill:#000000;fill-opacity:1;fill-rule:nonzero;stroke:#000000;stroke-width:0.5;stroke-linecap:butt;stroke-linejoin:round;stroke-miterlimit:10;stroke-dasharray:none;stroke-opacity:1"
         d="m 205.33437,368.425 0,-4" /><g
         transform="translate(196.48281,9.7)"
         id="g226"><text
           id="text228"
           style="font-variant:normal;font-weight:normal;font-size:12px;font-family:'Bitstream Vera Sans';-inkscape-font-specification:BitstreamVeraSans-Roman;writing-mode:lr-tb;fill:#000000;fill-opacity:1;fill-rule:nonzero;stroke:none"
           transform="matrix(1,0,0,-1,10.054688,0)"><tspan
             id="tspan230"
             y="0"
             x="0">1</tspan></text>
<g
           transform="scale(0.012,0.012)"
           id="g232"><g
             id="g234"><g
               clip-path="url(#clipPath238)"
               id="g236"><path
                 id="path242"
                 style="fill:#000000;fill-opacity:1;fill-rule:nonzero;stroke:none"
                 d="m 106,355 626,0 0,-83 -626,0 0,83" /></g></g></g></g><path
         id="path244"
         style="fill:#000000;fill-opacity:1;fill-rule:nonzero;stroke:#000000;stroke-width:0.5;stroke-linecap:butt;stroke-linejoin:round;stroke-miterlimit:10;stroke-dasharray:none;stroke-opacity:1"
         d="m 261.13437,22.825 0,4" /><path
         id="path246"
         style="fill:#000000;fill-opacity:1;fill-rule:nonzero;stroke:#000000;stroke-width:0.5;stroke-linecap:butt;stroke-linejoin:round;stroke-miterlimit:10;stroke-dasharray:none;stroke-opacity:1"
         d="m 261.13437,368.425 0,-4" /><text
         id="text248"
         style="font-variant:normal;font-weight:normal;font-size:12px;font-family:'Bitstream Vera Sans';-inkscape-font-specification:BitstreamVeraSans-Roman;writing-mode:lr-tb;fill:#000000;fill-opacity:1;fill-rule:nonzero;stroke:none"
         transform="matrix(1,0,0,-1,257.31406,9.7)"><tspan
           id="tspan250"
           y="0"
           x="0">0</tspan></text>
<path
         id="path252"
         style="fill:#000000;fill-opacity:1;fill-rule:nonzero;stroke:#000000;stroke-width:0.5;stroke-linecap:butt;stroke-linejoin:round;stroke-miterlimit:10;stroke-dasharray:none;stroke-opacity:1"
         d="m 316.93437,22.825 0,4" /><path
         id="path254"
         style="fill:#000000;fill-opacity:1;fill-rule:nonzero;stroke:#000000;stroke-width:0.5;stroke-linecap:butt;stroke-linejoin:round;stroke-miterlimit:10;stroke-dasharray:none;stroke-opacity:1"
         d="m 316.93437,368.425 0,-4" /><text
         id="text256"
         style="font-variant:normal;font-weight:normal;font-size:12px;font-family:'Bitstream Vera Sans';-inkscape-font-specification:BitstreamVeraSans-Roman;writing-mode:lr-tb;fill:#000000;fill-opacity:1;fill-rule:nonzero;stroke:none"
         transform="matrix(1,0,0,-1,313.11406,9.7)"><tspan
           id="tspan258"
           y="0"
           x="0">1</tspan></text>
<path
         id="path260"
         style="fill:#000000;fill-opacity:1;fill-rule:nonzero;stroke:#000000;stroke-width:0.5;stroke-linecap:butt;stroke-linejoin:round;stroke-miterlimit:10;stroke-dasharray:none;stroke-opacity:1"
         d="m 372.73437,22.825 0,4" /><path
         id="path262"
         style="fill:#000000;fill-opacity:1;fill-rule:nonzero;stroke:#000000;stroke-width:0.5;stroke-linecap:butt;stroke-linejoin:round;stroke-miterlimit:10;stroke-dasharray:none;stroke-opacity:1"
         d="m 372.73437,368.425 0,-4" /><text
         id="text264"
         style="font-variant:normal;font-weight:normal;font-size:12px;font-family:'Bitstream Vera Sans';-inkscape-font-specification:BitstreamVeraSans-Roman;writing-mode:lr-tb;fill:#000000;fill-opacity:1;fill-rule:nonzero;stroke:none"
         transform="matrix(1,0,0,-1,368.91406,9.7)"><tspan
           id="tspan266"
           y="0"
           x="0">2</tspan></text>
<path
         id="path268"
         style="fill:#000000;fill-opacity:1;fill-rule:nonzero;stroke:#000000;stroke-width:0.5;stroke-linecap:butt;stroke-linejoin:round;stroke-miterlimit:10;stroke-dasharray:none;stroke-opacity:1"
         d="m 428.53437,22.825 0,4" /><path
         id="path270"
         style="fill:#000000;fill-opacity:1;fill-rule:nonzero;stroke:#000000;stroke-width:0.5;stroke-linecap:butt;stroke-linejoin:round;stroke-miterlimit:10;stroke-dasharray:none;stroke-opacity:1"
         d="m 428.53437,368.425 0,-4" /><text
         id="text272"
         style="font-variant:normal;font-weight:normal;font-size:12px;font-family:'Bitstream Vera Sans';-inkscape-font-specification:BitstreamVeraSans-Roman;writing-mode:lr-tb;fill:#000000;fill-opacity:1;fill-rule:nonzero;stroke:none"
         transform="matrix(1,0,0,-1,424.71406,9.7)"><tspan
           id="tspan274"
           y="0"
           x="0">3</tspan></text>
<path
         id="path276"
         style="fill:#000000;fill-opacity:1;fill-rule:nonzero;stroke:#000000;stroke-width:0.5;stroke-linecap:butt;stroke-linejoin:round;stroke-miterlimit:10;stroke-dasharray:none;stroke-opacity:1"
         d="m 484.33437,22.825 0,4" /><path
         id="path278"
         style="fill:#000000;fill-opacity:1;fill-rule:nonzero;stroke:#000000;stroke-width:0.5;stroke-linecap:butt;stroke-linejoin:round;stroke-miterlimit:10;stroke-dasharray:none;stroke-opacity:1"
         d="m 484.33437,368.425 0,-4" /><text
         id="text280"
         style="font-variant:normal;font-weight:normal;font-size:12px;font-family:'Bitstream Vera Sans';-inkscape-font-specification:BitstreamVeraSans-Roman;writing-mode:lr-tb;fill:#000000;fill-opacity:1;fill-rule:nonzero;stroke:none"
         transform="matrix(1,0,0,-1,480.51406,9.7)"><tspan
           id="tspan282"
           y="0"
           x="0">4</tspan></text>
<path
         id="path284"
         style="fill:#000000;fill-opacity:1;fill-rule:nonzero;stroke:#000000;stroke-width:0.5;stroke-linecap:butt;stroke-linejoin:round;stroke-miterlimit:10;stroke-dasharray:none;stroke-opacity:1"
         d="m 37.934375,22.825 4,0" /><path
         id="path286"
         style="fill:#000000;fill-opacity:1;fill-rule:nonzero;stroke:#000000;stroke-width:0.5;stroke-linecap:butt;stroke-linejoin:round;stroke-miterlimit:10;stroke-dasharray:none;stroke-opacity:1"
         d="m 484.33437,22.825 -4,0" /><text
         id="text288"
         style="font-variant:normal;font-weight:normal;font-size:12px;font-family:'Bitstream Vera Sans';-inkscape-font-specification:BitstreamVeraSans-Roman;writing-mode:lr-tb;fill:#000000;fill-opacity:1;fill-rule:nonzero;stroke:none"
         transform="matrix(1,0,0,-1,7.2,19.5125)"><tspan
           id="tspan290"
           y="0"
           x="0 7.632 11.448 19.08">0.00</tspan></text>
<path
         id="path292"
         style="fill:#000000;fill-opacity:1;fill-rule:nonzero;stroke:#000000;stroke-width:0.5;stroke-linecap:butt;stroke-linejoin:round;stroke-miterlimit:10;stroke-dasharray:none;stroke-opacity:1"
         d="m 37.934375,66.025 4,0" /><path
         id="path294"
         style="fill:#000000;fill-opacity:1;fill-rule:nonzero;stroke:#000000;stroke-width:0.5;stroke-linecap:butt;stroke-linejoin:round;stroke-miterlimit:10;stroke-dasharray:none;stroke-opacity:1"
         d="m 484.33437,66.025 -4,0" /><text
         id="text296"
         style="font-variant:normal;font-weight:normal;font-size:12px;font-family:'Bitstream Vera Sans';-inkscape-font-specification:BitstreamVeraSans-Roman;writing-mode:lr-tb;fill:#000000;fill-opacity:1;fill-rule:nonzero;stroke:none"
         transform="matrix(1,0,0,-1,7.2,62.7125)"><tspan
           id="tspan298"
           y="0"
           x="0 7.632 11.448 19.08">0.05</tspan></text>
<path
         id="path300"
         style="fill:#000000;fill-opacity:1;fill-rule:nonzero;stroke:#000000;stroke-width:0.5;stroke-linecap:butt;stroke-linejoin:round;stroke-miterlimit:10;stroke-dasharray:none;stroke-opacity:1"
         d="m 37.934375,109.225 4,0" /><path
         id="path302"
         style="fill:#000000;fill-opacity:1;fill-rule:nonzero;stroke:#000000;stroke-width:0.5;stroke-linecap:butt;stroke-linejoin:round;stroke-miterlimit:10;stroke-dasharray:none;stroke-opacity:1"
         d="m 484.33437,109.225 -4,0" /><text
         id="text304"
         style="font-variant:normal;font-weight:normal;font-size:12px;font-family:'Bitstream Vera Sans';-inkscape-font-specification:BitstreamVeraSans-Roman;writing-mode:lr-tb;fill:#000000;fill-opacity:1;fill-rule:nonzero;stroke:none"
         transform="matrix(1,0,0,-1,7.2,105.9125)"><tspan
           id="tspan306"
           y="0"
           x="0 7.632 11.448 19.08">0.10</tspan></text>
<path
         id="path308"
         style="fill:#000000;fill-opacity:1;fill-rule:nonzero;stroke:#000000;stroke-width:0.5;stroke-linecap:butt;stroke-linejoin:round;stroke-miterlimit:10;stroke-dasharray:none;stroke-opacity:1"
         d="m 37.934375,152.425 4,0" /><path
         id="path310"
         style="fill:#000000;fill-opacity:1;fill-rule:nonzero;stroke:#000000;stroke-width:0.5;stroke-linecap:butt;stroke-linejoin:round;stroke-miterlimit:10;stroke-dasharray:none;stroke-opacity:1"
         d="m 484.33437,152.425 -4,0" /><text
         id="text312"
         style="font-variant:normal;font-weight:normal;font-size:12px;font-family:'Bitstream Vera Sans';-inkscape-font-specification:BitstreamVeraSans-Roman;writing-mode:lr-tb;fill:#000000;fill-opacity:1;fill-rule:nonzero;stroke:none"
         transform="matrix(1,0,0,-1,7.2,149.1125)"><tspan
           id="tspan314"
           y="0"
           x="0 7.632 11.448 19.08">0.15</tspan></text>
<path
         id="path316"
         style="fill:#000000;fill-opacity:1;fill-rule:nonzero;stroke:#000000;stroke-width:0.5;stroke-linecap:butt;stroke-linejoin:round;stroke-miterlimit:10;stroke-dasharray:none;stroke-opacity:1"
         d="m 37.934375,195.625 4,0" /><path
         id="path318"
         style="fill:#000000;fill-opacity:1;fill-rule:nonzero;stroke:#000000;stroke-width:0.5;stroke-linecap:butt;stroke-linejoin:round;stroke-miterlimit:10;stroke-dasharray:none;stroke-opacity:1"
         d="m 484.33437,195.625 -4,0" /><text
         id="text320"
         style="font-variant:normal;font-weight:normal;font-size:12px;font-family:'Bitstream Vera Sans';-inkscape-font-specification:BitstreamVeraSans-Roman;writing-mode:lr-tb;fill:#000000;fill-opacity:1;fill-rule:nonzero;stroke:none"
         transform="matrix(1,0,0,-1,7.2,192.3125)"><tspan
           id="tspan322"
           y="0"
           x="0 7.632 11.448 19.08">0.20</tspan></text>
<path
         id="path324"
         style="fill:#000000;fill-opacity:1;fill-rule:nonzero;stroke:#000000;stroke-width:0.5;stroke-linecap:butt;stroke-linejoin:round;stroke-miterlimit:10;stroke-dasharray:none;stroke-opacity:1"
         d="m 37.934375,238.825 4,0" /><path
         id="path326"
         style="fill:#000000;fill-opacity:1;fill-rule:nonzero;stroke:#000000;stroke-width:0.5;stroke-linecap:butt;stroke-linejoin:round;stroke-miterlimit:10;stroke-dasharray:none;stroke-opacity:1"
         d="m 484.33437,238.825 -4,0" /><text
         id="text328"
         style="font-variant:normal;font-weight:normal;font-size:12px;font-family:'Bitstream Vera Sans';-inkscape-font-specification:BitstreamVeraSans-Roman;writing-mode:lr-tb;fill:#000000;fill-opacity:1;fill-rule:nonzero;stroke:none"
         transform="matrix(1,0,0,-1,7.2,235.5125)"><tspan
           id="tspan330"
           y="0"
           x="0 7.632 11.448 19.08">0.25</tspan></text>
<path
         id="path332"
         style="fill:#000000;fill-opacity:1;fill-rule:nonzero;stroke:#000000;stroke-width:0.5;stroke-linecap:butt;stroke-linejoin:round;stroke-miterlimit:10;stroke-dasharray:none;stroke-opacity:1"
         d="m 37.934375,282.025 4,0" /><path
         id="path334"
         style="fill:#000000;fill-opacity:1;fill-rule:nonzero;stroke:#000000;stroke-width:0.5;stroke-linecap:butt;stroke-linejoin:round;stroke-miterlimit:10;stroke-dasharray:none;stroke-opacity:1"
         d="m 484.33437,282.025 -4,0" /><text
         id="text336"
         style="font-variant:normal;font-weight:normal;font-size:12px;font-family:'Bitstream Vera Sans';-inkscape-font-specification:BitstreamVeraSans-Roman;writing-mode:lr-tb;fill:#000000;fill-opacity:1;fill-rule:nonzero;stroke:none"
         transform="matrix(1,0,0,-1,7.2,278.7125)"><tspan
           id="tspan338"
           y="0"
           x="0 7.632 11.448 19.08">0.30</tspan></text>
<path
         id="path340"
         style="fill:#000000;fill-opacity:1;fill-rule:nonzero;stroke:#000000;stroke-width:0.5;stroke-linecap:butt;stroke-linejoin:round;stroke-miterlimit:10;stroke-dasharray:none;stroke-opacity:1"
         d="m 37.934375,325.225 4,0" /><path
         id="path342"
         style="fill:#000000;fill-opacity:1;fill-rule:nonzero;stroke:#000000;stroke-width:0.5;stroke-linecap:butt;stroke-linejoin:round;stroke-miterlimit:10;stroke-dasharray:none;stroke-opacity:1"
         d="m 484.33437,325.225 -4,0" /><text
         id="text344"
         style="font-variant:normal;font-weight:normal;font-size:12px;font-family:'Bitstream Vera Sans';-inkscape-font-specification:BitstreamVeraSans-Roman;writing-mode:lr-tb;fill:#000000;fill-opacity:1;fill-rule:nonzero;stroke:none"
         transform="matrix(1,0,0,-1,7.2,321.9125)"><tspan
           id="tspan346"
           y="0"
           x="0 7.632 11.448 19.08">0.35</tspan></text>
<path
         id="path348"
         style="fill:#000000;fill-opacity:1;fill-rule:nonzero;stroke:#000000;stroke-width:0.5;stroke-linecap:butt;stroke-linejoin:round;stroke-miterlimit:10;stroke-dasharray:none;stroke-opacity:1"
         d="m 37.934375,368.425 4,0" /><path
         id="path350"
         style="fill:#000000;fill-opacity:1;fill-rule:nonzero;stroke:#000000;stroke-width:0.5;stroke-linecap:butt;stroke-linejoin:round;stroke-miterlimit:10;stroke-dasharray:none;stroke-opacity:1"
         d="m 484.33437,368.425 -4,0" /><text
         id="text352"
         style="font-variant:normal;font-weight:normal;font-size:12px;font-family:'Bitstream Vera Sans';-inkscape-font-specification:BitstreamVeraSans-Roman;writing-mode:lr-tb;fill:#000000;fill-opacity:1;fill-rule:nonzero;stroke:none"
         transform="matrix(1,0,0,-1,7.2,365.1125)"><tspan
           id="tspan354"
           y="0"
           x="0 7.632 11.448 19.08">0.40</tspan></text>
</g></g></svg>