<?xml version="1.0" encoding="UTF-8" standalone="no"?>
<svg
   xmlns:dc="http://purl.org/dc/elements/1.1/"
   xmlns:cc="http://creativecommons.org/ns#"
   xmlns:rdf="http://www.w3.org/1999/02/22-rdf-syntax-ns#"
   xmlns:svg="http://www.w3.org/2000/svg"
   xmlns="http://www.w3.org/2000/svg"
   xmlns:sodipodi="http://sodipodi.sourceforge.net/DTD/sodipodi-0.dtd"
   xmlns:inkscape="http://www.inkscape.org/namespaces/inkscape"
   viewBox="0 0 619.19336 489.08203"
   height="489.08203"
   width="619.19336"
   xml:space="preserve"
   version="1.1"
   id="svg2"
   inkscape:version="0.91 r13725"
   sodipodi:docname="tf_example_normal_10.svg"><sodipodi:namedview
     pagecolor="#ffffff"
     bordercolor="#666666"
     borderopacity="1"
     objecttolerance="10"
     gridtolerance="10"
     guidetolerance="10"
     inkscape:pageopacity="0"
     inkscape:pageshadow="2"
     inkscape:window-width="1920"
     inkscape:window-height="1058"
     id="namedview220"
     showgrid="false"
     inkscape:zoom="1.3648197"
     inkscape:cx="234.86717"
     inkscape:cy="280.17633"
     inkscape:window-x="0"
     inkscape:window-y="22"
     inkscape:window-maximized="1"
     inkscape:current-layer="svg2" /><metadata
     id="metadata8"><rdf:RDF><cc:Work
         rdf:about=""><dc:format>image/svg+xml</dc:format><dc:type
           rdf:resource="http://purl.org/dc/dcmitype/StillImage" /></cc:Work></rdf:RDF></metadata><defs
     id="defs6"><clipPath
       id="clipPath20"
       clipPathUnits="userSpaceOnUse"><path
         id="path22"
         d="m 37.934375,22.825 446.399995,0 0,345.6 -446.399995,0 0,-345.6 z" /></clipPath><clipPath
       id="clipPath30"
       clipPathUnits="userSpaceOnUse"><path
         id="path32"
         d="m 37.934375,22.825 446.399995,0 0,345.6 -446.399995,0 0,-345.6 z" /></clipPath><clipPath
       id="clipPath40"
       clipPathUnits="userSpaceOnUse"><path
         id="path42"
         d="m 37.934375,22.825 446.399995,0 0,345.6 -446.399995,0 0,-345.6 z" /></clipPath><clipPath
       id="clipPath50"
       clipPathUnits="userSpaceOnUse"><path
         id="path52"
         d="m 37.934375,22.825 446.399995,0 0,345.6 -446.399995,0 0,-345.6 z" /></clipPath><clipPath
       id="clipPath60"
       clipPathUnits="userSpaceOnUse"><path
         id="path62"
         d="m 37.934375,22.825 446.399995,0 0,345.6 -446.399995,0 0,-345.6 z" /></clipPath><clipPath
       id="clipPath70"
       clipPathUnits="userSpaceOnUse"><path
         id="path72"
         d="m 37.934375,22.825 446.399995,0 0,345.6 -446.399995,0 0,-345.6 z" /></clipPath><clipPath
       id="clipPath80"
       clipPathUnits="userSpaceOnUse"><path
         id="path82"
         d="m 37.934375,22.825 446.399995,0 0,345.6 -446.399995,0 0,-345.6 z" /></clipPath><clipPath
       id="clipPath90"
       clipPathUnits="userSpaceOnUse"><path
         id="path92"
         d="m 37.934375,22.825 446.399995,0 0,345.6 -446.399995,0 0,-345.6 z" /></clipPath><clipPath
       id="clipPath100"
       clipPathUnits="userSpaceOnUse"><path
         id="path102"
         d="m 37.934375,22.825 446.399995,0 0,345.6 -446.399995,0 0,-345.6 z" /></clipPath><clipPath
       id="clipPath110"
       clipPathUnits="userSpaceOnUse"><path
         id="path112"
         d="m 37.934375,22.825 446.399995,0 0,345.6 -446.399995,0 0,-345.6 z" /></clipPath><clipPath
       id="clipPath120"
       clipPathUnits="userSpaceOnUse"><path
         id="path122"
         d="m 37.934375,22.825 446.399995,0 0,345.6 -446.399995,0 0,-345.6 z" /></clipPath><clipPath
       id="clipPath130"
       clipPathUnits="userSpaceOnUse"><path
         id="path132"
         d="m 37.934375,22.825 446.399995,0 0,345.6 -446.399995,0 0,-345.6 z" /></clipPath><clipPath
       id="clipPath140"
       clipPathUnits="userSpaceOnUse"><path
         id="path142"
         d="m 37.934375,22.825 446.399995,0 0,345.6 -446.399995,0 0,-345.6 z" /></clipPath><clipPath
       id="clipPath150"
       clipPathUnits="userSpaceOnUse"><path
         id="path152"
         d="m 37.934375,22.825 446.399995,0 0,345.6 -446.399995,0 0,-345.6 z" /></clipPath><clipPath
       id="clipPath160"
       clipPathUnits="userSpaceOnUse"><path
         id="path162"
         d="m 37.934375,22.825 446.399995,0 0,345.6 -446.399995,0 0,-345.6 z" /></clipPath><clipPath
       id="clipPath170"
       clipPathUnits="userSpaceOnUse"><path
         id="path172"
         d="m 37.934375,22.825 446.399995,0 0,345.6 -446.399995,0 0,-345.6 z" /></clipPath><clipPath
       id="clipPath180"
       clipPathUnits="userSpaceOnUse"><path
         id="path182"
         d="m 37.934375,22.825 446.399995,0 0,345.6 -446.399995,0 0,-345.6 z" /></clipPath><clipPath
       id="clipPath190"
       clipPathUnits="userSpaceOnUse"><path
         id="path192"
         d="m 37.934375,22.825 446.399995,0 0,345.6 -446.399995,0 0,-345.6 z" /></clipPath><clipPath
       id="clipPath200"
       clipPathUnits="userSpaceOnUse"><path
         id="path202"
         d="m 37.934375,22.825 446.399995,0 0,345.6 -446.399995,0 0,-345.6 z" /></clipPath><clipPath
       id="clipPath210"
       clipPathUnits="userSpaceOnUse"><path
         id="path212"
         d="m 37.934375,22.825 446.399995,0 0,345.6 -446.399995,0 0,-345.6 z" /></clipPath><clipPath
       id="clipPath220"
       clipPathUnits="userSpaceOnUse"><path
         id="path222"
         d="m 37.934375,22.825 446.399995,0 0,345.6 -446.399995,0 0,-345.6 z" /></clipPath><clipPath
       id="clipPath252"
       clipPathUnits="userSpaceOnUse"><path
         id="path254"
         d="m -184,-236 1472,0 0,1165 -1472,0 0,-1165 z" /></clipPath><clipPath
       id="clipPath274"
       clipPathUnits="userSpaceOnUse"><path
         id="path276"
         d="m -184,-236 1472,0 0,1165 -1472,0 0,-1165 z" /></clipPath><clipPath
       id="clipPath296"
       clipPathUnits="userSpaceOnUse"><path
         id="path298"
         d="m -184,-236 1472,0 0,1165 -1472,0 0,-1165 z" /></clipPath><clipPath
       id="clipPath318"
       clipPathUnits="userSpaceOnUse"><path
         id="path320"
         d="m -184,-236 1472,0 0,1165 -1472,0 0,-1165 z" /></clipPath></defs><g
     transform="matrix(1.25,0,0,-1.25,0,489.08203)"
     id="g10"><path
       id="path12"
       style="fill:#ffffff;fill-opacity:1;fill-rule:nonzero;stroke:none"
       d="m 0,0 495.35469,0 0,391.26562 L 0,391.26562 0,0 Z" /><path
       id="path14"
       style="fill:#ffffff;fill-opacity:1;fill-rule:nonzero;stroke:none"
       d="m 37.934375,22.825 446.399995,0 0,345.6 -446.399995,0 0,-345.6 z" /><g
       id="g16"><g
         clip-path="url(#clipPath20)"
         id="g18"><path
           id="path24"
           style="fill:none;stroke:#000000;stroke-width:1;stroke-linecap:square;stroke-linejoin:round;stroke-miterlimit:10;stroke-dasharray:none;stroke-opacity:1"
           d="m 37.934375,22.940629 16.461,0.244649 10.881,0.36775 8.37,0.490732 6.975,0.621711 6.138,0.77076 5.301,0.886744 4.743,1.011234 4.464005,1.179718 4.18499,1.343868 3.906,1.495882 3.627,1.627903 3.348,1.732517 3.348,1.978039 3.348,2.249012 3.069,2.32223 3.069,2.593131 3.069,2.885365 3.069,3.199066 3.069,3.534108 3.069,3.890079 3.069,4.266236 3.069,4.661494 3.069,5.074378 3.069,5.503019 3.069,5.945127 3.348,7.002358 3.348,7.550864 3.34801,8.103867 3.62699,9.40159 3.627,10.03884 3.906,11.50082 4.185,13.07323 4.464,14.72801 4.743,16.41885 5.859,21.14393 8.64901,32.20052 9.48599,35.11815 5.301,18.75295 4.185,14.02376 3.627,11.42811 3.348,9.83571 3.069,8.33074 2.79,6.94427 2.511,5.69585 2.511,5.13699 2.23201,4.0728 2.23199,3.58866 1.953,2.72968 1.953,2.33627 1.674,1.68294 1.674,1.38316 1.674,1.07967 1.395,0.66578 1.395,0.45174 1.395,0.23686 1.395,0.0215 1.395,-0.19383 1.395,-0.40882 1.395,-0.62305 1.395,-0.83613 1.674,-1.28237 1.674,-1.58347 1.674,-1.88034 1.953,-2.5622 1.953,-2.95015 1.953,-3.32749 2.232,-4.24959 2.232,-4.70722 2.511,-5.81569 2.79,-7.06845 3.069,-8.4556 3.348,-9.95704 3.627,-11.54113 4.185,-14.12961 4.743,-16.82531 6.417,-23.63906 15.345,-56.86518 5.58,-19.62437 4.743,-15.87117 4.185,-13.27042 3.906,-11.69902 3.906,-10.99247 3.627,-9.54989 3.627,-8.904025 3.348,-7.642868 3.348,-7.093237 3.348,-6.552431 3.069,-5.542692 3.069,-5.112726 3.069,-4.698325 3.069,-4.301399 3.069,-3.923454 3.069,-3.565614 3.069,-3.228646 3.069,-2.912996 3.069,-2.618813 3.069,-2.345984 3.348,-2.272775 3.348,-1.999633 3.348,-1.752034 3.627,-1.646827 3.906,-1.51385 3.906,-1.277521 4.185,-1.141642 4.743,-1.052124 5.022,-0.881129 5.58,-0.751954 6.417,-0.634166 7.533,-0.511243 9.207,-0.389864 11.997,-0.271164 9.207,-0.105065 0,0" /></g></g><g
       id="g26"><g
         clip-path="url(#clipPath30)"
         id="g28"><path
           id="path34"
           style="fill:none;stroke:#ff0000;stroke-width:1;stroke-linecap:square;stroke-linejoin:round;stroke-miterlimit:10;stroke-dasharray:none;stroke-opacity:1"
           d="m 37.934375,23.14362 19.809,0.283387 11.16,0.36509 7.254,0.449842 0.558,0.04701 0,0" /></g></g><g
       id="g36"><g
         clip-path="url(#clipPath40)"
         id="g38"><path
           id="path44"
           style="fill:none;stroke:#ff0000;stroke-width:1;stroke-linecap:square;stroke-linejoin:round;stroke-miterlimit:10;stroke-dasharray:none;stroke-opacity:1"
           d="m 76.839494,30.014345 8.091,1.089738 6.975,1.151344 6.138,1.224123 5.579996,1.33212 5.022,1.424697 4.464,1.490961 4.185,1.635652 3.627,1.645652 3.348,1.747232 3.069,1.832693 3.069,2.097606 2.79,2.181668 2.511,2.22985 2.511,2.528996 2.232,2.544117 2.232,2.872849 0,0" /></g></g><g
       id="g46"><g
         clip-path="url(#clipPath50)"
         id="g48"><path
           id="path54"
           style="fill:none;stroke:#ff0000;stroke-width:1;stroke-linecap:square;stroke-linejoin:round;stroke-miterlimit:10;stroke-dasharray:none;stroke-opacity:1"
           d="m 142.91532,75.038241 0.279,0.268524 0.279,0.2706 0.279,0.272699 0.279,0.274818 0.279,0.276961 0.279,0.279124 0.279,0.281312 0.279,0.283522 0.279,0.285755 0.279,0.288011 0.279,0.290292 0.279,0.292597 0.279,0.294925 0.279,0.297279 0.279,0.299659 0.279,0.302062 0.279,0.304493 0.279,0.306949 0.279,0.309432 0.279,0.311941 0.279,0.314479 0.279,0.317042 0.279,0.319635 0.279,0.322256 0.279,0.324906 0.279,0.327584 0.279,0.330292 0.279,0.33303 0.279,0.335798 0.279,0.338598 0.279,0.341428 0.279,0.34429 0.279,0.347184 0.279,0.35011 0.279,0.353071 0.279,0.356063 0.279,0.35909 0.279,0.362152 0.279,0.365248 0.279,0.368379 0.279,0.371547 0.279,0.374751 0.279,0.377992 0.279,0.381271 0.279,0.384587 0.279,0.387942 0.279,0.391336 0.279,0.39477 0.279,0.398244 0.279,0.401759 0.279,0.405315 0.279,0.408915 0.279,0.412555 0.279,0.41624 0.279,0.41997 0.279,0.423742 0.279,0.427561 0.279,0.431426 0.279,0.435337 0.279,0.439297 0.279,0.443303 0.279,0.447359 0.279,0.451465 0.279,0.455621 0.279,0.459828 0.279,0.464087 0.279,0.468399 0.279,0.472765 0.279,0.477184 0.279,0.481661 0.279,0.48619 0.279,0.49078 0.279,0.49542 0.279,0.50013 0.279,0.5049 0.279,0.50972 0.279,0.51461 0.279,0.51955 0.279,0.52457 0.279,0.52965 0.279,0.5348 0.279,0.54 0.279,0.54528 0.279,0.55063 0.279,0.55605 0.279,0.56154 0.279,0.5671 0.279,0.57273 0.279,0.57845 0.279,0.58423 0.279,0.5901 0.279,0.59604 0.279,0.60206 0.279,0.60816 0.279,0.61436 0.279,0.62062 0.279,0.62698 0.279,0.63343 0.279,0.63995 0.279,0.64658 0.279,0.6533 0.279,0.6601 0.279,0.667 0.279,0.67401 0.279,0.6811 0.279,0.6883 0.279,0.6956 0.279,0.703 0.279,0.7105 0.279,0.71813 0.279,0.72585 0.279,0.73368 0.279,0.74164 0.279,0.7497 0.279,0.75788 0.279,0.76618 0.279,0.7746 0.279,0.78316 0.279,0.79182 0.279,0.80063 0.279,0.80956 0.279,0.81862 0.279,0.82783" /></g></g><g
       id="g56"><g
         clip-path="url(#clipPath60)"
         id="g58"><path
           id="path64"
           style="fill:none;stroke:#ff0000;stroke-width:1;stroke-linecap:square;stroke-linejoin:round;stroke-miterlimit:10;stroke-dasharray:none;stroke-opacity:1"
           d="m 177.43437,211.51316 4.743,7.01177 4.743,7.40999 4.743,7.83896 4.464,7.7999 4.464,8.24064 4.464,8.71522 4.464,9.22696 4.185,9.15132 4.185,9.67394 4.185,10.23713 4.185,10.84491 4.185,11.50176 0.558,1.58604 0,0" /></g></g><g
       id="g66"><g
         clip-path="url(#clipPath70)"
         id="g68"><path
           id="path74"
           style="fill:none;stroke:#ff0000;stroke-width:1;stroke-linecap:square;stroke-linejoin:round;stroke-miterlimit:10;stroke-dasharray:none;stroke-opacity:1"
           d="m 231.27112,367.51113 0.279,0 0.279,0 0.279,0 0.279,0 0.279,0 0.279,0 0.279,0 0.279,0 0.279,0 0.279,0 0.279,0 0.279,0 0.279,0 0.279,0 0.279,0 0.279,0 0.279,0 0.279,0 0.279,0 0.279,0 0.279,0 0.279,0 0.279,0 0.279,0 0.279,0 0.279,0 0.279,0 0.279,0 0.279,0 0.279,0 0.279,0 0.279,0 0.279,0 0.279,0 0.279,0 0.279,0 0.279,0 0.279,0 0.279,0 0.279,0 0.279,0 0.279,0 0.279,0 0.279,0 0.279,0 0.279,0 0.279,0 0.279,0 0.279,0 0.279,0 0.279,0 0.279,0 0.279,0 0.279,0 0.279,0 0.279,0 0.279,0 0.279,0 0.279,0 0.279,0 0.279,0 0.279,0 0.279,0 0.279,0 0.279,0 0.279,0 0.279,0 0.279,0 0.279,0 0.279,0 0.279,0 0.279,0 0.279,0 0.279,0 0.279,0 0.279,0 0.279,0 0.279,0 0.279,0 0.279,0 0.279,0 0.279,0 0.279,0 0.279,0 0.279,0 0.279,0 0.279,0 0.279,0 0.279,0 0.279,0 0.279,0 0.279,0 0.279,0 0.279,0 0.279,0 0.279,0 0.279,0 0.279,0 0.279,0 0.279,0 0.279,0 0.279,0 0.279,0 0.279,0 0.279,0 0.279,0 0.279,0" /></g></g><g
       id="g76"><g
         clip-path="url(#clipPath80)"
         id="g78"><path
           id="path84"
           style="fill:none;stroke:#ff0000;stroke-width:1;stroke-linecap:square;stroke-linejoin:round;stroke-miterlimit:10;stroke-dasharray:none;stroke-opacity:1"
           d="m 261.13437,367.51113 0.279,0 0.279,0 0.279,0 0.279,0 0.279,0 0.279,0 0.279,0 0.279,0 0.279,0 0.279,0 0.279,0 0.279,0 0.279,0 0.279,0 0.279,0 0.279,0 0.279,0 0.279,0 0.279,0 0.279,0 0.279,0 0.279,0 0.279,0 0.279,0 0.279,0 0.279,0 0.279,0 0.279,0 0.279,0 0.279,0 0.279,0 0.279,0 0.279,0 0.279,0 0.279,0 0.279,0 0.279,0 0.279,0 0.279,0 0.279,0 0.279,0 0.279,0 0.279,0 0.279,0 0.279,0 0.279,0 0.279,0 0.279,0 0.279,0 0.279,0 0.279,0 0.27901,0 0.27899,0 0.279,0 0.279,0 0.279,0 0.279,0 0.279,0 0.279,0 0.279,0 0.279,0 0.279,0 0.279,0 0.279,0 0.279,0 0.279,0 0.279,0 0.279,0 0.279,0 0.279,0 0.279,0 0.279,0 0.279,0 0.279,0 0.279,0 0.279,0 0.279,0 0.279,0 0.279,0 0.279,0 0.279,0 0.279,0 0.279,0 0.279,0 0.279,0 0.279,0 0.279,0 0.279,0 0.279,0 0.279,0 0.279,0 0.279,0 0.279,0 0.279,0 0.279,0 0.279,0 0.279,0 0.279,0 0.279,0 0.279,0 0.279,0 0.279,0 0.279,0 0.279,0 0.279,0 0.279,0 0.279,0" /></g></g><g
       id="g86"><g
         clip-path="url(#clipPath90)"
         id="g88"><path
           id="path94"
           style="fill:none;stroke:#ff0000;stroke-width:1;stroke-linecap:square;stroke-linejoin:round;stroke-miterlimit:10;stroke-dasharray:none;stroke-opacity:1"
           d="m 290.99763,321.52013 4.185,-11.63776 4.185,-10.97063 4.185,-10.35353 4.185,-9.78186 4.464,-9.85038 4.464,-9.29248 4.464,-8.77594 4.464,-8.29699 4.464,-7.85226 4.743,-7.89062 4.743,-7.4579 4.743,-7.05628 0.279,-0.40318 0,0" /></g></g><g
       id="g96"><g
         clip-path="url(#clipPath100)"
         id="g98"><path
           id="path104"
           style="fill:none;stroke:#ff0000;stroke-width:1;stroke-linecap:square;stroke-linejoin:round;stroke-miterlimit:10;stroke-dasharray:none;stroke-opacity:1"
           d="m 344.83437,134.7282 0.279,-0.83457 0.279,-0.82528 0.279,-0.81611 0.279,-0.80708 0.279,-0.79819 0.279,-0.78942 0.279,-0.78078 0.279,-0.77227 0.279,-0.76388 0.279,-0.75561 0.279,-0.74746 0.279,-0.73944 0.279,-0.73151 0.279,-0.72371 0.279,-0.71601 0.279,-0.70843 0.279,-0.70095 0.279,-0.69357 0.279,-0.6863 0.279,-0.67914 0.279,-0.67206 0.279,-0.6651 0.279,-0.65821 0.279,-0.65143 0.279,-0.64475 0.279,-0.63814 0.279,-0.63164 0.279,-0.62522 0.279,-0.61889 0.279,-0.61264 0.279,-0.60647 0.279,-0.60039 0.279,-0.59439 0.279,-0.58847 0.279,-0.58263 0.279,-0.57687 0.279,-0.57117 0.279,-0.56556 0.279,-0.56001 0.279,-0.55455 0.279,-0.54915 0.279,-0.54382 0.279,-0.53856 0.279,-0.53337 0.279,-0.52824 0.279,-0.52318 0.279,-0.51819 0.279,-0.51325 0.279,-0.50839 0.279,-0.50357 0.279,-0.49883 0.279,-0.49413 0.279,-0.48951 0.279,-0.48494 0.279,-0.480417 0.279,-0.47596 0.279,-0.471555 0.279,-0.467204 0.279,-0.462908 0.279,-0.458662 0.279,-0.45447 0.279,-0.450327 0.279,-0.446236 0.279,-0.442194 0.279,-0.438199 0.279,-0.434254 0.279,-0.430356 0.279,-0.426503 0.279,-0.422698 0.279,-0.418936 0.279,-0.41522 0.279,-0.411547 0.279,-0.407917 0.279,-0.404331 0.279,-0.400785 0.279,-0.397282 0.279,-0.393819 0.279,-0.390396 0.279,-0.387013 0.27901,-0.383668 0.27899,-0.380363 0.279,-0.377094 0.279,-0.373864 0.279,-0.37067 0.279,-0.367512 0.279,-0.364391 0.279,-0.361304 0.279,-0.358252 0.279,-0.355234 0.279,-0.352251 0.279,-0.3493 0.279,-0.346383 0.279,-0.343497 0.279,-0.340644 0.279,-0.337823 0.279,-0.335032 0.279,-0.332272 0.279,-0.329542 0.279,-0.326842 0.279,-0.324172 0.279,-0.32153 0.279,-0.318918 0.279,-0.316333 0.279,-0.313775 0.279,-0.311247 0.279,-0.308745 0.279,-0.306269 0.279,-0.303819 0.279,-0.301397 0.279,-0.299 0.279,-0.296628 0.279,-0.29428 0.279,-0.291959 0.279,-0.28966 0.279,-0.287387 0.279,-0.285137 0.279,-0.28291 0.279,-0.280706 0.279,-0.278526 0.279,-0.276367 0.279,-0.274232 0.279,-0.272118 0.279,-0.270025" /></g></g><g
       id="g106"><g
         clip-path="url(#clipPath110)"
         id="g108"><path
           id="path114"
           style="fill:none;stroke:#ff0000;stroke-width:1;stroke-linecap:square;stroke-linejoin:round;stroke-miterlimit:10;stroke-dasharray:none;stroke-opacity:1"
           d="m 379.35343,59.363139 2.232,-2.910173 2.232,-2.575847 2.511,-2.559255 2.511,-2.255423 2.79,-2.205644 3.069,-2.11964 3.069,-1.851091 3.348,-1.763997 3.627,-1.660719 3.906,-1.547707 4.464,-1.518286 4.743,-1.375119 5.301,-1.303311 5.859,-1.21146 6.696,-1.152487 7.533,-1.066608 1.953,-0.243875 0,0" /></g></g><g
       id="g116"><g
         clip-path="url(#clipPath120)"
         id="g118"><path
           id="path124"
           style="fill:none;stroke:#ff0000;stroke-width:1;stroke-linecap:square;stroke-linejoin:round;stroke-miterlimit:10;stroke-dasharray:none;stroke-opacity:1"
           d="m 445.42926,24.299724 6.138,-0.418561 8.649,-0.342614 13.113,-0.271109 11.00511,-0.12382 0,0" /></g></g><g
       id="g126"><g
         clip-path="url(#clipPath130)"
         id="g128"><path
           id="path134"
           style="fill:none;stroke:#008000;stroke-width:1;stroke-linecap:square;stroke-linejoin:round;stroke-miterlimit:10;stroke-dasharray:none;stroke-opacity:1"
           d="m 37.934375,22.825 38.781,0 0,0" /></g></g><g
       id="g136"><g
         clip-path="url(#clipPath140)"
         id="g138"><path
           id="path144"
           style="fill:none;stroke:#008000;stroke-width:1;stroke-linecap:square;stroke-linejoin:round;stroke-miterlimit:10;stroke-dasharray:none;stroke-opacity:1"
           d="m 76.839494,24.299724 11.718,0.527194 8.928,0.617618 6.695996,0.67219 5.58,0.779553 4.464,0.84189 3.627,0.892408 3.069,0.959724 2.79,1.095065 2.511,1.229934 2.232,1.352835 1.953,1.447763 1.674,1.494752 1.674,1.79539 1.395,1.787224 1.395,2.122464 1.395,2.547105 1.395,3.093066 1.116,2.978313 1.116,3.550603 1.116,4.279486 0,0" /></g></g><g
       id="g146"><g
         clip-path="url(#clipPath150)"
         id="g148"><path
           id="path154"
           style="fill:none;stroke:#008000;stroke-width:1;stroke-linecap:square;stroke-linejoin:round;stroke-miterlimit:10;stroke-dasharray:none;stroke-opacity:1"
           d="m 142.91532,59.363139 0.279,0.25446 0.279,0.257128 0.279,0.259832 0.279,0.262575 0.279,0.265357 0.279,0.268178 0.279,0.27104 0.279,0.273941 0.279,0.276885 0.279,0.279871 0.279,0.282901 0.279,0.285973 0.279,0.289091 0.279,0.292254 0.279,0.295463 0.279,0.29872 0.279,0.302025 0.279,0.305378 0.279,0.308781 0.279,0.312236 0.279,0.315742 0.279,0.3193 0.279,0.322913 0.279,0.326579 0.279,0.330302 0.279,0.334081 0.279,0.337919 0.279,0.341815 0.279,0.345772 0.279,0.349789 0.279,0.35387 0.279,0.358014 0.279,0.362222 0.279,0.366498 0.279,0.37084 0.279,0.375252 0.279,0.379734 0.279,0.384287 0.279,0.388914 0.279,0.393615 0.279,0.398392 0.279,0.403247 0.279,0.408181 0.279,0.413196 0.279,0.418294 0.279,0.423474 0.279,0.428743 0.279,0.434097 0.279,0.439543 0.279,0.445078 0.279,0.450708 0.279,0.456433 0.279,0.462256 0.279,0.468177 0.279,0.4742 0.279,0.480328 0.279,0.48656 0.279,0.492902 0.279,0.499354 0.279,0.505919 0.279,0.512601 0.279,0.519399 0.279,0.526318 0.279,0.533362 0.279,0.540531 0.279,0.54783 0.279,0.55526 0.279,0.562826 0.279,0.570529 0.279,0.578374 0.279,0.586363 0.279,0.594501 0.279,0.602788 0.279,0.611232 0.279,0.619833 0.279,0.628597 0.279,0.637526 0.279,0.646626 0.279,0.6559 0.279,0.665352 0.279,0.674986 0.279,0.684807 0.279,0.694819 0.279,0.705029 0.279,0.715438 0.279,0.726054 0.279,0.736881 0.279,0.747924 0.279,0.759188 0.279,0.770681 0.279,0.782407 0.279,0.79437 0.279,0.80658 0.279,0.81904 0.279,0.83176 0.279,0.84475 0.279,0.858 0.279,0.87153 0.279,0.88536 0.279,0.89947 0.279,0.91388 0.279,0.92861 0.279,0.94366 0.279,0.95903 0.279,0.97473 0.279,0.99078 0.279,1.00719 0.279,1.02395 0.279,1.0411 0.279,1.05863 0.279,1.07655 0.279,1.09489 0.279,1.11364 0.279,1.13281 0.279,1.15244 0.279,1.17252 0.279,1.19306 0.279,1.2141 0.279,1.23563 0.279,1.25766 0.279,1.28024 0.279,1.30335 0.279,1.32701" /></g></g><g
       id="g156"><g
         clip-path="url(#clipPath160)"
         id="g158"><path
           id="path164"
           style="fill:none;stroke:#008000;stroke-width:1;stroke-linecap:square;stroke-linejoin:round;stroke-miterlimit:10;stroke-dasharray:none;stroke-opacity:1"
           d="m 177.43437,134.7282 3.348,5.60097 3.348,6.03226 3.348,6.50897 3.069,6.42928 3.069,6.91812 3.069,7.45781 3.069,8.05513 3.069,8.71797 2.79,8.56335 2.79,9.23672 2.79,9.98259 2.79,10.81099 2.79,11.73363 2.79,12.76434 2.79,13.9194 2.511,13.63332 2.511,14.80558 2.51101,16.11618 1.11599,7.62426 0,0" /></g></g><g
       id="g166"><g
         clip-path="url(#clipPath170)"
         id="g168"><path
           id="path174"
           style="fill:none;stroke:#008000;stroke-width:1;stroke-linecap:square;stroke-linejoin:round;stroke-miterlimit:10;stroke-dasharray:none;stroke-opacity:1"
           d="m 231.27112,321.52013 0.279,0.38604 0.279,0.38679 0.279,0.38754 0.279,0.3883 0.279,0.38905 0.279,0.38981 0.279,0.39056 0.279,0.39133 0.279,0.39209 0.279,0.39285 0.279,0.39362 0.279,0.39439 0.279,0.39516 0.279,0.39593 0.279,0.3967 0.279,0.39749 0.279,0.39826 0.279,0.39904 0.279,0.39982 0.279,0.40061 0.279,0.4014 0.279,0.40218 0.279,0.40298 0.279,0.40377 0.279,0.40456 0.279,0.40537 0.279,0.40616 0.279,0.40696 0.279,0.40776 0.279,0.40857 0.279,0.40938 0.279,0.41019 0.279,0.411 0.279,0.41182 0.279,0.41263 0.279,0.41345 0.279,0.41427 0.279,0.41509 0.279,0.41592 0.279,0.41674 0.279,0.41758 0.279,0.41841 0.279,0.41924 0.279,0.42007 0.279,0.42092 0.279,0.42175 0.279,0.4226 0.279,0.42344 0.279,0.42429 0.279,0.42514 0.279,0.42599 0.279,0.42684 0.279,0.4277 0.279,0.42856 0.279,0.42942 0.279,0.43029 0.279,0.43114 0.279,0.43202 0.279,0.43289 0.279,0.43376 0.279,0.43463 0.279,0.43551 0.279,0.43639 0.279,0.43728 0.279,0.43815 0.279,0.43905 0.279,0.43993 0.279,0.44082 0.279,0.44172 0.279,0.44262 0.279,0.44351 0.279,0.44441 0.279,0.44532 0.279,0.44623 0.279,0.44713 0.279,0.44804 0.279,0.44896 0.279,0.44987 0.279,0.45079 0.279,0.45171 0.279,0.45264 0.279,0.45356 0.279,0.45449 0.279,0.45542 0.279,0.45636 0.279,0.45729 0.279,0.45823 0.279,0.45917 0.279,0.46011 0.279,0.46106 0.279,0.46201 0.279,0.46297 0.279,0.46391 0.279,0.46488 0.279,0.46583 0.279,0.46679 0.279,0.46776 0.279,0.46873 0.279,0.4697 0.279,0.47067 0.279,0.47164 0.279,0.47262 0.279,0.47361 0.279,0.47459 0.279,0.47557 0.279,0.47656 0.279,0.47756" /></g></g><g
       id="g176"><g
         clip-path="url(#clipPath180)"
         id="g178"><path
           id="path184"
           style="fill:none;stroke:#008000;stroke-width:1;stroke-linecap:square;stroke-linejoin:round;stroke-miterlimit:10;stroke-dasharray:none;stroke-opacity:1"
           d="m 261.13437,367.51113 0.279,-0.47759 0.279,-0.4766 0.279,-0.47561 0.279,-0.47463 0.279,-0.47364 0.279,-0.47266 0.279,-0.47168 0.279,-0.4707 0.279,-0.46974 0.279,-0.46876 0.279,-0.46779 0.279,-0.46683 0.279,-0.46587 0.279,-0.46491 0.279,-0.46395 0.279,-0.463 0.279,-0.46204 0.279,-0.4611 0.279,-0.46015 0.279,-0.4592 0.279,-0.45827 0.279,-0.45732 0.279,-0.45639 0.279,-0.45546 0.279,-0.45452 0.279,-0.4536 0.279,-0.45267 0.279,-0.45174 0.279,-0.45083 0.279,-0.4499 0.279,-0.44899 0.279,-0.44808 0.279,-0.44717 0.279,-0.44625 0.279,-0.44536 0.279,-0.44444 0.279,-0.44355 0.279,-0.44265 0.279,-0.44175 0.279,-0.44085 0.279,-0.43997 0.279,-0.43908 0.279,-0.43819 0.279,-0.4373 0.279,-0.43643 0.279,-0.43554 0.279,-0.43466 0.279,-0.4338 0.279,-0.43292 0.279,-0.43204 0.279,-0.43118 0.27901,-0.43032 0.27899,-0.42945 0.279,-0.42859 0.279,-0.42773 0.279,-0.42688 0.279,-0.42602 0.279,-0.42517 0.279,-0.42432 0.279,-0.42348 0.279,-0.42262 0.279,-0.42179 0.279,-0.42094 0.279,-0.42011 0.279,-0.41927 0.279,-0.41844 0.279,-0.4176 0.279,-0.41678 0.279,-0.41595 0.279,-0.41512 0.279,-0.4143 0.279,-0.41348 0.279,-0.41266 0.279,-0.41185 0.279,-0.41103 0.279,-0.41021 0.279,-0.40941 0.279,-0.40861 0.279,-0.40779 0.279,-0.40699 0.279,-0.40619 0.279,-0.40539 0.279,-0.4046 0.279,-0.40379 0.279,-0.40301 0.279,-0.40221 0.279,-0.40143 0.279,-0.40064 0.279,-0.39985 0.279,-0.39907 0.279,-0.39829 0.279,-0.39751 0.279,-0.39674 0.279,-0.39596 0.279,-0.39518 0.279,-0.39442 0.279,-0.39365 0.279,-0.39288 0.279,-0.39212 0.279,-0.39135 0.279,-0.39059 0.279,-0.38984 0.279,-0.38908 0.279,-0.38832 0.279,-0.38757 0.279,-0.38682 0.279,-0.38607" /></g></g><g
       id="g186"><g
         clip-path="url(#clipPath190)"
         id="g188"><path
           id="path194"
           style="fill:none;stroke:#008000;stroke-width:1;stroke-linecap:square;stroke-linejoin:round;stroke-miterlimit:10;stroke-dasharray:none;stroke-opacity:1"
           d="m 290.99763,321.52013 2.511,-16.90563 2.511,-15.50996 2.79,-15.77758 2.79,-14.41574 2.79,-13.20623 2.79,-12.12836 2.79,-11.16466 2.79,-10.30042 2.79,-9.52313 3.069,-9.66845 3.069,-8.9089 3.069,-8.22688 3.069,-7.61274 3.069,-7.05824 3.348,-7.1291 3.348,-6.5917 3.348,-6.10698 3.348,-5.66865 0.279,-0.45392 0,0" /></g></g><g
       id="g196"><g
         clip-path="url(#clipPath200)"
         id="g198"><path
           id="path204"
           style="fill:none;stroke:#008000;stroke-width:1;stroke-linecap:square;stroke-linejoin:round;stroke-miterlimit:10;stroke-dasharray:none;stroke-opacity:1"
           d="m 344.83437,134.7282 0.279,-1.34452 0.279,-1.32043 0.279,-1.29692 0.279,-1.27396 0.279,-1.25153 0.279,-1.22964 0.279,-1.20825 0.279,-1.18735 0.279,-1.16693 0.279,-1.14699 0.279,-1.12748 0.279,-1.10842 0.279,-1.08979 0.279,-1.07157 0.279,-1.05375 0.279,-1.03634 0.279,-1.01929 0.279,-1.00263 0.279,-0.98632 0.279,-0.97037 0.279,-0.95475 0.279,-0.93947 0.279,-0.92452 0.279,-0.90988 0.279,-0.89555 0.279,-0.88151 0.279,-0.86778 0.279,-0.85431 0.279,-0.84114 0.279,-0.82823 0.279,-0.81558 0.279,-0.80318 0.279,-0.79105 0.279,-0.779152 0.279,-0.767488 0.279,-0.75606 0.279,-0.744856 0.279,-0.733874 0.279,-0.723105 0.279,-0.712547 0.279,-0.702193 0.279,-0.692039 0.279,-0.68208 0.279,-0.67231 0.279,-0.662727 0.279,-0.653324 0.279,-0.6441 0.279,-0.635047 0.279,-0.626163 0.279,-0.617445 0.279,-0.608888 0.279,-0.600487 0.279,-0.592242 0.279,-0.584145 0.279,-0.576196 0.279,-0.568391 0.279,-0.560725 0.279,-0.553198 0.279,-0.545804 0.279,-0.538541 0.279,-0.531407 0.279,-0.524398 0.279,-0.517512 0.279,-0.510746 0.279,-0.504097 0.279,-0.497564 0.279,-0.491142 0.279,-0.48483 0.279,-0.478628 0.279,-0.472529 0.279,-0.466533 0.279,-0.46064 0.279,-0.454845 0.279,-0.449146 0.279,-0.443542 0.279,-0.438032 0.279,-0.432612 0.279,-0.427281 0.279,-0.422037 0.27901,-0.416879 0.27899,-0.411805 0.279,-0.406813 0.279,-0.4019 0.279,-0.397067 0.279,-0.392311 0.279,-0.38763 0.279,-0.383024 0.279,-0.378491 0.279,-0.374028 0.279,-0.369636 0.279,-0.365312 0.279,-0.361055 0.279,-0.356865 0.279,-0.352738 0.279,-0.348675 0.279,-0.344674 0.279,-0.340735 0.279,-0.336855 0.279,-0.333033 0.279,-0.32927 0.279,-0.325562 0.279,-0.321911 0.279,-0.318314 0.279,-0.314769 0.279,-0.311278 0.279,-0.307838 0.279,-0.304449 0.279,-0.301108 0.279,-0.297817 0.279,-0.294574 0.279,-0.291377 0.279,-0.288226 0.279,-0.285122 0.279,-0.28206 0.279,-0.279044 0.279,-0.276069 0.279,-0.273137 0.279,-0.270246 0.279,-0.267396 0.279,-0.264586 0.279,-0.261815 0.279,-0.259082 0.279,-0.256388" /></g></g><g
       id="g206"><g
         clip-path="url(#clipPath210)"
         id="g208"><path
           id="path214"
           style="fill:none;stroke:#008000;stroke-width:1;stroke-linecap:square;stroke-linejoin:round;stroke-miterlimit:10;stroke-dasharray:none;stroke-opacity:1"
           d="m 379.35343,59.363139 1.116,-4.455427 1.116,-3.687533 1.395,-3.779434 1.395,-3.072175 1.395,-2.530976 1.395,-2.109815 1.674,-2.098834 1.674,-1.73087 1.953,-1.661423 1.953,-1.363715 2.232,-1.279201 2.511,-1.167417 2.79,-1.043234 3.348,-0.991227 3.627,-0.840001 4.464,-0.796478 5.301,-0.709475 6.417,-0.628696 8.091,-0.561157 10.602,-0.49654 1.395,-0.05148 0,0" /></g></g><g
       id="g216"><g
         clip-path="url(#clipPath220)"
         id="g218"><path
           id="path224"
           style="fill:none;stroke:#008000;stroke-width:1;stroke-linecap:square;stroke-linejoin:round;stroke-miterlimit:10;stroke-dasharray:none;stroke-opacity:1"
           d="m 445.42926,22.825 38.90511,0 0,0" /></g></g><g
       id="g226"><path
         id="path228"
         style="fill:none;stroke:#000000;stroke-width:1;stroke-linecap:square;stroke-linejoin:miter;stroke-miterlimit:10;stroke-dasharray:none;stroke-opacity:1"
         d="m 484.33437,22.825 0,345.6" /><path
         id="path230"
         style="fill:none;stroke:#000000;stroke-width:1;stroke-linecap:square;stroke-linejoin:miter;stroke-miterlimit:10;stroke-dasharray:none;stroke-opacity:1"
         d="m 37.934375,368.425 446.399995,0" /><path
         id="path232"
         style="fill:none;stroke:#000000;stroke-width:1;stroke-linecap:square;stroke-linejoin:miter;stroke-miterlimit:10;stroke-dasharray:none;stroke-opacity:1"
         d="m 37.934375,22.825 0,345.6" /><path
         id="path234"
         style="fill:none;stroke:#000000;stroke-width:1;stroke-linecap:square;stroke-linejoin:miter;stroke-miterlimit:10;stroke-dasharray:none;stroke-opacity:1"
         d="m 37.934375,22.825 446.399995,0" /><path
         id="path236"
         style="fill:#000000;fill-opacity:1;fill-rule:nonzero;stroke:#000000;stroke-width:0.5;stroke-linecap:butt;stroke-linejoin:round;stroke-miterlimit:10;stroke-dasharray:none;stroke-opacity:1"
         d="m 37.934375,22.825 0,4" /><path
         id="path238"
         style="fill:#000000;fill-opacity:1;fill-rule:nonzero;stroke:#000000;stroke-width:0.5;stroke-linecap:butt;stroke-linejoin:round;stroke-miterlimit:10;stroke-dasharray:none;stroke-opacity:1"
         d="m 37.934375,368.425 0,-4" /><g
         transform="translate(29.082812,9.7)"
         id="g240"><text
           id="text242"
           style="font-variant:normal;font-weight:normal;font-size:12px;font-family:'Bitstream Vera Sans';-inkscape-font-specification:BitstreamVeraSans-Roman;writing-mode:lr-tb;fill:#000000;fill-opacity:1;fill-rule:nonzero;stroke:none"
           transform="matrix(1,0,0,-1,10.054688,0)"><tspan
             id="tspan244"
             y="0"
             x="0">4</tspan></text>
<g
           transform="scale(0.012,0.012)"
           id="g246"><g
             id="g248"><g
               clip-path="url(#clipPath252)"
               id="g250"><path
                 id="path256"
                 style="fill:#000000;fill-opacity:1;fill-rule:nonzero;stroke:none"
                 d="m 106,355 626,0 0,-83 -626,0 0,83" /></g></g></g></g><path
         id="path258"
         style="fill:#000000;fill-opacity:1;fill-rule:nonzero;stroke:#000000;stroke-width:0.5;stroke-linecap:butt;stroke-linejoin:round;stroke-miterlimit:10;stroke-dasharray:none;stroke-opacity:1"
         d="m 93.734375,22.825 0,4" /><path
         id="path260"
         style="fill:#000000;fill-opacity:1;fill-rule:nonzero;stroke:#000000;stroke-width:0.5;stroke-linecap:butt;stroke-linejoin:round;stroke-miterlimit:10;stroke-dasharray:none;stroke-opacity:1"
         d="m 93.734375,368.425 0,-4" /><g
         transform="translate(84.882812,9.7)"
         id="g262"><text
           id="text264"
           style="font-variant:normal;font-weight:normal;font-size:12px;font-family:'Bitstream Vera Sans';-inkscape-font-specification:BitstreamVeraSans-Roman;writing-mode:lr-tb;fill:#000000;fill-opacity:1;fill-rule:nonzero;stroke:none"
           transform="matrix(1,0,0,-1,10.054688,0)"><tspan
             id="tspan266"
             y="0"
             x="0">3</tspan></text>
<g
           transform="scale(0.012,0.012)"
           id="g268"><g
             id="g270"><g
               clip-path="url(#clipPath274)"
               id="g272"><path
                 id="path278"
                 style="fill:#000000;fill-opacity:1;fill-rule:nonzero;stroke:none"
                 d="m 106,355 626,0 0,-83 -626,0 0,83" /></g></g></g></g><path
         id="path280"
         style="fill:#000000;fill-opacity:1;fill-rule:nonzero;stroke:#000000;stroke-width:0.5;stroke-linecap:butt;stroke-linejoin:round;stroke-miterlimit:10;stroke-dasharray:none;stroke-opacity:1"
         d="m 149.53437,22.825 0,4" /><path
         id="path282"
         style="fill:#000000;fill-opacity:1;fill-rule:nonzero;stroke:#000000;stroke-width:0.5;stroke-linecap:butt;stroke-linejoin:round;stroke-miterlimit:10;stroke-dasharray:none;stroke-opacity:1"
         d="m 149.53437,368.425 0,-4" /><g
         transform="translate(140.68281,9.7)"
         id="g284"><text
           id="text286"
           style="font-variant:normal;font-weight:normal;font-size:12px;font-family:'Bitstream Vera Sans';-inkscape-font-specification:BitstreamVeraSans-Roman;writing-mode:lr-tb;fill:#000000;fill-opacity:1;fill-rule:nonzero;stroke:none"
           transform="matrix(1,0,0,-1,10.054688,0)"><tspan
             id="tspan288"
             y="0"
             x="0">2</tspan></text>
<g
           transform="scale(0.012,0.012)"
           id="g290"><g
             id="g292"><g
               clip-path="url(#clipPath296)"
               id="g294"><path
                 id="path300"
                 style="fill:#000000;fill-opacity:1;fill-rule:nonzero;stroke:none"
                 d="m 106,355 626,0 0,-83 -626,0 0,83" /></g></g></g></g><path
         id="path302"
         style="fill:#000000;fill-opacity:1;fill-rule:nonzero;stroke:#000000;stroke-width:0.5;stroke-linecap:butt;stroke-linejoin:round;stroke-miterlimit:10;stroke-dasharray:none;stroke-opacity:1"
         d="m 205.33437,22.825 0,4" /><path
         id="path304"
         style="fill:#000000;fill-opacity:1;fill-rule:nonzero;stroke:#000000;stroke-width:0.5;stroke-linecap:butt;stroke-linejoin:round;stroke-miterlimit:10;stroke-dasharray:none;stroke-opacity:1"
         d="m 205.33437,368.425 0,-4" /><g
         transform="translate(196.48281,9.7)"
         id="g306"><text
           id="text308"
           style="font-variant:normal;font-weight:normal;font-size:12px;font-family:'Bitstream Vera Sans';-inkscape-font-specification:BitstreamVeraSans-Roman;writing-mode:lr-tb;fill:#000000;fill-opacity:1;fill-rule:nonzero;stroke:none"
           transform="matrix(1,0,0,-1,10.054688,0)"><tspan
             id="tspan310"
             y="0"
             x="0">1</tspan></text>
<g
           transform="scale(0.012,0.012)"
           id="g312"><g
             id="g314"><g
               clip-path="url(#clipPath318)"
               id="g316"><path
                 id="path322"
                 style="fill:#000000;fill-opacity:1;fill-rule:nonzero;stroke:none"
                 d="m 106,355 626,0 0,-83 -626,0 0,83" /></g></g></g></g><path
         id="path324"
         style="fill:#000000;fill-opacity:1;fill-rule:nonzero;stroke:#000000;stroke-width:0.5;stroke-linecap:butt;stroke-linejoin:round;stroke-miterlimit:10;stroke-dasharray:none;stroke-opacity:1"
         d="m 261.13437,22.825 0,4" /><path
         id="path326"
         style="fill:#000000;fill-opacity:1;fill-rule:nonzero;stroke:#000000;stroke-width:0.5;stroke-linecap:butt;stroke-linejoin:round;stroke-miterlimit:10;stroke-dasharray:none;stroke-opacity:1"
         d="m 261.13437,368.425 0,-4" /><text
         id="text328"
         style="font-variant:normal;font-weight:normal;font-size:12px;font-family:'Bitstream Vera Sans';-inkscape-font-specification:BitstreamVeraSans-Roman;writing-mode:lr-tb;fill:#000000;fill-opacity:1;fill-rule:nonzero;stroke:none"
         transform="matrix(1,0,0,-1,257.31406,9.7)"><tspan
           id="tspan330"
           y="0"
           x="0">0</tspan></text>
<path
         id="path332"
         style="fill:#000000;fill-opacity:1;fill-rule:nonzero;stroke:#000000;stroke-width:0.5;stroke-linecap:butt;stroke-linejoin:round;stroke-miterlimit:10;stroke-dasharray:none;stroke-opacity:1"
         d="m 316.93437,22.825 0,4" /><path
         id="path334"
         style="fill:#000000;fill-opacity:1;fill-rule:nonzero;stroke:#000000;stroke-width:0.5;stroke-linecap:butt;stroke-linejoin:round;stroke-miterlimit:10;stroke-dasharray:none;stroke-opacity:1"
         d="m 316.93437,368.425 0,-4" /><text
         id="text336"
         style="font-variant:normal;font-weight:normal;font-size:12px;font-family:'Bitstream Vera Sans';-inkscape-font-specification:BitstreamVeraSans-Roman;writing-mode:lr-tb;fill:#000000;fill-opacity:1;fill-rule:nonzero;stroke:none"
         transform="matrix(1,0,0,-1,313.11406,9.7)"><tspan
           id="tspan338"
           y="0"
           x="0">1</tspan></text>
<path
         id="path340"
         style="fill:#000000;fill-opacity:1;fill-rule:nonzero;stroke:#000000;stroke-width:0.5;stroke-linecap:butt;stroke-linejoin:round;stroke-miterlimit:10;stroke-dasharray:none;stroke-opacity:1"
         d="m 372.73437,22.825 0,4" /><path
         id="path342"
         style="fill:#000000;fill-opacity:1;fill-rule:nonzero;stroke:#000000;stroke-width:0.5;stroke-linecap:butt;stroke-linejoin:round;stroke-miterlimit:10;stroke-dasharray:none;stroke-opacity:1"
         d="m 372.73437,368.425 0,-4" /><text
         id="text344"
         style="font-variant:normal;font-weight:normal;font-size:12px;font-family:'Bitstream Vera Sans';-inkscape-font-specification:BitstreamVeraSans-Roman;writing-mode:lr-tb;fill:#000000;fill-opacity:1;fill-rule:nonzero;stroke:none"
         transform="matrix(1,0,0,-1,368.91406,9.7)"><tspan
           id="tspan346"
           y="0"
           x="0">2</tspan></text>
<path
         id="path348"
         style="fill:#000000;fill-opacity:1;fill-rule:nonzero;stroke:#000000;stroke-width:0.5;stroke-linecap:butt;stroke-linejoin:round;stroke-miterlimit:10;stroke-dasharray:none;stroke-opacity:1"
         d="m 428.53437,22.825 0,4" /><path
         id="path350"
         style="fill:#000000;fill-opacity:1;fill-rule:nonzero;stroke:#000000;stroke-width:0.5;stroke-linecap:butt;stroke-linejoin:round;stroke-miterlimit:10;stroke-dasharray:none;stroke-opacity:1"
         d="m 428.53437,368.425 0,-4" /><text
         id="text352"
         style="font-variant:normal;font-weight:normal;font-size:12px;font-family:'Bitstream Vera Sans';-inkscape-font-specification:BitstreamVeraSans-Roman;writing-mode:lr-tb;fill:#000000;fill-opacity:1;fill-rule:nonzero;stroke:none"
         transform="matrix(1,0,0,-1,424.71406,9.7)"><tspan
           id="tspan354"
           y="0"
           x="0">3</tspan></text>
<path
         id="path356"
         style="fill:#000000;fill-opacity:1;fill-rule:nonzero;stroke:#000000;stroke-width:0.5;stroke-linecap:butt;stroke-linejoin:round;stroke-miterlimit:10;stroke-dasharray:none;stroke-opacity:1"
         d="m 484.33437,22.825 0,4" /><path
         id="path358"
         style="fill:#000000;fill-opacity:1;fill-rule:nonzero;stroke:#000000;stroke-width:0.5;stroke-linecap:butt;stroke-linejoin:round;stroke-miterlimit:10;stroke-dasharray:none;stroke-opacity:1"
         d="m 484.33437,368.425 0,-4" /><text
         id="text360"
         style="font-variant:normal;font-weight:normal;font-size:12px;font-family:'Bitstream Vera Sans';-inkscape-font-specification:BitstreamVeraSans-Roman;writing-mode:lr-tb;fill:#000000;fill-opacity:1;fill-rule:nonzero;stroke:none"
         transform="matrix(1,0,0,-1,480.51406,9.7)"><tspan
           id="tspan362"
           y="0"
           x="0">4</tspan></text>
<path
         id="path364"
         style="fill:#000000;fill-opacity:1;fill-rule:nonzero;stroke:#000000;stroke-width:0.5;stroke-linecap:butt;stroke-linejoin:round;stroke-miterlimit:10;stroke-dasharray:none;stroke-opacity:1"
         d="m 37.934375,22.825 4,0" /><path
         id="path366"
         style="fill:#000000;fill-opacity:1;fill-rule:nonzero;stroke:#000000;stroke-width:0.5;stroke-linecap:butt;stroke-linejoin:round;stroke-miterlimit:10;stroke-dasharray:none;stroke-opacity:1"
         d="m 484.33437,22.825 -4,0" /><text
         id="text368"
         style="font-variant:normal;font-weight:normal;font-size:12px;font-family:'Bitstream Vera Sans';-inkscape-font-specification:BitstreamVeraSans-Roman;writing-mode:lr-tb;fill:#000000;fill-opacity:1;fill-rule:nonzero;stroke:none"
         transform="matrix(1,0,0,-1,7.2,19.5125)"><tspan
           id="tspan370"
           y="0"
           x="0 7.632 11.448 19.08">0.00</tspan></text>
<path
         id="path372"
         style="fill:#000000;fill-opacity:1;fill-rule:nonzero;stroke:#000000;stroke-width:0.5;stroke-linecap:butt;stroke-linejoin:round;stroke-miterlimit:10;stroke-dasharray:none;stroke-opacity:1"
         d="m 37.934375,66.025 4,0" /><path
         id="path374"
         style="fill:#000000;fill-opacity:1;fill-rule:nonzero;stroke:#000000;stroke-width:0.5;stroke-linecap:butt;stroke-linejoin:round;stroke-miterlimit:10;stroke-dasharray:none;stroke-opacity:1"
         d="m 484.33437,66.025 -4,0" /><text
         id="text376"
         style="font-variant:normal;font-weight:normal;font-size:12px;font-family:'Bitstream Vera Sans';-inkscape-font-specification:BitstreamVeraSans-Roman;writing-mode:lr-tb;fill:#000000;fill-opacity:1;fill-rule:nonzero;stroke:none"
         transform="matrix(1,0,0,-1,7.2,62.7125)"><tspan
           id="tspan378"
           y="0"
           x="0 7.632 11.448 19.08">0.05</tspan></text>
<path
         id="path380"
         style="fill:#000000;fill-opacity:1;fill-rule:nonzero;stroke:#000000;stroke-width:0.5;stroke-linecap:butt;stroke-linejoin:round;stroke-miterlimit:10;stroke-dasharray:none;stroke-opacity:1"
         d="m 37.934375,109.225 4,0" /><path
         id="path382"
         style="fill:#000000;fill-opacity:1;fill-rule:nonzero;stroke:#000000;stroke-width:0.5;stroke-linecap:butt;stroke-linejoin:round;stroke-miterlimit:10;stroke-dasharray:none;stroke-opacity:1"
         d="m 484.33437,109.225 -4,0" /><text
         id="text384"
         style="font-variant:normal;font-weight:normal;font-size:12px;font-family:'Bitstream Vera Sans';-inkscape-font-specification:BitstreamVeraSans-Roman;writing-mode:lr-tb;fill:#000000;fill-opacity:1;fill-rule:nonzero;stroke:none"
         transform="matrix(1,0,0,-1,7.2,105.9125)"><tspan
           id="tspan386"
           y="0"
           x="0 7.632 11.448 19.08">0.10</tspan></text>
<path
         id="path388"
         style="fill:#000000;fill-opacity:1;fill-rule:nonzero;stroke:#000000;stroke-width:0.5;stroke-linecap:butt;stroke-linejoin:round;stroke-miterlimit:10;stroke-dasharray:none;stroke-opacity:1"
         d="m 37.934375,152.425 4,0" /><path
         id="path390"
         style="fill:#000000;fill-opacity:1;fill-rule:nonzero;stroke:#000000;stroke-width:0.5;stroke-linecap:butt;stroke-linejoin:round;stroke-miterlimit:10;stroke-dasharray:none;stroke-opacity:1"
         d="m 484.33437,152.425 -4,0" /><text
         id="text392"
         style="font-variant:normal;font-weight:normal;font-size:12px;font-family:'Bitstream Vera Sans';-inkscape-font-specification:BitstreamVeraSans-Roman;writing-mode:lr-tb;fill:#000000;fill-opacity:1;fill-rule:nonzero;stroke:none"
         transform="matrix(1,0,0,-1,7.2,149.1125)"><tspan
           id="tspan394"
           y="0"
           x="0 7.632 11.448 19.08">0.15</tspan></text>
<path
         id="path396"
         style="fill:#000000;fill-opacity:1;fill-rule:nonzero;stroke:#000000;stroke-width:0.5;stroke-linecap:butt;stroke-linejoin:round;stroke-miterlimit:10;stroke-dasharray:none;stroke-opacity:1"
         d="m 37.934375,195.625 4,0" /><path
         id="path398"
         style="fill:#000000;fill-opacity:1;fill-rule:nonzero;stroke:#000000;stroke-width:0.5;stroke-linecap:butt;stroke-linejoin:round;stroke-miterlimit:10;stroke-dasharray:none;stroke-opacity:1"
         d="m 484.33437,195.625 -4,0" /><text
         id="text400"
         style="font-variant:normal;font-weight:normal;font-size:12px;font-family:'Bitstream Vera Sans';-inkscape-font-specification:BitstreamVeraSans-Roman;writing-mode:lr-tb;fill:#000000;fill-opacity:1;fill-rule:nonzero;stroke:none"
         transform="matrix(1,0,0,-1,7.2,192.3125)"><tspan
           id="tspan402"
           y="0"
           x="0 7.632 11.448 19.08">0.20</tspan></text>
<path
         id="path404"
         style="fill:#000000;fill-opacity:1;fill-rule:nonzero;stroke:#000000;stroke-width:0.5;stroke-linecap:butt;stroke-linejoin:round;stroke-miterlimit:10;stroke-dasharray:none;stroke-opacity:1"
         d="m 37.934375,238.825 4,0" /><path
         id="path406"
         style="fill:#000000;fill-opacity:1;fill-rule:nonzero;stroke:#000000;stroke-width:0.5;stroke-linecap:butt;stroke-linejoin:round;stroke-miterlimit:10;stroke-dasharray:none;stroke-opacity:1"
         d="m 484.33437,238.825 -4,0" /><text
         id="text408"
         style="font-variant:normal;font-weight:normal;font-size:12px;font-family:'Bitstream Vera Sans';-inkscape-font-specification:BitstreamVeraSans-Roman;writing-mode:lr-tb;fill:#000000;fill-opacity:1;fill-rule:nonzero;stroke:none"
         transform="matrix(1,0,0,-1,7.2,235.5125)"><tspan
           id="tspan410"
           y="0"
           x="0 7.632 11.448 19.08">0.25</tspan></text>
<path
         id="path412"
         style="fill:#000000;fill-opacity:1;fill-rule:nonzero;stroke:#000000;stroke-width:0.5;stroke-linecap:butt;stroke-linejoin:round;stroke-miterlimit:10;stroke-dasharray:none;stroke-opacity:1"
         d="m 37.934375,282.025 4,0" /><path
         id="path414"
         style="fill:#000000;fill-opacity:1;fill-rule:nonzero;stroke:#000000;stroke-width:0.5;stroke-linecap:butt;stroke-linejoin:round;stroke-miterlimit:10;stroke-dasharray:none;stroke-opacity:1"
         d="m 484.33437,282.025 -4,0" /><text
         id="text416"
         style="font-variant:normal;font-weight:normal;font-size:12px;font-family:'Bitstream Vera Sans';-inkscape-font-specification:BitstreamVeraSans-Roman;writing-mode:lr-tb;fill:#000000;fill-opacity:1;fill-rule:nonzero;stroke:none"
         transform="matrix(1,0,0,-1,7.2,278.7125)"><tspan
           id="tspan418"
           y="0"
           x="0 7.632 11.448 19.08">0.30</tspan></text>
<path
         id="path420"
         style="fill:#000000;fill-opacity:1;fill-rule:nonzero;stroke:#000000;stroke-width:0.5;stroke-linecap:butt;stroke-linejoin:round;stroke-miterlimit:10;stroke-dasharray:none;stroke-opacity:1"
         d="m 37.934375,325.225 4,0" /><path
         id="path422"
         style="fill:#000000;fill-opacity:1;fill-rule:nonzero;stroke:#000000;stroke-width:0.5;stroke-linecap:butt;stroke-linejoin:round;stroke-miterlimit:10;stroke-dasharray:none;stroke-opacity:1"
         d="m 484.33437,325.225 -4,0" /><text
         id="text424"
         style="font-variant:normal;font-weight:normal;font-size:12px;font-family:'Bitstream Vera Sans';-inkscape-font-specification:BitstreamVeraSans-Roman;writing-mode:lr-tb;fill:#000000;fill-opacity:1;fill-rule:nonzero;stroke:none"
         transform="matrix(1,0,0,-1,7.2,321.9125)"><tspan
           id="tspan426"
           y="0"
           x="0 7.632 11.448 19.08">0.35</tspan></text>
<path
         id="path428"
         style="fill:#000000;fill-opacity:1;fill-rule:nonzero;stroke:#000000;stroke-width:0.5;stroke-linecap:butt;stroke-linejoin:round;stroke-miterlimit:10;stroke-dasharray:none;stroke-opacity:1"
         d="m 37.934375,368.425 4,0" /><path
         id="path430"
         style="fill:#000000;fill-opacity:1;fill-rule:nonzero;stroke:#000000;stroke-width:0.5;stroke-linecap:butt;stroke-linejoin:round;stroke-miterlimit:10;stroke-dasharray:none;stroke-opacity:1"
         d="m 484.33437,368.425 -4,0" /><text
         id="text432"
         style="font-variant:normal;font-weight:normal;font-size:12px;font-family:'Bitstream Vera Sans';-inkscape-font-specification:BitstreamVeraSans-Roman;writing-mode:lr-tb;fill:#000000;fill-opacity:1;fill-rule:nonzero;stroke:none"
         transform="matrix(1,0,0,-1,7.2,365.1125)"><tspan
           id="tspan434"
           y="0"
           x="0 7.632 11.448 19.08">0.40</tspan></text>
</g></g></svg>